<svg width="38" height="38" viewBox="0 0 38 38" fill="none" xmlns="http://www.w3.org/2000/svg">
<path d="M19 12.6665V20.5832H26.9167V17.4165H22.1667V12.6665H19Z" fill="#BA963A"/>
<path d="M33.7123 13.4535C32.9981 11.7594 31.9613 10.2203 30.6597 8.922C28.6893 6.95164 26.1847 5.60191 23.4555 5.03966C21.5612 4.6541 19.6086 4.6541 17.7143 5.03966C14.9826 5.59832 12.4758 6.94916 10.507 8.92358C9.2085 10.2233 8.17211 11.7607 7.45434 13.4519C6.71193 15.2072 6.33068 17.0941 6.33334 18.9999L6.33492 19.0395H3.16667L7.91667 25.3332L12.6667 19.0395H9.50159L9.50001 18.9999C9.49545 16.7918 10.1547 14.6332 11.3921 12.8043C12.1903 11.6242 13.2065 10.6075 14.3862 9.80866C15.5862 9.00022 16.9324 8.43337 18.3493 8.13983C21.2286 7.54782 24.2252 8.12341 26.6803 9.74006C29.1354 11.3567 30.8481 13.8821 31.4418 16.7611C31.7405 18.2366 31.7405 19.7569 31.4418 21.2324C31.1522 22.6505 30.585 23.9973 29.773 25.1955C29.3772 25.7829 28.9228 26.3355 28.4208 26.8358C27.4094 27.8461 26.2134 28.6528 24.8979 29.2124C24.2279 29.4956 23.5315 29.712 22.819 29.8584C21.344 30.1569 19.8242 30.1569 18.3493 29.8584C16.9326 29.568 15.5871 29.0015 14.3893 28.1912C13.8003 27.7931 13.2505 27.3398 12.7474 26.8374L10.5086 29.0762C11.8309 30.4003 13.4014 31.4506 15.1302 32.1667C16.859 32.8829 18.7121 33.251 20.5833 33.2499C22.4882 33.2491 24.3737 32.8686 26.1298 32.1305C28.6752 31.0536 30.8529 29.2603 32.3982 26.9688C33.9886 24.6158 34.8368 21.84 34.8333 18.9999C34.8373 17.0944 34.456 15.2079 33.7123 13.4535Z" fill="#BA963A"/>
</svg>
