<svg width="38" height="38" viewBox="0 0 38 38" fill="none" xmlns="http://www.w3.org/2000/svg">
<path d="M19 3.1665C10.2695 3.1665 3.16667 10.2693 3.16667 18.9998V25.5596C3.16667 27.1809 4.58692 28.4998 6.33334 28.4998H7.91667C8.3366 28.4998 8.73933 28.333 9.03626 28.0361C9.33319 27.7392 9.50001 27.3364 9.50001 26.9165V18.7734C9.50001 18.3535 9.33319 17.9508 9.03626 17.6538C8.73933 17.3569 8.3366 17.1901 7.91667 17.1901H6.47901C7.35934 11.0626 12.6318 6.33317 19 6.33317C25.3682 6.33317 30.6407 11.0626 31.521 17.1901H30.0833C29.6634 17.1901 29.2607 17.3569 28.9638 17.6538C28.6668 17.9508 28.5 18.3535 28.5 18.7734V28.4998C28.5 30.2463 27.0798 31.6665 25.3333 31.6665H22.1667V30.0832H15.8333V34.8332H25.3333C28.8262 34.8332 31.6667 31.9927 31.6667 28.4998C33.4131 28.4998 34.8333 27.1809 34.8333 25.5596V18.9998C34.8333 10.2693 27.7305 3.1665 19 3.1665Z" fill="#BA963A"/>
</svg>
