<svg width="48" height="48" viewBox="0 0 48 48" fill="none" xmlns="http://www.w3.org/2000/svg">
<path fill-rule="evenodd" clip-rule="evenodd" d="M43.7906 10.455L41.4506 9.90303L35.1266 16.191L31.5446 12.543L37.7126 6.07203L37.1726 3.69603C35.8692 3.25998 34.5059 3.02923 33.1316 3.01203C31.6324 2.98898 30.1445 3.27492 28.7606 3.85203C27.4244 4.45686 26.2166 5.31231 25.2026 6.37203C24.0738 7.44127 23.1799 8.73366 22.5776 10.167C21.4179 13.0197 21.4179 16.2124 22.5776 19.065C16.3233 25.218 10.1498 31.4525 4.05859 37.767C3.42859 38.592 3.12859 39.621 3.20659 40.656C3.26806 41.7692 3.76869 42.8126 4.59859 43.557C4.97059 43.962 5.41459 44.298 5.90959 44.541C6.41959 44.766 6.96859 44.895 7.52359 44.922C8.47159 44.904 9.38059 44.544 10.0856 43.911C14.7296 39.54 23.6276 30.561 28.6826 25.299C30.0536 25.881 31.5266 26.181 33.0146 26.178C34.5124 26.1769 35.9948 25.8755 37.3742 25.2917C38.7536 24.7078 40.002 23.8535 41.0456 22.779C43.1892 20.5928 44.3865 17.6509 44.3786 14.589C44.4133 13.188 44.2145 11.7909 43.7906 10.455ZM8.27059 41.784C8.15512 41.8866 8.01593 41.9587 7.86559 41.994C7.71769 42.0196 7.56649 42.0196 7.41859 41.994C7.26352 41.9704 7.11582 41.9119 6.98659 41.823C6.84792 41.7419 6.73066 41.6287 6.64459 41.493C6.22459 41.064 5.83159 40.248 6.22459 39.789C10.3346 35.418 18.7976 26.874 24.0896 21.651C24.3896 22.047 24.7196 22.425 25.0736 22.779C25.4276 23.148 25.8086 23.49 26.2136 23.802C21.0956 29.052 12.7496 37.494 8.27359 41.784H8.27059ZM41.6246 14.589C41.6306 16.884 40.7366 19.089 39.1286 20.733C37.524 22.3071 35.3659 23.1889 33.1181 23.1889C30.8703 23.1889 28.7122 22.3071 27.1076 20.733C25.9315 19.5057 25.1282 17.9697 24.7909 16.3037C24.4537 14.6376 24.5964 12.9101 25.2026 11.322C25.6061 10.2412 26.2319 9.25715 27.0396 8.43342C27.8473 7.60969 28.8189 6.96466 29.8916 6.54003C30.9101 6.11376 32.0035 5.89548 33.1076 5.89803H33.8696L28.4186 11.517V13.605L34.1036 19.263H36.0836L41.6246 13.815V14.589ZM9.19159 20.064H13.7846L15.8996 22.215L17.9336 20.193L15.9386 18.159V18.03L16.1096 13.083L15.4496 11.772L6.86959 6.12603L5.09659 6.32403L2.60359 8.87103L2.40559 10.668L7.91959 19.422L9.19159 20.067V20.064ZM6.35659 9.16803L13.2986 13.74L13.1816 17.109H9.95359L5.47759 10.023L6.35659 9.16803ZM27.6716 30.048L29.6936 28.029L39.0116 37.584C39.7964 38.4089 40.2342 39.5039 40.2342 40.6425C40.2342 41.7811 39.7964 42.8762 39.0116 43.701C38.4214 44.3069 37.6625 44.7211 36.8337 44.8896C36.0049 45.0582 35.1445 44.9733 34.3646 44.646C33.8668 44.4253 33.4204 44.1035 33.0536 43.701L23.6276 34.092L25.6646 32.058L35.0606 41.64C35.1869 41.7794 35.3441 41.8873 35.5196 41.955C35.8649 42.0953 36.2513 42.0953 36.5966 41.955C36.772 41.8872 36.9292 41.7793 37.0556 41.64C37.1869 41.5099 37.2891 41.3535 37.3556 41.181C37.4244 41.005 37.461 40.818 37.4636 40.629C37.4606 40.4404 37.4251 40.2536 37.3586 40.077C37.2921 39.9046 37.1899 39.7481 37.0586 39.618L27.6716 30.048Z" fill="#C59A2B"/>
</svg>
