<svg width="40" height="27" viewBox="0 0 40 27" fill="none" xmlns="http://www.w3.org/2000/svg">
<g clip-path="url(#clip0_2_1952)">
<path d="M16 18.6667H24V16.6667H21.3333V7.33333H18.9583L15.875 10.1875L17.4792 11.8542C18.0625 11.3403 18.4444 10.9444 18.625 10.6667H18.6667V16.6667H16V18.6667ZM26.6667 13.3333C26.6667 14.3056 26.5208 15.2917 26.2292 16.2917C25.9375 17.2917 25.5243 18.2222 24.9896 19.0833C24.4549 19.9444 23.75 20.6458 22.875 21.1875C22 21.7292 21.0417 22 20 22C18.9583 22 18 21.7292 17.125 21.1875C16.25 20.6458 15.5451 19.9444 15.0104 19.0833C14.4757 18.2222 14.0625 17.2917 13.7708 16.2917C13.4792 15.2917 13.3333 14.3056 13.3333 13.3333C13.3333 12.3611 13.4792 11.375 13.7708 10.375C14.0625 9.375 14.4757 8.44444 15.0104 7.58333C15.5451 6.72222 16.25 6.02083 17.125 5.47917C18 4.9375 18.9583 4.66667 20 4.66667C21.0417 4.66667 22 4.9375 22.875 5.47917C23.75 6.02083 24.4549 6.72222 24.9896 7.58333C25.5243 8.44444 25.9375 9.375 26.2292 10.375C26.5208 11.375 26.6667 12.3611 26.6667 13.3333ZM37.3333 18.6667V8C35.8611 8 34.6042 7.47917 33.5625 6.4375C32.5208 5.39583 32 4.13889 32 2.66667H8C8 4.13889 7.47917 5.39583 6.4375 6.4375C5.39583 7.47917 4.13889 8 2.66667 8V18.6667C4.13889 18.6667 5.39583 19.1875 6.4375 20.2292C7.47917 21.2708 8 22.5278 8 24H32C32 22.5278 32.5208 21.2708 33.5625 20.2292C34.6042 19.1875 35.8611 18.6667 37.3333 18.6667ZM40 1.33333V25.3333C40 25.6944 39.8681 26.0069 39.6042 26.2708C39.3403 26.5347 39.0278 26.6667 38.6667 26.6667H1.33333C0.972222 26.6667 0.659722 26.5347 0.395833 26.2708C0.131944 26.0069 0 25.6944 0 25.3333V1.33333C0 0.972222 0.131944 0.659722 0.395833 0.395833C0.659722 0.131944 0.972222 0 1.33333 0H38.6667C39.0278 0 39.3403 0.131944 39.6042 0.395833C39.8681 0.659722 40 0.972222 40 1.33333Z" fill="#BA963A"/>
</g>
<defs>
<clipPath id="clip0_2_1952">
<rect width="40" height="26.6667" fill="white"/>
</clipPath>
</defs>
</svg>
