<svg width="49" height="48" viewBox="0 0 49 48" fill="none" xmlns="http://www.w3.org/2000/svg">
<path d="M39.4716 29.25C39.4716 28.0566 38.9975 26.912 38.1536 26.0681C37.3097 25.2241 36.1651 24.75 34.9716 24.75H13.9716C12.7781 24.75 11.6335 25.2241 10.7896 26.0681C9.94569 26.912 9.47159 28.0566 9.47159 29.25V30.75C9.47159 36.663 15.0516 42.75 24.4716 42.75C33.8916 42.75 39.4716 36.663 39.4716 30.75V29.25ZM12.4716 29.25C12.4716 28.8522 12.6296 28.4707 12.9109 28.1894C13.1922 27.9081 13.5738 27.75 13.9716 27.75H34.9716C35.3694 27.75 35.7509 27.9081 36.0322 28.1894C36.3136 28.4707 36.4716 28.8522 36.4716 29.25V30.75C36.4716 35.064 32.1756 39.75 24.4716 39.75C16.7676 39.75 12.4716 35.064 12.4716 30.75V29.25ZM32.7216 13.5C32.7217 11.7215 32.147 9.9905 31.0833 8.56513C30.0195 7.13976 28.5236 6.09633 26.8185 5.59038C25.1134 5.08442 23.2905 5.14303 21.6215 5.75747C19.9524 6.37191 18.5266 7.50928 17.5566 9.00004H12.4716C12.0738 9.00004 11.6922 9.15807 11.4109 9.43938C11.1296 9.72068 10.9716 10.1022 10.9716 10.5V16.5C10.9716 16.548 10.9716 16.593 10.9776 16.638H10.9716V19.5C10.9716 20.6935 11.4457 21.8381 12.2896 22.682C13.1335 23.5259 14.2781 24 15.4716 24H16.6326C16.9418 23.9998 17.2459 23.9217 17.5169 23.7728C17.7878 23.624 18.0169 23.4092 18.1829 23.1484C18.3489 22.8875 18.4464 22.5891 18.4665 22.2805C18.4866 21.972 18.4286 21.6634 18.2978 21.3833C18.1671 21.1031 17.9678 20.8604 17.7184 20.6777C17.469 20.4949 17.1776 20.378 16.8711 20.3377C16.5645 20.2974 16.2528 20.3351 15.9647 20.4472C15.6765 20.5593 15.4213 20.7422 15.2226 20.979C14.8729 20.9202 14.5553 20.7393 14.3263 20.4686C14.0973 20.1978 13.9716 19.8547 13.9716 19.5V18H14.7216C15.6126 18 16.4436 17.739 17.1426 17.292C17.9917 18.9349 19.3682 20.2449 21.0511 21.0117C22.7341 21.7784 24.6258 21.9575 26.4227 21.5201C28.2196 21.0827 29.8174 20.0543 30.9597 18.5999C32.102 17.1454 32.7225 15.3494 32.7216 13.5ZM19.2216 13.5C19.2216 12.1077 19.7747 10.7723 20.7593 9.78773C21.7438 8.80316 23.0792 8.25004 24.4716 8.25004C25.864 8.25004 27.1993 8.80316 28.1839 9.78773C29.1685 10.7723 29.7216 12.1077 29.7216 13.5C29.7216 14.8924 29.1685 16.2278 28.1839 17.2123C27.1993 18.1969 25.864 18.75 24.4716 18.75C23.0792 18.75 21.7438 18.1969 20.7593 17.2123C19.7747 16.2278 19.2216 14.8924 19.2216 13.5ZM16.2216 13.5C16.2216 13.8979 16.0636 14.2794 15.7822 14.5607C15.5009 14.842 15.1194 15 14.7216 15H13.9716V12H16.2216V13.5Z" fill="#C59A2B"/>
</svg>
