<svg width="49" height="48" viewBox="0 0 49 48" fill="none" xmlns="http://www.w3.org/2000/svg">
<path d="M27.4716 8.00002C30.1363 8.00008 32.7637 8.62655 35.1417 9.82888C37.5198 11.0312 39.5819 12.7757 41.1616 14.9217C42.7414 17.0676 43.7946 19.5549 44.2362 22.1828C44.6778 24.8106 44.4954 27.5055 43.7039 30.0499C42.9123 32.5944 41.5337 34.9171 39.6793 36.8307C37.8248 38.7443 35.5465 40.1951 33.0282 41.0662C30.5099 41.9372 27.822 42.204 25.1816 41.8451C22.5411 41.4862 20.0221 40.5116 17.8276 39H3.97559C3.59554 38.9999 3.2297 38.8555 2.952 38.5961C2.6743 38.3366 2.50544 37.9814 2.47953 37.6023C2.45363 37.2231 2.57262 36.8482 2.81245 36.5534C3.05229 36.2586 3.39509 36.0658 3.77159 36.014L3.97559 36L14.5116 36.002C13.7253 35.0777 13.0401 34.072 12.4676 33.002L7.96559 33C7.58554 32.9999 7.2197 32.8555 6.942 32.5961C6.6643 32.3366 6.49544 31.9814 6.46953 31.6023C6.44363 31.2231 6.56262 30.8482 6.80245 30.5534C7.04229 30.2586 7.38509 30.0658 7.76159 30.014L7.96559 30L11.2196 30.002C10.7222 28.3813 10.4701 26.6953 10.4716 25C10.4716 20.804 11.9916 16.964 14.5096 14H5.97159C5.59154 13.9999 5.2257 13.8555 4.948 13.5961C4.6703 13.3366 4.50144 12.9814 4.47553 12.6023C4.44963 12.2231 4.56862 11.8482 4.80845 11.5534C5.04829 11.2586 5.39109 11.0658 5.76759 11.014L5.97159 11H17.8256C20.6604 9.04113 24.0258 7.99448 27.4716 8.00002ZM27.4716 11C23.7586 11 20.1976 12.475 17.5721 15.1005C14.9466 17.726 13.4716 21.287 13.4716 25C13.4716 28.7131 14.9466 32.274 17.5721 34.8995C20.1976 37.525 23.7586 39 27.4716 39C31.1846 39 34.7456 37.525 37.3711 34.8995C39.9966 32.274 41.4716 28.7131 41.4716 25C41.4716 21.287 39.9966 17.726 37.3711 15.1005C34.7456 12.475 31.1846 11 27.4716 11ZM27.4776 14.004C28.9225 14.004 30.3533 14.2886 31.6883 14.8416C33.0232 15.3945 34.2362 16.205 35.2579 17.2267C36.2796 18.2485 37.0901 19.4614 37.643 20.7964C38.196 22.1313 38.4806 23.5621 38.4806 25.007C38.4806 26.452 38.196 27.8827 37.643 29.2177C37.0901 30.5526 36.2796 31.7656 35.2579 32.7873C34.2362 33.809 33.0232 34.6195 31.6883 35.1725C30.3533 35.7254 28.9225 36.01 27.4776 36.01C24.5594 36.01 21.7608 34.8508 19.6973 32.7873C17.6338 30.7239 16.4746 27.9252 16.4746 25.007C16.4746 22.0888 17.6338 19.2902 19.6973 17.2267C21.7608 15.1633 24.5594 14.004 27.4776 14.004ZM29.7796 29.432C29.0708 29.8019 28.2835 29.996 27.484 29.9981C26.6846 30.0002 25.8963 29.8102 25.1856 29.444L22.9936 31.636C24.2736 32.502 25.8156 33.01 27.4776 33.01C29.1456 33.01 30.6936 32.5 31.9756 31.628L29.7796 29.432ZM19.4756 25.006C19.4756 26.678 19.9876 28.232 20.8656 29.516L23.0516 27.334C22.67 26.6146 22.4708 25.8124 22.4716 24.998C22.4716 24.164 22.6776 23.378 23.0396 22.688L20.8576 20.508C19.9541 21.8346 19.4724 23.4031 19.4756 25.008V25.006ZM34.1076 20.522L31.9176 22.712C32.2843 23.423 32.4744 24.2118 32.472 25.0117C32.4695 25.8117 32.2746 26.5993 31.9036 27.308L34.0996 29.504C34.9716 28.222 35.4796 26.674 35.4796 25.006C35.4796 23.346 34.9736 21.8 34.1076 20.522ZM27.4716 23C27.2017 22.9879 26.9321 23.0307 26.6792 23.1256C26.4263 23.2206 26.1952 23.3658 25.9999 23.5525C25.8047 23.7393 25.6493 23.9636 25.5431 24.212C25.4369 24.4605 25.3822 24.7278 25.3822 24.998C25.3822 25.2682 25.4369 25.5356 25.5431 25.784C25.6493 26.0324 25.8047 26.2568 25.9999 26.4435C26.1952 26.6302 26.4263 26.7754 26.6792 26.8704C26.9321 26.9654 27.2017 27.0081 27.4716 26.996C27.986 26.973 28.4718 26.7524 28.8276 26.3803C29.1835 26.0081 29.3822 25.513 29.3822 24.998C29.3822 24.4831 29.1835 23.988 28.8276 23.6158C28.4718 23.2436 27.986 23.023 27.4716 23ZM27.4776 17.004C25.8727 17.0017 24.3045 17.4833 22.9776 18.386L25.1576 20.566C25.8751 20.1919 26.6726 19.9974 27.4818 19.9991C28.291 20.0009 29.0877 20.1988 29.8036 20.576L31.9876 18.394C30.6592 17.4858 29.0868 17.0012 27.4776 17.004Z" fill="#C59A2B"/>
</svg>
