<svg width="186" height="226" viewBox="0 0 186 226" fill="none" xmlns="http://www.w3.org/2000/svg">
<path d="M0 10C0 4.47716 4.47715 0 10 0H176C181.523 0 186 4.47715 186 10V149C186 191.526 151.526 226 109 226H10C4.47715 226 0 221.523 0 216V10Z" fill="url(#paint0_linear_2_1815)"/>
<path d="M74.8487 75.6003C74.37 75.6076 73.8947 75.5199 73.4503 75.3423C73.0059 75.1646 72.6014 74.9005 72.2603 74.5653C71.9192 74.2301 71.6483 73.8306 71.4635 73.39C71.2786 72.9493 71.1834 72.4764 71.1835 71.9987C71.1835 71.5211 71.2788 71.0482 71.4638 70.6076C71.6488 70.167 71.9197 69.7675 72.2609 69.4325C72.6021 69.0974 73.0067 68.8334 73.4511 68.6558C73.8955 68.4782 74.3709 68.3906 74.8496 68.3981C75.797 68.413 76.7006 68.799 77.3653 69.4728C78.0299 70.1466 78.4024 71.0542 78.4023 71.9996C78.4022 72.9451 78.0295 73.8526 77.3646 74.5262C76.6998 75.1999 75.7961 75.5856 74.8487 75.6003ZM67.5808 88.6605V81.6045C67.5808 79.06 69.6757 76.9924 72.2285 76.9924H77.212C79.7647 76.9924 82.0447 79.06 82.0447 81.6045V88.6605H67.5799H67.5808ZM112.264 75.2949C113.221 75.2939 114.139 74.9141 114.816 74.2386C115.492 73.5632 115.872 72.6475 115.873 71.6925C115.884 71.213 115.798 70.7362 115.621 70.2901C115.445 69.844 115.181 69.4376 114.845 69.0947C114.508 68.7518 114.107 68.4794 113.664 68.2934C113.221 68.1074 112.745 68.0116 112.264 68.0116C111.784 68.0116 111.308 68.1074 110.865 68.2934C110.422 68.4794 110.02 68.7518 109.684 69.0947C109.348 69.4376 109.084 69.844 108.907 70.2901C108.731 70.7362 108.645 71.213 108.656 71.6925C108.656 72.6475 109.036 73.5634 109.713 74.2389C110.39 74.9144 111.307 75.2942 112.264 75.2949ZM119.529 88.6605V81.6045C119.529 79.06 117.434 76.9924 114.879 76.9924H109.901C107.344 76.9924 105.067 79.06 105.067 81.6045V88.6605H119.528H119.529ZM93.55 75.581C91.5331 75.581 89.8993 73.9631 89.8993 71.969C89.8993 69.9749 91.5331 68.3561 93.55 68.3561C95.5651 68.3561 97.1988 69.974 97.1988 71.969C97.1988 73.964 95.566 75.581 93.55 75.581ZM84.7588 88.6605L87.6316 80.8511C88.7821 76.862 92.1329 76.9854 92.1329 76.9854H94.9767C94.9767 76.9854 98.3257 76.8629 99.478 80.8511L102.351 88.6605H84.7588ZM93.55 63.7965V55.2521L92.1285 53.8337V62.3737H70.6237V35.2067H92.1285V49.163L93.55 50.5805V33.7866H69.2075V63.7956L93.55 63.7965Z" fill="white"/>
<path d="M81.167 41.0458C81.6616 41.0247 82.129 40.8138 82.4716 40.457C82.8141 40.1003 83.0054 39.6253 83.0054 39.1313C83.0054 38.6373 82.8141 38.1623 82.4716 37.8056C82.129 37.4488 81.6616 37.2379 81.167 37.2168C80.6581 37.2168 80.1701 37.4185 79.8102 37.7775C79.4504 38.1366 79.2482 38.6235 79.2482 39.1313C79.2482 39.6391 79.4504 40.126 79.8102 40.4851C80.1701 40.8441 80.6581 41.0458 81.167 41.0458ZM87.5027 49.0022C87.5027 49.0022 85.9286 43.6673 85.926 43.6629C85.299 41.5865 83.5434 41.6487 83.5434 41.6487H78.794C78.794 41.6487 77.0358 41.5865 76.4097 43.6629L74.8356 49.0022C74.803 49.1057 74.7914 49.2146 74.8015 49.3226C74.8117 49.4306 74.8432 49.5355 74.8944 49.6312C74.9456 49.7269 75.0154 49.8114 75.0997 49.8799C75.1841 49.9484 75.2812 49.9994 75.3855 50.03C75.4898 50.0606 75.5992 50.0701 75.7072 50.058C75.8152 50.046 75.9198 50.0125 76.0147 49.9597C76.1097 49.9068 76.1931 49.8357 76.2602 49.7503C76.3272 49.6649 76.3765 49.567 76.4053 49.4624L77.9083 44.3568L77.9118 44.3585L78.5818 44.3568V50.1668L75.9361 59.2265C75.8871 59.3935 75.8777 59.5696 75.9087 59.7407C75.9397 59.9119 76.0103 60.0736 76.1148 60.2128C76.2193 60.3521 76.3549 60.4652 76.5108 60.543C76.6667 60.6209 76.8386 60.6615 77.013 60.6615C77.4997 60.6615 77.9487 60.3439 78.0925 59.8557L80.7057 50.9097H81.6309L84.2441 59.8557C84.2853 59.997 84.354 60.1288 84.4463 60.2435C84.5387 60.3582 84.6528 60.4536 84.7822 60.5243C84.9115 60.5949 85.0536 60.6394 85.2002 60.6551C85.3469 60.6709 85.4952 60.6576 85.6366 60.616C85.7782 60.5748 85.9102 60.5062 86.0252 60.414C86.1401 60.3219 86.2358 60.2081 86.3066 60.079C86.3775 59.95 86.4221 59.8083 86.4381 59.662C86.454 59.5157 86.4409 59.3678 86.3996 59.2265L83.7539 50.1712V44.3577L84.4238 44.3594L84.4274 44.3577L85.9322 49.4633C85.9933 49.671 86.1347 49.8459 86.3251 49.9496C86.4194 50.001 86.5229 50.0333 86.6297 50.0447C86.7365 50.0562 86.8446 50.0465 86.9476 50.0163C87.0507 49.9861 87.1468 49.9359 87.2304 49.8686C87.3141 49.8013 87.3836 49.7183 87.4351 49.6242C87.4865 49.5301 87.5189 49.4268 87.5304 49.3203C87.5418 49.2137 87.5321 49.1059 87.5018 49.003L87.5027 49.0022ZM112.248 48.198C111.306 48.1773 110.41 47.7894 109.751 47.1174C109.092 46.4454 108.723 45.5427 108.723 44.6027C108.723 43.6626 109.092 42.7599 109.751 42.0879C110.41 41.4159 111.306 41.028 112.248 41.0073C112.721 41.007 113.19 41.0998 113.627 41.2805C114.064 41.4612 114.462 41.7262 114.796 42.0604C115.131 42.3945 115.396 42.7912 115.576 43.2278C115.757 43.6643 115.849 44.1322 115.848 44.6044C115.849 45.0765 115.756 45.544 115.576 45.9803C115.395 46.4165 115.13 46.8129 114.795 47.1467C114.461 47.4806 114.064 47.7453 113.627 47.9257C113.189 48.1061 112.721 48.1986 112.248 48.198ZM112.248 53.5452C112.248 53.5452 113.122 53.658 113.657 52.9187C114.141 52.2432 114.177 50.0049 114.18 49.5998H110.311C110.298 51.2107 110.486 52.3849 110.872 52.9764C111.261 53.5802 112.248 53.546 112.248 53.546V53.5452Z" fill="white"/>
<path d="M96.5473 56.7149C96.4149 56.9319 96.2088 57.3729 96.2088 57.6512C96.2088 58.4912 96.8884 59.1658 97.7276 59.1658H102.723C103.291 59.1658 104.036 58.9374 104.355 58.4614C105.429 56.8698 106.564 55.1924 106.899 54.6911V64.1166H119.481V54.4504C119.481 51.9226 117.502 49.6467 115.161 49.6467C115.167 50.8332 115.007 52.8037 114.311 53.6664C113.584 54.5476 112.728 54.4706 112.728 54.4706V58.1482C112.998 58.258 113.221 58.458 113.359 58.714C113.497 58.9699 113.541 59.2658 113.484 59.5509C113.428 59.8359 113.273 60.0923 113.047 60.2761C112.822 60.4599 112.539 60.5595 112.248 60.5579C112.083 60.5581 111.919 60.5257 111.767 60.4627C111.615 60.3997 111.476 60.3073 111.36 60.1908C111.243 60.0744 111.151 59.9361 111.088 59.7839C111.025 59.6317 110.993 59.4687 110.993 59.3041C110.993 58.7834 111.31 58.3372 111.765 58.1482V54.4539C111.765 54.4539 111.017 54.5152 110.311 53.8091C109.369 52.8291 109.334 50.0518 109.335 49.5977H109.107C108.346 49.5971 107.597 49.7843 106.926 50.1424C106.255 50.5005 105.683 51.0186 105.261 51.6504L102.27 56.1541L97.732 56.1523L91.3235 49.7569C91.2663 49.6995 91.1984 49.6539 91.1235 49.6228C91.0486 49.5917 90.9683 49.5757 90.8872 49.5757C90.8061 49.5757 90.7258 49.5917 90.6509 49.6228C90.576 49.6539 90.5081 49.6995 90.4509 49.7569C90.3933 49.814 90.3475 49.8819 90.3163 49.9567C90.285 50.0315 90.2688 50.1117 90.2686 50.1928C90.2685 50.2738 90.2843 50.3541 90.3153 50.429C90.3463 50.5039 90.3918 50.572 90.4492 50.6293L96.5482 56.7158L96.5473 56.7149Z" fill="white"/>
<path d="M42.9141 131V115H53.1641V117.43H45.8125V121.773H52.4609V124.203H45.8125V131H42.9141ZM60.0332 131.234C58.8613 131.234 57.8457 130.977 56.9863 130.461C56.127 129.945 55.4603 129.224 54.9863 128.297C54.5176 127.37 54.2832 126.286 54.2832 125.047C54.2832 123.807 54.5176 122.721 54.9863 121.789C55.4603 120.857 56.127 120.133 56.9863 119.617C57.8457 119.102 58.8613 118.844 60.0332 118.844C61.2051 118.844 62.2207 119.102 63.0801 119.617C63.9395 120.133 64.6035 120.857 65.0723 121.789C65.5462 122.721 65.7832 123.807 65.7832 125.047C65.7832 126.286 65.5462 127.37 65.0723 128.297C64.6035 129.224 63.9395 129.945 63.0801 130.461C62.2207 130.977 61.2051 131.234 60.0332 131.234ZM60.0488 128.969C60.6842 128.969 61.2155 128.794 61.6426 128.445C62.0697 128.091 62.3874 127.617 62.5957 127.023C62.8092 126.43 62.916 125.768 62.916 125.039C62.916 124.305 62.8092 123.641 62.5957 123.047C62.3874 122.448 62.0697 121.971 61.6426 121.617C61.2155 121.263 60.6842 121.086 60.0488 121.086C59.3978 121.086 58.8561 121.263 58.4238 121.617C57.9967 121.971 57.6764 122.448 57.4629 123.047C57.2546 123.641 57.1504 124.305 57.1504 125.039C57.1504 125.768 57.2546 126.43 57.4629 127.023C57.6764 127.617 57.9967 128.091 58.4238 128.445C58.8561 128.794 59.3978 128.969 60.0488 128.969ZM68.1836 131V119H70.9258V121H71.0508C71.2695 120.307 71.6445 119.773 72.1758 119.398C72.7122 119.018 73.3242 118.828 74.0117 118.828C74.168 118.828 74.3424 118.836 74.5352 118.852C74.7331 118.862 74.8971 118.88 75.0273 118.906V121.508C74.9076 121.466 74.7174 121.43 74.457 121.398C74.2018 121.362 73.9544 121.344 73.7148 121.344C73.1992 121.344 72.7357 121.456 72.3242 121.68C71.918 121.898 71.5977 122.203 71.3633 122.594C71.1289 122.984 71.0117 123.435 71.0117 123.945V131H68.1836ZM81.7246 131.234C80.5215 131.234 79.4824 130.984 78.6074 130.484C77.7376 129.979 77.0684 129.266 76.5996 128.344C76.1309 127.417 75.8965 126.326 75.8965 125.07C75.8965 123.836 76.1309 122.753 76.5996 121.82C77.0736 120.883 77.735 120.154 78.584 119.633C79.4329 119.107 80.4303 118.844 81.5762 118.844C82.3158 118.844 83.0137 118.964 83.6699 119.203C84.3314 119.437 84.9147 119.802 85.4199 120.297C85.9303 120.792 86.3314 121.422 86.623 122.187C86.9147 122.948 87.0605 123.854 87.0605 124.906V125.773H77.2246V123.867H84.3496C84.3444 123.326 84.2272 122.844 83.998 122.422C83.7689 121.995 83.4486 121.659 83.0371 121.414C82.6309 121.169 82.1569 121.047 81.6152 121.047C81.0371 121.047 80.5293 121.187 80.0918 121.469C79.6543 121.745 79.3132 122.109 79.0684 122.562C78.8288 123.01 78.7064 123.503 78.7012 124.039V125.703C78.7012 126.401 78.8288 127 79.084 127.5C79.3392 127.995 79.696 128.375 80.1543 128.641C80.6126 128.901 81.1491 129.031 81.7637 129.031C82.1751 129.031 82.5475 128.974 82.8809 128.859C83.2142 128.74 83.5033 128.565 83.748 128.336C83.9928 128.107 84.1777 127.823 84.3027 127.484L86.9434 127.781C86.7767 128.479 86.459 129.089 85.9902 129.609C85.5267 130.125 84.9329 130.526 84.209 130.812C83.485 131.094 82.6569 131.234 81.7246 131.234ZM94.6875 131.234C93.4896 131.234 92.4609 130.971 91.6016 130.445C90.7474 129.919 90.0885 129.193 89.625 128.266C89.1667 127.333 88.9375 126.26 88.9375 125.047C88.9375 123.828 89.1719 122.753 89.6406 121.82C90.1094 120.883 90.7708 120.154 91.625 119.633C92.4844 119.107 93.5 118.844 94.6719 118.844C95.6458 118.844 96.5078 119.023 97.2578 119.383C98.013 119.737 98.6146 120.24 99.0625 120.891C99.5104 121.536 99.7656 122.292 99.8281 123.156H97.125C97.0156 122.578 96.7552 122.096 96.3438 121.711C95.9375 121.32 95.3932 121.125 94.7109 121.125C94.1328 121.125 93.625 121.281 93.1875 121.594C92.75 121.901 92.4089 122.344 92.1641 122.922C91.9245 123.5 91.8047 124.193 91.8047 125C91.8047 125.818 91.9245 126.521 92.1641 127.109C92.4036 127.693 92.7396 128.143 93.1719 128.461C93.6094 128.773 94.1224 128.93 94.7109 128.93C95.1276 128.93 95.5 128.852 95.8281 128.695C96.1615 128.534 96.4401 128.302 96.6641 128C96.888 127.698 97.0417 127.331 97.125 126.898H99.8281C99.7604 127.747 99.5104 128.5 99.0781 129.156C98.6458 129.807 98.0573 130.318 97.3125 130.687C96.5677 131.052 95.6927 131.234 94.6875 131.234ZM105.604 131.242C104.843 131.242 104.158 131.107 103.549 130.836C102.945 130.56 102.465 130.154 102.111 129.617C101.762 129.081 101.588 128.419 101.588 127.633C101.588 126.956 101.713 126.396 101.963 125.953C102.213 125.51 102.554 125.156 102.986 124.891C103.419 124.625 103.906 124.424 104.447 124.289C104.994 124.148 105.559 124.047 106.143 123.984C106.846 123.911 107.416 123.846 107.854 123.789C108.291 123.727 108.609 123.633 108.807 123.508C109.01 123.378 109.111 123.177 109.111 122.906V122.859C109.111 122.271 108.937 121.815 108.588 121.492C108.239 121.169 107.736 121.008 107.08 121.008C106.387 121.008 105.838 121.159 105.432 121.461C105.031 121.763 104.76 122.12 104.619 122.531L101.979 122.156C102.187 121.427 102.531 120.818 103.01 120.328C103.489 119.833 104.075 119.464 104.768 119.219C105.46 118.969 106.226 118.844 107.064 118.844C107.643 118.844 108.218 118.911 108.791 119.047C109.364 119.182 109.887 119.406 110.361 119.719C110.835 120.026 111.215 120.445 111.502 120.977C111.794 121.508 111.939 122.172 111.939 122.969V131H109.221V129.352H109.127C108.955 129.685 108.713 129.997 108.4 130.289C108.093 130.576 107.705 130.807 107.236 130.984C106.773 131.156 106.229 131.242 105.604 131.242ZM106.338 129.164C106.906 129.164 107.398 129.052 107.814 128.828C108.231 128.599 108.551 128.297 108.775 127.922C109.005 127.547 109.119 127.138 109.119 126.695V125.281C109.031 125.354 108.88 125.422 108.666 125.484C108.458 125.547 108.223 125.602 107.963 125.648C107.702 125.695 107.445 125.737 107.189 125.773C106.934 125.81 106.713 125.841 106.525 125.867C106.104 125.924 105.726 126.018 105.393 126.148C105.059 126.279 104.796 126.461 104.604 126.695C104.411 126.924 104.314 127.221 104.314 127.586C104.314 128.107 104.505 128.5 104.885 128.766C105.265 129.031 105.749 129.164 106.338 129.164ZM124.268 122.172L121.689 122.453C121.617 122.193 121.489 121.948 121.307 121.719C121.13 121.49 120.89 121.305 120.588 121.164C120.286 121.023 119.916 120.953 119.479 120.953C118.89 120.953 118.395 121.081 117.994 121.336C117.598 121.591 117.403 121.922 117.408 122.328C117.403 122.677 117.531 122.961 117.791 123.18C118.057 123.398 118.494 123.578 119.104 123.719L121.15 124.156C122.286 124.401 123.13 124.789 123.682 125.32C124.239 125.852 124.52 126.547 124.525 127.406C124.52 128.161 124.299 128.828 123.861 129.406C123.429 129.979 122.827 130.427 122.057 130.75C121.286 131.073 120.4 131.234 119.4 131.234C117.932 131.234 116.749 130.927 115.854 130.312C114.958 129.693 114.424 128.831 114.252 127.727L117.01 127.461C117.135 128.003 117.4 128.411 117.807 128.687C118.213 128.964 118.742 129.102 119.393 129.102C120.064 129.102 120.604 128.964 121.01 128.687C121.421 128.411 121.627 128.07 121.627 127.664C121.627 127.32 121.494 127.036 121.229 126.812C120.968 126.589 120.562 126.417 120.01 126.297L117.963 125.867C116.812 125.628 115.96 125.224 115.408 124.656C114.856 124.083 114.583 123.359 114.588 122.484C114.583 121.745 114.783 121.104 115.189 120.562C115.601 120.016 116.171 119.594 116.9 119.297C117.635 118.995 118.481 118.844 119.439 118.844C120.846 118.844 121.952 119.143 122.76 119.742C123.572 120.341 124.075 121.151 124.268 122.172ZM132.85 119V121.187H125.951V119H132.85ZM127.654 116.125H130.482V127.391C130.482 127.771 130.54 128.063 130.654 128.266C130.774 128.464 130.93 128.599 131.123 128.672C131.316 128.745 131.529 128.781 131.764 128.781C131.941 128.781 132.102 128.768 132.248 128.742C132.399 128.716 132.514 128.693 132.592 128.672L133.068 130.883C132.917 130.935 132.701 130.992 132.42 131.055C132.144 131.117 131.805 131.154 131.404 131.164C130.696 131.185 130.058 131.078 129.49 130.844C128.923 130.604 128.472 130.234 128.139 129.734C127.811 129.234 127.649 128.609 127.654 127.859V116.125ZM144.527 122.172L141.949 122.453C141.876 122.193 141.749 121.948 141.566 121.719C141.389 121.49 141.15 121.305 140.848 121.164C140.546 121.023 140.176 120.953 139.738 120.953C139.15 120.953 138.655 121.081 138.254 121.336C137.858 121.591 137.663 121.922 137.668 122.328C137.663 122.677 137.79 122.961 138.051 123.18C138.316 123.398 138.754 123.578 139.363 123.719L141.41 124.156C142.546 124.401 143.389 124.789 143.941 125.32C144.499 125.852 144.78 126.547 144.785 127.406C144.78 128.161 144.559 128.828 144.121 129.406C143.689 129.979 143.087 130.427 142.316 130.75C141.546 131.073 140.66 131.234 139.66 131.234C138.191 131.234 137.009 130.927 136.113 130.312C135.217 129.693 134.684 128.831 134.512 127.727L137.27 127.461C137.395 128.003 137.66 128.411 138.066 128.687C138.473 128.964 139.001 129.102 139.652 129.102C140.324 129.102 140.863 128.964 141.27 128.687C141.681 128.411 141.887 128.07 141.887 127.664C141.887 127.32 141.754 127.036 141.488 126.812C141.228 126.589 140.822 126.417 140.27 126.297L138.223 125.867C137.072 125.628 136.22 125.224 135.668 124.656C135.116 124.083 134.842 123.359 134.848 122.484C134.842 121.745 135.043 121.104 135.449 120.562C135.861 120.016 136.431 119.594 137.16 119.297C137.895 118.995 138.741 118.844 139.699 118.844C141.105 118.844 142.212 119.143 143.02 119.742C143.832 120.341 144.335 121.151 144.527 122.172ZM92.4404 159.234C91.3467 159.234 90.4066 159.036 89.6201 158.641C88.8337 158.245 88.2269 157.711 87.7998 157.039C87.3779 156.362 87.167 155.599 87.167 154.75C87.167 154.109 87.2972 153.542 87.5576 153.047C87.8232 152.552 88.1878 152.094 88.6514 151.672C89.1201 151.25 89.6618 150.831 90.2764 150.414L93.1123 148.484C93.529 148.214 93.8441 147.927 94.0576 147.625C94.2764 147.323 94.3857 146.969 94.3857 146.562C94.3857 146.219 94.2399 145.893 93.9482 145.586C93.6618 145.279 93.266 145.125 92.7607 145.125C92.4222 145.125 92.1227 145.206 91.8623 145.367C91.6071 145.523 91.4066 145.729 91.2607 145.984C91.1201 146.24 91.0498 146.51 91.0498 146.797C91.0498 147.146 91.1462 147.5 91.3389 147.859C91.5368 148.219 91.792 148.591 92.1045 148.977C92.4222 149.362 92.7607 149.771 93.1201 150.203L100.628 159H97.5654L91.3311 151.859C90.8675 151.318 90.4196 150.784 89.9873 150.258C89.5602 149.732 89.2087 149.185 88.9326 148.617C88.6618 148.044 88.5264 147.424 88.5264 146.758C88.5264 146.003 88.7008 145.328 89.0498 144.734C89.3988 144.135 89.8857 143.664 90.5107 143.32C91.141 142.977 91.8779 142.805 92.7217 142.805C93.5654 142.805 94.2894 142.971 94.8936 143.305C95.4977 143.638 95.9639 144.081 96.292 144.633C96.6201 145.185 96.7842 145.786 96.7842 146.437C96.7842 147.193 96.5967 147.87 96.2217 148.469C95.8467 149.062 95.3258 149.602 94.6592 150.086L91.4248 152.453C90.8936 152.839 90.5133 153.229 90.2842 153.625C90.055 154.016 89.9404 154.349 89.9404 154.625C89.9404 155.047 90.0472 155.43 90.2607 155.773C90.4743 156.117 90.7738 156.393 91.1592 156.602C91.5498 156.805 92.0055 156.906 92.5264 156.906C93.0993 156.906 93.6644 156.779 94.2217 156.523C94.779 156.263 95.2868 155.893 95.7451 155.414C96.2035 154.935 96.568 154.362 96.8389 153.695C97.1097 153.023 97.2451 152.279 97.2451 151.461H99.6748C99.6748 152.471 99.5628 153.352 99.3389 154.102C99.1149 154.846 98.8258 155.477 98.4717 155.992C98.1175 156.503 97.7425 156.911 97.3467 157.219C97.2217 157.307 97.1019 157.396 96.9873 157.484C96.8727 157.573 96.7529 157.661 96.6279 157.75C96.0654 158.26 95.4066 158.635 94.6514 158.875C93.9014 159.115 93.1644 159.234 92.4404 159.234ZM35.6309 187V171H46.0371V173.43H38.5293V177.773H45.498V180.203H38.5293V184.57H46.0996V187H35.6309ZM53.3223 187.211C52.3796 187.211 51.5358 186.969 50.791 186.484C50.0462 186 49.4577 185.297 49.0254 184.375C48.5931 183.453 48.377 182.333 48.377 181.016C48.377 179.682 48.5957 178.557 49.0332 177.641C49.4759 176.719 50.0723 176.023 50.8223 175.555C51.5723 175.081 52.4082 174.844 53.3301 174.844C54.0332 174.844 54.6113 174.964 55.0645 175.203C55.5176 175.437 55.877 175.721 56.1426 176.055C56.4082 176.383 56.6139 176.693 56.7598 176.984H56.877V171H59.7129V187H56.9316V185.109H56.7598C56.6139 185.401 56.403 185.711 56.127 186.039C55.8509 186.362 55.4863 186.638 55.0332 186.867C54.5801 187.096 54.0098 187.211 53.3223 187.211ZM54.1113 184.891C54.7103 184.891 55.2207 184.729 55.6426 184.406C56.0645 184.078 56.3848 183.622 56.6035 183.039C56.8223 182.456 56.9316 181.776 56.9316 181C56.9316 180.224 56.8223 179.549 56.6035 178.977C56.39 178.404 56.0723 177.958 55.6504 177.641C55.2337 177.323 54.7207 177.164 54.1113 177.164C53.4811 177.164 52.9551 177.328 52.5332 177.656C52.1113 177.984 51.7936 178.437 51.5801 179.016C51.3665 179.594 51.2598 180.255 51.2598 181C51.2598 181.75 51.3665 182.419 51.5801 183.008C51.7988 183.591 52.1191 184.052 52.541 184.391C52.9681 184.724 53.4915 184.891 54.1113 184.891ZM70.375 181.953V175H73.2031V187H70.4609V184.867H70.3359C70.0651 185.539 69.6198 186.089 69 186.516C68.3854 186.943 67.6276 187.156 66.7266 187.156C65.9401 187.156 65.2448 186.982 64.6406 186.633C64.0417 186.279 63.5729 185.766 63.2344 185.094C62.8958 184.417 62.7266 183.599 62.7266 182.641V175H65.5547V182.203C65.5547 182.964 65.763 183.568 66.1797 184.016C66.5964 184.464 67.1432 184.687 67.8203 184.687C68.237 184.687 68.6406 184.586 69.0313 184.383C69.4219 184.18 69.7422 183.878 69.9922 183.477C70.2474 183.07 70.375 182.562 70.375 181.953ZM81.3457 187.234C80.1478 187.234 79.1191 186.971 78.2598 186.445C77.4056 185.919 76.7467 185.193 76.2832 184.266C75.8249 183.333 75.5957 182.26 75.5957 181.047C75.5957 179.828 75.8301 178.753 76.2988 177.82C76.7676 176.883 77.429 176.154 78.2832 175.633C79.1426 175.107 80.1582 174.844 81.3301 174.844C82.304 174.844 83.166 175.023 83.916 175.383C84.6712 175.737 85.2728 176.24 85.7207 176.891C86.1686 177.536 86.4238 178.292 86.4863 179.156H83.7832C83.6738 178.578 83.4134 178.096 83.002 177.711C82.5957 177.32 82.0514 177.125 81.3691 177.125C80.791 177.125 80.2832 177.281 79.8457 177.594C79.4082 177.901 79.0671 178.344 78.8223 178.922C78.5827 179.5 78.4629 180.193 78.4629 181C78.4629 181.818 78.5827 182.521 78.8223 183.109C79.0618 183.693 79.3978 184.143 79.8301 184.461C80.2676 184.773 80.7806 184.93 81.3691 184.93C81.7858 184.93 82.1582 184.852 82.4863 184.695C82.8197 184.534 83.0983 184.302 83.3223 184C83.5462 183.698 83.6999 183.331 83.7832 182.898H86.4863C86.4186 183.747 86.1686 184.5 85.7363 185.156C85.304 185.807 84.7155 186.318 83.9707 186.687C83.2259 187.052 82.3509 187.234 81.3457 187.234ZM92.2617 187.242C91.5013 187.242 90.8164 187.107 90.207 186.836C89.6029 186.56 89.1237 186.154 88.7695 185.617C88.4206 185.081 88.2461 184.419 88.2461 183.633C88.2461 182.956 88.3711 182.396 88.6211 181.953C88.8711 181.51 89.2122 181.156 89.6445 180.891C90.0768 180.625 90.5638 180.424 91.1055 180.289C91.6523 180.148 92.2174 180.047 92.8008 179.984C93.5039 179.911 94.0742 179.846 94.5117 179.789C94.9492 179.727 95.2669 179.633 95.4648 179.508C95.668 179.378 95.7695 179.177 95.7695 178.906V178.859C95.7695 178.271 95.5951 177.815 95.2461 177.492C94.8971 177.169 94.3945 177.008 93.7383 177.008C93.0456 177.008 92.4961 177.159 92.0898 177.461C91.6888 177.763 91.418 178.12 91.2773 178.531L88.6367 178.156C88.8451 177.427 89.1888 176.818 89.668 176.328C90.1471 175.833 90.7331 175.464 91.4258 175.219C92.1185 174.969 92.8841 174.844 93.7227 174.844C94.3008 174.844 94.8763 174.911 95.4492 175.047C96.0221 175.182 96.5456 175.406 97.0195 175.719C97.4935 176.026 97.8737 176.445 98.1602 176.977C98.4518 177.508 98.5977 178.172 98.5977 178.969V187H95.8789V185.352H95.7852C95.6133 185.685 95.3711 185.997 95.0586 186.289C94.7513 186.576 94.3633 186.807 93.8945 186.984C93.431 187.156 92.8867 187.242 92.2617 187.242ZM92.9961 185.164C93.5638 185.164 94.056 185.052 94.4727 184.828C94.8893 184.599 95.2096 184.297 95.4336 183.922C95.6628 183.547 95.7773 183.138 95.7773 182.695V181.281C95.6888 181.354 95.5378 181.422 95.3242 181.484C95.1159 181.547 94.8815 181.602 94.6211 181.648C94.3607 181.695 94.1029 181.737 93.8477 181.773C93.5924 181.81 93.3711 181.841 93.1836 181.867C92.7617 181.924 92.3841 182.018 92.0508 182.148C91.7174 182.279 91.4544 182.461 91.2617 182.695C91.069 182.924 90.9727 183.221 90.9727 183.586C90.9727 184.107 91.1628 184.5 91.543 184.766C91.9232 185.031 92.4076 185.164 92.9961 185.164ZM107.434 175V177.187H100.535V175H107.434ZM102.238 172.125H105.066V183.391C105.066 183.771 105.124 184.063 105.238 184.266C105.358 184.464 105.514 184.599 105.707 184.672C105.9 184.745 106.113 184.781 106.348 184.781C106.525 184.781 106.686 184.768 106.832 184.742C106.983 184.716 107.098 184.693 107.176 184.672L107.652 186.883C107.501 186.935 107.285 186.992 107.004 187.055C106.728 187.117 106.389 187.154 105.988 187.164C105.28 187.185 104.642 187.078 104.074 186.844C103.507 186.604 103.056 186.234 102.723 185.734C102.395 185.234 102.233 184.609 102.238 183.859V172.125ZM109.799 187V175H112.627V187H109.799ZM111.221 173.297C110.773 173.297 110.387 173.148 110.064 172.852C109.742 172.549 109.58 172.187 109.58 171.766C109.58 171.339 109.742 170.977 110.064 170.68C110.387 170.378 110.773 170.227 111.221 170.227C111.674 170.227 112.059 170.378 112.377 170.68C112.7 170.977 112.861 171.339 112.861 171.766C112.861 172.187 112.7 172.549 112.377 172.852C112.059 173.148 111.674 173.297 111.221 173.297ZM120.77 187.234C119.598 187.234 118.582 186.977 117.723 186.461C116.863 185.945 116.197 185.224 115.723 184.297C115.254 183.37 115.02 182.286 115.02 181.047C115.02 179.807 115.254 178.721 115.723 177.789C116.197 176.857 116.863 176.133 117.723 175.617C118.582 175.102 119.598 174.844 120.77 174.844C121.941 174.844 122.957 175.102 123.816 175.617C124.676 176.133 125.34 176.857 125.809 177.789C126.283 178.721 126.52 179.807 126.52 181.047C126.52 182.286 126.283 183.37 125.809 184.297C125.34 185.224 124.676 185.945 123.816 186.461C122.957 186.977 121.941 187.234 120.77 187.234ZM120.785 184.969C121.421 184.969 121.952 184.794 122.379 184.445C122.806 184.091 123.124 183.617 123.332 183.023C123.546 182.43 123.652 181.768 123.652 181.039C123.652 180.305 123.546 179.641 123.332 179.047C123.124 178.448 122.806 177.971 122.379 177.617C121.952 177.263 121.421 177.086 120.785 177.086C120.134 177.086 119.592 177.263 119.16 177.617C118.733 177.971 118.413 178.448 118.199 179.047C117.991 179.641 117.887 180.305 117.887 181.039C117.887 181.768 117.991 182.43 118.199 183.023C118.413 183.617 118.733 184.091 119.16 184.445C119.592 184.794 120.134 184.969 120.785 184.969ZM131.748 179.969V187H128.92V175H131.623V177.039H131.764C132.04 176.367 132.48 175.833 133.084 175.437C133.693 175.042 134.446 174.844 135.342 174.844C136.17 174.844 136.891 175.021 137.506 175.375C138.126 175.729 138.605 176.242 138.943 176.914C139.287 177.586 139.456 178.401 139.451 179.359V187H136.623V179.797C136.623 178.995 136.415 178.367 135.998 177.914C135.587 177.461 135.016 177.234 134.287 177.234C133.792 177.234 133.352 177.344 132.967 177.562C132.587 177.776 132.287 178.086 132.068 178.492C131.855 178.898 131.748 179.391 131.748 179.969ZM151.811 178.172L149.232 178.453C149.16 178.193 149.032 177.948 148.85 177.719C148.673 177.49 148.433 177.305 148.131 177.164C147.829 177.023 147.459 176.953 147.021 176.953C146.433 176.953 145.938 177.081 145.537 177.336C145.141 177.591 144.946 177.922 144.951 178.328C144.946 178.677 145.074 178.961 145.334 179.18C145.6 179.398 146.037 179.578 146.646 179.719L148.693 180.156C149.829 180.401 150.673 180.789 151.225 181.32C151.782 181.852 152.063 182.547 152.068 183.406C152.063 184.161 151.842 184.828 151.404 185.406C150.972 185.979 150.37 186.427 149.6 186.75C148.829 187.073 147.943 187.234 146.943 187.234C145.475 187.234 144.292 186.927 143.396 186.312C142.501 185.693 141.967 184.831 141.795 183.727L144.553 183.461C144.678 184.003 144.943 184.411 145.35 184.687C145.756 184.964 146.285 185.102 146.936 185.102C147.607 185.102 148.146 184.964 148.553 184.687C148.964 184.411 149.17 184.07 149.17 183.664C149.17 183.32 149.037 183.036 148.771 182.812C148.511 182.589 148.105 182.417 147.553 182.297L145.506 181.867C144.355 181.628 143.503 181.224 142.951 180.656C142.399 180.083 142.126 179.359 142.131 178.484C142.126 177.745 142.326 177.104 142.732 176.562C143.144 176.016 143.714 175.594 144.443 175.297C145.178 174.995 146.024 174.844 146.982 174.844C148.389 174.844 149.495 175.143 150.303 175.742C151.115 176.341 151.618 177.151 151.811 178.172Z" fill="white"/>
<defs>
<linearGradient id="paint0_linear_2_1815" x1="60.6522" y1="2.16823e-06" x2="209.705" y2="139.68" gradientUnits="userSpaceOnUse">
<stop stop-color="#BA963A"/>
<stop offset="1" stop-color="#CC9C21"/>
</linearGradient>
</defs>
</svg>
