<svg width="186" height="226" viewBox="0 0 186 226" fill="none" xmlns="http://www.w3.org/2000/svg">
<path d="M0 10C0 4.47716 4.47715 0 10 0H176C181.523 0 186 4.47715 186 10V216C186 221.523 181.523 226 176 226H77C34.4741 226 0 191.526 0 149V10Z" fill="url(#paint0_linear_2_1810)"/>
<path fill-rule="evenodd" clip-rule="evenodd" d="M79.6286 72.7301L83.1714 69.1606V74.2293L79.0971 78.2985L76.0857 77.0492V68.1255H70.7714L69 66.3407V37.7847L70.7714 36H113.286L115.057 37.7847V53.8475H111.514V39.5695H72.5429V64.556H77.8571L79.6286 66.3407V72.7301ZM101.913 78.8339L108.503 85.4375L111.514 84.1882V78.8339H116.829L118.6 77.0492V59.2017L116.829 57.417H88.4857L86.7143 59.2017V77.0492L88.4857 78.8339H101.913ZM102.657 75.2644H90.2571V60.9865H115.057V75.2644H109.743L107.971 77.0492V79.8691L103.897 75.7999L102.657 75.2644Z" fill="white"/>
<path d="M48.9453 115.836C48.8724 115.154 48.5651 114.622 48.0234 114.242C47.487 113.862 46.7891 113.672 45.9297 113.672C45.3255 113.672 44.8073 113.763 44.375 113.945C43.9427 114.128 43.612 114.375 43.3828 114.687C43.1536 115 43.0365 115.357 43.0313 115.758C43.0313 116.091 43.1068 116.38 43.2578 116.625C43.4141 116.87 43.625 117.078 43.8906 117.25C44.1563 117.417 44.4505 117.557 44.7734 117.672C45.0964 117.786 45.4219 117.883 45.75 117.961L47.25 118.336C47.8542 118.477 48.4349 118.667 48.9922 118.906C49.5547 119.146 50.0573 119.448 50.5 119.813C50.9479 120.177 51.3021 120.617 51.5625 121.133C51.8229 121.648 51.9531 122.253 51.9531 122.945C51.9531 123.883 51.7135 124.708 51.2344 125.422C50.7552 126.13 50.0625 126.685 49.1562 127.086C48.2552 127.482 47.1641 127.68 45.8828 127.68C44.638 127.68 43.5573 127.487 42.6406 127.102C41.7292 126.716 41.0156 126.154 40.5 125.414C39.9896 124.674 39.7135 123.773 39.6719 122.711H42.5234C42.5651 123.268 42.737 123.732 43.0391 124.102C43.3411 124.471 43.7344 124.747 44.2188 124.93C44.7083 125.112 45.2552 125.203 45.8594 125.203C46.4896 125.203 47.0417 125.109 47.5156 124.922C47.9948 124.729 48.3698 124.464 48.6406 124.125C48.9115 123.781 49.0495 123.38 49.0547 122.922C49.0495 122.505 48.9271 122.161 48.6875 121.891C48.4479 121.615 48.112 121.385 47.6797 121.203C47.2526 121.016 46.7526 120.849 46.1797 120.703L44.3594 120.234C43.0417 119.896 42 119.383 41.2344 118.695C40.474 118.003 40.0938 117.083 40.0938 115.937C40.0938 114.995 40.349 114.169 40.8594 113.461C41.375 112.753 42.0755 112.203 42.9609 111.812C43.8464 111.417 44.849 111.219 45.9688 111.219C47.1042 111.219 48.099 111.417 48.9531 111.812C49.8125 112.203 50.487 112.747 50.9766 113.445C51.4661 114.138 51.7188 114.935 51.7344 115.836H48.9453ZM60.4043 115.437V117.625H53.5059V115.437H60.4043ZM55.209 112.562H58.0371V123.828C58.0371 124.208 58.0944 124.5 58.209 124.703C58.3288 124.901 58.485 125.036 58.6777 125.109C58.8704 125.182 59.084 125.219 59.3184 125.219C59.4954 125.219 59.6569 125.206 59.8027 125.18C59.9538 125.154 60.0684 125.13 60.1465 125.109L60.623 127.32C60.472 127.372 60.2559 127.43 59.9746 127.492C59.6986 127.555 59.36 127.591 58.959 127.602C58.2507 127.622 57.6126 127.516 57.0449 127.281C56.4772 127.042 56.0267 126.672 55.6934 126.172C55.3652 125.672 55.2038 125.047 55.209 124.297V112.562ZM62.7695 127.438V115.437H65.5117V117.437H65.6367C65.8555 116.745 66.2305 116.211 66.7617 115.836C67.2982 115.456 67.9102 115.266 68.5977 115.266C68.7539 115.266 68.9284 115.273 69.1211 115.289C69.319 115.299 69.4831 115.318 69.6133 115.344V117.945C69.4935 117.904 69.3034 117.867 69.043 117.836C68.7878 117.799 68.5404 117.781 68.3008 117.781C67.7852 117.781 67.3216 117.893 66.9102 118.117C66.5039 118.336 66.1836 118.641 65.9492 119.031C65.7148 119.422 65.5977 119.872 65.5977 120.383V127.438H62.7695ZM74.7305 127.68C73.9701 127.68 73.2852 127.544 72.6758 127.273C72.0716 126.997 71.5924 126.591 71.2383 126.055C70.8893 125.518 70.7148 124.857 70.7148 124.07C70.7148 123.393 70.8398 122.833 71.0898 122.391C71.3398 121.948 71.681 121.594 72.1133 121.328C72.5456 121.062 73.0326 120.862 73.5742 120.727C74.1211 120.586 74.6862 120.484 75.2695 120.422C75.9727 120.349 76.543 120.284 76.9805 120.227C77.418 120.164 77.7357 120.07 77.9336 119.945C78.1367 119.815 78.2383 119.615 78.2383 119.344V119.297C78.2383 118.708 78.0638 118.253 77.7148 117.93C77.3659 117.607 76.8633 117.445 76.207 117.445C75.5143 117.445 74.9648 117.596 74.5586 117.898C74.1576 118.201 73.8867 118.557 73.7461 118.969L71.1055 118.594C71.3138 117.865 71.6576 117.255 72.1367 116.766C72.6159 116.271 73.2018 115.901 73.8945 115.656C74.5872 115.406 75.3529 115.281 76.1914 115.281C76.7695 115.281 77.3451 115.349 77.918 115.484C78.4909 115.62 79.0143 115.844 79.4883 116.156C79.9622 116.464 80.3424 116.883 80.6289 117.414C80.9206 117.945 81.0664 118.609 81.0664 119.406V127.438H78.3477V125.789H78.2539C78.082 126.122 77.8398 126.435 77.5273 126.727C77.2201 127.013 76.832 127.245 76.3633 127.422C75.8997 127.594 75.3555 127.68 74.7305 127.68ZM75.4648 125.602C76.0326 125.602 76.5247 125.49 76.9414 125.266C77.3581 125.036 77.6784 124.734 77.9023 124.359C78.1315 123.984 78.2461 123.576 78.2461 123.133V121.719C78.1576 121.792 78.0065 121.859 77.793 121.922C77.5846 121.984 77.3503 122.039 77.0898 122.086C76.8294 122.133 76.5716 122.174 76.3164 122.211C76.0612 122.247 75.8398 122.279 75.6523 122.305C75.2305 122.362 74.8529 122.456 74.5195 122.586C74.1862 122.716 73.9232 122.898 73.7305 123.133C73.5378 123.362 73.4414 123.659 73.4414 124.023C73.4414 124.544 73.6315 124.937 74.0117 125.203C74.3919 125.469 74.8763 125.602 75.4648 125.602ZM89.9023 115.437V117.625H83.0039V115.437H89.9023ZM84.707 112.562H87.5352V123.828C87.5352 124.208 87.5924 124.5 87.707 124.703C87.8268 124.901 87.9831 125.036 88.1758 125.109C88.3685 125.182 88.582 125.219 88.8164 125.219C88.9935 125.219 89.1549 125.206 89.3008 125.18C89.4518 125.154 89.5664 125.13 89.6445 125.109L90.1211 127.32C89.9701 127.372 89.7539 127.43 89.4727 127.492C89.1966 127.555 88.8581 127.591 88.457 127.602C87.7487 127.622 87.1107 127.516 86.543 127.281C85.9753 127.042 85.5247 126.672 85.1914 126.172C84.8633 125.672 84.7018 125.047 84.707 124.297V112.562ZM97.4512 127.672C96.248 127.672 95.209 127.422 94.334 126.922C93.4642 126.417 92.7949 125.703 92.3262 124.781C91.8574 123.854 91.623 122.763 91.623 121.508C91.623 120.273 91.8574 119.19 92.3262 118.258C92.8001 117.32 93.4616 116.591 94.3105 116.07C95.1595 115.544 96.1569 115.281 97.3027 115.281C98.0423 115.281 98.7402 115.401 99.3965 115.641C100.058 115.875 100.641 116.24 101.146 116.734C101.657 117.229 102.058 117.859 102.35 118.625C102.641 119.385 102.787 120.292 102.787 121.344V122.211H92.9512V120.305H100.076C100.071 119.763 99.9538 119.281 99.7246 118.859C99.4954 118.432 99.1751 118.096 98.7637 117.852C98.3574 117.607 97.8835 117.484 97.3418 117.484C96.7637 117.484 96.2559 117.625 95.8184 117.906C95.3809 118.182 95.0397 118.547 94.7949 119C94.5553 119.448 94.4329 119.94 94.4277 120.477V122.141C94.4277 122.839 94.5553 123.437 94.8105 123.938C95.0658 124.432 95.4225 124.812 95.8809 125.078C96.3392 125.339 96.8757 125.469 97.4902 125.469C97.9017 125.469 98.2741 125.411 98.6074 125.297C98.9408 125.177 99.2298 125.003 99.4746 124.773C99.7194 124.544 99.9043 124.26 100.029 123.922L102.67 124.219C102.503 124.917 102.186 125.526 101.717 126.047C101.253 126.562 100.66 126.964 99.9355 127.25C99.2116 127.531 98.3835 127.672 97.4512 127.672ZM110.398 132.188C109.383 132.188 108.51 132.049 107.781 131.773C107.052 131.503 106.466 131.138 106.023 130.68C105.581 130.221 105.273 129.714 105.102 129.156L107.648 128.539C107.763 128.773 107.93 129.005 108.148 129.234C108.367 129.469 108.661 129.661 109.031 129.813C109.406 129.969 109.878 130.047 110.445 130.047C111.247 130.047 111.911 129.852 112.438 129.461C112.964 129.076 113.227 128.44 113.227 127.555V125.281H113.086C112.94 125.573 112.727 125.872 112.445 126.18C112.169 126.487 111.802 126.745 111.344 126.953C110.891 127.161 110.32 127.266 109.633 127.266C108.711 127.266 107.875 127.049 107.125 126.617C106.38 126.18 105.786 125.529 105.344 124.664C104.906 123.794 104.688 122.706 104.688 121.398C104.688 120.081 104.906 118.969 105.344 118.062C105.786 117.151 106.383 116.461 107.133 115.992C107.883 115.518 108.719 115.281 109.641 115.281C110.344 115.281 110.922 115.401 111.375 115.641C111.833 115.875 112.198 116.159 112.469 116.492C112.74 116.82 112.945 117.13 113.086 117.422H113.242V115.437H116.031V127.633C116.031 128.659 115.786 129.508 115.297 130.18C114.807 130.852 114.138 131.354 113.289 131.688C112.44 132.021 111.477 132.188 110.398 132.188ZM110.422 125.047C111.021 125.047 111.531 124.901 111.953 124.609C112.375 124.318 112.695 123.898 112.914 123.352C113.133 122.805 113.242 122.148 113.242 121.383C113.242 120.628 113.133 119.966 112.914 119.398C112.701 118.831 112.383 118.391 111.961 118.078C111.544 117.76 111.031 117.602 110.422 117.602C109.792 117.602 109.266 117.766 108.844 118.094C108.422 118.422 108.104 118.872 107.891 119.445C107.677 120.013 107.57 120.659 107.57 121.383C107.57 122.117 107.677 122.76 107.891 123.312C108.109 123.859 108.43 124.286 108.852 124.594C109.279 124.896 109.802 125.047 110.422 125.047ZM118.93 127.438V115.437H121.758V127.438H118.93ZM120.352 113.734C119.904 113.734 119.518 113.586 119.195 113.289C118.872 112.987 118.711 112.625 118.711 112.203C118.711 111.776 118.872 111.414 119.195 111.117C119.518 110.815 119.904 110.664 120.352 110.664C120.805 110.664 121.19 110.815 121.508 111.117C121.831 111.414 121.992 111.776 121.992 112.203C121.992 112.625 121.831 112.987 121.508 113.289C121.19 113.586 120.805 113.734 120.352 113.734ZM129.979 127.672C128.775 127.672 127.736 127.422 126.861 126.922C125.992 126.417 125.322 125.703 124.854 124.781C124.385 123.854 124.15 122.763 124.15 121.508C124.15 120.273 124.385 119.19 124.854 118.258C125.327 117.32 125.989 116.591 126.838 116.07C127.687 115.544 128.684 115.281 129.83 115.281C130.57 115.281 131.268 115.401 131.924 115.641C132.585 115.875 133.169 116.24 133.674 116.734C134.184 117.229 134.585 117.859 134.877 118.625C135.169 119.385 135.314 120.292 135.314 121.344V122.211H125.479V120.305H132.604C132.598 119.763 132.481 119.281 132.252 118.859C132.023 118.432 131.702 118.096 131.291 117.852C130.885 117.607 130.411 117.484 129.869 117.484C129.291 117.484 128.783 117.625 128.346 117.906C127.908 118.182 127.567 118.547 127.322 119C127.083 119.448 126.96 119.94 126.955 120.477V122.141C126.955 122.839 127.083 123.437 127.338 123.938C127.593 124.432 127.95 124.812 128.408 125.078C128.867 125.339 129.403 125.469 130.018 125.469C130.429 125.469 130.801 125.411 131.135 125.297C131.468 125.177 131.757 125.003 132.002 124.773C132.247 124.544 132.432 124.26 132.557 123.922L135.197 124.219C135.031 124.917 134.713 125.526 134.244 126.047C133.781 126.562 133.187 126.964 132.463 127.25C131.739 127.531 130.911 127.672 129.979 127.672ZM147.191 118.609L144.613 118.891C144.54 118.63 144.413 118.385 144.23 118.156C144.053 117.927 143.814 117.742 143.512 117.602C143.21 117.461 142.84 117.391 142.402 117.391C141.814 117.391 141.319 117.518 140.918 117.773C140.522 118.029 140.327 118.359 140.332 118.766C140.327 119.115 140.454 119.398 140.715 119.617C140.98 119.836 141.418 120.016 142.027 120.156L144.074 120.594C145.21 120.839 146.053 121.227 146.605 121.758C147.163 122.289 147.444 122.984 147.449 123.844C147.444 124.599 147.223 125.266 146.785 125.844C146.353 126.417 145.751 126.865 144.98 127.187C144.21 127.51 143.324 127.672 142.324 127.672C140.855 127.672 139.673 127.365 138.777 126.75C137.882 126.13 137.348 125.268 137.176 124.164L139.934 123.898C140.059 124.44 140.324 124.849 140.73 125.125C141.137 125.401 141.665 125.539 142.316 125.539C142.988 125.539 143.527 125.401 143.934 125.125C144.345 124.849 144.551 124.508 144.551 124.102C144.551 123.758 144.418 123.474 144.152 123.25C143.892 123.026 143.486 122.854 142.934 122.734L140.887 122.305C139.736 122.065 138.884 121.661 138.332 121.094C137.78 120.521 137.507 119.797 137.512 118.922C137.507 118.182 137.707 117.542 138.113 117C138.525 116.453 139.095 116.031 139.824 115.734C140.559 115.432 141.405 115.281 142.363 115.281C143.77 115.281 144.876 115.581 145.684 116.18C146.496 116.779 146.999 117.589 147.191 118.609ZM92.4404 155.672C91.3467 155.672 90.4066 155.474 89.6201 155.078C88.8337 154.682 88.2269 154.148 87.7998 153.477C87.3779 152.799 87.167 152.036 87.167 151.187C87.167 150.547 87.2972 149.979 87.5576 149.484C87.8232 148.99 88.1878 148.531 88.6514 148.109C89.1201 147.687 89.6618 147.268 90.2764 146.852L93.1123 144.922C93.529 144.651 93.8441 144.365 94.0576 144.062C94.2764 143.76 94.3857 143.406 94.3857 143C94.3857 142.656 94.2399 142.331 93.9482 142.023C93.6618 141.716 93.266 141.563 92.7607 141.563C92.4222 141.563 92.1227 141.643 91.8623 141.805C91.6071 141.961 91.4066 142.167 91.2607 142.422C91.1201 142.677 91.0498 142.948 91.0498 143.234C91.0498 143.583 91.1462 143.938 91.3389 144.297C91.5368 144.656 91.792 145.029 92.1045 145.414C92.4222 145.799 92.7607 146.208 93.1201 146.641L100.628 155.438H97.5654L91.3311 148.297C90.8675 147.755 90.4196 147.221 89.9873 146.695C89.5602 146.169 89.2087 145.622 88.9326 145.055C88.6618 144.482 88.5264 143.862 88.5264 143.195C88.5264 142.44 88.7008 141.766 89.0498 141.172C89.3988 140.573 89.8857 140.102 90.5107 139.758C91.141 139.414 91.8779 139.242 92.7217 139.242C93.5654 139.242 94.2894 139.409 94.8936 139.742C95.4977 140.076 95.9639 140.518 96.292 141.07C96.6201 141.622 96.7842 142.224 96.7842 142.875C96.7842 143.63 96.5967 144.307 96.2217 144.906C95.8467 145.5 95.3258 146.039 94.6592 146.523L91.4248 148.891C90.8936 149.276 90.5133 149.667 90.2842 150.062C90.055 150.453 89.9404 150.786 89.9404 151.062C89.9404 151.484 90.0472 151.867 90.2607 152.211C90.4743 152.555 90.7738 152.831 91.1592 153.039C91.5498 153.242 92.0055 153.344 92.5264 153.344C93.0993 153.344 93.6644 153.216 94.2217 152.961C94.779 152.701 95.2868 152.331 95.7451 151.852C96.2035 151.372 96.568 150.799 96.8389 150.133C97.1097 149.461 97.2451 148.716 97.2451 147.898H99.6748C99.6748 148.909 99.5628 149.789 99.3389 150.539C99.1149 151.284 98.8258 151.914 98.4717 152.43C98.1175 152.94 97.7425 153.349 97.3467 153.656C97.2217 153.745 97.1019 153.833 96.9873 153.922C96.8727 154.01 96.7529 154.099 96.6279 154.187C96.0654 154.698 95.4066 155.073 94.6514 155.312C93.9014 155.552 93.1644 155.672 92.4404 155.672ZM36.208 183.438H30.7861V167.437H36.3174C37.9059 167.437 39.2705 167.758 40.4111 168.398C41.557 169.034 42.4372 169.948 43.0518 171.141C43.6663 172.333 43.9736 173.76 43.9736 175.422C43.9736 177.089 43.6637 178.521 43.0439 179.719C42.4294 180.917 41.5413 181.836 40.3799 182.477C39.2236 183.117 37.833 183.438 36.208 183.438ZM33.6846 180.93H36.0674C37.182 180.93 38.1117 180.727 38.8564 180.32C39.6012 179.909 40.1611 179.297 40.5361 178.484C40.9111 177.667 41.0986 176.646 41.0986 175.422C41.0986 174.198 40.9111 173.182 40.5361 172.375C40.1611 171.562 39.6064 170.956 38.8721 170.555C38.1429 170.148 37.2367 169.945 36.1533 169.945H33.6846V180.93ZM46.6025 183.438V171.437H49.4307V183.438H46.6025ZM48.0244 169.734C47.5765 169.734 47.1911 169.586 46.8682 169.289C46.5452 168.987 46.3838 168.625 46.3838 168.203C46.3838 167.776 46.5452 167.414 46.8682 167.117C47.1911 166.815 47.5765 166.664 48.0244 166.664C48.4775 166.664 48.863 166.815 49.1807 167.117C49.5036 167.414 49.665 167.776 49.665 168.203C49.665 168.625 49.5036 168.987 49.1807 169.289C48.863 169.586 48.4775 169.734 48.0244 169.734ZM61.8232 174.609L59.2451 174.891C59.1722 174.63 59.0446 174.385 58.8623 174.156C58.6852 173.927 58.4456 173.742 58.1436 173.602C57.8415 173.461 57.4717 173.391 57.0342 173.391C56.4456 173.391 55.9508 173.518 55.5498 173.773C55.154 174.029 54.9587 174.359 54.9639 174.766C54.9587 175.115 55.0863 175.398 55.3467 175.617C55.6123 175.836 56.0498 176.016 56.6592 176.156L58.7061 176.594C59.8415 176.839 60.6852 177.227 61.2373 177.758C61.7946 178.289 62.0758 178.984 62.0811 179.844C62.0758 180.599 61.8545 181.266 61.417 181.844C60.9847 182.417 60.3831 182.865 59.6123 183.187C58.8415 183.51 57.9561 183.672 56.9561 183.672C55.4873 183.672 54.305 183.365 53.4092 182.75C52.5133 182.13 51.9795 181.268 51.8076 180.164L54.5654 179.898C54.6904 180.44 54.9561 180.849 55.3623 181.125C55.7686 181.401 56.2972 181.539 56.9482 181.539C57.6201 181.539 58.1592 181.401 58.5654 181.125C58.9769 180.849 59.1826 180.508 59.1826 180.102C59.1826 179.758 59.0498 179.474 58.7842 179.25C58.5238 179.026 58.1175 178.854 57.5654 178.734L55.5186 178.305C54.3675 178.065 53.516 177.661 52.9639 177.094C52.4118 176.521 52.1383 175.797 52.1436 174.922C52.1383 174.182 52.3389 173.542 52.7451 173C53.1566 172.453 53.7269 172.031 54.4561 171.734C55.1904 171.432 56.0368 171.281 56.9951 171.281C58.4014 171.281 59.5081 171.581 60.3154 172.18C61.1279 172.779 61.6305 173.589 61.8232 174.609ZM69.6475 183.672C68.4495 183.672 67.4209 183.409 66.5615 182.883C65.7074 182.357 65.0485 181.63 64.585 180.703C64.1266 179.771 63.8975 178.698 63.8975 177.484C63.8975 176.266 64.1318 175.19 64.6006 174.258C65.0693 173.32 65.7308 172.591 66.585 172.07C67.4443 171.544 68.46 171.281 69.6318 171.281C70.6058 171.281 71.4678 171.461 72.2178 171.82C72.973 172.174 73.5745 172.677 74.0225 173.328C74.4704 173.974 74.7256 174.729 74.7881 175.594H72.085C71.9756 175.016 71.7152 174.534 71.3037 174.148C70.8975 173.758 70.3532 173.562 69.6709 173.562C69.0928 173.562 68.585 173.719 68.1475 174.031C67.71 174.339 67.3688 174.781 67.124 175.359C66.8844 175.937 66.7646 176.63 66.7646 177.437C66.7646 178.255 66.8844 178.958 67.124 179.547C67.3636 180.13 67.6995 180.581 68.1318 180.898C68.5693 181.211 69.0824 181.367 69.6709 181.367C70.0876 181.367 70.46 181.289 70.7881 181.133C71.1214 180.971 71.4001 180.74 71.624 180.437C71.848 180.135 72.0016 179.768 72.085 179.336H74.7881C74.7204 180.185 74.4704 180.937 74.0381 181.594C73.6058 182.245 73.0173 182.755 72.2725 183.125C71.5277 183.49 70.6527 183.672 69.6475 183.672ZM84.7588 178.391V171.437H87.5869V183.438H84.8447V181.305H84.7197C84.4489 181.977 84.0036 182.526 83.3838 182.953C82.7692 183.38 82.0114 183.594 81.1104 183.594C80.3239 183.594 79.6286 183.419 79.0244 183.07C78.4255 182.716 77.9567 182.203 77.6182 181.531C77.2796 180.854 77.1104 180.036 77.1104 179.078V171.437H79.9385V178.641C79.9385 179.401 80.1468 180.005 80.5635 180.453C80.9801 180.901 81.527 181.125 82.2041 181.125C82.6208 181.125 83.0244 181.023 83.415 180.82C83.8057 180.617 84.126 180.315 84.376 179.914C84.6312 179.508 84.7588 179 84.7588 178.391ZM99.9795 174.609L97.4014 174.891C97.3285 174.63 97.2008 174.385 97.0186 174.156C96.8415 173.927 96.6019 173.742 96.2998 173.602C95.9977 173.461 95.6279 173.391 95.1904 173.391C94.6019 173.391 94.1071 173.518 93.7061 173.773C93.3102 174.029 93.1149 174.359 93.1201 174.766C93.1149 175.115 93.2425 175.398 93.5029 175.617C93.7686 175.836 94.2061 176.016 94.8154 176.156L96.8623 176.594C97.9977 176.839 98.8415 177.227 99.3936 177.758C99.9508 178.289 100.232 178.984 100.237 179.844C100.232 180.599 100.011 181.266 99.5732 181.844C99.141 182.417 98.5394 182.865 97.7686 183.187C96.9977 183.51 96.1123 183.672 95.1123 183.672C93.6436 183.672 92.4613 183.365 91.5654 182.75C90.6696 182.13 90.1357 181.268 89.9639 180.164L92.7217 179.898C92.8467 180.44 93.1123 180.849 93.5186 181.125C93.9248 181.401 94.4535 181.539 95.1045 181.539C95.7764 181.539 96.3154 181.401 96.7217 181.125C97.1331 180.849 97.3389 180.508 97.3389 180.102C97.3389 179.758 97.2061 179.474 96.9404 179.25C96.68 179.026 96.2738 178.854 95.7217 178.734L93.6748 178.305C92.5238 178.065 91.6722 177.661 91.1201 177.094C90.568 176.521 90.2946 175.797 90.2998 174.922C90.2946 174.182 90.4951 173.542 90.9014 173C91.3128 172.453 91.8831 172.031 92.6123 171.734C93.3467 171.432 94.193 171.281 95.1514 171.281C96.5576 171.281 97.6644 171.581 98.4717 172.18C99.2842 172.779 99.7868 173.589 99.9795 174.609ZM112.054 174.609L109.476 174.891C109.403 174.63 109.275 174.385 109.093 174.156C108.916 173.927 108.676 173.742 108.374 173.602C108.072 173.461 107.702 173.391 107.265 173.391C106.676 173.391 106.181 173.518 105.78 173.773C105.384 174.029 105.189 174.359 105.194 174.766C105.189 175.115 105.317 175.398 105.577 175.617C105.843 175.836 106.28 176.016 106.89 176.156L108.937 176.594C110.072 176.839 110.916 177.227 111.468 177.758C112.025 178.289 112.306 178.984 112.312 179.844C112.306 180.599 112.085 181.266 111.647 181.844C111.215 182.417 110.614 182.865 109.843 183.187C109.072 183.51 108.187 183.672 107.187 183.672C105.718 183.672 104.535 183.365 103.64 182.75C102.744 182.13 102.21 181.268 102.038 180.164L104.796 179.898C104.921 180.44 105.187 180.849 105.593 181.125C105.999 181.401 106.528 181.539 107.179 181.539C107.851 181.539 108.39 181.401 108.796 181.125C109.207 180.849 109.413 180.508 109.413 180.102C109.413 179.758 109.28 179.474 109.015 179.25C108.754 179.026 108.348 178.854 107.796 178.734L105.749 178.305C104.598 178.065 103.746 177.661 103.194 177.094C102.642 176.521 102.369 175.797 102.374 174.922C102.369 174.182 102.569 173.542 102.976 173C103.387 172.453 103.957 172.031 104.687 171.734C105.421 171.432 106.267 171.281 107.226 171.281C108.632 171.281 109.739 171.581 110.546 172.18C111.358 172.779 111.861 173.589 112.054 174.609ZM114.644 183.438V171.437H117.472V183.438H114.644ZM116.065 169.734C115.618 169.734 115.232 169.586 114.909 169.289C114.586 168.987 114.425 168.625 114.425 168.203C114.425 167.776 114.586 167.414 114.909 167.117C115.232 166.815 115.618 166.664 116.065 166.664C116.519 166.664 116.904 166.815 117.222 167.117C117.545 167.414 117.706 167.776 117.706 168.203C117.706 168.625 117.545 168.987 117.222 169.289C116.904 169.586 116.519 169.734 116.065 169.734ZM125.614 183.672C124.442 183.672 123.427 183.414 122.567 182.898C121.708 182.383 121.041 181.661 120.567 180.734C120.099 179.807 119.864 178.724 119.864 177.484C119.864 176.245 120.099 175.159 120.567 174.227C121.041 173.294 121.708 172.57 122.567 172.055C123.427 171.539 124.442 171.281 125.614 171.281C126.786 171.281 127.802 171.539 128.661 172.055C129.521 172.57 130.185 173.294 130.653 174.227C131.127 175.159 131.364 176.245 131.364 177.484C131.364 178.724 131.127 179.807 130.653 180.734C130.185 181.661 129.521 182.383 128.661 182.898C127.802 183.414 126.786 183.672 125.614 183.672ZM125.63 181.406C126.265 181.406 126.797 181.232 127.224 180.883C127.651 180.529 127.968 180.055 128.177 179.461C128.39 178.867 128.497 178.206 128.497 177.477C128.497 176.742 128.39 176.078 128.177 175.484C127.968 174.885 127.651 174.409 127.224 174.055C126.797 173.701 126.265 173.523 125.63 173.523C124.979 173.523 124.437 173.701 124.005 174.055C123.578 174.409 123.257 174.885 123.044 175.484C122.836 176.078 122.731 176.742 122.731 177.477C122.731 178.206 122.836 178.867 123.044 179.461C123.257 180.055 123.578 180.529 124.005 180.883C124.437 181.232 124.979 181.406 125.63 181.406ZM136.593 176.406V183.438H133.765V171.437H136.468V173.477H136.608C136.884 172.805 137.325 172.271 137.929 171.875C138.538 171.479 139.291 171.281 140.187 171.281C141.015 171.281 141.736 171.458 142.351 171.812C142.97 172.167 143.45 172.68 143.788 173.352C144.132 174.023 144.301 174.839 144.296 175.797V183.438H141.468V176.234C141.468 175.432 141.259 174.805 140.843 174.352C140.431 173.898 139.861 173.672 139.132 173.672C138.637 173.672 138.197 173.781 137.812 174C137.431 174.214 137.132 174.523 136.913 174.93C136.7 175.336 136.593 175.828 136.593 176.406ZM156.655 174.609L154.077 174.891C154.004 174.63 153.877 174.385 153.694 174.156C153.517 173.927 153.278 173.742 152.976 173.602C152.674 173.461 152.304 173.391 151.866 173.391C151.278 173.391 150.783 173.518 150.382 173.773C149.986 174.029 149.791 174.359 149.796 174.766C149.791 175.115 149.918 175.398 150.179 175.617C150.444 175.836 150.882 176.016 151.491 176.156L153.538 176.594C154.674 176.839 155.517 177.227 156.069 177.758C156.627 178.289 156.908 178.984 156.913 179.844C156.908 180.599 156.687 181.266 156.249 181.844C155.817 182.417 155.215 182.865 154.444 183.187C153.674 183.51 152.788 183.672 151.788 183.672C150.319 183.672 149.137 183.365 148.241 182.75C147.345 182.13 146.812 181.268 146.64 180.164L149.397 179.898C149.522 180.44 149.788 180.849 150.194 181.125C150.601 181.401 151.129 181.539 151.78 181.539C152.452 181.539 152.991 181.401 153.397 181.125C153.809 180.849 154.015 180.508 154.015 180.102C154.015 179.758 153.882 179.474 153.616 179.25C153.356 179.026 152.95 178.854 152.397 178.734L150.351 178.305C149.2 178.065 148.348 177.661 147.796 177.094C147.244 176.521 146.97 175.797 146.976 174.922C146.97 174.182 147.171 173.542 147.577 173C147.989 172.453 148.559 172.031 149.288 171.734C150.022 171.432 150.869 171.281 151.827 171.281C153.233 171.281 154.34 171.581 155.147 172.18C155.96 172.779 156.463 173.589 156.655 174.609Z" fill="white"/>
<defs>
<linearGradient id="paint0_linear_2_1810" x1="60.6522" y1="2.16823e-06" x2="209.705" y2="139.68" gradientUnits="userSpaceOnUse">
<stop stop-color="#BA963A"/>
<stop offset="1" stop-color="#CC9C21"/>
</linearGradient>
</defs>
</svg>
