<svg width="114" height="21" viewBox="0 0 114 21" fill="none" xmlns="http://www.w3.org/2000/svg">
<path d="M7.38763 4.78473H5.04001L5.05325 2.27807L1.57837 2.79525V4.73169L0 4.97039V6.50896H1.63134L1.61809 13.26C1.62953 13.5028 2.01951 15.6935 4.39007 15.5544C7.07904 15.3968 7.30804 15.0903 7.54667 14.931C7.52774 14.9508 7.54667 13.618 7.54667 13.618L6.08775 13.6579C6.08775 13.6579 5.26546 13.6049 5.13277 12.6896C5.12762 12.6903 5.10628 6.53544 5.10628 6.53544L7.38763 6.54869V4.78473ZM12.4375 0L7.74563 0.673147L7.75232 1.5684L8.99903 2.12551L9.01227 13.8435L7.83184 14.3077L7.84515 15.2692L13.6013 15.2759V14.3209L12.4408 13.8169L12.4475 6.88683C12.4475 6.88683 13.1041 6.5951 14.0125 6.5951C14.921 6.5951 15.3388 7.1787 15.3388 7.53684V13.8369L14.2777 14.3076V15.2759H20.0206V14.3476L18.8402 13.7705V6.66807C18.8402 6.66807 18.8668 4.41334 16.2539 4.52604C14.6642 4.5356 13.5382 5.03666 12.4308 5.91206C12.4308 5.90878 12.4308 0.00662112 12.4375 0V0ZM29.9376 10.3085C30.0708 7.99644 29.8291 4.31015 25.1638 4.53132C20.5923 4.74801 20.0151 8.2451 20.0433 10.5054C20.306 14.1576 22.1892 15.5152 25.7266 15.5699C28.5214 15.476 29.5343 14.0037 29.5343 14.0037V13.0142C29.5343 13.0142 28.2212 13.4081 26.8427 13.3987C23.5791 13.3764 23.6164 10.3085 23.6164 10.3085H29.9376ZM23.6071 9.07989C23.6071 9.07989 23.5878 7.58961 23.885 6.64325C24.1221 5.88811 24.6016 5.63878 25.1546 5.63798C26.0756 5.63658 26.3059 6.15309 26.4094 6.78765C26.5584 7.70076 26.5339 8.93851 26.5238 8.94861L23.6071 9.07989Z" fill="#B2C9D9"/>
<path d="M38.7948 13.0076H34.6301C34.6301 13.0076 34.0068 12.9412 33.9803 12.3045C33.9537 11.6678 34.4047 11.5088 34.4047 11.5088C34.4047 11.5088 35.2934 11.7741 36.2217 11.7741C37.1501 11.7741 40.7975 11.3894 40.7975 8.23279C40.7975 6.79882 39.6703 5.97807 39.6703 5.97807L41.6871 6.51846L41.6531 4.44632L38.7418 4.98343C38.7418 4.98343 37.2299 4.43307 36.1555 4.43307C35.4326 4.43307 31.7055 4.71959 31.5696 7.99176C31.4736 10.3019 33.4233 11.164 33.4101 11.164C33.3968 11.164 31.5532 12.3046 31.5399 13.7238C31.5272 15.0902 33.0875 15.5097 33.2035 15.539C33.2085 15.5392 33.2111 15.5398 33.211 15.5409L33.2035 15.539C33.0538 15.5345 30.6643 15.9835 30.6646 17.6631C30.6648 19.2679 33.3172 20.0504 36.129 20.0637C38.9407 20.077 42.0311 19.2811 42.0311 15.9521C42.0311 12.6231 38.7948 13.0076 38.7948 13.0076ZM36.129 5.69303C37.4222 5.68634 37.4288 7.02594 37.4354 7.58961V8.59107C37.4354 8.59107 37.6078 10.3949 36.2417 10.4015C34.8756 10.4081 34.9154 9.3537 34.9154 8.59107V7.41064C34.9154 7.41064 34.8359 5.69965 36.129 5.69303ZM36.1357 18.7904C34.2125 18.7904 33.5229 18.0079 33.5229 17.2519C33.5229 16.4959 33.9937 16.1842 33.9937 16.1842L38.1649 16.1776C38.1649 16.1776 38.994 16.2703 38.994 16.9999C38.9939 18.1209 38.0588 18.7904 36.1357 18.7904ZM46.7129 4.50591L42.0178 5.23543V6.15062L43.2247 6.73421V12.6363C43.2247 12.6363 43.2874 15.5347 46.1294 15.5675C48.4372 15.594 49.5911 13.9892 49.5911 13.9892V15.541L54.1403 14.9971V14.1616L52.9778 13.4905V4.53266L48.3046 5.26218V6.13758L49.538 6.7609V13.061C49.538 13.061 49.2197 13.3262 48.1985 13.4058C47.1772 13.4853 46.713 12.5172 46.713 12.5172L46.7129 4.50591ZM55.1002 5.26265C55.1002 5.26265 57.3416 4.44672 59.1892 4.44672C61.0368 4.44672 63.7096 5.07505 63.7096 7.37278V13.7408L64.8538 14.3409V15.1006C64.8538 15.1006 64.0379 15.5414 62.8375 15.5414C61.637 15.5414 60.596 14.9318 60.596 14.0127C60.3351 14.0174 60.2402 15.5227 57.4261 15.5227C54.1436 15.5227 54.3969 12.6154 54.3969 12.5591C54.3969 12.5029 54.3024 10.3888 56.6946 9.93308C59.0579 9.48298 60.1552 9.30474 60.1552 9.30474L60.1437 7.16646C60.1437 7.16646 59.9489 5.8722 58.8328 5.88156C57.7168 5.89099 57.7261 5.90035 57.7261 5.90035L56.9384 8.048H55.0909L55.1002 5.26265ZM60.2442 13.2765V10.3881C60.2442 10.3881 57.8901 10.1771 57.8855 12.0621C57.8821 13.4813 58.7739 13.647 59.1798 13.647C59.6441 13.6173 59.9522 13.4539 60.2442 13.2765ZM69.6555 4.4092L65.0696 5.1313V6.08788L66.2513 6.65055V13.7501L65.154 14.3128V15.2131H71.1938V14.3502L69.7495 13.7688L69.7589 7.90722C69.7589 7.90722 70.678 7.54145 71.6064 7.54145C72.5349 7.54145 72.9945 7.64458 72.9945 7.64458V4.5778C72.9945 4.5778 71.029 3.96217 69.637 6.70673C69.6368 6.71629 69.6555 4.4092 69.6555 4.4092ZM78.7433 0.91104V1.83947L79.8968 2.39277V4.90625C79.8968 4.90625 79.0904 4.52169 78.1149 4.52169C77.1395 4.52169 73.1536 4.67177 73.0412 10.1488C72.9285 15.6258 77.1864 15.5508 77.149 15.5508C77.1115 15.5508 79.0997 15.6071 80 14.4441C79.9953 14.4441 79.9906 15.5461 79.9906 15.5461L84.4971 14.9975V14.1065L83.4137 13.5532L83.4044 0.179641L78.7433 0.91104ZM79.8922 6.34123V13.4595C79.8922 13.4595 79.5203 13.6471 78.8277 13.6471C77.7013 13.6471 76.7482 12.8806 76.755 10.4115C76.7611 8.25453 77.0758 6.55986 78.0192 6.11611C78.9623 5.67249 79.8484 6.28177 79.8922 6.34123ZM89.6326 1.92628C89.6326 2.98425 88.774 3.84279 87.7161 3.84279C86.6581 3.84279 85.7996 2.98425 85.7996 1.92628C85.7996 0.868371 86.6581 0.00976562 87.7161 0.00976562C88.774 0.00976562 89.6326 0.868304 89.6326 1.92628ZM89.553 4.45287L84.7915 5.12929V6.04448L86.0382 6.65463V13.7636L84.8976 14.2809V15.2492H90.6273V14.3207L89.5398 13.7901L89.553 4.45287ZM91.7266 5.25088C91.7266 5.25088 93.9682 4.43501 95.8157 4.43501C97.6633 4.43501 100.336 5.06335 100.336 7.36108V13.7291L101.48 14.3293V15.0889C101.48 15.0889 100.664 15.5297 99.464 15.5297C98.2636 15.5297 97.2225 14.9201 97.2225 14.001C96.9616 14.0057 96.8667 15.5109 94.0526 15.5109C90.7701 15.5109 91.0234 12.6037 91.0234 12.5474C91.0234 12.4911 90.9291 10.3771 93.3211 9.92145C95.6844 9.47128 96.7818 9.29304 96.7818 9.29304L96.7702 7.15475C96.7702 7.15475 96.5755 5.86049 95.4594 5.86992C94.3433 5.87935 94.3527 5.88865 94.3527 5.88865L93.5649 8.0363H91.7174L91.7266 5.25088ZM96.8708 13.2648V10.3762C96.8708 10.3762 94.5167 10.1653 94.512 12.0503C94.5086 13.4694 95.4005 13.6352 95.8063 13.6352C96.2705 13.6056 96.5788 13.442 96.8708 13.2648ZM106.331 4.42639L101.649 5.16915V6.05779L102.909 6.65463V13.8167L101.755 14.2809V15.2757H107.485V14.2942L106.424 13.7901V6.86684C106.424 6.86684 106.994 6.60152 107.83 6.60152C108.665 6.60152 109.315 6.97291 109.315 7.7952V13.7901L108.139 14.3678L108.135 15.249H113.97V14.3074L112.83 13.83V7.18518C112.83 7.18518 112.909 4.53259 110.217 4.53259C107.525 4.53259 106.344 5.95172 106.344 5.95172L106.331 4.42639Z" fill="#00417B"/>
</svg>
