<svg width="176" height="178" viewBox="0 0 176 178" fill="none" xmlns="http://www.w3.org/2000/svg">
<path d="M46.4907 104.453C47.1338 105.096 48.1918 105.096 48.8349 104.453L69.9538 83.3344L87.8157 101.217C88.4588 101.86 89.5168 101.86 90.1599 101.217L137.107 54.2285C137.75 53.5854 137.75 52.5274 137.107 51.8842L129.473 44.2499C128.829 43.6068 127.771 43.6068 127.128 44.2499L88.9982 82.4216L71.1363 64.539C70.4932 63.8959 69.4352 63.8959 68.7921 64.539L38.8564 94.4747C38.2132 95.1178 38.2132 96.1758 38.8564 96.8189L46.4907 104.453Z" fill="#BA963A"/>
<path d="M169.283 14.9367H95.4292V1.65964C95.4292 0.746837 94.6823 0 93.7695 0H82.1521C81.2393 0 80.4924 0.746837 80.4924 1.65964V14.9367H6.63855C2.9666 14.9367 0 17.9033 0 21.5753V129.452C0 133.124 2.9666 136.09 6.63855 136.09H80.5754V142.729L46.3869 165.155C45.6193 165.653 45.4118 166.669 45.9097 167.437L52.1956 177.229V177.249C52.6935 178.017 53.7308 178.224 54.4984 177.726L87.9608 155.778L121.423 177.726C122.191 178.224 123.228 178.017 123.726 177.249V177.229L130.012 167.437C130.51 166.669 130.282 165.653 129.535 165.155L95.4292 142.791V136.09H169.283C172.955 136.09 175.922 133.124 175.922 129.452V21.5753C175.922 17.9033 172.955 14.9367 169.283 14.9367ZM160.985 121.154H14.9367V29.8735H160.985V121.154Z" fill="white"/>
</svg>
