<svg width="55" height="89" viewBox="0 0 55 89" fill="none" xmlns="http://www.w3.org/2000/svg">
<path d="M8.12241 73.558C8.20494 73.3905 8.3327 73.2495 8.49122 73.1509C8.64975 73.0523 8.83272 73 9.01941 73C9.20611 73 9.38908 73.0523 9.5476 73.1509C9.70613 73.2495 9.83389 73.3905 9.91641 73.558L11.8464 77.468L16.1634 78.096C16.3481 78.1228 16.5216 78.2008 16.6643 78.3211C16.807 78.4414 16.9132 78.5992 16.9708 78.7767C17.0285 78.9542 17.0353 79.1443 16.9905 79.3255C16.9457 79.5067 16.8511 79.6718 16.7174 79.802L13.5934 82.846L14.3314 87.146C14.3629 87.3299 14.3424 87.5189 14.272 87.6917C14.2017 87.8646 14.0844 88.0143 13.9335 88.1239C13.7825 88.2336 13.6039 88.2988 13.4178 88.3123C13.2317 88.3257 13.0456 88.2868 12.8804 88.2L9.02041 86.17L5.15841 88.2C4.99321 88.2866 4.80708 88.3253 4.62103 88.3117C4.43499 88.2981 4.25646 88.2327 4.10562 88.123C3.95478 88.0132 3.83765 87.8635 3.76746 87.6907C3.69726 87.5178 3.67681 87.3288 3.70841 87.145L4.44541 82.846L1.32141 79.802C1.18771 79.6718 1.09312 79.5067 1.04833 79.3255C1.00355 79.1443 1.01037 78.9542 1.06801 78.7767C1.12566 78.5992 1.23183 78.4414 1.37452 78.3211C1.51721 78.2008 1.69071 78.1228 1.87541 78.096L6.19241 77.469L8.12241 73.557V73.558ZM3.40841 83.345C3.44947 83.3962 3.48002 83.4551 3.49832 83.5182C3.51662 83.5813 3.52231 83.6473 3.51507 83.7126C3.50783 83.7779 3.48779 83.8411 3.45611 83.8987C3.42442 83.9562 3.38171 84.0069 3.33041 84.048L0.830413 86.048C0.779358 86.091 0.720212 86.1233 0.656463 86.1431C0.592714 86.1628 0.525652 86.1696 0.459231 86.1631C0.392809 86.1565 0.328373 86.1367 0.26972 86.1049C0.211068 86.073 0.159387 86.0298 0.117725 85.9776C0.0760626 85.9255 0.0452619 85.8655 0.027139 85.8013C0.00901609 85.737 0.00393769 85.6698 0.0122033 85.6036C0.0204689 85.5374 0.0419111 85.4734 0.0752658 85.4156C0.108621 85.3578 0.153212 85.3073 0.206413 85.267L2.70641 83.267C2.8099 83.1844 2.94194 83.1462 3.07354 83.1608C3.20515 83.1754 3.32558 83.2417 3.40841 83.345ZM3.33041 75.768C3.38517 75.8077 3.4313 75.8581 3.466 75.9162C3.50071 75.9742 3.52327 76.0387 3.53233 76.1058C3.54138 76.1728 3.53674 76.241 3.51868 76.3062C3.50062 76.3714 3.46952 76.4322 3.42726 76.485C3.385 76.5379 3.33246 76.5816 3.27283 76.6135C3.21319 76.6454 3.14769 76.6649 3.0803 76.6708C3.01291 76.6767 2.94503 76.6688 2.88076 76.6477C2.8165 76.6266 2.75718 76.5927 2.70641 76.548L0.206413 74.548C0.151656 74.5082 0.105528 74.4578 0.0708218 74.3998C0.0361156 74.3417 0.0135527 74.2772 0.00449872 74.2102C-0.00455524 74.1431 8.81124e-05 74.0749 0.0181476 74.0098C0.0362072 73.9446 0.0673074 73.8837 0.109566 73.8309C0.151824 73.7781 0.204361 73.7344 0.263998 73.7024C0.323635 73.6705 0.389131 73.651 0.456521 73.6451C0.523911 73.6393 0.591794 73.6471 0.65606 73.6682C0.720327 73.6893 0.779641 73.7233 0.830413 73.768L3.33041 75.768ZM14.6274 83.346C14.5864 83.3973 14.5559 83.4562 14.5377 83.5193C14.5195 83.5825 14.5139 83.6486 14.5212 83.7138C14.5286 83.7791 14.5487 83.8423 14.5805 83.8998C14.6122 83.9573 14.655 84.008 14.7064 84.049L17.2064 86.049C17.2575 86.092 17.3166 86.1243 17.3804 86.1441C17.4441 86.1638 17.5112 86.1706 17.5776 86.1641C17.644 86.1575 17.7085 86.1377 17.7671 86.1059C17.8258 86.074 17.8774 86.0308 17.9191 85.9786C17.9608 85.9265 17.9916 85.8665 18.0097 85.8023C18.0278 85.738 18.0329 85.6708 18.0246 85.6046C18.0164 85.5384 17.9949 85.4745 17.9616 85.4166C17.9282 85.3588 17.8836 85.3083 17.8304 85.268L15.3304 83.268C15.2791 83.2269 15.2203 83.1964 15.1572 83.1781C15.0941 83.1598 15.028 83.1541 14.9628 83.1613C14.8975 83.1686 14.8342 83.1886 14.7767 83.2203C14.7192 83.252 14.6684 83.2947 14.6274 83.346ZM14.7064 75.768C14.6099 75.8529 14.5499 75.9717 14.5387 76.0998C14.5275 76.2278 14.5661 76.3552 14.6464 76.4556C14.7267 76.5559 14.8425 76.6215 14.9699 76.6387C15.0973 76.6559 15.2264 76.6234 15.3304 76.548L17.8304 74.548C17.8852 74.5082 17.9313 74.4578 17.966 74.3998C18.0007 74.3417 18.0233 74.2772 18.0323 74.2102C18.0414 74.1431 18.0367 74.0749 18.0187 74.0098C18.0006 73.9446 17.9695 73.8837 17.9273 73.8309C17.885 73.7781 17.8325 73.7344 17.7728 73.7024C17.7132 73.6705 17.6477 73.651 17.5803 73.6451C17.5129 73.6393 17.445 73.6471 17.3808 73.6682C17.3165 73.6893 17.2572 73.7233 17.2064 73.768L14.7064 75.768Z" fill="white"/>
<path d="M44.1224 35.558C44.2049 35.3905 44.3327 35.2495 44.4912 35.1509C44.6497 35.0523 44.8327 35 45.0194 35C45.2061 35 45.3891 35.0523 45.5476 35.1509C45.7061 35.2495 45.8339 35.3905 45.9164 35.558L47.8464 39.468L52.1634 40.096C52.3481 40.1228 52.5216 40.2008 52.6643 40.3211C52.807 40.4414 52.9132 40.5992 52.9708 40.7767C53.0285 40.9542 53.0353 41.1443 52.9905 41.3255C52.9457 41.5067 52.8511 41.6718 52.7174 41.802L49.5934 44.846L50.3314 49.146C50.3629 49.3299 50.3424 49.5189 50.272 49.6917C50.2017 49.8646 50.0844 50.0143 49.9335 50.1239C49.7825 50.2336 49.6039 50.2988 49.4178 50.3123C49.2317 50.3257 49.0456 50.2868 48.8804 50.2L45.0204 48.17L41.1584 50.2C40.9932 50.2866 40.8071 50.3253 40.621 50.3117C40.435 50.2981 40.2565 50.2327 40.1056 50.123C39.9548 50.0132 39.8376 49.8635 39.7675 49.6907C39.6973 49.5178 39.6768 49.3288 39.7084 49.145L40.4454 44.846L37.3214 41.802C37.1877 41.6718 37.0931 41.5067 37.0483 41.3255C37.0036 41.1443 37.0104 40.9542 37.068 40.7767C37.1257 40.5992 37.2318 40.4414 37.3745 40.3211C37.5172 40.2008 37.6907 40.1228 37.8754 40.096L42.1924 39.469L44.1224 35.557V35.558ZM39.4084 45.345C39.4495 45.3962 39.48 45.4551 39.4983 45.5182C39.5166 45.5813 39.5223 45.6473 39.5151 45.7126C39.5078 45.7779 39.4878 45.8411 39.4561 45.8987C39.4244 45.9562 39.3817 46.0069 39.3304 46.048L36.8304 48.048C36.7794 48.091 36.7202 48.1233 36.6565 48.1431C36.5927 48.1628 36.5257 48.1696 36.4592 48.1631C36.3928 48.1565 36.3284 48.1367 36.2697 48.1049C36.2111 48.073 36.1594 48.0298 36.1177 47.9776C36.0761 47.9255 36.0453 47.8655 36.0271 47.8013C36.009 47.737 36.0039 47.6698 36.0122 47.6036C36.0205 47.5374 36.0419 47.4734 36.0753 47.4156C36.1086 47.3578 36.1532 47.3073 36.2064 47.267L38.7064 45.267C38.8099 45.1844 38.9419 45.1462 39.0735 45.1608C39.2051 45.1754 39.3256 45.2417 39.4084 45.345ZM39.3304 37.768C39.3852 37.8077 39.4313 37.8581 39.466 37.9162C39.5007 37.9742 39.5233 38.0387 39.5323 38.1058C39.5414 38.1728 39.5367 38.241 39.5187 38.3062C39.5006 38.3714 39.4695 38.4322 39.4273 38.485C39.385 38.5379 39.3325 38.5816 39.2728 38.6135C39.2132 38.6454 39.1477 38.6649 39.0803 38.6708C39.0129 38.6767 38.945 38.6688 38.8808 38.6477C38.8165 38.6266 38.7572 38.5927 38.7064 38.548L36.2064 36.548C36.1517 36.5082 36.1055 36.4578 36.0708 36.3998C36.0361 36.3417 36.0136 36.2772 36.0045 36.2102C35.9954 36.1431 36.0001 36.0749 36.0181 36.0098C36.0362 35.9446 36.0673 35.8837 36.1096 35.8309C36.1518 35.7781 36.2044 35.7344 36.264 35.7024C36.3236 35.6705 36.3891 35.651 36.4565 35.6451C36.5239 35.6393 36.5918 35.6471 36.6561 35.6682C36.7203 35.6893 36.7796 35.7233 36.8304 35.768L39.3304 37.768ZM50.6274 45.346C50.5864 45.3973 50.5559 45.4562 50.5377 45.5193C50.5195 45.5825 50.5139 45.6486 50.5212 45.7138C50.5286 45.7791 50.5487 45.8423 50.5805 45.8998C50.6122 45.9573 50.655 46.008 50.7064 46.049L53.2064 48.049C53.2575 48.092 53.3166 48.1243 53.3804 48.1441C53.4441 48.1638 53.5112 48.1706 53.5776 48.1641C53.644 48.1575 53.7085 48.1377 53.7671 48.1059C53.8258 48.074 53.8774 48.0308 53.9191 47.9786C53.9608 47.9265 53.9916 47.8665 54.0097 47.8023C54.0278 47.738 54.0329 47.6708 54.0246 47.6046C54.0164 47.5384 53.9949 47.4745 53.9616 47.4166C53.9282 47.3588 53.8836 47.3083 53.8304 47.268L51.3304 45.268C51.2791 45.2269 51.2203 45.1964 51.1572 45.1781C51.0941 45.1598 51.028 45.1541 50.9628 45.1613C50.8975 45.1686 50.8342 45.1886 50.7767 45.2203C50.7192 45.252 50.6684 45.2947 50.6274 45.346ZM50.7064 37.768C50.6099 37.8529 50.5499 37.9717 50.5387 38.0998C50.5275 38.2278 50.5661 38.3552 50.6464 38.4556C50.7267 38.5559 50.8425 38.6215 50.9699 38.6387C51.0973 38.6559 51.2264 38.6234 51.3304 38.548L53.8304 36.548C53.8852 36.5082 53.9313 36.4578 53.966 36.3998C54.0007 36.3417 54.0233 36.2772 54.0323 36.2102C54.0414 36.1431 54.0367 36.0749 54.0187 36.0098C54.0006 35.9446 53.9695 35.8837 53.9273 35.8309C53.885 35.7781 53.8325 35.7344 53.7728 35.7024C53.7132 35.6705 53.6477 35.651 53.5803 35.6451C53.5129 35.6393 53.445 35.6471 53.3808 35.6682C53.3165 35.6893 53.2572 35.7233 53.2064 35.768L50.7064 37.768Z" fill="#BA963A"/>
<path d="M8.12241 0.55797C8.20494 0.390504 8.3327 0.249484 8.49122 0.150874C8.64975 0.0522634 8.83272 0 9.01941 0C9.20611 0 9.38908 0.0522634 9.5476 0.150874C9.70613 0.249484 9.83389 0.390504 9.91641 0.55797L11.8464 4.46797L16.1634 5.09597C16.3481 5.12279 16.5216 5.20077 16.6643 5.32107C16.807 5.44138 16.9132 5.59922 16.9708 5.77673C17.0285 5.95424 17.0353 6.14434 16.9905 6.32553C16.9457 6.50671 16.8511 6.67175 16.7174 6.80197L13.5934 9.84597L14.3314 14.146C14.3629 14.3299 14.3424 14.5189 14.272 14.6917C14.2017 14.8646 14.0844 15.0143 13.9335 15.1239C13.7825 15.2336 13.6039 15.2988 13.4178 15.3123C13.2317 15.3257 13.0456 15.2868 12.8804 15.2L9.02041 13.17L5.15841 15.2C4.99321 15.2866 4.80708 15.3253 4.62103 15.3117C4.43499 15.2981 4.25646 15.2327 4.10562 15.123C3.95478 15.0132 3.83765 14.8635 3.76746 14.6907C3.69726 14.5178 3.67681 14.3288 3.70841 14.145L4.44541 9.84597L1.32141 6.80197C1.18771 6.67175 1.09312 6.50671 1.04833 6.32553C1.00355 6.14434 1.01037 5.95424 1.06801 5.77673C1.12566 5.59922 1.23183 5.44138 1.37452 5.32107C1.51721 5.20077 1.69071 5.12279 1.87541 5.09597L6.19241 4.46897L8.12241 0.556969V0.55797ZM3.40841 10.345C3.44947 10.3962 3.48002 10.4551 3.49832 10.5182C3.51662 10.5813 3.52231 10.6473 3.51507 10.7126C3.50783 10.7779 3.48779 10.8411 3.45611 10.8987C3.42442 10.9562 3.38171 11.0069 3.33041 11.048L0.830413 13.048C0.779358 13.091 0.720212 13.1233 0.656463 13.1431C0.592714 13.1628 0.525652 13.1696 0.459231 13.1631C0.392809 13.1565 0.328373 13.1367 0.26972 13.1049C0.211068 13.073 0.159387 13.0298 0.117725 12.9776C0.0760626 12.9255 0.0452619 12.8655 0.027139 12.8013C0.00901609 12.737 0.00393769 12.6698 0.0122033 12.6036C0.0204689 12.5374 0.0419111 12.4734 0.0752658 12.4156C0.108621 12.3578 0.153212 12.3073 0.206413 12.267L2.70641 10.267C2.8099 10.1844 2.94194 10.1462 3.07354 10.1608C3.20515 10.1754 3.32558 10.2417 3.40841 10.345ZM3.33041 2.76797C3.38517 2.80769 3.4313 2.85811 3.466 2.91617C3.50071 2.97424 3.52327 3.03874 3.53233 3.10578C3.54138 3.17282 3.53674 3.24099 3.51868 3.30618C3.50062 3.37138 3.46952 3.43222 3.42726 3.48505C3.385 3.53787 3.33246 3.58157 3.27283 3.6135C3.21319 3.64543 3.14769 3.66492 3.0803 3.67081C3.01291 3.67669 2.94503 3.66883 2.88076 3.64772C2.8165 3.62661 2.75718 3.59267 2.70641 3.54797L0.206413 1.54797C0.151656 1.50825 0.105528 1.45783 0.0708218 1.39977C0.0361156 1.3417 0.0135527 1.2772 0.00449872 1.21016C-0.00455524 1.14312 8.81124e-05 1.07495 0.0181476 1.00975C0.0362072 0.944563 0.0673074 0.883715 0.109566 0.830892C0.151824 0.778069 0.204361 0.73437 0.263998 0.702441C0.323635 0.670512 0.389131 0.651016 0.456521 0.645133C0.523911 0.639251 0.591794 0.647104 0.65606 0.668218C0.720327 0.689332 0.779641 0.723267 0.830413 0.767969L3.33041 2.76797ZM14.6274 10.346C14.5864 10.3973 14.5559 10.4562 14.5377 10.5193C14.5195 10.5825 14.5139 10.6486 14.5212 10.7138C14.5286 10.7791 14.5487 10.8423 14.5805 10.8998C14.6122 10.9573 14.655 11.008 14.7064 11.049L17.2064 13.049C17.2575 13.092 17.3166 13.1243 17.3804 13.1441C17.4441 13.1638 17.5112 13.1706 17.5776 13.1641C17.644 13.1575 17.7085 13.1377 17.7671 13.1059C17.8258 13.074 17.8774 13.0308 17.9191 12.9786C17.9608 12.9265 17.9916 12.8665 18.0097 12.8023C18.0278 12.738 18.0329 12.6708 18.0246 12.6046C18.0164 12.5384 17.9949 12.4745 17.9616 12.4166C17.9282 12.3588 17.8836 12.3083 17.8304 12.268L15.3304 10.268C15.2791 10.2269 15.2203 10.1964 15.1572 10.1781C15.0941 10.1598 15.028 10.1541 14.9628 10.1613C14.8975 10.1686 14.8342 10.1886 14.7767 10.2203C14.7192 10.252 14.6684 10.2947 14.6274 10.346ZM14.7064 2.76797C14.6099 2.8529 14.5499 2.97172 14.5387 3.09976C14.5275 3.2278 14.5661 3.35522 14.6464 3.45559C14.7267 3.55595 14.8425 3.62154 14.9699 3.63874C15.0973 3.65594 15.2264 3.62344 15.3304 3.54797L17.8304 1.54797C17.8852 1.50825 17.9313 1.45783 17.966 1.39977C18.0007 1.3417 18.0233 1.2772 18.0323 1.21016C18.0414 1.14312 18.0367 1.07495 18.0187 1.00975C18.0006 0.944563 17.9695 0.883715 17.9273 0.830892C17.885 0.778069 17.8325 0.73437 17.7728 0.702441C17.7132 0.670512 17.6477 0.651016 17.5803 0.645133C17.5129 0.639251 17.445 0.647104 17.3808 0.668218C17.3165 0.689332 17.2572 0.723267 17.2064 0.767969L14.7064 2.76797Z" fill="white"/>
</svg>
