<svg width="55" height="89" viewBox="0 0 55 89" fill="none" xmlns="http://www.w3.org/2000/svg">
<path d="M45.9147 14.757C45.8322 14.9244 45.7044 15.0655 45.5459 15.1641C45.3874 15.2627 45.2044 15.3149 45.0177 15.3149C44.831 15.3149 44.648 15.2627 44.4895 15.1641C44.331 15.0655 44.2032 14.9244 44.1207 14.757L42.1907 10.847L37.8737 10.219C37.689 10.1922 37.5155 10.1142 37.3728 9.99387C37.2301 9.87356 37.1239 9.71572 37.0663 9.53821C37.0087 9.3607 37.0018 9.1706 37.0466 8.98941C37.0914 8.80823 37.186 8.64319 37.3197 8.51297L40.4437 5.46897L39.7057 1.16897C39.6742 0.985069 39.6948 0.796021 39.7651 0.623199C39.8354 0.450376 39.9527 0.300673 40.1036 0.191018C40.2546 0.0813627 40.4332 0.0161276 40.6193 0.00268841C40.8054 -0.0107508 40.9915 0.0281439 41.1567 0.114972L45.0167 2.14497L48.8787 0.114972C49.0439 0.0283337 49.23 -0.0103722 49.4161 0.003232C49.6021 0.0168362 49.7806 0.0822067 49.9315 0.191955C50.0823 0.301702 50.1995 0.451452 50.2697 0.624282C50.3398 0.797112 50.3603 0.986129 50.3287 1.16997L49.5917 5.46897L52.7157 8.51297C52.8494 8.64319 52.944 8.80823 52.9888 8.98941C53.0336 9.1706 53.0267 9.3607 52.9691 9.53821C52.9114 9.71572 52.8053 9.87356 52.6626 9.99387C52.5199 10.1142 52.3464 10.1922 52.1617 10.219L47.8447 10.846L45.9147 14.758V14.757ZM50.6287 4.96997C50.5876 4.9187 50.5571 4.85984 50.5388 4.79675C50.5205 4.73367 50.5148 4.6676 50.522 4.60231C50.5293 4.53703 50.5493 4.47381 50.581 4.41627C50.6127 4.35873 50.6554 4.308 50.7067 4.26697L53.2067 2.26697C53.2578 2.22398 53.3169 2.19165 53.3806 2.17188C53.4444 2.15211 53.5115 2.1453 53.5779 2.15185C53.6443 2.15841 53.7087 2.1782 53.7674 2.21006C53.826 2.24191 53.8777 2.28519 53.9194 2.33733C53.961 2.38948 53.9918 2.44944 54.01 2.51367C54.0281 2.57791 54.0332 2.64512 54.0249 2.71136C54.0166 2.77759 53.9952 2.84149 53.9618 2.8993C53.9285 2.95712 53.8839 3.00767 53.8307 3.04797L51.3307 5.04797C51.2272 5.13058 51.0952 5.16875 50.9636 5.15413C50.832 5.13951 50.7115 5.07328 50.6287 4.96997ZM50.7067 12.547C50.6519 12.5073 50.6058 12.4568 50.5711 12.3988C50.5364 12.3407 50.5138 12.2762 50.5048 12.2092C50.4957 12.1421 50.5004 12.0739 50.5184 12.0088C50.5365 11.9436 50.5676 11.8827 50.6098 11.8299C50.6521 11.7771 50.7046 11.7334 50.7643 11.7014C50.8239 11.6695 50.8894 11.65 50.9568 11.6441C51.0242 11.6383 51.0921 11.6461 51.1563 11.6672C51.2206 11.6883 51.2799 11.7223 51.3307 11.767L53.8307 13.767C53.8855 13.8067 53.9316 13.8571 53.9663 13.9152C54.001 13.9732 54.0236 14.0377 54.0326 14.1048C54.0417 14.1718 54.037 14.24 54.019 14.3052C54.0009 14.3704 53.9698 14.4312 53.9275 14.484C53.8853 14.5369 53.8327 14.5806 53.7731 14.6125C53.7135 14.6444 53.648 14.6639 53.5806 14.6698C53.5132 14.6757 53.4453 14.6678 53.381 14.6467C53.3168 14.6256 53.2575 14.5917 53.2067 14.547L50.7067 12.547ZM39.4097 4.96897C39.4507 4.91764 39.4812 4.85873 39.4994 4.7956C39.5176 4.73248 39.5232 4.66639 39.5159 4.6011C39.5085 4.53581 39.4884 4.47261 39.4566 4.41511C39.4249 4.3576 39.3821 4.30693 39.3307 4.26597L36.8307 2.26597C36.7796 2.22298 36.7205 2.19065 36.6567 2.17088C36.593 2.1511 36.5259 2.1443 36.4595 2.15086C36.3931 2.15741 36.3287 2.1772 36.27 2.20906C36.2114 2.24091 36.1597 2.28419 36.118 2.33633C36.0763 2.38848 36.0455 2.44844 36.0274 2.51267C36.0093 2.57691 36.0042 2.64412 36.0125 2.71035C36.0208 2.77659 36.0422 2.84049 36.0755 2.8983C36.1089 2.95612 36.1535 3.00667 36.2067 3.04697L38.7067 5.04697C38.758 5.08803 38.8168 5.11858 38.8799 5.13688C38.943 5.15518 39.0091 5.16087 39.0744 5.15363C39.1396 5.14639 39.2029 5.12635 39.2604 5.09466C39.3179 5.06298 39.3687 5.02027 39.4097 4.96897ZM39.3307 12.547C39.4272 12.462 39.4872 12.3432 39.4984 12.2152C39.5096 12.0871 39.471 11.9597 39.3907 11.8594C39.3104 11.759 39.1946 11.6934 39.0672 11.6762C38.9398 11.659 38.8107 11.6915 38.7067 11.767L36.2067 13.767C36.1519 13.8067 36.1058 13.8571 36.0711 13.9152C36.0364 13.9732 36.0138 14.0377 36.0048 14.1048C35.9957 14.1718 36.0004 14.24 36.0184 14.3052C36.0365 14.3704 36.0676 14.4312 36.1098 14.484C36.1521 14.5369 36.2046 14.5806 36.2643 14.6125C36.3239 14.6444 36.3894 14.6639 36.4568 14.6698C36.5242 14.6757 36.5921 14.6678 36.6563 14.6467C36.7206 14.6256 36.7799 14.5917 36.8307 14.547L39.3307 12.547Z" fill="white"/>
<path d="M9.9147 52.757C9.83217 52.9244 9.70441 53.0655 9.54589 53.1641C9.38736 53.2627 9.20439 53.3149 9.0177 53.3149C8.831 53.3149 8.64803 53.2627 8.48951 53.1641C8.33098 53.0655 8.20322 52.9244 8.1207 52.757L6.1907 48.847L1.8737 48.219C1.689 48.1922 1.51549 48.1142 1.3728 47.9939C1.23011 47.8736 1.12394 47.7157 1.0663 47.5382C1.00865 47.3607 1.00184 47.1706 1.04662 46.9894C1.0914 46.8082 1.18599 46.6432 1.3197 46.513L4.4437 43.469L3.7057 39.169C3.67419 38.9851 3.69476 38.796 3.76508 38.6232C3.8354 38.4504 3.95267 38.3007 4.10363 38.191C4.25458 38.0814 4.43321 38.0161 4.61931 38.0027C4.8054 37.9892 4.99155 38.0281 5.1567 38.115L9.0167 40.145L12.8787 38.115C13.0439 38.0283 13.23 37.9896 13.4161 38.0032C13.6021 38.0168 13.7806 38.0822 13.9315 38.192C14.0823 38.3017 14.1995 38.4515 14.2697 38.6243C14.3398 38.7971 14.3603 38.9861 14.3287 39.17L13.5917 43.469L16.7157 46.513C16.8494 46.6432 16.944 46.8082 16.9888 46.9894C17.0336 47.1706 17.0267 47.3607 16.9691 47.5382C16.9114 47.7157 16.8053 47.8736 16.6626 47.9939C16.5199 48.1142 16.3464 48.1922 16.1617 48.219L11.8447 48.846L9.9147 52.758V52.757ZM14.6287 42.97C14.5876 42.9187 14.5571 42.8598 14.5388 42.7968C14.5205 42.7337 14.5148 42.6676 14.522 42.6023C14.5293 42.537 14.5493 42.4738 14.581 42.4163C14.6127 42.3587 14.6554 42.308 14.7067 42.267L17.2067 40.267C17.2578 40.224 17.3169 40.1916 17.3806 40.1719C17.4444 40.1521 17.5115 40.1453 17.5779 40.1519C17.6443 40.1584 17.7087 40.1782 17.7674 40.2101C17.826 40.2419 17.8777 40.2852 17.9194 40.3373C17.961 40.3895 17.9918 40.4494 18.01 40.5137C18.0281 40.5779 18.0332 40.6451 18.0249 40.7114C18.0166 40.7776 17.9952 40.8415 17.9618 40.8993C17.9285 40.9571 17.8839 41.0077 17.8307 41.048L15.3307 43.048C15.2272 43.1306 15.0952 43.1688 14.9636 43.1541C14.832 43.1395 14.7115 43.0733 14.6287 42.97ZM14.7067 50.547C14.6519 50.5073 14.6058 50.4568 14.5711 50.3988C14.5364 50.3407 14.5138 50.2762 14.5048 50.2092C14.4957 50.1421 14.5004 50.0739 14.5184 50.0088C14.5365 49.9436 14.5676 49.8827 14.6098 49.8299C14.6521 49.7771 14.7046 49.7334 14.7643 49.7014C14.8239 49.6695 14.8894 49.65 14.9568 49.6441C15.0242 49.6383 15.0921 49.6461 15.1563 49.6672C15.2206 49.6883 15.2799 49.7223 15.3307 49.767L17.8307 51.767C17.8855 51.8067 17.9316 51.8571 17.9663 51.9152C18.001 51.9732 18.0236 52.0377 18.0326 52.1048C18.0417 52.1718 18.037 52.24 18.019 52.3052C18.0009 52.3704 17.9698 52.4312 17.9275 52.484C17.8853 52.5369 17.8327 52.5806 17.7731 52.6125C17.7135 52.6444 17.648 52.6639 17.5806 52.6698C17.5132 52.6757 17.4453 52.6678 17.381 52.6467C17.3168 52.6256 17.2575 52.5917 17.2067 52.547L14.7067 50.547ZM3.4097 42.969C3.4507 42.9176 3.48118 42.8587 3.4994 42.7956C3.51762 42.7325 3.52322 42.6664 3.51589 42.6011C3.50855 42.5358 3.48842 42.4726 3.45664 42.4151C3.42487 42.3576 3.38207 42.3069 3.3307 42.266L0.830696 40.266C0.779642 40.223 0.720495 40.1906 0.656746 40.1709C0.592997 40.1511 0.525936 40.1443 0.459515 40.1509C0.393093 40.1574 0.328657 40.1772 0.270004 40.2091C0.211351 40.2409 0.15967 40.2842 0.118008 40.3363C0.0763454 40.3885 0.0455456 40.4484 0.027422 40.5127C0.00929832 40.5769 0.00421906 40.6441 0.0124855 40.7104C0.020752 40.7766 0.0421944 40.8405 0.0755482 40.8983C0.108902 40.9561 0.153496 41.0067 0.206696 41.047L2.7067 43.047C2.75797 43.088 2.81683 43.1186 2.87992 43.1369C2.943 43.1552 3.00907 43.1609 3.07436 43.1536C3.13964 43.1464 3.20286 43.1263 3.2604 43.0947C3.31794 43.063 3.36867 43.0203 3.4097 42.969ZM3.3307 50.547C3.42716 50.462 3.48721 50.3432 3.49839 50.2152C3.50957 50.0871 3.47101 49.9597 3.39072 49.8594C3.31043 49.759 3.19458 49.6934 3.06721 49.6762C2.93984 49.659 2.81073 49.6915 2.7067 49.767L0.206696 51.767C0.151939 51.8067 0.105812 51.8571 0.071106 51.9152C0.0363998 51.9732 0.0138359 52.0377 0.00478172 52.1048C-0.00427246 52.1718 0.000371933 52.24 0.0184307 52.3052C0.0364895 52.3704 0.0675888 52.4312 0.109848 52.484C0.152107 52.5369 0.204645 52.5806 0.264282 52.6125C0.323919 52.6444 0.389414 52.6639 0.456804 52.6698C0.524195 52.6757 0.592077 52.6678 0.656343 52.6467C0.72061 52.6256 0.779924 52.5917 0.830696 52.547L3.3307 50.547Z" fill="#BA963A"/>
<path d="M45.9147 87.757C45.8322 87.9244 45.7044 88.0655 45.5459 88.1641C45.3874 88.2627 45.2044 88.3149 45.0177 88.3149C44.831 88.3149 44.648 88.2627 44.4895 88.1641C44.331 88.0655 44.2032 87.9244 44.1207 87.757L42.1907 83.847L37.8737 83.219C37.689 83.1922 37.5155 83.1142 37.3728 82.9939C37.2301 82.8736 37.1239 82.7157 37.0663 82.5382C37.0087 82.3607 37.0018 82.1706 37.0466 81.9894C37.0914 81.8082 37.186 81.6432 37.3197 81.513L40.4437 78.469L39.7057 74.169C39.6742 73.9851 39.6948 73.796 39.7651 73.6232C39.8354 73.4504 39.9527 73.3007 40.1036 73.191C40.2546 73.0814 40.4332 73.0161 40.6193 73.0027C40.8054 72.9892 40.9915 73.0281 41.1567 73.115L45.0167 75.145L48.8787 73.115C49.0439 73.0283 49.23 72.9896 49.4161 73.0032C49.6021 73.0168 49.7806 73.0822 49.9315 73.192C50.0823 73.3017 50.1995 73.4515 50.2697 73.6243C50.3398 73.7971 50.3603 73.9861 50.3287 74.17L49.5917 78.469L52.7157 81.513C52.8494 81.6432 52.944 81.8082 52.9888 81.9894C53.0336 82.1706 53.0267 82.3607 52.9691 82.5382C52.9114 82.7157 52.8053 82.8736 52.6626 82.9939C52.5199 83.1142 52.3464 83.1922 52.1617 83.219L47.8447 83.846L45.9147 87.758V87.757ZM50.6287 77.97C50.5876 77.9187 50.5571 77.8598 50.5388 77.7968C50.5205 77.7337 50.5148 77.6676 50.522 77.6023C50.5293 77.537 50.5493 77.4738 50.581 77.4163C50.6127 77.3587 50.6554 77.308 50.7067 77.267L53.2067 75.267C53.2578 75.224 53.3169 75.1916 53.3806 75.1719C53.4444 75.1521 53.5115 75.1453 53.5779 75.1519C53.6443 75.1584 53.7087 75.1782 53.7674 75.2101C53.826 75.2419 53.8777 75.2852 53.9194 75.3373C53.961 75.3895 53.9918 75.4494 54.01 75.5137C54.0281 75.5779 54.0332 75.6451 54.0249 75.7114C54.0166 75.7776 53.9952 75.8415 53.9618 75.8993C53.9285 75.9571 53.8839 76.0077 53.8307 76.048L51.3307 78.048C51.2272 78.1306 51.0952 78.1688 50.9636 78.1541C50.832 78.1395 50.7115 78.0733 50.6287 77.97ZM50.7067 85.547C50.6519 85.5073 50.6058 85.4568 50.5711 85.3988C50.5364 85.3407 50.5138 85.2762 50.5048 85.2092C50.4957 85.1421 50.5004 85.0739 50.5184 85.0088C50.5365 84.9436 50.5676 84.8827 50.6098 84.8299C50.6521 84.7771 50.7046 84.7334 50.7643 84.7014C50.8239 84.6695 50.8894 84.65 50.9568 84.6441C51.0242 84.6383 51.0921 84.6461 51.1563 84.6672C51.2206 84.6883 51.2799 84.7223 51.3307 84.767L53.8307 86.767C53.8855 86.8067 53.9316 86.8571 53.9663 86.9152C54.001 86.9732 54.0236 87.0377 54.0326 87.1048C54.0417 87.1718 54.037 87.24 54.019 87.3052C54.0009 87.3704 53.9698 87.4312 53.9275 87.484C53.8853 87.5369 53.8327 87.5806 53.7731 87.6125C53.7135 87.6444 53.648 87.6639 53.5806 87.6698C53.5132 87.6757 53.4453 87.6678 53.381 87.6467C53.3168 87.6256 53.2575 87.5917 53.2067 87.547L50.7067 85.547ZM39.4097 77.969C39.4507 77.9176 39.4812 77.8587 39.4994 77.7956C39.5176 77.7325 39.5232 77.6664 39.5159 77.6011C39.5085 77.5358 39.4884 77.4726 39.4566 77.4151C39.4249 77.3576 39.3821 77.3069 39.3307 77.266L36.8307 75.266C36.7796 75.223 36.7205 75.1906 36.6567 75.1709C36.593 75.1511 36.5259 75.1443 36.4595 75.1509C36.3931 75.1574 36.3287 75.1772 36.27 75.2091C36.2114 75.2409 36.1597 75.2842 36.118 75.3363C36.0763 75.3885 36.0455 75.4484 36.0274 75.5127C36.0093 75.5769 36.0042 75.6441 36.0125 75.7104C36.0208 75.7766 36.0422 75.8405 36.0755 75.8983C36.1089 75.9561 36.1535 76.0067 36.2067 76.047L38.7067 78.047C38.758 78.088 38.8168 78.1186 38.8799 78.1369C38.943 78.1552 39.0091 78.1609 39.0744 78.1536C39.1396 78.1464 39.2029 78.1263 39.2604 78.0947C39.3179 78.063 39.3687 78.0203 39.4097 77.969ZM39.3307 85.547C39.4272 85.462 39.4872 85.3432 39.4984 85.2152C39.5096 85.0871 39.471 84.9597 39.3907 84.8594C39.3104 84.759 39.1946 84.6934 39.0672 84.6762C38.9398 84.659 38.8107 84.6915 38.7067 84.767L36.2067 86.767C36.1519 86.8067 36.1058 86.8571 36.0711 86.9152C36.0364 86.9732 36.0138 87.0377 36.0048 87.1048C35.9957 87.1718 36.0004 87.24 36.0184 87.3052C36.0365 87.3704 36.0676 87.4312 36.1098 87.484C36.1521 87.5369 36.2046 87.5806 36.2643 87.6125C36.3239 87.6444 36.3894 87.6639 36.4568 87.6698C36.5242 87.6757 36.5921 87.6678 36.6563 87.6467C36.7206 87.6256 36.7799 87.5917 36.8307 87.547L39.3307 85.547Z" fill="white"/>
</svg>
