<svg width="148" height="172" viewBox="0 0 148 172" fill="none" xmlns="http://www.w3.org/2000/svg">
<path d="M73.7143 172L35.776 151.772C24.9605 146.018 15.916 137.427 9.61312 126.922C3.31027 116.417 -0.0129802 104.394 3.81015e-05 92.1429V12.2857C0.0032906 9.02834 1.29872 5.90531 3.60203 3.60199C5.90535 1.29868 9.02838 0.0032525 12.2858 0H135.143C138.4 0.0032525 141.523 1.29868 143.827 3.60199C146.13 5.90531 147.425 9.02834 147.429 12.2857V92.1429C147.442 104.394 144.118 116.417 137.816 126.922C131.513 137.427 122.468 146.018 111.653 151.772L73.7143 172ZM12.2858 12.2857V92.1429C12.2756 102.167 14.9954 112.004 20.1533 120.599C25.3112 129.194 32.7125 136.223 41.5626 140.929L73.7143 158.074L105.866 140.936C114.717 136.228 122.119 129.199 127.277 120.603C132.435 112.007 135.154 102.168 135.143 92.1429V12.2857H12.2858Z" fill="white"/>
<path d="M73.7139 142.987V24.5713H122.857V90.9449C122.856 98.7311 120.742 106.371 116.739 113.049C112.736 119.728 106.995 125.194 100.128 128.865L73.7139 142.987Z" fill="#BA963A"/>
</svg>
