<svg width="896" height="301" viewBox="0 0 896 301" fill="none" xmlns="http://www.w3.org/2000/svg">
<path opacity="0.4" d="M391.122 30.1863C391.681 29.9878 392.286 29.7892 392.844 29.5906C381.814 33.5127 367.015 38.4775 356.124 42.8465C354.356 43.5416 352.587 44.2863 350.819 45.031C362.779 40.4634 378.743 34.2575 390.89 30.236C390.983 30.236 391.076 30.236 391.122 30.1863Z" fill="white" fill-opacity="0.4"/>
<path opacity="0.4" d="M751.716 46.2217C744.456 43.5407 744.317 43.4911 734.264 41.0583C735.288 41.5052 736.312 42.0016 737.382 42.3492C739.523 43.0442 742.455 43.64 744.642 44.1861C747.807 44.9805 751.903 46.4699 754.928 47.6615C753.857 47.165 752.787 46.7182 751.716 46.2217Z" fill="white" fill-opacity="0.4"/>
<path opacity="0.4" d="M844.517 97.3593C807.611 73.876 795.836 66.8756 744.828 45.6265C763.584 54.4637 782.898 61.8612 801.328 71.5425C815.895 79.1882 834.511 91.0044 848.333 99.9906C847.077 99.0969 845.774 98.2529 844.517 97.3593Z" fill="white" fill-opacity="0.4"/>
<path opacity="0.4" d="M568.999 5.31283C568.44 5.31283 567.695 5.26318 567.137 5.26318C614.748 8.49028 652.352 11.072 716.438 34.5056C716.997 34.7042 717.695 34.9028 718.207 35.1014C677.018 20.8029 644.533 9.53288 569.231 5.36248C569.138 5.31283 569.045 5.31283 568.999 5.31283Z" fill="white" fill-opacity="0.4"/>
<path opacity="0.4" d="M658.404 35.0012C659.055 35.3488 659.521 36.0438 660.265 36.0935C683.675 38.0794 707.131 38.7248 730.494 41.1575C727.655 39.966 724.444 38.6255 658.404 35.0012Z" fill="white" fill-opacity="0.4"/>
<path opacity="0.4" d="M750.645 48.9525L750.133 48.9028C798.954 73.9749 854.244 102.373 922.146 179.526C888.683 142.836 842.888 92.5927 750.645 48.9525Z" fill="white" fill-opacity="0.4"/>
<path opacity="0.4" d="M742.921 46.2717C742.129 45.9738 741.385 45.6263 740.594 45.3284C770.007 62.6057 824.738 94.7278 812.405 167.908C813.429 168.703 813.755 169.001 814.779 169.894C818.036 140.056 823.482 90.1602 743.246 46.4206C743.153 46.3213 743.014 46.2717 742.921 46.2717Z" fill="white" fill-opacity="0.4"/>
<path opacity="0.4" d="M822.039 178.435C822.69 179.477 822.876 179.775 823.575 181.016C883.099 187.47 902.553 190.3 930.943 195.563C929.314 193.527 926.242 189.705 822.039 178.435Z" fill="white" fill-opacity="0.4"/>
<path opacity="0.4" d="M824.645 193.279C824.319 193.478 823.854 193.776 823.528 193.974C884.03 272.815 925.078 336.512 968.547 447.276C968.873 447.078 969.292 446.78 969.617 446.581C937.225 361.584 903.111 292.922 824.645 193.279Z" fill="white" fill-opacity="0.4"/>
<path opacity="0.4" d="M814.312 192.584C813.66 192.236 812.776 191.74 812.171 191.343C817.058 271.971 803.561 350.563 720.254 513.556C721.139 514.102 722.302 514.847 723.186 515.492C787.97 386.11 823.76 291.83 814.591 192.733C814.498 192.683 814.405 192.634 814.312 192.584Z" fill="white" fill-opacity="0.4"/>
<path opacity="0.4" d="M666.734 42.5476C704.105 68.4637 742.734 95.323 798.861 163.787C799.28 163.638 799.838 163.44 800.257 163.34C768.75 126.8 729.609 81.3224 666.734 42.5476Z" fill="white" fill-opacity="0.4"/>
<path opacity="0.4" d="M603.44 126.304C603.486 126.949 603.486 127.843 603.44 128.488C667.339 143.234 733.426 158.476 799.001 176.2C798.722 175.654 798.35 174.859 798.071 174.264C769.448 166.171 739.802 157.731 603.44 126.304Z" fill="white" fill-opacity="0.4"/>
<path opacity="0.4" d="M656.122 39.7185C655.517 39.4206 654.865 39.073 654.26 38.7751C656.68 59.4782 649.048 76.3584 599.11 116.225C599.808 116.97 599.948 117.218 600.553 118.062C646.861 80.6777 659.38 63.1025 656.355 39.8674C656.308 39.8177 656.215 39.7681 656.122 39.7185Z" fill="white" fill-opacity="0.4"/>
<path opacity="0.4" d="M558.855 5.01474C557.831 5.01474 556.761 4.96509 555.737 4.96509C622.941 6.65311 655.845 15.9372 653.518 32.4202C654.262 32.7677 655.007 33.1153 655.752 33.5125C657.101 16.3344 624.663 6.7524 559.32 5.01474C559.181 5.06438 558.995 5.06438 558.855 5.01474Z" fill="white" fill-opacity="0.4"/>
<path opacity="0.4" d="M549.547 4.96509C549.407 5.11403 549.221 5.36227 549.081 5.51121C551.455 6.50416 553.316 7.29853 564.114 10.4263C591.014 18.1714 618.054 25.3703 645.001 33.1153C643.791 32.2713 643.791 32.2713 625.64 26.959C623.685 26.4129 615.494 24.0794 581.287 14.7953C554.014 7.39782 551.687 6.55381 549.081 5.21333C549.221 5.11403 549.407 5.01474 549.547 4.96509Z" fill="white" fill-opacity="0.4"/>
<path opacity="0.4" d="M258.902 94.8774C257.924 95.5229 256.947 96.2179 255.923 96.913C253.317 99.0975 249.687 102.076 248.058 105.154C247.034 107.091 247.36 110.367 247.825 112.552C248.756 111.857 249.64 111.162 250.571 110.467C250.245 107.935 250.338 104.211 251.502 102.027C253.038 99.1968 256.528 96.7144 258.902 94.8774Z" fill="white" fill-opacity="0.4"/>
<path opacity="0.4" d="M547.825 5.21313C542.566 9.23459 539.401 11.6673 547.406 36.2926C553.596 55.3076 569.792 87.0324 582.777 112.502C583.196 112.303 583.754 112.104 584.173 111.956C549.221 41.2573 536.143 14.7951 547.825 5.21313Z" fill="white" fill-opacity="0.4"/>
<path opacity="0.4" d="M595.992 137.475C595.433 137.574 594.689 137.773 594.084 137.872C645.185 288.751 670.875 364.464 704.942 511.967C705.547 511.818 706.339 511.62 706.99 511.471C691.446 435.609 667.245 337.803 595.992 137.475Z" fill="white" fill-opacity="0.4"/>
<path opacity="0.4" d="M483.086 274.155C482.574 274.651 481.829 275.296 481.271 275.743C548.894 360.492 625.592 436.006 695.868 518.123C696.38 517.527 697.124 516.733 697.683 516.187C628.757 432.878 552.151 357.364 483.086 274.155Z" fill="white" fill-opacity="0.4"/>
<path opacity="0.4" d="M583.426 135.389C582.635 134.843 582.17 134.446 581.751 134.098C556.34 166.667 548.707 176.497 482.946 246.6C483.923 247.344 484.156 247.593 484.994 248.486C544.007 185.186 559.644 167.263 583.659 135.588C583.612 135.538 583.473 135.439 583.426 135.389Z" fill="white" fill-opacity="0.4"/>
<path opacity="0.4" d="M523.344 19.0156C523.065 19.1646 522.693 19.3135 522.413 19.4625C521.995 38.8747 527.533 54.5633 579.983 114.538C580.635 113.942 580.774 113.793 581.519 113.296C543.775 69.8051 521.017 41.8039 523.344 19.0156Z" fill="white" fill-opacity="0.4"/>
<path opacity="0.4" d="M416.627 91.3027C416.302 91.7496 415.79 92.3453 415.464 92.7425C452.882 102.325 493.372 109.424 576.959 123.276C576.959 122.63 577.005 121.737 577.052 121.091C514.688 110.765 465.448 102.573 416.627 91.3027Z" fill="white" fill-opacity="0.4"/>
<path opacity="0.4" d="M436.174 27.3562C376.557 55.0099 312.843 91.7492 246.523 208.024C246.849 207.974 247.315 207.925 247.687 207.875C291.993 135.389 336.765 71.7412 436.174 27.3562Z" fill="white" fill-opacity="0.4"/>
<path opacity="0.4" d="M246.337 120.048C246.011 120.296 213.573 149.24 233.911 216.314C234.935 215.222 235.214 214.924 236.238 213.981C228.884 186.377 221.95 160.361 246.337 120.048Z" fill="white" fill-opacity="0.4"/>
<path opacity="0.4" d="M444.272 25.1216C433.382 28.6962 419.14 43.4912 418.117 45.0303C407.273 61.4636 407.133 63.9957 405.97 83.3582C406.761 82.8121 407.319 82.4646 408.11 81.9681C410.205 53.0236 414.58 44.1366 444.272 25.1216Z" fill="white" fill-opacity="0.4"/>
<path opacity="0.4" d="M517.154 19.4625L517.108 19.0156C488.392 35.3497 465.495 49.3503 420.257 80.7276C420.397 81.0255 420.583 81.4723 420.63 81.7702C462.376 52.7264 483.273 38.974 517.154 19.5121C517.154 19.5121 517.154 19.5121 517.154 19.4625Z" fill="white" fill-opacity="0.4"/>
<path opacity="0.4" d="M549.08 4.96509C549.266 4.96509 549.452 4.96509 549.638 4.96509C543.96 5.31262 520.69 7.39782 460.141 19.5615C459.35 19.8594 458.606 20.1076 457.814 20.4055C519.759 7.84465 543.262 5.46156 548.986 5.01474C549.033 4.96509 549.033 4.96509 549.08 4.96509Z" fill="white" fill-opacity="0.4"/>
<path opacity="0.4" d="M547.266 5.21249C547.312 5.21249 547.359 5.16284 547.405 5.16284C542.146 6.80121 535.258 9.48219 530.232 11.8653C530.279 11.9149 530.325 12.0142 530.325 12.0639C535.305 9.73043 542.007 6.80121 547.266 5.21249Z" fill="white" fill-opacity="0.4"/>
<path opacity="0.4" d="M519.389 16.1352C519.668 15.8869 519.947 15.6883 520.227 15.4897C485.135 18.2204 476.339 19.0147 456.699 20.802C455.861 21.0999 455.07 21.3978 454.233 21.6957C472.756 20.0077 483.134 19.114 519.296 16.2841C519.296 16.1848 519.342 16.1848 519.389 16.1352Z" fill="white" fill-opacity="0.4"/>
<path opacity="0.4" d="M394.753 99.9902C394.613 99.6923 394.52 99.2455 394.473 98.8979C333.692 142.538 307.257 163.44 252.992 210.704C253.178 211.201 253.364 211.896 253.457 212.442C308.374 164.482 334.809 143.531 394.846 100.139C394.799 100.089 394.799 100.04 394.753 99.9902Z" fill="white" fill-opacity="0.4"/>
<path opacity="0.4" d="M408.157 99.0972C407.691 99.3951 407.04 99.7426 406.574 100.04C407.179 126.652 408.017 163.093 460.561 248.04C461.631 247.196 461.911 246.997 463.074 246.302C439.432 206.535 407.179 152.121 408.157 99.0972Z" fill="white" fill-opacity="0.4"/>
<path opacity="0.4" d="M462.889 278.921C462.191 278.673 461.26 278.226 460.562 277.878C419.327 355.825 380.419 429.452 338.254 533.266C338.952 533.563 339.836 533.961 340.488 534.258C381.257 440.424 396.522 405.324 463.215 278.97C463.121 278.97 462.982 278.921 462.889 278.921Z" fill="white" fill-opacity="0.4"/>
<path opacity="0.4" d="M249.642 225.45C249.27 226.095 248.758 226.989 248.385 227.634C267.513 232.053 307.305 241.287 453.441 260.749C453.581 260.054 453.767 259.111 453.953 258.416C266.722 228.875 266.722 228.875 249.642 225.45Z" fill="white" fill-opacity="0.4"/>
<path opacity="0.4" d="M238.612 238.607C238.239 238.855 237.774 239.203 237.402 239.451C233.585 313.476 246.105 389.039 319.963 536.84C320.754 536.195 321.871 535.401 322.709 534.805C277.891 443.404 234.47 345.25 238.612 238.607Z" fill="white" fill-opacity="0.4"/>
<path opacity="0.4" d="M392.659 29.8887C322.756 51.684 275.983 90.7566 260.625 103.615C260.858 103.466 261.184 103.317 261.416 103.169C261.649 103.069 261.928 102.871 262.161 102.771C270.492 98.1541 279.753 88.87 287.246 82.9123C303.302 70.2025 334.67 50.6414 392.659 29.8887Z" fill="white" fill-opacity="0.4"/>
<path opacity="0.4" d="M436.638 26.0154C437.011 25.8169 437.522 25.5686 437.895 25.4197C368.178 48.6548 329.456 66.23 265.371 103.813C264.998 104.26 264.44 104.806 264.021 105.203C315.541 75.0673 355.379 53.272 436.452 26.1147C436.545 26.0651 436.592 26.0651 436.638 26.0154Z" fill="white" fill-opacity="0.4"/>
<path opacity="0.4" d="M224.695 239.5C224.509 239.053 224.276 238.457 224.183 237.961C180.063 283.935 150.789 315.362 107.181 379.556C107.367 380.003 107.6 380.599 107.74 381.045C142.784 331.845 163.96 302.155 224.788 239.699C224.788 239.599 224.742 239.55 224.695 239.5Z" fill="white" fill-opacity="0.4"/>
<path opacity="0.4" d="M231.351 241.983C230.932 242.032 230.374 242.082 229.955 242.132C209.942 287.658 176.48 363.917 167.684 500.895C168.103 500.845 168.661 500.746 169.08 500.696C177.923 419.175 186.207 342.122 231.351 241.983Z" fill="white" fill-opacity="0.4"/>
<path opacity="0.4" d="M92.427 270.381C54.0779 338.994 46.4918 357.165 24.4784 432.679C47.283 355.626 54.9156 337.455 92.427 270.381Z" fill="white" fill-opacity="0.4"/>
<path opacity="0.4" d="M235.4 123.822C235.772 123.376 236.145 122.929 236.517 122.531C199.983 149.143 154.513 182.258 113.511 238.359C113.232 238.806 112.813 239.352 112.534 239.799C137.991 207.776 166.893 171.434 235.214 124.021C235.307 123.971 235.353 123.872 235.4 123.822Z" fill="white" fill-opacity="0.4"/>
<path opacity="0.4" d="M236.889 126.056C236.005 126.403 137.851 202.513 99.5953 377.67C99.9211 377.521 100.34 377.273 100.666 377.124C118.072 310.149 141.9 218.45 236.889 126.056Z" fill="white" fill-opacity="0.4"/>
<path opacity="0.4" d="M98.9449 260.452C82.3299 285.872 67.4835 328.718 91.0796 388.344C91.7777 386.954 91.9639 386.607 92.7085 385.316C82.0507 354.038 68.7866 315.164 98.9449 260.452Z" fill="white" fill-opacity="0.4"/>
<path opacity="0.4" d="M441.899 16.3843C440.456 16.6822 439.06 17.0297 437.617 17.3276L418.815 21.9448C421.282 21.349 421.282 21.349 441.899 16.3843Z" fill="white" fill-opacity="0.4"/>
<path opacity="0.4" d="M518.549 5.9082C517.292 6.0075 516.036 6.05715 514.826 6.15644C477.082 9.18495 458.466 13.405 450.554 20.8025C451.485 20.5046 452.415 20.306 453.3 19.9585C454.37 19.5117 455.441 18.2705 456.325 17.5257C457.163 16.8803 462.468 13.9511 473.545 11.5184C490.066 7.89411 507.891 6.65292 518.549 5.9082Z" fill="white" fill-opacity="0.4"/>
<path opacity="0.4" d="M446.18 22.1923C446.971 21.8944 447.809 21.6462 448.6 21.3979C428.169 22.5398 419.467 23.2349 411.322 24.2775C410.205 24.625 409.042 24.9229 407.925 25.2705C415.511 24.2775 422.817 23.5824 445.948 22.2916C445.994 22.242 446.087 22.242 446.18 22.1923Z" fill="white" fill-opacity="0.4"/>
<path opacity="0.4" d="M549.871 4.96509C559.226 4.96509 567.231 5.21333 572.304 5.46157C564.857 5.11403 557.411 4.96509 549.871 4.96509Z" fill="white" fill-opacity="0.4"/>
<path opacity="0.4" d="M731.333 39.9172C740.781 43.6407 749.111 47.4636 750.694 48.8041C750.647 48.8537 750.601 48.9034 750.554 49.0027C747.901 48.6551 713.88 34.4559 712.67 33.6119C712.717 33.6119 712.81 33.5623 712.903 33.5623C714.997 33.9098 722.909 36.5411 731.333 39.9172Z" fill="white" fill-opacity="0.4"/>
<path opacity="0.4" d="M822.132 178.583C817.524 171.533 809.706 163.788 801.561 163.241C792.16 163.291 797.512 177.143 805.983 186.129C815.477 196.257 826.041 196.803 826.274 189.555C826.367 185.732 823.714 181.015 822.132 178.583Z" fill="white" fill-opacity="0.4"/>
<path opacity="0.4" d="M658.823 35.2495C652.4 31.5756 645.047 28.6961 641.742 28.5471C641.137 28.5471 639.788 28.5968 641.649 30.4834C647.793 36.4907 667.153 45.9734 666.921 42.0016C666.874 40.6115 663.849 38.0795 658.823 35.2495Z" fill="white" fill-opacity="0.4"/>
<path opacity="0.4" d="M602.975 123.524C602.323 120.843 599.298 112.006 588.175 111.36C575.609 111.509 574.027 125.907 580.822 133.205C588.268 141.199 603.533 139.014 603.487 127.446C603.487 126.602 603.394 125.162 602.975 123.524Z" fill="white" fill-opacity="0.4"/>
<path opacity="0.4" d="M549.873 4.96509C548.244 4.96509 547.267 5.16367 547.174 5.26297C547.267 5.26297 547.499 5.26297 547.965 5.16367C548.989 5.01473 549.314 4.96509 549.873 4.96509Z" fill="white" fill-opacity="0.4"/>
<path opacity="0.4" d="M488.856 259.458C488.856 252.061 484.714 243.968 473.079 243.472C454.045 244.018 448.134 265.962 457.116 275.296C466.61 285.027 488.856 279.268 488.856 259.458Z" fill="white" fill-opacity="0.4"/>
<path opacity="0.4" d="M528.416 15.193C529.998 13.6043 531.441 11.6681 529.393 11.6184C525.019 11.7674 515.199 17.8244 517.433 19.8599C518.549 20.9025 523.483 20.2075 528.416 15.193Z" fill="white" fill-opacity="0.4"/>
<path opacity="0.4" d="M418.255 88.919C419.651 86.6849 423.747 79.4363 416.719 79.1384C404.991 79.6846 390.75 96.5151 395.45 100.983C399.08 104.459 410.995 100.338 418.255 88.919Z" fill="white" fill-opacity="0.4"/>
<path opacity="0.4" d="M250.991 222.818C255.831 212.541 253.131 207.924 248.291 207.875C236.284 207.974 218.459 233.741 225.579 240.741C230.234 245.259 243.404 239.004 250.991 222.818Z" fill="white" fill-opacity="0.4"/>
<path opacity="0.4" d="M454.186 21.6465C464.052 18.1215 466.1 17.3768 466.938 16.8307C466.891 16.781 466.798 16.7314 466.752 16.6321C462.33 16.8307 435.29 24.8736 434.965 27.3063C436.361 27.9517 445.948 24.6253 454.186 21.6465Z" fill="white" fill-opacity="0.4"/>
<path opacity="0.4" d="M256.062 112.353C261.973 107.438 268.535 101.53 266.348 101.132C260.251 101.579 232.001 123.921 234.142 126.552C234.84 127.396 240.285 125.509 256.062 112.353Z" fill="white" fill-opacity="0.4"/>
<path opacity="0.4" d="M409.088 24.9233C415.603 23.0367 422.258 21.6466 428.774 19.5117C420.211 21.2494 395.219 28.4483 388.238 31.1789C388.61 31.1293 388.61 31.1293 390.983 30.3845C400.524 27.4553 403.41 26.5617 409.088 24.9233Z" fill="white" fill-opacity="0.4"/>
<path opacity="0.4" d="M105.366 250.67C108.856 245.358 112.533 240.195 115.931 234.783L109.927 243.323L92.1951 270.678C96.756 264.175 100.945 257.323 105.366 250.67Z" fill="white" fill-opacity="0.4"/>
<path d="M158.236 175.157C159.214 174.115 160.191 173.072 161.168 172.03C162.006 171.136 162.797 170.292 163.635 169.398C200.96 132.957 270.491 65.1382 398.477 24.2285C310.842 59.1804 241.636 86.7845 158.236 175.157Z" fill="white" fill-opacity="0.4"/>
<path d="M129.196 209.215C129.987 208.222 130.778 207.18 131.616 206.187C135.991 201.52 141.855 195.264 146.602 190.994C145.857 191.888 145.206 192.831 144.414 193.675C139.854 198.392 133.431 204.201 129.196 209.215Z" fill="white" fill-opacity="0.4"/>
<path d="M39.1882 446.68C38.8159 447.226 38.3505 448.021 38.0247 448.616C41.0033 399.763 45.0523 332.888 100.388 248.934C101.505 247.196 102.669 245.508 103.832 243.82C77.5371 286.517 41.5153 345.002 39.3744 446.432C39.3279 446.531 39.2348 446.631 39.1882 446.68Z" fill="white" fill-opacity="0.4"/>
<path d="M398.06 42.9942C397.315 43.3913 396.57 43.7885 395.826 44.2354C393.731 38.1287 393.173 36.4903 396.71 31.0787C399.502 26.8587 406.204 23.4827 411.091 21.0003C412.161 20.6527 413.278 20.3549 414.349 20.0073C406.297 24.0784 402.248 26.114 398.851 30.9298C395.64 35.547 396.943 39.072 398.339 42.7956C398.292 42.8949 398.153 42.9445 398.06 42.9942Z" fill="white" fill-opacity="0.4"/>
<path d="M166.522 171.632C221.997 117.367 281.336 65.2867 396.942 24.8735C323.408 52.5273 255.274 82.6634 166.522 171.632Z" fill="white" fill-opacity="0.4"/>
<path d="M161.403 179.029C161.822 178.483 213.76 121.984 386.471 50.4421C379.49 56.4495 367.203 59.1305 358.919 62.7051C241.452 113.246 185.324 159.319 161.403 179.029Z" fill="white" fill-opacity="0.4"/>
<path d="M173.548 292.772C173.036 293.517 172.524 294.262 172.058 295.056C145.065 260.601 133.104 234.486 147.439 195.265C148.23 194.421 149.021 193.527 149.766 192.683C138.922 225.351 139.76 248.636 173.827 292.425C173.734 292.524 173.594 292.673 173.548 292.772Z" fill="white" fill-opacity="0.4"/>
<path d="M41.8865 443.799C41.6072 443.998 41.2349 444.346 40.9557 444.544C51.2877 385.017 65.4359 303.545 138.877 203.505L139.901 202.76C106.485 251.117 60.7819 317.297 42.0261 443.75C41.9796 443.7 41.933 443.75 41.8865 443.799Z" fill="white" fill-opacity="0.4"/>
<path d="M546.242 0.148947C543.356 0.397191 538.842 0.148947 538.842 0.0992979C539.214 0.0496489 539.633 0.0496489 540.006 0.0496489L543.729 0C543.217 0 542.705 0 542.193 0.0496489C543.589 0.248245 544.985 0.148947 546.335 0.148947C546.288 0.148947 546.288 0.148947 546.242 0.148947Z" fill="white" fill-opacity="0.4"/>
<path d="M420.631 18.1712C433.662 14.398 497.189 4.46849 545.079 0.298096C433.523 15.6392 433.523 15.6392 420.631 18.1712Z" fill="white" fill-opacity="0.4"/>
<path d="M428.309 15.3902C427.564 15.5888 426.819 15.7377 426.121 15.9363C456.465 8.29056 469.031 5.11311 514.315 1.19095L518.782 0.893066C479.875 4.21946 466.983 5.55994 428.681 15.2909C428.588 15.3405 428.448 15.3405 428.309 15.3902Z" fill="white" fill-opacity="0.4"/>
<path d="M482.157 263.727C481.272 263.628 480.109 263.529 479.224 263.479C487.183 219.094 511.337 83.9534 536.981 18.7661C537.865 18.8158 537.865 18.8158 537.865 18.8158C531.257 37.2847 511.384 93.2375 482.157 263.727Z" fill="white" fill-opacity="0.4"/>
<path d="M410.344 41.7536C414.672 38.2783 501.237 7.74503 542.983 0.695068C517.805 6.2556 486.53 13.2063 410.344 41.7536Z" fill="white" fill-opacity="0.4"/>
<path d="M406.622 44.4351C408.669 42.9953 408.716 42.9456 426.494 38.7752C462.423 30.3352 498.538 22.888 534.467 14.3486C534.374 14.5969 534.281 14.8948 534.235 15.0933C491.837 25.42 449.066 34.2077 406.622 44.4351Z" fill="white" fill-opacity="0.4"/>
<path d="M190.443 282.991C190.117 282.892 189.698 282.793 189.372 282.694C236.564 194.718 287.665 122.282 383.724 54.96C319.545 103.019 260.718 153.411 190.443 282.991Z" fill="white" fill-opacity="0.4"/>
<path d="M466.518 267.997C465.96 268.494 465.215 269.139 464.703 269.685C401.967 194.419 349.702 116.075 391.961 52.9734C392.659 52.6755 393.59 52.2286 394.241 51.8811C367.248 96.8619 369.296 150.779 466.844 267.699C466.751 267.848 466.611 267.948 466.518 267.997Z" fill="white" fill-opacity="0.4"/>
<path d="M191.699 302.702C192.071 301.709 192.537 300.418 192.909 299.425C247.314 295.056 308.608 290.439 459.072 281.999C458.979 282.992 458.886 284.283 458.839 285.226C393.218 288.949 283.383 295.155 191.699 302.702Z" fill="white" fill-opacity="0.4"/>
<path d="M492.768 269.785C492.349 269.289 491.744 268.594 491.278 268.097C591.2 166.568 612.003 145.418 635.879 99.7419C636.297 100.089 636.902 100.536 637.321 100.834C609.816 152.964 573.98 190.448 492.768 269.785Z" fill="white" fill-opacity="0.4"/>
<path d="M496.257 280.857C496.211 279.914 496.118 278.673 496.025 277.729C616.517 256.828 671.528 247.345 756.836 228.578C757.208 229.472 757.766 230.614 758.185 231.508C670.69 250.622 619.635 259.459 496.257 280.857Z" fill="white" fill-opacity="0.4"/>
<path d="M379.443 483.766C378.791 483.419 377.86 482.922 377.162 482.625C398.57 433.97 409.275 409.543 466.659 299.822C467.264 300.12 468.102 300.517 468.707 300.815C395.685 448.219 395.685 448.219 379.443 483.766Z" fill="white" fill-opacity="0.4"/>
<path d="M780.712 497.519C780.48 497.966 780.154 498.612 779.921 499.108C684.467 429.949 586.965 364.166 491.465 295.056C492.07 294.262 492.861 293.17 493.42 292.326C589.246 360.641 687.958 424.388 780.991 497.172C780.852 497.221 780.805 497.37 780.712 497.519Z" fill="white" fill-opacity="0.4"/>
<path d="M566.72 0.397408C567.651 0.447055 568.582 0.496703 569.513 0.546351C561.834 0.447056 554.201 0.34776 546.522 0.248465C546.755 0.198818 546.987 0.14917 547.22 0.14917C553.643 0.248465 560.065 0.298113 566.488 0.397408C566.581 0.397408 566.674 0.397408 566.72 0.397408Z" fill="white" fill-opacity="0.4"/>
<path d="M757.999 211.449C757.627 211.747 757.208 212.194 756.882 212.541C716.392 168.851 697.916 148.893 651.236 102.622C651.795 102.175 651.934 102.075 652.4 101.529C687.258 136.084 717.183 166.071 758.185 211.3C758.139 211.35 758.046 211.399 757.999 211.449Z" fill="white" fill-opacity="0.4"/>
<path d="M538.843 9.63186C538.61 9.73116 538.378 9.8801 538.145 10.029C538.331 8.34102 538.564 6.05723 538.75 4.36921C539.913 3.37625 541.449 2.08541 542.613 1.14211C542.845 1.09246 543.032 1.04281 543.264 0.993164C542.101 1.98612 540.518 3.32661 539.355 4.31956C539.215 5.90829 539.029 8.04314 538.936 9.58221C538.936 9.63186 538.889 9.63186 538.843 9.63186Z" fill="white" fill-opacity="0.4"/>
<path d="M648.489 23.0359C649.001 23.2841 649.513 23.582 650.025 23.8303C549.638 2.9286 549.638 2.9286 545.542 0.942696C545.496 0.793753 545.496 0.64481 545.449 0.495867C545.682 0.446219 545.961 0.396571 546.194 0.346924C546.24 0.495867 546.287 0.744105 546.287 0.893048C548.102 1.63776 548.102 1.63776 648.256 22.887C648.303 22.9366 648.396 22.9863 648.489 23.0359Z" fill="white" fill-opacity="0.4"/>
<path d="M629.456 82.8609C629.316 83.1588 629.13 83.6057 629.037 83.9532C571.141 44.3344 555.411 31.3764 542.054 17.3757C542.286 17.1771 542.612 16.8793 542.798 16.6807C555.55 29.3408 563.229 36.9865 629.549 82.6624C629.503 82.7617 629.503 82.8113 629.456 82.8609Z" fill="white" fill-opacity="0.4"/>
<path d="M647.885 85.8403C647.234 85.1948 646.768 84.748 646.117 84.1522C659.427 66.9245 673.157 49.1507 659.381 28.3979C661.987 29.5895 670.085 35.0507 665.71 56.9453C664.407 63.3499 658.403 73.0808 647.885 85.8403Z" fill="white" fill-opacity="0.4"/>
<path d="M650.538 24.0796C651.096 24.3775 651.608 24.6257 652.167 24.8739C624.615 22.2426 544.892 14.3983 544.194 14.3486C544.287 14.1004 544.38 13.7529 544.426 13.5046C579.704 16.98 615.028 20.2071 650.305 23.9306C650.352 24.0299 650.445 24.0796 650.538 24.0796Z" fill="white" fill-opacity="0.4"/>
<path d="M799.095 489.227C798.397 489.079 797.466 488.93 796.768 488.88C795.837 382.187 793.743 336.66 774.056 244.713C774.801 244.862 775.825 244.961 776.616 245.06C793.417 323.404 800.258 374.69 799.095 489.227Z" fill="white" fill-opacity="0.4"/>
<path d="M651.144 20.9023C650.446 20.6541 649.701 20.4555 649.003 20.2072C638.252 16.1361 624.29 9.68195 613.26 6.6038C603.58 3.92283 590.27 2.4334 580.356 1.2915C620.986 4.81648 643.651 16.9305 651.144 20.9023Z" fill="white" fill-opacity="0.4"/>
<path d="M770.054 210.754C769.496 210.555 768.705 210.257 768.146 210.108C756.837 153.162 742.735 82.2655 667.945 31.6746C668.69 31.8732 746.738 63.4987 770.054 210.754Z" fill="white" fill-opacity="0.4"/>
<path d="M772.193 57.9885C772.891 58.3857 773.542 58.7829 774.24 59.1801C746.735 49.9456 725.048 42.6474 667.012 27.9021C666.314 27.5049 665.616 27.1573 664.918 26.8098C722.069 41.158 743.477 48.1086 771.867 57.7899C771.96 57.8396 772.1 57.9389 772.193 57.9885Z" fill="white" fill-opacity="0.4"/>
<path d="M941.925 325.043C941.972 325.738 942.065 326.682 942.158 327.327C904.693 303.149 865.971 278.126 786.714 236.621C786.76 235.429 786.807 235.181 786.714 233.89C830.322 257.076 884.634 285.871 941.879 324.696C941.925 324.795 941.925 324.944 941.925 325.043Z" fill="white" fill-opacity="0.4"/>
<path d="M780.246 218.698C779.315 217.556 779.036 217.258 778.012 216.216C822.086 158.972 837.723 116.176 787.413 66.677C787.786 66.8756 823.063 89.0184 820.876 135.786C819.293 168.753 794.86 200.031 780.246 218.698Z" fill="white" fill-opacity="0.4"/>
<path d="M953.748 317.497C953.143 317.099 952.258 316.603 951.607 316.305C938.157 256.033 915.724 155.099 796.302 71.1948C797.512 71.6417 918.098 135.389 953.748 317.497Z" fill="white" fill-opacity="0.4"/>
<path d="M563.881 0.198173C567.79 0.297469 569.28 0.396764 570.164 0.545708C563.09 0.148525 563.09 0.148525 560.158 0.098877C561.415 0.148525 562.671 0.148525 563.881 0.198173Z" fill="white" fill-opacity="0.4"/>
<path d="M668.084 13.6527C712.716 25.4688 736.266 33.0649 774.475 56.2504C759.722 49.1508 746.086 39.7177 730.867 33.7103C705.084 23.5326 697.777 21.0502 663.57 12.6101C665.059 12.9576 666.595 13.3052 668.084 13.6527Z" fill="white" fill-opacity="0.4"/>
<path d="M764.469 53.0231C764.701 53.2217 765.027 53.4699 765.307 53.6188C718.766 33.2633 666.037 10.1772 585.848 1.73708C585.429 1.68743 584.824 1.63778 584.405 1.58813C629.223 7.39691 680.045 14.0497 764.376 52.9238C764.376 52.9734 764.422 53.0231 764.469 53.0231Z" fill="white" fill-opacity="0.4"/>
<path d="M779.595 53.6686C781.317 54.7112 783.784 56.151 784.901 57.8887C785.459 58.7823 784.947 60.52 784.482 61.513C783.458 60.9668 782.434 60.3711 781.41 59.8249C781.783 58.5838 781.922 56.5979 781.224 55.5056C780.2 53.9665 777.873 52.9239 776.291 52.0303C777.454 52.626 778.525 53.1225 779.595 53.6686Z" fill="white" fill-opacity="0.4"/>
<path d="M956.446 194.321C956.586 194.57 956.819 194.917 957.005 195.165C921.774 158.674 881.796 117.318 799.606 71.2945C799.327 71.0463 798.908 70.6491 798.629 70.4009C842.004 95.9694 895.944 127.794 956.353 194.172C956.353 194.222 956.4 194.272 956.446 194.321Z" fill="white" fill-opacity="0.4"/>
<path d="M154.001 187.867C145.112 198.194 139.248 204.002 137.898 203.804C137.107 200.775 162.146 171.98 166.427 170.987C166.474 170.987 166.52 171.036 166.567 171.036C166.939 172.079 162.704 177.789 154.001 187.867Z" fill="white" fill-opacity="0.4"/>
<path d="M417.744 19.0149C397.034 25.1215 397.034 25.1215 396.568 25.1215C398.058 23.3342 431.241 14.0501 436.919 13.4543C436.593 13.6529 436.546 13.6529 431.148 15.192C428.821 15.8374 423.422 17.3765 417.744 19.0149Z" fill="white" fill-opacity="0.4"/>
<path d="M191.932 302.155C184.16 321.766 169.454 326.83 166.289 317.744C162.891 308.013 174.852 283.239 188.162 282.594C194.864 282.693 196.4 290.736 191.932 302.155Z" fill="white" fill-opacity="0.4"/>
<path d="M403.037 46.8174C389.587 55.4561 383.118 56.2008 383.304 54.2149C383.63 50.1934 405.318 37.8312 412.671 37.4836C413.509 37.5829 414.905 37.6822 411.787 40.5618C410.204 41.9519 406.946 44.335 403.037 46.8174Z" fill="white" fill-opacity="0.4"/>
<path d="M546.893 0.248237C545.869 0.39718 544.938 0.59577 543.821 0.893655C542.239 1.29083 541.262 1.43978 540.982 1.34048C541.308 0.844007 545.218 0 549.871 0C549.453 0 548.336 0 546.893 0.248237Z" fill="white" fill-opacity="0.4"/>
<path d="M496.072 283.984C493.698 303.744 470.521 306.772 462.144 295.949C454.884 286.615 459.305 264.423 479.131 263.529C490.58 263.629 497.515 272.019 496.072 283.984Z" fill="white" fill-opacity="0.4"/>
<path d="M544.428 13.5033C543.729 16.6807 541.216 18.766 537.818 18.9149C533.257 18.8652 533.257 14.6948 536.469 11.4181C537.167 10.723 539.075 9.035 541.542 8.98535C545.265 9.13429 544.521 13.0565 544.428 13.5033Z" fill="white" fill-opacity="0.4"/>
<path d="M652.586 93.1388C656.542 102.969 648.444 105.799 641.044 102.87C630.852 98.8483 624.755 84.0037 631.876 80.429C633.132 79.7836 634.296 79.734 635.366 79.6843C643.697 80.1808 650.119 86.9825 652.586 93.1388Z" fill="white" fill-opacity="0.4"/>
<path d="M785.318 227.932C790.81 243.174 779.827 248.039 769.727 243.174C756.138 236.571 749.715 214.378 760.14 210.208C761.722 209.562 763.165 209.513 764.049 209.513C772.706 209.662 781.456 217.208 785.318 227.932Z" fill="white" fill-opacity="0.4"/>
<path d="M662.081 25.3703C670.225 29.1932 673.018 31.7252 671.575 32.172C668.503 33.1153 642.534 21.3488 642.627 19.0154C642.813 18.9658 643 18.8665 643.186 18.8665C646.304 19.065 654.774 21.9446 662.081 25.3703Z" fill="white" fill-opacity="0.4"/>
<path d="M569.326 0.496475C579.053 0.992951 586.127 1.73766 587.244 1.93625C574.817 1.48943 562.438 0 549.965 0C556.434 0 562.95 0.148943 569.326 0.496475Z" fill="white" fill-opacity="0.4"/>
<path d="M786.25 62.5059C792.486 66.0309 799.886 70.6978 800.119 72.1872C798.49 73.3788 765.028 55.0588 763.585 52.1792C763.678 52.1296 763.771 52.0799 763.864 52.0303C766.563 52.3282 776.616 56.995 786.25 62.5059Z" fill="white" fill-opacity="0.4"/>
<path d="M563.881 0.198978C562.625 0.149335 561.415 0.149335 560.158 0.0996919C558.855 0.0996919 557.552 0.0500488 556.202 0.0500488C558.808 0.0500488 561.322 0.0996919 563.881 0.198978Z" fill="white" fill-opacity="0.4"/>
<path d="M668.084 13.6529C666.594 13.3054 665.105 12.9578 663.569 12.6103C628.664 5.75892 612.747 2.63112 569.465 0.396973C616.098 2.28358 651.19 9.92932 668.084 13.6529Z" fill="white" fill-opacity="0.4"/>
<path d="M779.594 53.6688C778.524 53.1227 777.453 52.6262 776.383 52.0801C770.007 49.4984 761.257 45.9238 728.167 40.3633C729.145 40.8101 730.029 41.4059 731.053 41.7534C734.171 42.796 738.546 43.0442 741.711 43.64C744.456 44.1365 769.169 48.5551 779.594 53.6688Z" fill="white" fill-opacity="0.4"/>
<path d="M948.582 182.951C947.512 181.759 946.441 180.568 945.371 179.376C918.75 152.368 863.367 96.2165 737.569 45.2781C746.179 50.5407 758.931 54.7608 768.099 58.7822C792.905 69.6054 831.347 90.2092 852.104 103.713C902.88 136.878 926.662 158.624 948.582 182.951Z" fill="white" fill-opacity="0.4"/>
<path d="M711.041 33.3636C711.506 33.5126 712.158 33.7608 712.67 33.9097C672.273 16.2352 646.024 6.00778 575.888 0.695487C575.19 0.645839 574.492 0.645839 573.794 0.596191C621.032 4.76659 655.193 7.74545 710.808 33.314C710.901 33.314 710.994 33.3636 711.041 33.3636Z" fill="white" fill-opacity="0.4"/>
<path d="M720.86 40.5617C717.881 39.1219 716.392 38.3772 627.174 34.4551C627.547 34.8026 627.686 35.4977 628.338 35.5473C659.148 37.5332 690.05 38.5262 720.86 40.5617Z" fill="white" fill-opacity="0.4"/>
<path d="M894.688 187.121C894.968 187.121 895.34 187.171 895.619 187.171C864.251 146.559 825.157 96.0674 741.339 48.9022L740.501 48.8525C784.342 75.3644 834.047 105.451 894.688 187.121Z" fill="white" fill-opacity="0.4"/>
<path d="M745.853 176.049C746.458 176.546 747.017 177.092 747.575 177.589C762.887 148.247 791.369 93.6344 732.962 46.1216C732.077 45.7244 731.24 45.3769 730.355 44.9797C752.182 64.392 788.67 96.9111 745.574 175.801C745.62 175.901 745.76 176 745.853 176.049Z" fill="white" fill-opacity="0.4"/>
<path d="M898.551 204.002C898.086 203.307 897.574 202.562 897.108 201.817C876.351 198.739 856.804 195.81 753.904 186.874C754.463 188.115 754.602 188.512 754.974 189.604C833.395 196.406 858.945 199.236 898.551 204.002Z" fill="white" fill-opacity="0.4"/>
<path d="M884.495 467.531C885.193 467.184 886.17 466.737 886.915 466.439C851.079 372.704 821.758 309.304 752.227 202.611C751.902 202.76 751.436 203.008 751.064 203.157C807.75 294.857 839.397 348.277 884.495 467.531Z" fill="white" fill-opacity="0.4"/>
<path d="M585.662 538.23C586.174 538.528 586.779 538.875 587.291 539.173C716.114 332.987 733.427 237.862 739.943 202.066C739.152 201.669 738.081 201.073 737.337 200.626C720.256 284.729 695.357 350.214 585.243 537.982C585.336 538.081 585.522 538.131 585.662 538.23Z" fill="white" fill-opacity="0.4"/>
<path d="M730.029 171.581C730.448 171.432 731.006 171.283 731.471 171.184C710.621 138.218 679.16 88.3719 630.386 42.6465C630.2 42.6961 629.921 42.7954 629.688 42.8947C655.239 68.8604 684.233 98.3015 730.029 171.581Z" fill="white" fill-opacity="0.4"/>
<path d="M725.933 184.788C725.747 183.994 725.468 182.951 725.328 182.107C654.867 165.177 584.032 149.886 513.524 132.956C513.338 133.651 513.059 134.594 512.826 135.289C583.8 152.02 655.053 167.511 725.933 184.788Z" fill="white" fill-opacity="0.4"/>
<path d="M512.501 122.481C512.733 122.878 513.012 123.474 513.199 123.921C581.24 82.5145 604.184 64.4427 619.915 39.8175C619.356 39.4203 618.798 39.0728 618.286 38.626C601.392 64.7406 579.379 80.7272 512.407 122.233C512.407 122.332 512.454 122.431 512.501 122.481Z" fill="white" fill-opacity="0.4"/>
<path d="M558.993 0.0996991C555.27 0.0500488 551.546 0.0500488 547.777 0.0500488C547.311 0.0500488 546.892 0.0996991 546.427 0.0996991C546.846 0.0996991 547.451 0.0996991 547.87 0.0996991C548.102 0.0996991 548.382 0.0996991 548.614 0.0996991C549.08 0.0996991 549.685 0.0996991 550.15 0.0996991C550.383 0.0996991 550.709 0.0996991 550.941 0.0996991C551.407 0.0996991 551.965 0.0996991 552.431 0.0996991C552.663 0.0996991 552.943 0.0996991 553.129 0.0996991C553.548 0.0996991 554.06 0.0996991 554.478 0.0996991C554.851 0.0996991 555.316 0.0996991 555.689 0.0996991C555.875 0.0996991 556.061 0.0996991 556.247 0.0996991C556.526 0.0996991 556.945 0.0996991 557.271 0.0996991C557.504 0.0996991 557.829 0.0996991 558.109 0.0996991C558.202 0.0996991 558.341 0.0996991 558.434 0.0996991C558.621 0.0996991 558.853 0.0996991 558.993 0.0996991Z" fill="white" fill-opacity="0.4"/>
<path d="M623.871 31.8233C624.289 32.1212 624.708 32.4191 625.081 32.7169C632.387 26.7096 651.888 10.6734 599.251 3.02767C587.057 1.24035 573.933 0.644583 566.068 0.297049C564.904 0.247402 563.741 0.247402 562.577 0.197754C621.683 2.77943 643.464 12.3118 627.315 28.5962C626.291 29.6388 624.708 30.7807 623.638 31.724C623.731 31.724 623.777 31.7736 623.871 31.8233Z" fill="white" fill-opacity="0.4"/>
<path d="M612.235 32.4191C612.049 32.1708 611.956 31.6744 611.677 31.5254C606.743 29.4899 599.948 27.4543 594.876 25.7663C552.059 11.4181 540.284 6.80089 539.074 1.98507C540.61 1.09141 542.89 0.49564 544.566 0.197754C540.005 0.545287 539.725 0.892821 538.05 2.63049C540.936 7.39666 548.103 11.2195 612.235 32.4191Z" fill="white" fill-opacity="0.4"/>
<path d="M216.83 120.147L216.411 120.544C217.528 119.65 218.645 118.806 219.716 117.863C218.738 118.608 217.761 119.352 216.83 120.147Z" fill="white" fill-opacity="0.4"/>
<path d="M540.331 0.0996991C540.377 0.0996991 542.611 0.0996991 545.776 0.0996991C546.288 0.0996991 546.846 0.0500488 547.358 0.0500488C547.126 0.0500488 546.8 0.0500488 546.567 0.0500488C546.381 0.0500488 546.102 0.0500488 545.869 0.0500488C545.683 0.0500488 545.45 0.0500488 545.264 0.0500488C545.171 0.0500488 545.078 0.0500488 544.985 0.0500488C544.845 0.0500488 544.659 0.0500488 544.566 0.0500488C544.473 0.0500488 544.333 0.0500488 544.24 0.0500488C544.194 0.0500488 544.101 0.0500488 544.054 0.0500488H544.008C542.844 0.0500488 541.587 0.0500488 540.331 0.0996991Z" fill="white" fill-opacity="0.4"/>
<path d="M496.49 118.359C497.467 117.962 497.7 117.863 498.677 117.614C493.139 79.9318 482.807 9.82941 539.261 0.743896C510.964 3.82205 480.62 26.7096 496.49 118.359Z" fill="white" fill-opacity="0.4"/>
<path d="M568.162 536.443C569.232 536.194 570.722 535.896 571.839 535.698C524.088 308.461 507.985 231.904 502.075 144.822C501.516 144.921 500.818 145.07 500.26 145.219C505.658 235.429 517.666 293.219 568.162 536.443Z" fill="white" fill-opacity="0.4"/>
<path d="M557.877 542.897C558.482 542.251 559.32 541.457 559.971 540.861C406.854 359.3 406.854 359.3 363.991 289.495C363.432 289.992 362.641 290.687 362.083 291.183C402.2 359.747 442.457 411.479 557.877 542.897Z" fill="white" fill-opacity="0.4"/>
<path d="M368.319 260.75C369.017 261.494 369.25 261.842 369.715 262.487C409.507 222.323 449.904 182.803 489.882 142.837C489.137 142.191 488.998 142.042 488.346 141.298C448.275 181.065 407.878 220.436 368.133 260.502C368.133 260.601 368.226 260.7 368.319 260.75Z" fill="white" fill-opacity="0.4"/>
<path d="M492.86 120.495C493.744 119.85 493.93 119.701 494.908 119.155C475.035 78.5429 461.911 45.2293 487.973 17.4763C482.668 19.4126 470.707 34.4062 471.684 54.5631C472.755 77.1528 479.363 93.8344 492.86 120.495Z" fill="white" fill-opacity="0.4"/>
<path d="M486.764 129.878C486.903 129.332 487.136 128.637 487.322 128.09C372.182 104.359 372.182 104.359 346.445 96.5642C345.933 97.1103 345.375 97.6068 344.816 98.1529C356.963 102.174 385.26 111.707 486.764 129.878Z" fill="white" fill-opacity="0.4"/>
<path d="M171.082 221.329C171.455 221.28 171.92 221.18 172.292 221.131C172.432 221.131 172.479 221.131 172.479 221.131C231.398 134.098 287.572 74.4716 400.525 27.356C310.982 65.7336 244.709 109.821 171.082 221.329Z" fill="white" fill-opacity="0.4"/>
<path d="M159.726 230.067C160.47 229.223 161.494 228.677 162.006 227.584C164.519 222.371 163.17 213.981 163.681 208.122C165.124 191.639 174.06 164.433 208.499 128.438C194.817 139.708 162.658 172.128 159.726 230.067Z" fill="white" fill-opacity="0.4"/>
<path d="M340.395 88.1244C341.186 87.6279 342.116 87.33 342.861 86.635C346.491 83.3086 348.074 76.06 350.308 71.4924C361.338 49.0021 393.776 32.6183 409.32 24.7244C397.08 28.6962 374.788 43.4912 371.576 46.47C351.704 64.79 351.099 66.1305 340.395 88.1244Z" fill="white" fill-opacity="0.4"/>
<path d="M354.079 85.3435C354.079 85.5421 354.032 85.84 354.032 86.0386C404.342 55.2571 431.568 39.5188 481.273 18.071L481.692 17.5249C434.733 37.7315 406.111 52.9236 354.032 85.2442C354.079 85.2442 354.079 85.2939 354.079 85.3435Z" fill="white" fill-opacity="0.4"/>
<path d="M428.076 18.5684C427.378 18.8167 426.633 19.0153 425.935 19.2635C445.621 14.9938 497.979 3.7238 542.704 0.248465C543.169 0.198818 543.775 0.198818 544.24 0.14917C498.305 3.37626 445.714 14.7456 428.402 18.4691C428.308 18.5188 428.169 18.5684 428.076 18.5684Z" fill="white" fill-opacity="0.4"/>
<path d="M503.564 9.28411C503.518 9.33375 503.471 9.43305 503.424 9.4827C513.756 6.40454 527.672 2.73062 538.236 0.794364C538.423 0.744716 538.609 0.744716 538.748 0.695068C528.091 2.73062 513.989 6.10666 503.564 9.28411Z" fill="white" fill-opacity="0.4"/>
<path d="M423.794 20.0085C422.63 20.4056 422.63 20.4056 421.141 20.9021C433.288 19.4623 448.46 17.675 486.902 14.3486C487.507 14.0508 488.112 13.7529 488.717 13.5046C472.754 14.8948 446.086 17.2282 424.166 19.8595C424.027 19.9092 423.887 19.9588 423.794 20.0085Z" fill="white" fill-opacity="0.4"/>
<path d="M175.269 224.258C175.269 224.506 175.269 224.854 175.269 225.151C210.872 192.682 255.225 152.219 323.965 106.146C324.012 105.749 324.058 105.203 324.151 104.806C290.409 128.041 233.956 166.964 175.269 224.059C175.269 224.109 175.269 224.208 175.269 224.258Z" fill="white" fill-opacity="0.4"/>
<path d="M347.05 262.089C348.167 261.196 348.446 260.997 349.656 260.203C335.089 219.243 315.17 163.092 336.02 104.905C335.601 105.153 304.186 151.127 347.05 262.089Z" fill="white" fill-opacity="0.4"/>
<path d="M217.574 560.571C217.947 560.77 218.459 561.068 218.878 561.266C251.874 473.837 273.655 416.096 344.908 294.658C344.21 294.36 343.279 293.864 342.627 293.467C298.926 368.435 256.435 445.24 217.249 560.422C217.342 560.472 217.481 560.521 217.574 560.571Z" fill="white" fill-opacity="0.4"/>
<path d="M338.579 275.544C338.812 274.8 339.137 273.807 339.37 273.112C196.119 247.245 196.119 247.245 169.266 239.649C168.661 240.642 168.009 241.685 167.358 242.678C197.562 250.77 235.678 260.054 338.579 275.544Z" fill="white" fill-opacity="0.4"/>
<path d="M201.472 564.195C202.17 563.5 203.101 562.656 203.799 562.06C157.399 447.176 135.013 359.846 158.004 253.5C157.352 254.047 110.3 344.405 201.472 564.195Z" fill="white" fill-opacity="0.4"/>
<path d="M241.821 100.933L228.557 111.011C234.747 106.444 240.89 101.826 247.033 97.2092C245.311 98.4504 243.543 99.642 241.821 100.933Z" fill="white" fill-opacity="0.4"/>
<path d="M229.35 111.261C228.885 111.658 228.233 112.204 227.768 112.601C283.43 74.6703 319.964 54.2651 402.2 25.966C402.759 25.7178 403.503 25.4199 404.062 25.1716C327.876 51.187 290.364 69.6559 229.583 111.062C229.49 111.112 229.397 111.211 229.35 111.261Z" fill="white" fill-opacity="0.4"/>
<path d="M45.3304 402.295C45.3769 402.841 45.4234 403.585 45.4234 404.181C71.1136 355.328 88.1008 323.057 147.533 254.742C147.486 254.196 147.44 253.501 147.44 252.955C105.693 301.907 80.3751 332.937 45.2838 402.096C45.2838 402.146 45.3304 402.245 45.3304 402.295Z" fill="white" fill-opacity="0.4"/>
<path d="M78.2331 527.902C78.652 527.852 79.257 527.753 79.6758 527.654C86.0518 457.452 93.9171 370.072 151.813 257.124C151.394 257.174 150.836 257.273 150.417 257.323C123.563 312.531 86.7034 388.144 78.2331 527.902Z" fill="white" fill-opacity="0.4"/>
<path d="M192.397 141.248L202.031 132.858C202.589 132.311 203.194 131.815 203.799 131.269L196.353 137.723C195.003 138.865 193.7 140.056 192.397 141.248Z" fill="white" fill-opacity="0.4"/>
<path d="M41.5598 400.21C51.4729 392.068 50.961 370.719 54.6842 357.96C65.2023 322.065 100.433 228.429 200.402 134.992C140.411 193.279 78.6989 261.842 41.5598 400.21Z" fill="white" fill-opacity="0.4"/>
<path d="M459.258 7.94376C447.576 10.2276 429.984 13.7029 419.233 19.9088C424.678 18.2208 429.658 15.2916 435.15 13.7029C440.688 12.1142 449.112 9.68143 462.981 7.29834C461.771 7.54658 460.514 7.74517 459.258 7.94376Z" fill="white" fill-opacity="0.4"/>
<path d="M393.125 24.2781C397.919 23.2355 401.781 22.739 413.835 21.6468C414.906 21.2992 415.93 20.9517 417 20.6538C405.225 21.6964 401.037 22.2425 396.569 23.2355C395.452 23.5334 394.288 23.9305 393.125 24.2781Z" fill="white" fill-opacity="0.4"/>
<path d="M557.412 0.0496478C566.022 0.198591 571.141 0.44683 578.96 0.844012C578.867 0.844012 567.371 0 549.872 0C552.385 0 554.898 0 557.412 0.0496478Z" fill="white" fill-opacity="0.4"/>
<path d="M720.163 40.214C733.52 46.7675 740.78 49.647 741.711 48.7037C741.571 45.6752 712.018 32.5682 706.48 32.2207C706.387 32.2207 706.294 32.2207 706.247 32.2704C706.201 32.32 706.154 32.4193 706.154 32.4689C706.573 33.1144 708.062 34.2563 720.163 40.214Z" fill="white" fill-opacity="0.4"/>
<path d="M898.458 203.854C910.419 221.23 920.611 223.862 921.356 218.599C922.473 210.655 904.276 187.222 894.875 187.073C889.569 187.321 893.013 195.96 898.458 203.854Z" fill="white" fill-opacity="0.4"/>
<path d="M727.655 189.356C735.334 205.542 752.368 207.577 755.486 198.641C758.278 190.697 748.691 171.831 733.566 170.987C725.142 171.036 722.675 178.781 727.655 189.356Z" fill="white" fill-opacity="0.4"/>
<path d="M614.609 35.3488C622.568 43.8882 631.829 44.5336 631.55 40.7107C631.271 36.4907 620.008 27.7031 613.167 27.4548C608.978 27.6038 611.165 31.6252 614.609 35.3488Z" fill="white" fill-opacity="0.4"/>
<path d="M486.205 132.559C484.53 146.312 500.027 148.695 508.405 141.496C517.108 134.049 515.944 118.459 503.983 117.168C503.518 117.119 502.959 117.119 502.494 117.069C494.163 117.218 487.275 123.722 486.205 132.559Z" fill="white" fill-opacity="0.4"/>
<path d="M546.475 0.0496478C541.541 0.198591 538.237 0.69507 537.865 0.844013C537.958 0.844013 538.004 0.893661 539.121 0.744718C540.843 0.546126 542.519 0.347535 544.241 0.198591C546.707 0.0496478 548.569 0 549.872 0C548.755 0 547.638 0 546.475 0.0496478Z" fill="white" fill-opacity="0.4"/>
<path d="M337.974 277.778C334.53 294.261 349.19 300.219 361.384 291.679C373.298 283.339 376.277 261.295 363.013 257.77C361.663 257.423 360.36 257.373 359.429 257.323C349.097 257.671 340.487 265.912 337.974 277.778Z" fill="white" fill-opacity="0.4"/>
<path d="M488.438 13.6026C482.388 16.3332 480.341 18.2695 481.504 18.7659C481.923 18.9645 483.831 19.3121 490.952 16.2339C491.091 16.1843 503.424 10.4251 503.61 9.13429C503.517 9.035 503.471 8.98535 503.052 8.98535C500.399 9.08465 493.837 11.1698 488.438 13.6026Z" fill="white" fill-opacity="0.4"/>
<path d="M329.597 97.0116C322.43 104.409 322.802 108.282 326.851 108.282C335.694 108.331 357.707 88.5219 353.612 84.2025C353.053 83.6564 352.169 83.6068 351.611 83.5571C345.374 83.9543 335.787 90.6071 329.597 97.0116Z" fill="white" fill-opacity="0.4"/>
<path d="M151.905 241.188C145.204 252.905 146.6 258.465 151.812 257.125C161.958 254.444 180.016 225.499 174.012 221.528C173.5 221.18 172.895 221.13 172.476 221.081C167.171 221.329 158.328 229.968 151.905 241.188Z" fill="white" fill-opacity="0.4"/>
<path d="M415.882 21.0004C407.784 23.5821 401.129 26.1638 399.733 27.2064C399.779 27.256 399.826 27.3553 399.872 27.405C402.618 27.256 436.499 15.986 437.616 15.2413C437.57 15.2413 437.523 15.1917 437.477 15.1917C435.755 15.2909 426.168 17.674 415.882 21.0004Z" fill="white" fill-opacity="0.4"/>
<path d="M213.246 123.126C207.568 127.843 199.47 134.843 199.191 135.737C200.633 135.141 232.141 109.225 232.56 108.281C231.257 108.828 222.507 115.431 213.246 123.126Z" fill="white" fill-opacity="0.4"/>
</svg>
