<svg width="1914" height="107" viewBox="0 0 1914 107" fill="none" xmlns="http://www.w3.org/2000/svg">
<rect x="-6" width="1920" height="107" rx="4" fill="white"/>
<path fill-rule="evenodd" clip-rule="evenodd" d="M479.504 52.0692C479.281 50.7954 478.395 50.4582 477.403 50.3498C474.2 50 473.632 52.8209 473.632 54.0129C473.632 56.0505 474.137 57.7367 477.282 57.7367C477.862 57.7367 479.463 57.0332 479.463 55.8904H483.986C483.804 59.2802 478.967 60.093 476.858 60.093C472.487 60.093 468.745 59.1342 468.926 54.059C469.055 50.4363 471.959 47.8949 477.736 48.0534C480.956 48.142 484.049 49.3251 484.063 52.0696H479.504V52.0692ZM524.805 52.0692C524.583 50.7954 523.696 50.4582 522.705 50.3498C519.501 50 518.933 52.8209 518.933 54.0129C518.933 56.0505 519.439 57.7367 522.584 57.7367C523.163 57.7367 524.764 57.0332 524.764 55.8904H529.287C529.106 59.2802 524.268 60.093 522.158 60.093C517.787 60.093 514.045 59.1342 514.226 54.059C514.355 50.4363 517.261 47.8949 523.036 48.0534C526.257 48.142 529.35 49.3251 529.364 52.0696H524.805V52.0692ZM484.87 48.2956H490.741L495.751 56.573H495.791V48.2956H499.555V59.7889H493.93L488.674 51.5115H488.633V59.7889H484.87V48.2956ZM500.716 48.2956H507.848C511.276 48.2956 513.291 49.4242 513.291 51.1286C513.291 52.1355 512.448 53.3785 510.566 53.7444V53.7768C512.831 53.9357 513.668 55.6239 513.668 56.6357C513.668 58.6615 511.702 59.7893 507.869 59.7893H500.716V48.2956ZM504.845 52.7606H506.027C507.848 52.7606 508.814 52.594 508.814 51.7024C508.814 50.7477 508.011 50.4286 506.372 50.4286H504.845V52.7606H504.845ZM504.845 57.3801H506.027C508.222 57.3801 509.027 57.1092 509.027 56.2184C509.027 55.2628 508.011 54.9438 506.372 54.9438H504.845V57.3801H504.845Z" fill="black"/>
<path fill-rule="evenodd" clip-rule="evenodd" d="M460.144 50.2867L449.152 58.5884L452.854 48.6508L454.61 44.0229C455.322 42.5272 456.661 41.5738 458.123 41.5474C459.523 41.5474 460.765 42.3085 461.552 43.6731C462.362 45.0378 462.407 47.2687 461.597 48.6508C461.234 49.2979 460.697 49.8752 460.144 50.2867Z" fill="#0088CC"/>
<path fill-rule="evenodd" clip-rule="evenodd" d="M454.671 42.4488L449.235 56.9615L448.993 55.3782L447.358 43.481C447.289 42.7549 447.554 42.1425 448.069 41.7402L448.849 41.2155C448.894 41.0316 448.667 40.9704 448.561 40.9092L447.032 40.8917C446.934 39.1771 447.6 37.6202 448.886 36.6843C449.886 35.9491 451.408 35.7568 452.521 36.3516C453.967 37.0165 454.973 38.7575 454.996 40.5331C454.988 41.1891 454.89 41.8629 454.671 42.4488Z" fill="#6360A6"/>
<path fill-rule="evenodd" clip-rule="evenodd" d="M444.232 57.014L438.879 42.4663C438.304 40.9092 438.546 38.8621 439.53 37.6021C440.582 36.2815 442.066 35.7215 443.595 36.1679C444.89 36.5263 446.101 37.9262 446.419 39.4219C446.571 39.9819 446.548 40.6552 446.517 41.2675L444.232 57.014Z" fill="#B01842"/>
<path fill-rule="evenodd" clip-rule="evenodd" d="M432.793 49.7622C431.695 48.6863 431.203 47.2514 431.362 45.5891C431.521 43.9096 432.695 42.2651 434.095 41.7579C435.533 41.2504 437.1 41.6527 438.145 42.8688C438.584 43.3412 438.857 43.9009 439.083 44.4785L444.254 58.615L432.793 49.7622Z" fill="#D76F2C"/>
<path fill-rule="evenodd" clip-rule="evenodd" d="M431.618 60.0897C430.188 59.9061 429.085 59.0357 428.413 57.5545C427.732 56.0594 427.909 53.9379 428.825 52.6122C429.822 51.2623 431.266 50.5832 432.72 50.9164C433.313 51.0243 433.81 51.3123 434.277 51.644L445.404 60.0933L431.618 60.0897Z" fill="#ECB731"/>
<path fill-rule="evenodd" clip-rule="evenodd" d="M461.828 60.0897C463.259 59.9061 464.361 59.0357 465.034 57.5545C465.714 56.0594 465.537 53.9379 464.622 52.6122C463.624 51.2623 462.181 50.5832 460.727 50.9164C460.134 51.0243 459.637 51.3123 459.17 51.644L448.043 60.0933L461.828 60.0897Z" fill="#64B054"/>
<path d="M669.264 48.8346H667.177L667.189 46.3182L664.1 46.8374V48.7813L662.697 49.0209V50.5655H664.147L664.135 57.3427C664.145 57.5865 664.492 59.7857 666.599 59.6461C668.99 59.4878 669.193 59.1802 669.405 59.0203C669.388 59.0401 669.405 57.7022 669.405 57.7022L668.108 57.7422C668.108 57.7422 667.377 57.6889 667.259 56.7701C667.255 56.7708 667.236 50.5921 667.236 50.5921L669.264 50.6054V48.8346ZM673.753 44.0312L669.582 44.707L669.588 45.6057L670.696 46.165L670.708 57.9285L669.659 58.3945L669.67 59.3598L674.787 59.3664V58.4078L673.756 57.9018L673.761 50.9448C673.761 50.9448 674.345 50.652 675.153 50.652C675.96 50.652 676.332 51.2378 676.332 51.5974V57.9219L675.388 58.3945V59.3665H680.493V58.4345L679.444 57.8553V50.7252C679.444 50.7252 679.468 48.4617 677.145 48.5749C675.732 48.5845 674.731 49.0875 673.747 49.9663C673.747 49.963 673.747 44.0379 673.753 44.0312V44.0312ZM689.308 54.3798C689.427 52.0587 689.212 48.3581 685.065 48.5802C681.001 48.7977 680.488 52.3084 680.513 54.5774C680.747 58.2438 682.421 59.6067 685.565 59.6616C688.049 59.5674 688.95 58.0893 688.95 58.0893V57.096C688.95 57.096 687.783 57.4914 686.557 57.482C683.656 57.4596 683.689 54.3798 683.689 54.3798H689.308ZM683.681 53.1464C683.681 53.1464 683.664 51.6503 683.928 50.7003C684.139 49.9422 684.565 49.6919 685.057 49.6911C685.875 49.6897 686.08 50.2082 686.172 50.8453C686.305 51.7619 686.283 53.0045 686.274 53.0146L683.681 53.1464Z" fill="#B2C9D9"/>
<path d="M697.181 57.0898H693.479C693.479 57.0898 692.925 57.0232 692.902 56.384C692.878 55.7448 693.279 55.5852 693.279 55.5852C693.279 55.5852 694.069 55.8515 694.894 55.8515C695.719 55.8515 698.962 55.4653 698.962 52.2965C698.962 50.8569 697.96 50.033 697.96 50.033L699.752 50.5755L699.722 48.4953L697.134 49.0345C697.134 49.0345 695.79 48.482 694.835 48.482C694.193 48.482 690.88 48.7696 690.759 52.0545C690.674 54.3736 692.407 55.2391 692.395 55.2391C692.383 55.2391 690.744 56.3841 690.733 57.8088C690.721 59.1805 692.108 59.6017 692.211 59.6311C692.216 59.6313 692.218 59.6319 692.218 59.633L692.211 59.6311C692.078 59.6266 689.954 60.0773 689.954 61.7634C689.955 63.3745 692.312 64.16 694.812 64.1733C697.311 64.1866 700.058 63.3877 700.058 60.0457C700.058 56.7038 697.181 57.0898 697.181 57.0898ZM694.812 49.7468C695.961 49.7401 695.967 51.0849 695.973 51.6508V52.6561C695.973 52.6561 696.126 54.467 694.912 54.4736C693.698 54.4803 693.733 53.4217 693.733 52.6561V51.4711C693.733 51.4711 693.662 49.7535 694.812 49.7468ZM694.818 62.8951C693.108 62.8951 692.495 62.1095 692.495 61.3506C692.495 60.5917 692.914 60.2788 692.914 60.2788L696.621 60.2721C696.621 60.2721 697.358 60.3652 697.358 61.0976C697.358 62.223 696.527 62.8951 694.818 62.8951ZM704.22 48.5551L700.046 49.2875V50.2062L701.119 50.7921V56.7171C701.119 56.7171 701.175 59.6268 703.701 59.6597C705.752 59.6863 706.778 58.0752 706.778 58.0752V59.633L710.822 59.087V58.2483L709.788 57.5746V48.582L705.634 49.3143V50.1931L706.731 50.8189V57.1434C706.731 57.1434 706.448 57.4097 705.54 57.4895C704.632 57.5694 704.22 56.5975 704.22 56.5975L704.22 48.5551ZM711.675 49.3148C711.675 49.3148 713.667 48.4957 715.31 48.4957C716.952 48.4957 719.328 49.1265 719.328 51.4331V57.8258L720.345 58.4283V59.191C720.345 59.191 719.62 59.6334 718.553 59.6334C717.485 59.6334 716.56 59.0215 716.56 58.0988C716.328 58.1035 716.244 59.6147 713.742 59.6147C710.825 59.6147 711.05 56.6961 711.05 56.6396C711.05 56.5831 710.966 54.4609 713.092 54.0034C715.193 53.5515 716.168 53.3726 716.168 53.3726L716.158 51.226C716.158 51.226 715.985 49.9267 714.993 49.9361C714.001 49.9456 714.009 49.955 714.009 49.955L713.309 52.111H711.667L711.675 49.3148ZM716.247 57.3598V54.4601C716.247 54.4601 714.155 54.2483 714.151 56.1406C714.148 57.5653 714.941 57.7317 715.301 57.7317C715.714 57.7019 715.988 57.5379 716.247 57.3598ZM724.613 48.458L720.537 49.1829V50.1432L721.587 50.7081V57.8352L720.612 58.4001V59.3038H725.98V58.4377L724.697 57.854L724.705 51.9696C724.705 51.9696 725.522 51.6024 726.347 51.6024C727.173 51.6024 727.581 51.706 727.581 51.706V48.6273C727.581 48.6273 725.834 48.0093 724.597 50.7645C724.596 50.7741 724.613 48.458 724.613 48.458ZM732.691 44.9463V45.8783L733.716 46.4338V48.957C733.716 48.957 733 48.571 732.133 48.571C731.266 48.571 727.722 48.7216 727.623 54.22C727.522 59.7182 731.307 59.6429 731.274 59.6429C731.241 59.6429 733.008 59.6994 733.808 58.5319C733.804 58.5319 733.8 59.6382 733.8 59.6382L737.806 59.0875V58.193L736.843 57.6376L736.834 44.212L732.691 44.9463ZM733.712 50.3976V57.5434C733.712 57.5434 733.382 57.7318 732.766 57.7318C731.765 57.7318 730.918 56.9623 730.924 54.4836C730.929 52.3183 731.209 50.617 732.047 50.1716C732.886 49.7262 733.673 50.3379 733.712 50.3976ZM742.37 45.9655C742.37 47.0275 741.607 47.8894 740.667 47.8894C739.726 47.8894 738.963 47.0275 738.963 45.9655C738.963 44.9034 739.726 44.0415 740.667 44.0415C741.607 44.0415 742.37 44.9034 742.37 45.9655ZM742.3 48.5019L738.067 49.1809V50.0997L739.175 50.7122V57.8488L738.162 58.368V59.3401H743.255V58.4081L742.288 57.8754L742.3 48.5019ZM744.232 49.303C744.232 49.303 746.224 48.4839 747.867 48.4839C749.509 48.4839 751.885 49.1147 751.885 51.4214V57.8141L752.902 58.4167V59.1792C752.902 59.1792 752.177 59.6217 751.11 59.6217C750.042 59.6217 749.117 59.0098 749.117 58.0871C748.885 58.0918 748.801 59.6029 746.299 59.6029C743.382 59.6029 743.607 56.6843 743.607 56.6278C743.607 56.5713 743.523 54.4491 745.649 53.9917C747.75 53.5398 748.725 53.3608 748.725 53.3608L748.715 51.2142C748.715 51.2142 748.542 49.915 747.55 49.9244C746.558 49.9339 746.566 49.9432 746.566 49.9432L745.866 52.0992H744.224L744.232 49.303ZM748.804 57.348V54.4482C748.804 54.4482 746.712 54.2365 746.708 56.1288C746.705 57.5534 747.497 57.7199 747.858 57.7199C748.271 57.6901 748.545 57.5259 748.804 57.348ZM757.213 48.4753L753.052 49.2209V50.113L754.172 50.7122V57.902L753.146 58.368V59.3667H758.239V58.3814L757.296 57.8754V50.9252C757.296 50.9252 757.803 50.6589 758.546 50.6589C759.288 50.6589 759.866 51.0317 759.866 51.8572V57.8754L758.821 58.4553L758.817 59.34H764.004V58.3947L762.99 57.9154V51.2448C762.99 51.2448 763.061 48.5819 760.668 48.5819C758.274 48.5819 757.225 50.0065 757.225 50.0065L757.213 48.4753Z" fill="#00417B"/>
<path d="M897.337 43.0273H904.766C906.181 43.0273 907.243 43.4269 908.029 44.0928C908.893 44.8918 909.365 46.046 909.365 47.4665C909.365 49.109 908.776 50.1301 907.596 50.7516V50.8403C909.169 51.4174 910.073 53.0155 910.073 54.9244C910.073 56.7445 909.444 58.165 908.422 59.0529C907.557 59.7631 906.456 60.0739 904.963 60.0739H897.337V43.0273ZM904.019 49.6861C904.806 49.6861 905.395 49.1978 905.395 48.1768C905.395 47.2002 904.806 46.7119 903.98 46.7119H901.425V49.6418H904.019V49.6861ZM904.373 56.3006C905.277 56.3006 905.945 55.6791 905.945 54.5693C905.945 53.3707 905.238 52.838 904.373 52.838H901.464V56.3449H904.373V56.3006ZM910.741 43.0273H914.632V60.1183H910.741V43.0273ZM915.418 54.0366C915.418 50.1745 917.62 47.5997 921.039 47.5997C924.459 47.5997 926.621 50.2188 926.621 54.0366C926.621 57.8987 924.459 60.4734 921.039 60.4734C917.62 60.4734 915.418 57.8987 915.418 54.0366ZM922.73 54.0366C922.73 51.9057 922.14 50.574 920.961 50.574C919.781 50.574 919.231 51.9057 919.231 54.0366C919.231 56.1674 919.781 57.5435 920.961 57.5435C922.14 57.4991 922.73 56.1674 922.73 54.0366ZM927.053 54.0366C927.053 50.1745 929.254 47.5997 932.674 47.5997C936.094 47.5997 938.216 50.1745 938.216 54.0366C938.216 57.8987 936.055 60.4734 932.635 60.4734C929.254 60.4734 927.053 57.8987 927.053 54.0366ZM934.364 54.0366C934.364 51.9057 933.775 50.574 932.596 50.574C931.416 50.574 930.866 51.9057 930.866 54.0366C930.866 56.1674 931.416 57.5435 932.596 57.5435C933.775 57.4991 934.364 56.1674 934.364 54.0366ZM939.003 47.9105H942.619V49.7305H942.697C943.405 48.31 944.388 47.5553 945.96 47.5553C947.336 47.5553 948.358 48.31 948.869 49.6418H948.947C949.812 48.0436 950.952 47.5553 952.288 47.5553C954.804 47.5553 955.865 49.6418 955.865 52.4384V60.0739H952.092V53.1931C952.092 51.9501 951.738 51.1511 950.795 51.1511C949.851 51.1511 949.38 52.1277 949.38 53.4595V60.0739H945.606V53.1931C945.606 51.9501 945.252 51.1511 944.309 51.1511C943.366 51.1511 942.894 52.1277 942.894 53.4595V60.0739H939.003V47.9105ZM960.621 58.4758H960.582V60.0739H956.966V43.0273H960.739V49.1534H960.818C961.525 48.088 962.508 47.5109 963.884 47.5109C966.596 47.5109 968.168 50.2632 968.168 53.9478C968.168 58.0762 966.478 60.4734 963.648 60.4734C962.469 60.4734 961.25 59.8519 960.621 58.4758ZM964.277 53.9034C964.277 51.9501 963.648 50.6628 962.508 50.6628C961.329 50.6628 960.621 51.9501 960.621 53.9034C960.621 55.8566 961.368 57.144 962.508 57.144C963.648 57.144 964.277 55.901 964.277 53.9034ZM968.601 53.9922C968.601 50.1745 970.841 47.5553 974.064 47.5553C975.676 47.5553 976.894 48.1324 977.838 49.1534C979.096 50.5296 979.646 52.6604 979.607 55.1464H972.374C972.531 56.6557 973.16 57.4547 974.3 57.4547C974.968 57.4547 975.558 57.0996 975.794 56.3006H979.449C978.821 59.0972 976.894 60.4734 974.182 60.4734C970.841 60.429 968.601 57.8543 968.601 53.9922ZM972.374 52.7048H975.833C975.755 51.2399 975.047 50.4852 974.143 50.4852C973.082 50.4408 972.492 51.2843 972.374 52.7048ZM983.891 49.9969H983.97C984.756 48.31 985.778 47.6441 987.075 47.6441C987.389 47.6441 987.586 47.6885 987.704 47.7773V51.5062H987.625C985.385 51.0623 984.088 52.2609 984.088 55.0132V60.1183H980.275V47.9105H983.891V49.9969ZM988.097 60.1183H991.753C991.91 60.651 992.381 61.1393 993.285 61.1393C994.504 61.1393 994.936 60.2958 994.936 59.0085V58.1206H994.858C994.268 58.9197 993.443 59.4968 992.264 59.4968C989.944 59.4968 987.9 57.5435 987.9 53.7258C987.9 50.2188 989.551 47.5109 992.067 47.5109C993.521 47.5109 994.386 48.1768 994.976 49.1978H995.054V47.8661H998.671V58.4314C998.671 60.3846 998.081 61.8939 997.177 62.7818C996.234 63.714 994.897 64.1135 993.364 64.1135C990.455 64.1579 988.451 62.8262 988.097 60.1183ZM995.094 53.5482C995.094 52.0389 994.465 50.7959 993.364 50.7959C992.303 50.7959 991.635 51.8614 991.635 53.5482C991.635 55.1908 992.303 56.3449 993.364 56.3449C994.425 56.3449 995.094 55.1464 995.094 53.5482Z" fill="black"/>
<g clip-path="url(#clip0_2_1873)">
<path d="M1392.7 57.3248C1392.59 57.9702 1392.25 58.5562 1391.75 58.9851C1391.26 59.414 1390.63 59.6599 1389.98 59.6817C1389.69 59.6906 1389.4 59.6325 1389.14 59.5121C1388.88 59.3918 1388.65 59.2124 1388.47 58.9881C1388.29 58.7638 1388.16 58.5007 1388.1 58.2196C1388.04 57.9385 1388.05 57.6471 1388.12 57.3683C1388.23 56.7247 1388.56 56.1392 1389.05 55.71C1389.54 55.2808 1390.17 55.0342 1390.82 55.0114C1391.11 54.9918 1391.41 55.0425 1391.67 55.1591C1391.94 55.2758 1392.18 55.4549 1392.36 55.6816C1392.55 55.9083 1392.67 56.1758 1392.73 56.4618C1392.79 56.7477 1392.78 57.0437 1392.7 57.3248ZM1393.57 52.7631L1393.37 53.7189C1393.14 53.2824 1392.77 52.9285 1392.33 52.7036C1391.88 52.4787 1391.38 52.3934 1390.89 52.459C1389.55 52.5128 1388.27 53.0292 1387.27 53.9203C1386.26 54.8114 1385.6 56.0222 1385.39 57.3466C1384.91 59.9641 1386.17 62.2559 1389.07 62.2559C1389.63 62.2764 1390.18 62.1696 1390.69 61.9437C1391.19 61.7177 1391.64 61.3786 1392 60.9525L1391.82 61.93H1394.53L1396.23 52.7957H1393.57V52.7631ZM1397.81 52.774H1400.36L1400.18 53.7297C1400.46 53.3113 1400.85 52.9734 1401.3 52.7503C1401.75 52.5272 1402.25 52.4267 1402.75 52.459L1402.25 55.2069C1400.97 55.2069 1400.08 55.4893 1399.78 56.8904L1398.85 61.9083H1396.1L1397.81 52.774Z" fill="#363333"/>
<path d="M1404.58 49.1899L1402.23 61.9085H1404.97L1405.79 57.4988H1405.83L1407.59 61.9085H1410.69L1408.3 56.782L1412.48 52.7742H1409.25L1406.09 56.0869H1406.05L1407.33 49.1899H1404.58Z" fill="#363333"/>
<path d="M1414.1 56.3256C1414.3 55.859 1414.63 55.4614 1415.05 55.183C1415.47 54.9046 1415.97 54.758 1416.48 54.7616C1416.7 54.7356 1416.92 54.7566 1417.14 54.8232C1417.35 54.8898 1417.54 55.0005 1417.71 55.1481C1417.88 55.2957 1418.01 55.4768 1418.1 55.6797C1418.2 55.8826 1418.25 56.1027 1418.25 56.3256H1414.1ZM1416.87 52.459C1415.51 52.5318 1414.21 53.056 1413.18 53.9489C1412.15 54.8418 1411.44 56.0526 1411.18 57.39C1411.03 57.9777 1411.03 58.5905 1411.16 59.1804C1411.3 59.7704 1411.56 60.3214 1411.95 60.7905C1412.33 61.2596 1412.81 61.634 1413.36 61.8844C1413.91 62.1349 1414.51 62.2546 1415.12 62.2341C1416.1 62.2267 1417.05 61.9403 1417.87 61.4087C1418.81 60.8254 1419.59 60.0244 1420.16 59.0735H1417.37C1417.14 59.3414 1416.86 59.5564 1416.54 59.7028C1416.23 59.8493 1415.88 59.9237 1415.53 59.9207C1415.29 59.9483 1415.05 59.9233 1414.83 59.8476C1414.6 59.7718 1414.39 59.6471 1414.22 59.4823C1414.05 59.3175 1413.91 59.1166 1413.83 58.894C1413.74 58.6713 1413.7 58.4322 1413.72 58.1937H1420.57C1420.66 57.963 1420.73 57.7225 1420.77 57.4769C1421.29 54.6312 1419.66 52.459 1416.87 52.459Z" fill="#363333"/>
<path d="M1381.75 49.1899L1376.93 56.4344H1376.89V49.1899H1374.55L1366 61.9085H1369.32L1374.12 54.664H1374.16V61.9085H1376.52L1381.32 54.664H1381.36V61.9085H1384.11V49.1899H1381.75ZM1427.71 52.7742H1425.98L1426.48 50.0697H1424.08L1423.88 51.1558C1423.83 51.63 1423.59 52.0649 1423.23 52.3732C1422.86 52.6815 1422.4 52.8402 1421.92 52.8176L1421.51 54.8378H1422.86L1421.55 61.9085H1424.28L1425.59 54.8378H1427.34L1427.71 52.7742Z" fill="#363333"/>
<path d="M1472.59 49.2008H1475.31L1474.49 53.7299C1474.77 53.303 1475.16 52.9598 1475.62 52.7363C1476.08 52.5127 1476.59 52.417 1477.1 52.4592C1477.54 52.4352 1477.98 52.5152 1478.38 52.6926C1478.79 52.87 1479.14 53.1399 1479.42 53.4801C1480 54.3707 1479.94 55.1853 1479.64 56.8145L1478.7 61.9193H1475.97L1476.89 56.9449C1476.97 56.5104 1477.23 55.0224 1475.8 55.0224C1475.32 55.0266 1474.86 55.2121 1474.5 55.542C1474.15 55.872 1473.94 56.3224 1473.9 56.8037L1472.96 61.9085H1470.27L1472.59 49.2008ZM1461.09 52.7741H1459.41L1459.88 50.0697H1457.48L1457.24 51.1124C1457.18 51.5865 1456.95 52.0214 1456.58 52.3297C1456.22 52.638 1455.75 52.7968 1455.27 52.7741L1454.9 54.8378H1456.25L1454.95 61.9085H1457.67L1458.98 54.8378H1460.73L1461.09 52.7741ZM1447.94 59.6819C1448.61 59.6724 1449.25 59.4321 1449.75 59.0021C1450.26 58.5722 1450.6 57.9793 1450.72 57.325C1450.8 57.0438 1450.81 56.7479 1450.75 56.4619C1450.69 56.176 1450.57 55.9084 1450.38 55.6818C1450.2 55.4551 1449.96 55.2759 1449.69 55.1593C1449.43 55.0427 1449.13 54.992 1448.84 55.0116C1448.19 55.0343 1447.57 55.281 1447.07 55.7102C1446.58 56.1393 1446.25 56.7249 1446.14 57.3685C1446.07 57.6472 1446.06 57.9387 1446.12 58.2198C1446.19 58.5009 1446.31 58.7639 1446.49 58.9882C1446.67 59.2125 1446.9 59.3919 1447.16 59.5123C1447.42 59.6327 1447.71 59.6907 1448 59.6819H1447.94ZM1452.6 61.8542H1449.84L1450.02 60.8766C1449.66 61.3187 1449.21 61.6717 1448.7 61.9075C1448.18 62.1432 1447.62 62.2551 1447.05 62.2343C1444.15 62.2343 1442.88 59.9426 1443.37 57.325C1443.58 56.0063 1444.25 54.802 1445.25 53.9154C1446.24 53.0288 1447.52 52.5144 1448.85 52.4592C1449.34 52.4047 1449.84 52.4977 1450.27 52.7261C1450.71 52.9544 1451.06 53.3078 1451.3 53.7408L1451.49 52.785H1454.2L1452.6 61.8542ZM1447.36 45.9424L1442.03 49.2008H1443.54L1438.72 56.4344V49.2008H1436.32L1431.5 56.4344V49.2008H1428.71V61.9085H1431.09L1435.91 54.6314V61.9085H1438.26L1446.83 49.2008H1448.18L1447.36 45.9424ZM1470.01 58.4437C1469.55 59.5347 1468.79 60.4715 1467.82 61.1433C1466.84 61.8151 1465.7 62.1937 1464.52 62.2343C1463.9 62.2686 1463.28 62.1559 1462.71 61.9053C1462.14 61.6547 1461.64 61.2734 1461.25 60.7924C1460.86 60.3115 1460.59 59.7447 1460.46 59.1383C1460.32 58.5319 1460.34 57.9031 1460.5 57.3033C1460.77 55.9619 1461.49 54.752 1462.53 53.8719C1463.58 52.9918 1464.9 52.4937 1466.26 52.4592C1466.79 52.4251 1467.32 52.4991 1467.82 52.6767C1468.31 52.8543 1468.77 53.1318 1469.15 53.492C1469.54 53.8522 1469.85 54.2874 1470.06 54.7711C1470.27 55.2547 1470.38 55.7764 1470.38 56.304H1467.61C1467.53 55.9099 1467.31 55.5593 1466.99 55.3203C1466.66 55.0814 1466.26 54.9714 1465.86 55.0116C1465.22 55.0217 1464.61 55.261 1464.13 55.6857C1463.66 56.1103 1463.35 56.6922 1463.27 57.325C1463.18 57.597 1463.15 57.8873 1463.2 58.1708C1463.24 58.4544 1463.36 58.7226 1463.53 58.9524C1463.7 59.1822 1463.92 59.3667 1464.18 59.49C1464.44 59.6133 1464.73 59.6717 1465.02 59.6602C1465.45 59.6547 1465.88 59.5405 1466.26 59.328C1466.64 59.1156 1466.96 58.8116 1467.19 58.4437H1469.98H1470.01Z" fill="#4DB84D"/>
</g>
<g clip-path="url(#clip1_2_1873)">
<path d="M1179.92 59.7615H1178.04C1177.87 59.7615 1177.81 59.606 1177.74 59.455L1175.52 55.7294H1175.18C1174.78 55.7294 1173.54 55.6857 1173.19 55.6662V59.455C1173.19 59.6228 1173.06 59.7615 1172.89 59.7615H1171.36C1171.28 59.761 1171.2 59.7286 1171.14 59.6712C1171.08 59.6138 1171.05 59.5361 1171.05 59.455V49.3859C1171.05 49.0775 1171.23 48.9702 1171.54 48.9248C1172.34 48.8015 1174.06 48.7256 1175.18 48.7256C1177.55 48.7256 1179.73 49.5709 1179.73 52.1979V52.3366C1179.73 53.9637 1178.92 54.854 1177.66 55.3429L1180.07 59.455C1180.1 59.5014 1180.1 59.5446 1180.1 59.5791C1180.1 59.6833 1180.04 59.7615 1179.92 59.7615ZM1177.61 52.1979C1177.61 51.0456 1176.72 50.5545 1175.18 50.5545C1174.86 50.5545 1173.46 50.585 1173.19 50.615V53.9473C1173.43 53.9623 1174.92 53.9937 1175.18 53.9937C1176.76 53.9937 1177.61 53.6881 1177.61 52.3366V52.1979ZM1184.2 56.7348C1184.2 58.0235 1184.25 58.0572 1185.41 58.0572H1189.3C1189.38 58.0574 1189.46 58.0898 1189.52 58.1474C1189.58 58.205 1189.61 58.283 1189.61 58.3646V59.3459C1189.61 59.5628 1189.53 59.6396 1189.3 59.6692C1188.81 59.7465 1187.81 59.8834 1185.98 59.8834C1183.43 59.8834 1182.08 59.9011 1182.08 56.7348V51.8737C1182.08 48.7083 1183.43 48.726 1185.98 48.726C1187.81 48.726 1188.81 48.8647 1189.3 48.9407C1189.53 48.9702 1189.61 49.0484 1189.61 49.264V50.2458C1189.61 50.4136 1189.47 50.555 1189.3 50.555H1185.41C1184.25 50.555 1184.2 50.5891 1184.2 51.8737V53.2834H1189.12C1189.2 53.2837 1189.28 53.316 1189.33 53.3731C1189.39 53.4303 1189.42 53.5078 1189.42 53.589V54.698C1189.42 54.7794 1189.39 54.8572 1189.33 54.9146C1189.28 54.9721 1189.2 55.0045 1189.12 55.005H1184.2V56.7348ZM1196.51 59.8834C1194.04 59.8834 1191.91 58.8088 1191.91 55.5343V49.1408C1191.91 48.9702 1192.05 48.8479 1192.21 48.8479H1193.73C1193.9 48.8479 1194.04 48.9702 1194.04 49.1408V55.5343C1194.04 57.2868 1194.85 58.1181 1196.51 58.1181C1198.17 58.1181 1198.98 57.2868 1198.98 55.5343V49.1408C1198.98 48.9702 1199.11 48.8479 1199.28 48.8479H1200.8C1200.97 48.8479 1201.11 48.9702 1201.11 49.1408V55.5343C1201.11 58.8084 1198.98 59.8834 1196.51 59.8834ZM1211.21 50.6291H1208.15V59.455C1208.15 59.5367 1208.12 59.6145 1208.06 59.6719C1208 59.7292 1207.92 59.7614 1207.84 59.7615H1206.32C1206.24 59.7611 1206.16 59.7288 1206.1 59.6714C1206.04 59.6141 1206.01 59.5363 1206.01 59.455V50.6291H1202.94C1202.78 50.6291 1202.64 50.5236 1202.64 50.3544V49.1408C1202.64 48.9702 1202.78 48.8479 1202.94 48.8479H1211.21C1211.38 48.8479 1211.52 48.9702 1211.52 49.1408V50.3544C1211.52 50.5236 1211.38 50.6291 1211.21 50.6291ZM1232.08 59.7615H1230.2C1230.03 59.7615 1229.97 59.606 1229.9 59.455L1227.68 55.7294H1227.34C1226.94 55.7294 1225.7 55.6857 1225.34 55.6662V59.455C1225.34 59.6228 1225.22 59.7615 1225.06 59.7615H1223.52C1223.44 59.7614 1223.36 59.7291 1223.3 59.6717C1223.25 59.6143 1223.21 59.5364 1223.21 59.455V49.3859C1223.21 49.0775 1223.39 48.9702 1223.7 48.9248C1224.5 48.8015 1226.22 48.7256 1227.34 48.7256C1229.71 48.7256 1231.89 49.5709 1231.89 52.1979V52.3366C1231.89 53.9637 1231.08 54.854 1229.82 55.3429L1232.23 59.455C1232.26 59.492 1232.27 59.5355 1232.26 59.5791C1232.26 59.6833 1232.2 59.7615 1232.08 59.7615ZM1229.77 52.1979C1229.77 51.0456 1228.88 50.5545 1227.34 50.5545C1227.02 50.5545 1225.62 50.585 1225.34 50.615V53.9473C1225.59 53.9623 1227.08 53.9937 1227.34 53.9937C1228.93 53.9937 1229.77 53.6881 1229.77 52.3366V52.1979ZM1237.94 59.8902C1236.59 59.8902 1235.21 59.6574 1234.47 59.4877C1234.32 59.4568 1234.18 59.35 1234.18 59.1813V58.0744C1234.18 57.9066 1234.32 57.782 1234.47 57.782H1234.5C1235.12 57.8593 1236.55 58.059 1237.97 58.059C1239.34 58.059 1239.76 57.5697 1239.76 56.6798C1239.76 55.527 1237.01 54.889 1235.67 54.3361C1234.33 53.7831 1233.86 52.7245 1233.86 51.6504C1233.86 49.9593 1235.22 48.7301 1238.07 48.7301C1239.54 48.7301 1240.88 49.0084 1241.4 49.1339C1241.56 49.1649 1241.68 49.2726 1241.68 49.4254V50.5623C1241.68 50.7141 1241.57 50.8383 1241.42 50.8383H1241.39C1240.37 50.7469 1239.32 50.56 1237.98 50.56C1236.85 50.56 1235.99 50.9592 1235.99 51.6504C1235.99 52.1561 1236.57 52.6204 1237.25 52.8914C1237.94 53.1601 1238.83 53.508 1239.85 53.9191C1241.15 54.4425 1241.99 55.2051 1241.99 56.6798C1241.98 58.2304 1241.02 59.8902 1237.94 59.8902ZM1215.22 56.7348C1215.22 58.0235 1215.27 58.0572 1216.43 58.0572H1220.33C1220.41 58.0583 1220.48 58.0912 1220.54 58.1487C1220.6 58.2061 1220.63 58.2836 1220.63 58.3646V59.3459C1220.63 59.5628 1220.55 59.6396 1220.33 59.6692C1219.83 59.7465 1218.83 59.8834 1217 59.8834C1214.45 59.8834 1213.1 59.9011 1213.1 56.7348V51.8737C1213.1 48.7083 1214.45 48.726 1217 48.726C1218.83 48.726 1219.83 48.8647 1220.33 48.9407C1220.55 48.9702 1220.63 49.0484 1220.63 49.264V50.2458C1220.63 50.4136 1220.49 50.555 1220.33 50.555H1216.43C1215.27 50.555 1215.22 50.5891 1215.22 51.8737V53.2834H1220.14C1220.31 53.2834 1220.44 53.423 1220.44 53.589V54.698C1220.44 54.7791 1220.41 54.857 1220.35 54.9146C1220.3 54.9721 1220.22 55.0046 1220.14 55.005H1215.22V56.7348Z" fill="#666666"/>
<path d="M1143.64 49.5157C1143.82 49.8463 1143.7 50.261 1143.36 50.4402C1143.2 50.5261 1143.02 50.545 1142.84 50.4927C1142.67 50.4403 1142.52 50.321 1142.44 50.161C1142.25 49.8309 1142.38 49.4152 1142.71 49.237C1142.79 49.194 1142.88 49.1671 1142.97 49.1578C1143.06 49.1485 1143.15 49.1571 1143.23 49.183C1143.32 49.2089 1143.4 49.2517 1143.47 49.3088C1143.54 49.3659 1143.6 49.4362 1143.64 49.5157ZM1140.26 54.8643C1140.17 54.9161 1140.1 55.0026 1140.07 55.1049C1140.04 55.2072 1140.05 55.3173 1140.1 55.4114C1140.12 55.4579 1140.16 55.4991 1140.2 55.5324C1140.24 55.5656 1140.29 55.5904 1140.34 55.6051C1140.39 55.6199 1140.44 55.6243 1140.49 55.6182C1140.55 55.6121 1140.6 55.5956 1140.64 55.5696C1140.69 55.5454 1140.73 55.512 1140.77 55.4713C1140.8 55.4306 1140.82 55.3835 1140.84 55.3329C1140.86 55.2822 1140.86 55.229 1140.85 55.1764C1140.85 55.1238 1140.83 55.0729 1140.81 55.0267C1140.76 54.933 1140.67 54.8635 1140.57 54.8331C1140.46 54.8027 1140.35 54.8139 1140.26 54.8643ZM1140.19 53.22C1140.08 53.2793 1140 53.3789 1139.97 53.4972C1139.93 53.6155 1139.95 53.7428 1140 53.8516C1140.13 54.0826 1140.41 54.1658 1140.64 54.044C1140.87 53.9203 1140.95 53.6315 1140.83 53.4074C1140.8 53.3527 1140.76 53.3045 1140.71 53.2655C1140.67 53.2265 1140.61 53.1974 1140.55 53.1799C1140.49 53.1625 1140.43 53.1571 1140.37 53.164C1140.31 53.1708 1140.25 53.1899 1140.19 53.22ZM1140.62 51.6375C1140.49 51.7054 1140.4 51.8196 1140.36 51.9555C1140.32 52.0913 1140.33 52.238 1140.4 52.3637C1140.54 52.6225 1140.87 52.7225 1141.13 52.5811C1141.19 52.5478 1141.24 52.5026 1141.29 52.448C1141.33 52.3934 1141.37 52.3305 1141.39 52.2629C1141.41 52.1953 1141.41 52.1244 1141.41 52.0541C1141.4 51.9839 1141.38 51.9157 1141.35 51.8535C1141.28 51.7293 1141.16 51.6371 1141.03 51.5967C1140.89 51.5563 1140.74 51.5709 1140.62 51.6375ZM1141.49 50.2688C1141.42 50.3061 1141.36 50.3571 1141.31 50.4188C1141.25 50.4804 1141.22 50.5515 1141.19 50.628C1141.17 50.7044 1141.16 50.7846 1141.17 50.8639C1141.18 50.9432 1141.2 51.0201 1141.24 51.09C1141.4 51.3806 1141.76 51.4911 1142.06 51.3324C1142.13 51.2955 1142.19 51.2451 1142.24 51.184C1142.29 51.1229 1142.33 51.0524 1142.35 50.9765C1142.37 50.9006 1142.38 50.8209 1142.37 50.7419C1142.37 50.663 1142.34 50.5864 1142.3 50.5166C1142.27 50.4466 1142.22 50.3845 1142.16 50.3341C1142.09 50.2837 1142.02 50.2459 1141.95 50.2229C1141.87 50.1998 1141.79 50.192 1141.71 50.1999C1141.64 50.2078 1141.56 50.2312 1141.49 50.2688ZM1140.82 56.4213C1140.78 56.4423 1140.75 56.4709 1140.72 56.5053C1140.69 56.5397 1140.67 56.5793 1140.66 56.6218C1140.65 56.6643 1140.64 56.7089 1140.65 56.753C1140.65 56.7971 1140.67 56.8399 1140.69 56.8788C1140.73 56.9566 1140.8 57.0145 1140.89 57.04C1140.97 57.0655 1141.06 57.0566 1141.14 57.0152C1141.22 56.9714 1141.28 56.8989 1141.3 56.8132C1141.33 56.7275 1141.32 56.6355 1141.28 56.5568C1141.23 56.4793 1141.16 56.4216 1141.08 56.3963C1140.99 56.3709 1140.9 56.3799 1140.82 56.4213ZM1148.6 50.8217C1148.65 50.9154 1148.73 50.9851 1148.84 51.016C1148.94 51.047 1149.05 51.0369 1149.14 50.9877C1149.24 50.9357 1149.31 50.8491 1149.34 50.7464C1149.37 50.6437 1149.36 50.5331 1149.31 50.4384C1149.28 50.3918 1149.25 50.3506 1149.21 50.3172C1149.17 50.2838 1149.12 50.2588 1149.07 50.2437C1149.02 50.2286 1148.97 50.2237 1148.91 50.2292C1148.86 50.2348 1148.81 50.2507 1148.76 50.276C1148.72 50.3009 1148.67 50.3347 1148.64 50.3755C1148.61 50.4164 1148.58 50.4635 1148.57 50.5142C1148.55 50.5649 1148.55 50.6181 1148.55 50.6709C1148.56 50.7237 1148.57 50.7749 1148.6 50.8217ZM1147.23 49.9527C1147.35 50.181 1147.64 50.2642 1147.86 50.1401C1148.1 50.0164 1148.18 49.7326 1148.06 49.5053C1148 49.3962 1147.9 49.3147 1147.78 49.2785C1147.66 49.2424 1147.53 49.2546 1147.42 49.3125C1147.31 49.3725 1147.23 49.4732 1147.2 49.593C1147.16 49.7127 1147.17 49.8419 1147.23 49.9527ZM1145.65 49.5298C1145.69 49.5916 1145.73 49.6463 1145.78 49.6906C1145.84 49.7349 1145.9 49.7681 1145.97 49.7881C1146.04 49.8081 1146.11 49.8146 1146.18 49.8072C1146.24 49.7998 1146.31 49.7786 1146.37 49.7449C1146.44 49.7119 1146.49 49.6668 1146.54 49.6124C1146.58 49.5579 1146.61 49.4952 1146.63 49.4277C1146.66 49.3602 1146.66 49.2893 1146.66 49.2191C1146.65 49.1489 1146.63 49.0808 1146.59 49.0187C1146.56 48.9566 1146.52 48.9018 1146.46 48.8573C1146.41 48.8129 1146.34 48.7797 1146.28 48.7598C1146.21 48.7398 1146.14 48.7335 1146.07 48.7412C1146 48.7489 1145.93 48.7704 1145.87 48.8045C1145.81 48.8379 1145.75 48.8831 1145.71 48.9376C1145.66 48.9921 1145.63 49.0549 1145.61 49.1222C1145.59 49.1896 1145.58 49.2603 1145.59 49.3303C1145.6 49.4002 1145.62 49.468 1145.65 49.5298ZM1144 49.5949C1144.04 49.665 1144.09 49.727 1144.15 49.7774C1144.22 49.8279 1144.29 49.8657 1144.36 49.8887C1144.44 49.9118 1144.52 49.9196 1144.6 49.9118C1144.68 49.904 1144.75 49.8807 1144.82 49.8431C1144.96 49.7657 1145.07 49.6362 1145.11 49.4826C1145.16 49.3289 1145.14 49.1636 1145.07 49.0223C1144.99 48.8866 1144.86 48.7867 1144.71 48.744C1144.56 48.7013 1144.4 48.719 1144.26 48.7935C1144.12 48.8679 1144.02 48.9933 1143.97 49.1429C1143.92 49.2925 1143.93 49.4546 1144 49.5949ZM1149.62 52.0527C1149.71 52.2159 1149.91 52.2751 1150.07 52.1878C1150.11 52.1675 1150.14 52.1397 1150.17 52.106C1150.2 52.0722 1150.22 52.0332 1150.23 51.9912C1150.25 51.9493 1150.25 51.9052 1150.25 51.8615C1150.24 51.8179 1150.23 51.7756 1150.21 51.7371C1150.17 51.6582 1150.09 51.599 1150.01 51.5723C1149.92 51.5456 1149.83 51.5535 1149.75 51.5943C1149.6 51.6848 1149.53 51.8931 1149.62 52.0527ZM1148.46 58.4499C1148.42 58.37 1148.36 58.2992 1148.29 58.2419C1148.22 58.1845 1148.14 58.1416 1148.06 58.1157C1147.97 58.0898 1147.88 58.0814 1147.79 58.091C1147.7 58.1006 1147.61 58.128 1147.53 58.1716C1147.45 58.2139 1147.38 58.2715 1147.33 58.341C1147.27 58.4106 1147.23 58.4907 1147.2 58.5767C1147.18 58.6628 1147.17 58.7531 1147.18 58.8423C1147.19 58.9315 1147.21 59.0179 1147.26 59.0965C1147.44 59.4276 1147.85 59.5485 1148.19 59.3739C1148.52 59.1911 1148.64 58.7741 1148.46 58.4499ZM1142.3 57.7869C1142.25 57.6941 1142.16 57.6252 1142.06 57.5949C1141.96 57.5646 1141.85 57.5754 1141.75 57.625C1141.71 57.6499 1141.67 57.6837 1141.63 57.7244C1141.6 57.7652 1141.58 57.8121 1141.56 57.8626C1141.54 57.913 1141.54 57.966 1141.55 58.0184C1141.55 58.0708 1141.57 58.1216 1141.59 58.168C1141.62 58.2148 1141.65 58.2562 1141.69 58.2898C1141.73 58.3234 1141.78 58.3484 1141.83 58.3635C1141.88 58.3785 1141.93 58.3832 1141.99 58.3772C1142.04 58.3713 1142.09 58.3549 1142.13 58.3289C1142.18 58.3041 1142.22 58.2704 1142.26 58.2297C1142.29 58.189 1142.31 58.1422 1142.33 58.0918C1142.34 58.0414 1142.35 57.9886 1142.34 57.9363C1142.34 57.884 1142.32 57.8332 1142.3 57.7869ZM1143.67 58.6564C1143.61 58.5475 1143.51 58.4667 1143.39 58.4315C1143.27 58.3963 1143.14 58.4096 1143.03 58.4685C1142.98 58.4972 1142.93 58.5365 1142.89 58.5842C1142.85 58.6318 1142.82 58.6869 1142.8 58.746C1142.78 58.8052 1142.78 58.8672 1142.79 58.9286C1142.79 58.99 1142.81 59.0494 1142.84 59.1034C1142.96 59.3321 1143.25 59.4194 1143.47 59.2966C1143.58 59.2362 1143.66 59.1353 1143.7 59.0156C1143.74 58.8959 1143.72 58.7669 1143.67 58.6564ZM1145.25 59.0793C1145.11 58.8196 1144.78 58.7273 1144.52 58.8619C1144.39 58.9303 1144.3 59.045 1144.26 59.1811C1144.22 59.3171 1144.23 59.4637 1144.3 59.589C1144.44 59.8514 1144.77 59.9483 1145.03 59.8082C1145.09 59.7752 1145.15 59.73 1145.19 59.6753C1145.24 59.6206 1145.27 59.5575 1145.29 59.4896C1145.31 59.4217 1145.32 59.3505 1145.31 59.28C1145.3 59.2096 1145.28 59.1413 1145.25 59.0793ZM1146.89 59.0133C1146.82 58.8726 1146.69 58.7679 1146.53 58.722C1146.38 58.6762 1146.21 58.693 1146.07 58.7687C1145.78 58.9246 1145.68 59.2898 1145.84 59.5867C1145.87 59.6567 1145.92 59.7186 1145.98 59.7688C1146.04 59.819 1146.12 59.8564 1146.19 59.8789C1146.27 59.9014 1146.35 59.9085 1146.42 59.8998C1146.5 59.8911 1146.58 59.8668 1146.65 59.8282C1146.94 59.6736 1147.05 59.3048 1146.89 59.0133ZM1150.63 53.7502C1150.83 53.6365 1150.9 53.391 1150.8 53.1986C1150.77 53.1523 1150.74 53.1113 1150.7 53.0781C1150.66 53.0448 1150.61 53.02 1150.56 53.0049C1150.51 52.9899 1150.46 52.985 1150.41 52.9904C1150.35 52.9959 1150.3 53.0116 1150.26 53.0367C1150.21 53.0613 1150.17 53.0951 1150.13 53.1361C1150.1 53.1771 1150.07 53.2244 1150.06 53.2754C1150.04 53.3263 1150.04 53.3798 1150.04 53.4327C1150.05 53.4856 1150.07 53.5368 1150.09 53.5833C1150.14 53.6761 1150.23 53.7456 1150.33 53.7768C1150.43 53.808 1150.54 53.7985 1150.63 53.7502ZM1150.71 55.3918C1150.93 55.2677 1151.02 54.9826 1150.89 54.7561C1150.86 54.7019 1150.82 54.654 1150.78 54.6151C1150.73 54.5762 1150.67 54.5471 1150.61 54.5295C1150.56 54.5118 1150.49 54.5059 1150.43 54.5122C1150.37 54.5185 1150.31 54.5368 1150.26 54.566C1150.15 54.6262 1150.07 54.7269 1150.03 54.8464C1150 54.9659 1150.01 55.0947 1150.07 55.2054C1150.19 55.4296 1150.48 55.5123 1150.71 55.3918ZM1150.28 56.9729C1150.54 56.8297 1150.63 56.5077 1150.5 56.2444C1150.43 56.1193 1150.32 56.0262 1150.18 55.9854C1150.04 55.9445 1149.9 55.9594 1149.77 56.0266C1149.65 56.095 1149.55 56.21 1149.51 56.3467C1149.47 56.4835 1149.48 56.6309 1149.55 56.7569C1149.62 56.8808 1149.73 56.973 1149.87 57.0134C1150 57.0538 1150.15 57.0393 1150.28 56.9729ZM1149.41 58.3358C1149.7 58.1839 1149.81 57.8115 1149.65 57.5209C1149.49 57.2289 1149.13 57.1157 1148.84 57.2767C1148.77 57.3143 1148.71 57.3654 1148.66 57.4268C1148.61 57.4883 1148.57 57.559 1148.55 57.635C1148.52 57.7109 1148.52 57.7906 1148.52 57.8694C1148.53 57.9482 1148.56 58.0246 1148.59 58.0943C1148.63 58.1644 1148.68 58.2263 1148.74 58.2764C1148.8 58.3266 1148.88 58.364 1148.95 58.3865C1149.03 58.409 1149.11 58.4161 1149.19 58.4074C1149.27 58.3987 1149.34 58.3743 1149.41 58.3358Z" fill="url(#paint0_linear_2_1873)"/>
<path d="M1148.25 47.8819C1148.22 47.9924 1148.17 48.0954 1148.09 48.1849C1148.02 48.2744 1147.93 48.3488 1147.83 48.4037C1147.73 48.4585 1147.62 48.4929 1147.5 48.5047C1147.39 48.5165 1147.27 48.5056 1147.16 48.4726C1147.05 48.4405 1146.95 48.3867 1146.86 48.3143C1146.77 48.2419 1146.69 48.1523 1146.64 48.0507C1146.58 47.9492 1146.55 47.8377 1146.53 47.7226C1146.52 47.6075 1146.53 47.4912 1146.57 47.3803C1146.63 47.1567 1146.79 46.9686 1146.99 46.8575C1147.09 46.8025 1147.2 46.768 1147.32 46.756C1147.43 46.7441 1147.55 46.7549 1147.66 46.7878C1147.77 46.8207 1147.87 46.8752 1147.96 46.948C1148.05 47.0208 1148.13 47.1105 1148.18 47.2121C1148.24 47.3137 1148.27 47.4252 1148.28 47.5401C1148.3 47.655 1148.29 47.7712 1148.25 47.8819ZM1139.82 49.9587C1139.71 49.9278 1139.59 49.9415 1139.49 49.9969C1139.39 50.0523 1139.31 50.145 1139.28 50.2552C1139.25 50.3642 1139.27 50.4797 1139.32 50.5775C1139.38 50.6752 1139.47 50.7475 1139.58 50.7791C1139.69 50.8106 1139.8 50.7991 1139.9 50.7468C1140 50.6946 1140.08 50.6057 1140.11 50.4989C1140.19 50.2702 1140.05 50.0296 1139.82 49.9587ZM1141.35 48.2807C1141.28 48.2608 1141.21 48.2545 1141.14 48.262C1141.07 48.2696 1141 48.2909 1140.94 48.3247C1140.88 48.3586 1140.82 48.4043 1140.78 48.4593C1140.73 48.5142 1140.7 48.5773 1140.68 48.6449C1140.66 48.7125 1140.66 48.7833 1140.66 48.8534C1140.67 48.9235 1140.69 48.9914 1140.73 49.0533C1140.76 49.1152 1140.8 49.1698 1140.86 49.214C1140.91 49.2581 1140.98 49.291 1141.05 49.3107C1141.18 49.3502 1141.33 49.3341 1141.45 49.266C1141.58 49.1978 1141.67 49.0831 1141.71 48.9469C1141.75 48.8101 1141.73 48.6634 1141.67 48.5387C1141.6 48.4139 1141.48 48.3212 1141.35 48.2807ZM1143.3 47.0979C1143.13 47.0479 1142.94 47.0681 1142.78 47.1543C1142.62 47.2405 1142.51 47.3858 1142.45 47.5586C1142.4 47.7322 1142.42 47.9186 1142.51 48.077C1142.6 48.2354 1142.74 48.353 1142.92 48.4039C1143 48.4296 1143.09 48.4379 1143.18 48.4286C1143.27 48.4192 1143.36 48.3924 1143.44 48.3495C1143.52 48.3066 1143.58 48.2486 1143.64 48.1788C1143.7 48.109 1143.74 48.0288 1143.76 47.9428C1143.81 47.7696 1143.79 47.5841 1143.7 47.4261C1143.62 47.2681 1143.47 47.1503 1143.3 47.0979ZM1145.47 46.6136C1145.37 46.5847 1145.27 46.5752 1145.17 46.5856C1145.07 46.5961 1144.97 46.6263 1144.88 46.6745C1144.79 46.7226 1144.72 46.7879 1144.65 46.8664C1144.59 46.945 1144.54 47.0352 1144.51 47.132C1144.49 47.2285 1144.48 47.3297 1144.49 47.4298C1144.5 47.5299 1144.53 47.627 1144.58 47.7154C1144.62 47.8038 1144.69 47.8818 1144.77 47.9449C1144.85 48.0081 1144.94 48.0551 1145.03 48.0833C1145.23 48.1402 1145.44 48.1177 1145.61 48.0208C1145.79 47.9238 1145.92 47.7603 1145.98 47.5659C1146.01 47.4695 1146.02 47.3682 1146.01 47.2681C1146 47.1679 1145.97 47.0707 1145.92 46.9822C1145.87 46.8937 1145.81 46.8155 1145.73 46.7523C1145.65 46.689 1145.56 46.6419 1145.47 46.6136ZM1138.86 52.0359C1138.82 52.0238 1138.77 52.0199 1138.73 52.0244C1138.69 52.0289 1138.65 52.0416 1138.61 52.0619C1138.57 52.0822 1138.54 52.1096 1138.51 52.1426C1138.49 52.1756 1138.47 52.2135 1138.46 52.2542C1138.44 52.2951 1138.44 52.3381 1138.44 52.3806C1138.45 52.4232 1138.46 52.4645 1138.48 52.5022C1138.5 52.54 1138.53 52.5733 1138.56 52.6004C1138.6 52.6275 1138.63 52.6479 1138.67 52.6602C1138.85 52.7103 1139.03 52.6102 1139.08 52.4383C1139.09 52.3974 1139.09 52.3545 1139.09 52.3121C1139.08 52.2697 1139.07 52.2286 1139.05 52.1912C1139.03 52.1538 1139 52.1208 1138.97 52.0941C1138.94 52.0675 1138.9 52.0477 1138.86 52.0359ZM1151.99 53.9885C1151.98 54.0433 1151.97 54.1007 1151.98 54.1576C1151.98 54.2144 1152 54.2694 1152.03 54.3196C1152.05 54.3697 1152.09 54.4139 1152.14 54.4495C1152.18 54.4852 1152.23 54.5117 1152.29 54.5274C1152.4 54.5599 1152.52 54.5472 1152.62 54.492C1152.72 54.4369 1152.79 54.3439 1152.83 54.2334C1152.86 54.1229 1152.85 54.0041 1152.79 53.903C1152.74 53.8019 1152.64 53.7268 1152.53 53.6943C1152.42 53.662 1152.3 53.6748 1152.2 53.7299C1152.1 53.7851 1152.03 53.878 1151.99 53.9885ZM1151.49 51.8172C1151.47 51.8849 1151.46 51.956 1151.47 52.0264C1151.48 52.0967 1151.5 52.1649 1151.53 52.227C1151.57 52.2892 1151.61 52.3439 1151.67 52.3883C1151.72 52.4326 1151.79 52.4655 1151.85 52.4852C1152.14 52.5698 1152.44 52.406 1152.52 52.1214C1152.6 51.8367 1152.44 51.5398 1152.16 51.4579C1152.09 51.4376 1152.02 51.4308 1151.95 51.4379C1151.88 51.445 1151.81 51.4658 1151.75 51.4992C1151.69 51.5325 1151.63 51.5778 1151.59 51.6324C1151.54 51.6869 1151.51 51.7497 1151.49 51.8172ZM1150.31 49.8641C1150.28 49.9499 1150.27 50.0398 1150.28 50.1286C1150.29 50.2175 1150.32 50.3036 1150.36 50.3821C1150.41 50.4605 1150.46 50.5297 1150.53 50.5858C1150.6 50.6418 1150.68 50.6836 1150.77 50.7088C1150.86 50.7339 1150.95 50.7419 1151.03 50.7323C1151.12 50.7227 1151.21 50.6957 1151.29 50.6528C1151.37 50.6099 1151.44 50.552 1151.49 50.4824C1151.55 50.4127 1151.59 50.3328 1151.61 50.247C1151.64 50.1613 1151.65 50.0715 1151.64 49.9827C1151.63 49.8939 1151.6 49.8078 1151.56 49.7295C1151.52 49.6512 1151.46 49.5822 1151.39 49.5264C1151.32 49.4707 1151.24 49.4294 1151.15 49.4048C1150.98 49.3549 1150.79 49.3751 1150.64 49.4611C1150.48 49.547 1150.36 49.6918 1150.31 49.8641ZM1148.64 48.3471C1148.59 48.5421 1148.61 48.7517 1148.71 48.9298C1148.81 49.1079 1148.97 49.2399 1149.17 49.2968C1149.36 49.3537 1149.57 49.3307 1149.75 49.233C1149.93 49.1354 1150.06 48.9709 1150.11 48.7759C1150.14 48.6796 1150.15 48.5785 1150.14 48.4785C1150.13 48.3785 1150.1 48.2815 1150.05 48.1932C1150.01 48.1049 1149.94 48.027 1149.86 47.9639C1149.78 47.9008 1149.69 47.8537 1149.6 47.8255C1149.4 47.7683 1149.19 47.7912 1149.01 47.889C1148.83 47.9868 1148.7 48.1515 1148.64 48.3471ZM1151.82 56.1803C1151.79 56.2626 1151.8 56.3507 1151.84 56.4259C1151.88 56.5011 1151.95 56.5574 1152.03 56.5828C1152.08 56.5951 1152.12 56.5991 1152.16 56.5946C1152.2 56.5902 1152.24 56.5773 1152.28 56.5568C1152.32 56.5363 1152.35 56.5085 1152.38 56.4751C1152.41 56.4417 1152.42 56.4033 1152.44 56.3622C1152.45 56.3214 1152.45 56.2786 1152.45 56.2362C1152.44 56.1937 1152.43 56.1526 1152.41 56.1151C1152.39 56.0777 1152.36 56.0446 1152.33 56.0179C1152.3 55.9911 1152.26 55.9712 1152.22 55.9593C1152.14 55.9362 1152.05 55.9464 1151.97 55.9877C1151.9 56.029 1151.84 56.0982 1151.82 56.1803ZM1144.33 61.2388C1144.36 61.1276 1144.37 61.011 1144.36 60.8957C1144.35 60.7803 1144.31 60.6686 1144.26 60.5667C1144.2 60.4649 1144.13 60.3751 1144.04 60.3023C1143.95 60.2296 1143.84 60.1754 1143.73 60.1429C1143.62 60.1103 1143.51 60.0998 1143.39 60.1122C1143.28 60.1245 1143.16 60.1594 1143.06 60.2148C1142.96 60.2702 1142.87 60.3451 1142.8 60.4351C1142.73 60.5251 1142.67 60.6286 1142.64 60.7395C1142.61 60.8506 1142.6 60.9672 1142.61 61.0824C1142.62 61.1977 1142.66 61.3094 1142.71 61.4111C1142.77 61.5128 1142.84 61.6026 1142.93 61.6753C1143.02 61.7479 1143.13 61.802 1143.24 61.8345C1143.7 61.9696 1144.2 61.7013 1144.33 61.2388ZM1138.9 54.6279C1138.93 54.5175 1138.92 54.3986 1138.87 54.2973C1138.81 54.1961 1138.72 54.1209 1138.61 54.0881C1138.5 54.0567 1138.38 54.07 1138.28 54.1253C1138.18 54.1806 1138.1 54.2734 1138.07 54.3837C1138.05 54.4383 1138.05 54.4956 1138.05 54.5521C1138.06 54.6087 1138.08 54.6635 1138.1 54.7133C1138.13 54.7632 1138.17 54.8071 1138.21 54.8426C1138.26 54.8781 1138.31 54.9045 1138.36 54.9203C1138.42 54.9367 1138.47 54.9422 1138.53 54.9364C1138.59 54.9306 1138.64 54.9136 1138.69 54.8864C1138.74 54.8592 1138.79 54.8223 1138.82 54.778C1138.86 54.7336 1138.89 54.6826 1138.9 54.6279ZM1139.4 56.7979C1139.42 56.7307 1139.43 56.6603 1139.42 56.5907C1139.42 56.521 1139.39 56.4535 1139.36 56.3921C1139.33 56.3307 1139.28 56.2766 1139.23 56.2329C1139.17 56.1892 1139.11 56.1568 1139.04 56.1376C1138.98 56.1165 1138.9 56.1092 1138.83 56.116C1138.76 56.1228 1138.7 56.1437 1138.63 56.1773C1138.57 56.2109 1138.52 56.2566 1138.47 56.3118C1138.43 56.3669 1138.4 56.4303 1138.38 56.4982C1138.34 56.6344 1138.35 56.7808 1138.42 56.9053C1138.49 57.0297 1138.6 57.1219 1138.74 57.1617C1138.88 57.2014 1139.02 57.1854 1139.15 57.1172C1139.27 57.0489 1139.36 56.9341 1139.4 56.7979ZM1140.59 58.7537C1140.64 58.5794 1140.62 58.3925 1140.53 58.2335C1140.44 58.0745 1140.3 57.9562 1140.12 57.9042C1139.95 57.8543 1139.76 57.8751 1139.61 57.9621C1139.45 58.0491 1139.33 58.1952 1139.28 58.3685C1139.25 58.4542 1139.25 58.5442 1139.26 58.6331C1139.26 58.722 1139.29 58.8082 1139.33 58.8868C1139.38 58.9653 1139.44 59.0346 1139.5 59.0906C1139.57 59.1467 1139.65 59.1884 1139.74 59.2134C1139.83 59.2391 1139.92 59.2476 1140.01 59.2384C1140.09 59.2291 1140.18 59.2024 1140.26 59.1597C1140.34 59.117 1140.41 59.0591 1140.46 58.9894C1140.52 58.9198 1140.56 58.8397 1140.59 58.7537ZM1142.25 60.2729C1142.31 60.0775 1142.29 59.8677 1142.19 59.6894C1142.09 59.5111 1141.93 59.3788 1141.73 59.3216C1141.63 59.2932 1141.53 59.2841 1141.43 59.295C1141.33 59.3059 1141.24 59.3364 1141.15 59.385C1141.06 59.4335 1140.98 59.4991 1140.92 59.5778C1140.86 59.6565 1140.81 59.7469 1140.78 59.8437C1140.75 59.9399 1140.74 60.0408 1140.76 60.1406C1140.77 60.2404 1140.8 60.3371 1140.84 60.4252C1140.89 60.5133 1140.96 60.591 1141.04 60.6539C1141.11 60.7168 1141.2 60.7636 1141.3 60.7918C1141.5 60.8484 1141.7 60.8256 1141.88 60.7285C1142.06 60.6313 1142.19 60.4675 1142.25 60.2729ZM1151.07 58.6564C1151.18 58.6893 1151.3 58.6768 1151.4 58.6217C1151.51 58.5666 1151.58 58.4735 1151.61 58.3626C1151.65 58.2519 1151.63 58.1332 1151.58 58.032C1151.52 57.9309 1151.43 57.8554 1151.32 57.8219C1151.21 57.7903 1151.09 57.8034 1150.99 57.8586C1150.89 57.9137 1150.81 58.0064 1150.78 58.1166C1150.75 58.2268 1150.76 58.3454 1150.81 58.4465C1150.87 58.5476 1150.96 58.623 1151.07 58.6564ZM1149.55 60.3366C1149.68 60.3767 1149.83 60.3612 1149.95 60.2935C1150.08 60.2259 1150.17 60.1117 1150.21 59.976C1150.23 59.9085 1150.24 59.8376 1150.23 59.7674C1150.23 59.6972 1150.2 59.6291 1150.17 59.567C1150.14 59.5049 1150.09 59.45 1150.04 59.4055C1149.98 59.3611 1149.92 59.3279 1149.85 59.308C1149.72 59.2679 1149.57 59.2835 1149.44 59.3515C1149.32 59.4194 1149.22 59.5343 1149.18 59.6709C1149.14 59.8077 1149.16 59.954 1149.23 60.0785C1149.3 60.203 1149.41 60.2957 1149.55 60.3366ZM1147.59 61.5198C1147.68 61.5454 1147.77 61.5538 1147.86 61.5444C1147.95 61.535 1148.03 61.508 1148.11 61.465C1148.19 61.422 1148.26 61.3639 1148.32 61.2939C1148.37 61.2239 1148.42 61.1435 1148.44 61.0574C1148.47 60.9717 1148.47 60.8819 1148.46 60.7931C1148.45 60.7043 1148.43 60.6184 1148.38 60.5401C1148.34 60.4618 1148.28 60.3927 1148.21 60.3368C1148.14 60.2809 1148.06 60.2393 1147.98 60.2143C1147.89 60.189 1147.8 60.1808 1147.71 60.1903C1147.63 60.1997 1147.54 60.2266 1147.46 60.2693C1147.38 60.312 1147.31 60.3698 1147.26 60.4393C1147.2 60.5088 1147.16 60.5887 1147.13 60.6745C1147.11 60.7602 1147.1 60.8501 1147.11 60.9389C1147.12 61.0278 1147.15 61.114 1147.19 61.1925C1147.23 61.271 1147.29 61.3403 1147.36 61.3964C1147.43 61.4526 1147.51 61.4945 1147.59 61.5198ZM1145.43 62.0023C1145.53 62.0316 1145.63 62.0415 1145.73 62.0315C1145.83 62.0214 1145.92 61.9916 1146.01 61.9437C1146.1 61.8958 1146.18 61.8308 1146.24 61.7525C1146.31 61.6742 1146.35 61.5841 1146.38 61.4875C1146.41 61.3909 1146.42 61.2897 1146.41 61.1896C1146.4 61.0896 1146.37 60.9926 1146.32 60.9042C1146.22 60.7258 1146.06 60.5935 1145.86 60.5362C1145.67 60.479 1145.46 60.5016 1145.28 60.5991C1145.1 60.6966 1144.97 60.8609 1144.91 61.056C1144.85 61.2506 1144.88 61.4594 1144.97 61.6367C1145.07 61.814 1145.24 61.9455 1145.43 62.0023Z" fill="url(#paint1_linear_2_1873)"/>
<path d="M1152.63 48.3295C1152.42 48.5469 1152.14 48.6736 1151.84 48.6818C1151.54 48.69 1151.25 48.579 1151.03 48.3732C1150.93 48.2715 1150.84 48.1495 1150.78 48.0141C1150.72 47.8787 1150.68 47.7326 1150.68 47.5842C1150.68 47.4358 1150.7 47.288 1150.75 47.1494C1150.81 47.0108 1150.89 46.8841 1150.99 46.7766C1151.09 46.6684 1151.21 46.5813 1151.35 46.5203C1151.48 46.4593 1151.63 46.4255 1151.78 46.4209C1151.93 46.4164 1152.07 46.4411 1152.21 46.4937C1152.35 46.5463 1152.48 46.6258 1152.58 46.7275C1152.8 46.934 1152.93 47.2187 1152.94 47.519C1152.95 47.8193 1152.84 48.1108 1152.63 48.3295ZM1141.37 45.7612C1141.26 45.6602 1141.12 45.606 1140.97 45.6102C1140.82 45.6145 1140.68 45.6769 1140.58 45.7839C1140.48 45.8915 1140.43 46.0346 1140.43 46.182C1140.43 46.3293 1140.5 46.469 1140.6 46.5706C1140.71 46.6717 1140.85 46.7259 1141 46.7215C1141.15 46.717 1141.29 46.6543 1141.39 46.547C1141.49 46.4395 1141.55 46.2966 1141.54 46.1494C1141.54 46.0022 1141.48 45.8626 1141.37 45.7612ZM1144.19 44.6871C1144.06 44.5627 1143.88 44.4961 1143.7 44.5016C1143.52 44.5071 1143.35 44.5844 1143.22 44.7167C1143.16 44.7825 1143.11 44.86 1143.08 44.9446C1143.05 45.0292 1143.03 45.1194 1143.03 45.2098C1143.04 45.3003 1143.06 45.3893 1143.09 45.4718C1143.13 45.5543 1143.18 45.6287 1143.25 45.6907C1143.38 45.8149 1143.56 45.8814 1143.74 45.8756C1143.93 45.8698 1144.1 45.7922 1144.22 45.6598C1144.35 45.5264 1144.41 45.3494 1144.41 45.1673C1144.4 44.9851 1144.32 44.8125 1144.19 44.6871ZM1147.22 44.4656C1147.05 44.3073 1146.83 44.2222 1146.6 44.2289C1146.36 44.2356 1146.15 44.3337 1145.99 44.5016C1145.84 44.6717 1145.76 44.8939 1145.77 45.121C1145.78 45.3482 1145.88 45.5625 1146.04 45.7185C1146.21 45.8745 1146.43 45.96 1146.65 45.9569C1146.88 45.9537 1147.1 45.8622 1147.26 45.7016C1147.42 45.5325 1147.5 45.3076 1147.5 45.0759C1147.49 44.8443 1147.39 44.6249 1147.22 44.4656ZM1150.09 45.1991C1149.99 45.1103 1149.88 45.0408 1149.76 44.9947C1149.64 44.9487 1149.51 44.9269 1149.38 44.9306C1149.25 44.9344 1149.13 44.9636 1149.01 45.0167C1148.89 45.0697 1148.79 45.1454 1148.7 45.2396C1148.61 45.3334 1148.54 45.4437 1148.49 45.5643C1148.45 45.6849 1148.43 45.8133 1148.43 45.9423C1148.43 46.0713 1148.46 46.1983 1148.51 46.3161C1148.57 46.4339 1148.64 46.5402 1148.74 46.6288C1148.93 46.8073 1149.18 46.9033 1149.44 46.8957C1149.7 46.8881 1149.95 46.7776 1150.13 46.5883C1150.31 46.3986 1150.4 46.1459 1150.39 45.8855C1150.39 45.6251 1150.28 45.3783 1150.09 45.1991ZM1138.98 47.642C1138.9 47.5669 1138.79 47.5267 1138.68 47.5299C1138.57 47.5331 1138.46 47.5796 1138.39 47.6592C1138.35 47.6987 1138.32 47.7453 1138.3 47.7962C1138.28 47.8471 1138.27 47.9013 1138.27 47.9559C1138.28 48.0104 1138.29 48.0641 1138.31 48.1138C1138.33 48.1636 1138.36 48.2085 1138.4 48.2458C1138.44 48.2836 1138.49 48.3131 1138.54 48.3328C1138.59 48.3524 1138.65 48.3617 1138.7 48.3602C1138.76 48.3587 1138.81 48.3463 1138.86 48.3239C1138.91 48.3015 1138.95 48.2694 1138.99 48.2295C1139.07 48.1495 1139.11 48.0427 1139.1 47.9325C1139.1 47.8224 1139.06 47.7179 1138.98 47.642ZM1153.44 57.8907C1153.33 57.9985 1153.28 58.142 1153.28 58.2899C1153.29 58.4378 1153.35 58.578 1153.46 58.6797C1153.57 58.7765 1153.71 58.8271 1153.85 58.8206C1154 58.8141 1154.14 58.7512 1154.24 58.6451C1154.34 58.539 1154.39 58.3982 1154.39 58.2526C1154.39 58.1069 1154.33 57.968 1154.22 57.8653C1154.12 57.7644 1153.97 57.7105 1153.82 57.7153C1153.68 57.72 1153.54 57.7831 1153.44 57.8907ZM1154.15 55.0132C1154.03 55.1465 1153.96 55.3232 1153.96 55.5051C1153.97 55.6869 1154.05 55.8591 1154.18 55.9841C1154.25 56.0462 1154.32 56.0948 1154.41 56.127C1154.49 56.1593 1154.58 56.1744 1154.67 56.1717C1154.76 56.169 1154.85 56.1485 1154.93 56.1113C1155.02 56.0741 1155.09 56.0209 1155.15 55.9549C1155.22 55.8893 1155.26 55.8121 1155.3 55.7276C1155.33 55.6431 1155.34 55.5531 1155.34 55.4627C1155.34 55.3724 1155.32 55.2835 1155.28 55.2012C1155.24 55.1189 1155.19 55.0448 1155.12 54.9832C1154.99 54.8587 1154.81 54.7919 1154.63 54.7976C1154.45 54.8032 1154.27 54.8807 1154.15 55.0132ZM1153.93 51.9828C1153.85 52.0663 1153.79 52.1645 1153.75 52.2717C1153.71 52.379 1153.69 52.4933 1153.69 52.608C1153.7 52.7227 1153.72 52.8356 1153.77 52.9402C1153.82 53.0448 1153.88 53.139 1153.97 53.2175C1154.05 53.2962 1154.15 53.3577 1154.26 53.3984C1154.36 53.4391 1154.48 53.4583 1154.59 53.4548C1154.71 53.4513 1154.82 53.4252 1154.92 53.378C1155.03 53.3308 1155.12 53.2634 1155.2 53.1797C1155.36 53.0101 1155.44 52.787 1155.43 52.5582C1155.42 52.3294 1155.32 52.1133 1155.15 51.9564C1154.99 51.7995 1154.77 51.7144 1154.54 51.7193C1154.31 51.7243 1154.09 51.8189 1153.93 51.9828ZM1152.87 49.1744C1152.74 49.316 1152.65 49.4941 1152.62 49.6859C1152.59 49.8778 1152.61 50.0748 1152.69 50.2522C1152.77 50.4296 1152.9 50.5792 1153.07 50.6823C1153.23 50.7853 1153.42 50.8371 1153.62 50.831C1153.81 50.825 1154 50.7614 1154.16 50.6483C1154.32 50.5352 1154.44 50.3777 1154.51 50.1957C1154.58 50.0137 1154.59 49.8154 1154.55 49.6259C1154.5 49.4365 1154.4 49.2643 1154.26 49.1312C1153.87 48.7592 1153.25 48.7806 1152.87 49.1744ZM1151.9 60.3868C1151.83 60.4673 1151.79 60.5742 1151.79 60.6843C1151.79 60.7943 1151.84 60.8986 1151.92 60.9743C1151.96 61.0115 1152.01 61.0405 1152.06 61.0596C1152.11 61.0787 1152.16 61.0875 1152.22 61.0856C1152.27 61.0836 1152.32 61.0708 1152.37 61.0481C1152.42 61.0253 1152.47 60.993 1152.5 60.9529C1152.54 60.9138 1152.57 60.8676 1152.59 60.8169C1152.61 60.7662 1152.62 60.712 1152.62 60.6577C1152.62 60.6034 1152.6 60.5499 1152.58 60.5005C1152.56 60.4511 1152.53 60.4067 1152.49 60.37C1152.45 60.3321 1152.4 60.3025 1152.35 60.2829C1152.3 60.2632 1152.24 60.2539 1152.19 60.2555C1152.14 60.257 1152.08 60.2695 1152.03 60.292C1151.98 60.3145 1151.94 60.3468 1151.9 60.3868ZM1139.91 61.8392C1140.11 61.6204 1140.22 61.3306 1140.21 61.0327C1140.2 60.7347 1140.07 60.4528 1139.85 60.2483C1139.64 60.0437 1139.35 59.9331 1139.05 59.9403C1138.75 59.9476 1138.47 60.0723 1138.26 60.2872C1138.07 60.5071 1137.96 60.7946 1137.98 61.0885C1137.99 61.3824 1138.12 61.6597 1138.33 61.8616C1138.54 62.0635 1138.83 62.1741 1139.12 62.1699C1139.42 62.1657 1139.7 62.0471 1139.91 61.8392ZM1137.46 50.7246C1137.51 50.6713 1137.55 50.6087 1137.58 50.5402C1137.6 50.4718 1137.61 50.3989 1137.61 50.3257C1137.61 50.2525 1137.59 50.1804 1137.56 50.1136C1137.53 50.0468 1137.49 49.9866 1137.44 49.9363C1137.38 49.8861 1137.32 49.8468 1137.25 49.8208C1137.18 49.7947 1137.11 49.7824 1137.04 49.7845C1136.96 49.7867 1136.89 49.8032 1136.83 49.8332C1136.76 49.8632 1136.7 49.906 1136.65 49.9593C1136.44 50.1821 1136.45 50.5336 1136.67 50.7464C1136.9 50.9556 1137.25 50.947 1137.46 50.7246ZM1136.74 53.6035C1136.87 53.4703 1136.93 53.2932 1136.93 53.1109C1136.92 52.9286 1136.85 52.7558 1136.72 52.6299C1136.58 52.5102 1136.41 52.4474 1136.23 52.4549C1136.05 52.4624 1135.88 52.5395 1135.76 52.6699C1135.63 52.8003 1135.56 52.9737 1135.57 53.153C1135.57 53.3324 1135.64 53.5037 1135.77 53.6303C1135.9 53.7553 1136.08 53.8226 1136.26 53.8175C1136.44 53.8125 1136.62 53.7356 1136.74 53.6035ZM1136.96 56.6325C1137.12 56.4634 1137.21 56.2379 1137.2 56.0058C1137.19 55.7736 1137.1 55.5536 1136.93 55.3943C1136.76 55.2355 1136.53 55.1504 1136.3 55.1576C1136.07 55.1647 1135.85 55.2636 1135.69 55.4325C1135.53 55.6016 1135.45 55.8265 1135.45 56.0581C1135.46 56.2897 1135.56 56.509 1135.73 56.668C1136.08 57.0013 1136.63 56.9836 1136.96 56.6325ZM1138.02 59.4418C1138.2 59.252 1138.29 58.9991 1138.29 58.7386C1138.28 58.4782 1138.17 58.2313 1137.98 58.0522C1137.89 57.9637 1137.78 57.8945 1137.65 57.8487C1137.53 57.803 1137.41 57.7814 1137.28 57.7854C1137.15 57.7894 1137.02 57.8188 1136.9 57.8719C1136.79 57.925 1136.68 58.0008 1136.59 58.0949C1136.5 58.1885 1136.43 58.2987 1136.39 58.4192C1136.34 58.5398 1136.32 58.6682 1136.32 58.7973C1136.33 58.9263 1136.36 59.0534 1136.41 59.1713C1136.46 59.2891 1136.54 59.3955 1136.63 59.4841C1136.82 59.6616 1137.07 59.7567 1137.33 59.7488C1137.59 59.7409 1137.84 59.6306 1138.02 59.4418ZM1149.52 62.8542C1149.58 62.9045 1149.64 62.9438 1149.71 62.9698C1149.78 62.9958 1149.85 63.0081 1149.92 63.0059C1150 63.0036 1150.07 62.9869 1150.14 62.9568C1150.2 62.9266 1150.26 62.8835 1150.31 62.8301C1150.36 62.777 1150.4 62.7145 1150.43 62.6462C1150.45 62.5779 1150.47 62.5052 1150.46 62.4322C1150.46 62.3591 1150.44 62.2873 1150.41 62.2207C1150.38 62.1541 1150.34 62.0942 1150.29 62.0443C1150.23 61.994 1150.17 61.9547 1150.1 61.9286C1150.04 61.9025 1149.96 61.8901 1149.89 61.8922C1149.82 61.8943 1149.75 61.9109 1149.68 61.9409C1149.61 61.9709 1149.55 62.0137 1149.5 62.067C1149.4 62.1744 1149.35 62.3177 1149.35 62.4653C1149.35 62.6129 1149.42 62.7528 1149.52 62.8542ZM1146.7 63.9269C1146.98 64.1884 1147.41 64.1711 1147.67 63.8964C1147.74 63.831 1147.78 63.7539 1147.82 63.6696C1147.85 63.5853 1147.86 63.4955 1147.86 63.4054C1147.86 63.3152 1147.84 63.2264 1147.8 63.1442C1147.76 63.0619 1147.71 62.9878 1147.65 62.926C1147.51 62.801 1147.33 62.7339 1147.15 62.7395C1146.97 62.7452 1146.8 62.823 1146.67 62.956C1146.55 63.0891 1146.48 63.2659 1146.49 63.4477C1146.49 63.6296 1146.57 63.8018 1146.7 63.9269ZM1143.67 64.1456C1144.03 64.4798 1144.57 64.4635 1144.91 64.1124C1144.98 64.0292 1145.05 63.9312 1145.09 63.824C1145.13 63.7169 1145.15 63.6026 1145.14 63.4879C1145.14 63.3732 1145.12 63.2603 1145.07 63.1556C1145.02 63.0509 1144.95 62.9565 1144.87 62.8778C1144.7 62.7189 1144.48 62.6333 1144.24 62.6398C1144.01 62.6462 1143.79 62.7443 1143.63 62.9124C1143.55 62.9958 1143.49 63.0938 1143.45 63.201C1143.41 63.3081 1143.39 63.4223 1143.4 63.5368C1143.4 63.6514 1143.43 63.7641 1143.47 63.8686C1143.52 63.9731 1143.59 64.0672 1143.67 64.1456ZM1140.81 63.4162C1140.91 63.5048 1141.02 63.574 1141.14 63.6199C1141.26 63.6658 1141.38 63.6875 1141.51 63.6837C1141.64 63.6799 1141.77 63.6507 1141.89 63.5978C1142 63.5448 1142.11 63.4692 1142.2 63.3753C1142.29 63.2813 1142.36 63.1709 1142.4 63.0503C1142.45 62.9296 1142.47 62.8012 1142.46 62.6723C1142.46 62.5434 1142.43 62.4165 1142.38 62.2989C1142.33 62.1813 1142.25 62.0753 1142.16 61.987C1142.06 61.8986 1141.95 61.8297 1141.83 61.784C1141.71 61.7383 1141.58 61.7169 1141.45 61.7208C1141.32 61.7248 1141.2 61.7541 1141.08 61.8071C1140.96 61.8601 1140.86 61.9358 1140.77 62.0297C1140.68 62.1236 1140.61 62.2339 1140.56 62.3545C1140.52 62.475 1140.5 62.6033 1140.5 62.7321C1140.51 62.8609 1140.54 62.9877 1140.59 63.105C1140.64 63.2224 1140.72 63.3282 1140.81 63.4162Z" fill="url(#paint2_linear_2_1873)"/>
<path d="M1157.22 50.722C1156.89 50.8654 1156.51 50.8705 1156.17 50.7361C1155.83 50.6017 1155.56 50.3389 1155.42 50.0053C1155.35 49.8402 1155.31 49.6626 1155.31 49.4827C1155.31 49.3029 1155.34 49.1243 1155.41 48.9572C1155.47 48.7901 1155.57 48.6377 1155.7 48.5089C1155.82 48.3801 1155.97 48.2773 1156.14 48.2064C1156.47 48.0718 1156.84 48.0726 1157.17 48.2087C1157.5 48.3447 1157.77 48.6052 1157.91 48.9342C1158.05 49.2633 1158.06 49.6347 1157.93 49.9689C1157.8 50.3031 1157.55 50.5734 1157.22 50.722ZM1147.61 42.0089C1147.59 41.9115 1147.55 41.8188 1147.5 41.7362C1147.44 41.6536 1147.37 41.5827 1147.29 41.5276C1147.2 41.4725 1147.11 41.4342 1147.01 41.415C1146.92 41.3959 1146.82 41.3962 1146.72 41.4159C1146.62 41.4348 1146.53 41.4729 1146.45 41.5279C1146.36 41.5829 1146.29 41.6537 1146.24 41.7363C1146.18 41.8189 1146.14 41.9115 1146.12 42.009C1146.11 42.1064 1146.11 42.2067 1146.13 42.304C1146.17 42.4947 1146.29 42.6605 1146.45 42.7665C1146.62 42.8724 1146.82 42.9103 1147.01 42.872C1147.2 42.8337 1147.37 42.7223 1147.48 42.5613C1147.59 42.4003 1147.64 42.2022 1147.61 42.0089ZM1150.85 42.7141C1150.82 42.5976 1150.77 42.4881 1150.7 42.3918C1150.62 42.2955 1150.53 42.2143 1150.43 42.153C1150.33 42.0917 1150.21 42.0514 1150.09 42.0345C1149.97 42.0176 1149.85 42.0243 1149.74 42.0543C1149.62 42.0837 1149.51 42.1358 1149.41 42.2077C1149.32 42.2796 1149.24 42.3698 1149.18 42.4732C1149.11 42.5767 1149.07 42.6912 1149.06 42.8103C1149.04 42.9294 1149.05 43.0506 1149.08 43.1671C1149.11 43.2835 1149.16 43.393 1149.23 43.4892C1149.3 43.5854 1149.39 43.6664 1149.5 43.7277C1149.6 43.7891 1149.71 43.8294 1149.83 43.8465C1149.95 43.8636 1150.07 43.8571 1150.19 43.8273C1150.31 43.7976 1150.42 43.7452 1150.51 43.6732C1150.61 43.6011 1150.69 43.5109 1150.75 43.4075C1150.81 43.3041 1150.85 43.1897 1150.87 43.0707C1150.89 42.9518 1150.88 42.8306 1150.85 42.7141ZM1153.84 44.157C1153.8 44.0139 1153.72 43.8809 1153.63 43.7657C1153.53 43.6505 1153.41 43.5554 1153.28 43.4859C1153.15 43.4163 1153 43.3737 1152.85 43.3604C1152.7 43.3471 1152.55 43.3635 1152.41 43.4085C1152.27 43.4529 1152.14 43.5251 1152.02 43.621C1151.9 43.7168 1151.81 43.8345 1151.74 43.9673C1151.67 44.1 1151.63 44.2452 1151.61 44.3945C1151.6 44.5438 1151.62 44.6943 1151.66 44.8373C1151.76 45.1187 1151.96 45.3514 1152.23 45.4858C1152.49 45.6203 1152.8 45.646 1153.08 45.5573C1153.37 45.4686 1153.6 45.2727 1153.75 45.0112C1153.89 44.7496 1153.92 44.4432 1153.84 44.157ZM1156.22 46.2824C1156.17 46.1274 1156.08 45.9852 1155.97 45.864C1155.86 45.7427 1155.72 45.6448 1155.57 45.5758C1155.42 45.5068 1155.26 45.4682 1155.09 45.462C1154.93 45.4558 1154.76 45.4823 1154.61 45.5399C1154.45 45.5967 1154.31 45.6838 1154.19 45.7959C1154.07 45.908 1153.97 46.0431 1153.9 46.1933C1153.83 46.3434 1153.79 46.5058 1153.79 46.671C1153.78 46.8362 1153.81 47.0011 1153.86 47.156C1153.98 47.4689 1154.22 47.7231 1154.52 47.8625C1154.82 48.0019 1155.17 48.0151 1155.48 47.8992C1155.79 47.7834 1156.05 47.548 1156.19 47.2448C1156.33 46.9416 1156.34 46.5954 1156.22 46.2824ZM1141.11 42.8588C1141.08 42.7924 1141.04 42.7323 1140.99 42.6819C1140.93 42.6316 1140.87 42.5919 1140.81 42.5653C1140.74 42.5387 1140.67 42.5256 1140.59 42.5268C1140.52 42.528 1140.45 42.5435 1140.38 42.5723C1140.25 42.63 1140.14 42.7385 1140.09 42.8738C1140.04 43.0092 1140.04 43.1604 1140.1 43.2942C1140.15 43.4279 1140.26 43.5333 1140.4 43.587C1140.53 43.6408 1140.69 43.6386 1140.82 43.5809C1141.1 43.4608 1141.23 43.1371 1141.11 42.8588ZM1154.82 60.9994C1154.66 61.1174 1154.56 61.2927 1154.53 61.4879C1154.5 61.6831 1154.54 61.8826 1154.66 62.0438C1154.77 62.205 1154.94 62.315 1155.14 62.3503C1155.33 62.3856 1155.53 62.3434 1155.7 62.2327C1155.78 62.1752 1155.85 62.1024 1155.9 62.0182C1155.95 61.9341 1155.99 61.8404 1156.01 61.7425C1156.02 61.6446 1156.02 61.5444 1156 61.4476C1155.97 61.3509 1155.93 61.2594 1155.88 61.1786C1155.82 61.0977 1155.75 61.0289 1155.66 60.9761C1155.58 60.9233 1155.48 60.8875 1155.39 60.8709C1155.29 60.8543 1155.19 60.8571 1155.09 60.8791C1155 60.9012 1154.9 60.942 1154.82 60.9994ZM1156.33 58.0519C1156.22 58.1149 1156.13 58.198 1156.06 58.2964C1155.99 58.3948 1155.94 58.5065 1155.91 58.6249C1155.88 58.7433 1155.88 58.8661 1155.9 58.9861C1155.92 59.1061 1155.96 59.2209 1156.03 59.3237C1156.09 59.4266 1156.18 59.5155 1156.28 59.5851C1156.38 59.6548 1156.49 59.7039 1156.61 59.7296C1156.73 59.7553 1156.85 59.7569 1156.97 59.7346C1157.09 59.7122 1157.2 59.6662 1157.3 59.5993C1157.5 59.4674 1157.64 59.2622 1157.69 59.0279C1157.75 58.7935 1157.7 58.5486 1157.57 58.3459C1157.45 58.1432 1157.24 57.9988 1157.01 57.9438C1156.78 57.8888 1156.53 57.9276 1156.33 58.0519ZM1157.04 54.735C1156.77 54.8836 1156.58 55.1307 1156.5 55.4222C1156.41 55.7137 1156.45 56.0257 1156.6 56.2898C1156.67 56.4203 1156.77 56.5351 1156.89 56.6276C1157.01 56.72 1157.14 56.7884 1157.29 56.8286C1157.43 56.8689 1157.58 56.8803 1157.73 56.8622C1157.88 56.8441 1158.02 56.7968 1158.15 56.7231C1158.28 56.6502 1158.4 56.5521 1158.49 56.4345C1158.58 56.3169 1158.65 56.1821 1158.69 56.0379C1158.73 55.8937 1158.75 55.7428 1158.73 55.5941C1158.71 55.4453 1158.66 55.3016 1158.59 55.1711C1158.52 55.0404 1158.42 54.9253 1158.3 54.8326C1158.18 54.7399 1158.05 54.6713 1157.9 54.6308C1157.76 54.5903 1157.61 54.5787 1157.46 54.5966C1157.31 54.6144 1157.17 54.6615 1157.04 54.735ZM1156.99 51.4091C1156.69 51.5573 1156.47 51.8179 1156.36 52.1335C1156.25 52.4492 1156.28 52.7942 1156.42 53.093C1156.5 53.2414 1156.6 53.3739 1156.72 53.4829C1156.85 53.5919 1156.99 53.6753 1157.15 53.7281C1157.31 53.781 1157.47 53.8024 1157.64 53.791C1157.8 53.7796 1157.96 53.7357 1158.11 53.6619C1158.26 53.5889 1158.39 53.4874 1158.5 53.3632C1158.61 53.2389 1158.69 53.0944 1158.75 52.9379C1158.8 52.7813 1158.82 52.6159 1158.81 52.4511C1158.8 52.2863 1158.75 52.1254 1158.68 51.9775C1158.53 51.6787 1158.27 51.451 1157.95 51.3444C1157.64 51.2379 1157.29 51.2611 1156.99 51.4091ZM1150.07 65.037C1150.01 65.0656 1149.95 65.1069 1149.9 65.1587C1149.85 65.2104 1149.81 65.2716 1149.78 65.3386C1149.75 65.4057 1149.74 65.4773 1149.74 65.5495C1149.74 65.6216 1149.76 65.6929 1149.79 65.7591C1149.84 65.8929 1149.95 65.9983 1150.09 66.0522C1150.15 66.0788 1150.23 66.092 1150.3 66.0909C1150.37 66.0899 1150.44 66.0746 1150.51 66.0461C1150.79 65.926 1150.92 65.6027 1150.8 65.323C1150.74 65.1892 1150.63 65.0838 1150.49 65.0302C1150.36 64.9766 1150.21 64.979 1150.07 65.037ZM1134.76 60.4101C1135.09 60.2657 1135.35 59.995 1135.48 59.6574C1135.62 59.3199 1135.61 58.9431 1135.47 58.6098C1135.4 58.4449 1135.29 58.2955 1135.17 58.1703C1135.04 58.0451 1134.89 57.9465 1134.72 57.8802C1134.55 57.8139 1134.37 57.7811 1134.19 57.7838C1134.01 57.7865 1133.84 57.8246 1133.67 57.8959C1133.51 57.9667 1133.36 58.0695 1133.23 58.1984C1133.11 58.3272 1133.01 58.4796 1132.94 58.6467C1132.87 58.8138 1132.84 58.9924 1132.84 59.1723C1132.85 59.3521 1132.88 59.5297 1132.96 59.6948C1133.1 60.0281 1133.37 60.2907 1133.71 60.4248C1134.05 60.5589 1134.42 60.5536 1134.76 60.4101ZM1136.07 47.6175C1136.15 47.5603 1136.22 47.4877 1136.27 47.4039C1136.32 47.32 1136.36 47.2266 1136.38 47.1289C1136.39 47.0313 1136.39 46.9313 1136.37 46.8346C1136.35 46.738 1136.31 46.6466 1136.25 46.5657C1136.19 46.4844 1136.12 46.4152 1136.03 46.3621C1135.95 46.309 1135.86 46.273 1135.76 46.2562C1135.66 46.2394 1135.56 46.2422 1135.46 46.2643C1135.37 46.2865 1135.28 46.3276 1135.2 46.3852C1135.11 46.4423 1135.05 46.515 1134.99 46.599C1134.94 46.683 1134.9 46.7767 1134.89 46.8747C1134.87 46.9727 1134.87 47.0731 1134.89 47.17C1134.92 47.2669 1134.96 47.3584 1135.02 47.4393C1135.13 47.6022 1135.31 47.7125 1135.51 47.7459C1135.7 47.7793 1135.9 47.7331 1136.07 47.6175ZM1134.57 50.5647C1134.67 50.5003 1134.76 50.4165 1134.83 50.3181C1134.9 50.2197 1134.94 50.1085 1134.97 49.991C1135 49.8736 1135 49.752 1134.98 49.6334C1134.96 49.5147 1134.92 49.4013 1134.85 49.2996C1134.72 49.0946 1134.52 48.9497 1134.28 48.8966C1134.04 48.8436 1133.79 48.8868 1133.59 49.0168C1133.38 49.1467 1133.24 49.3528 1133.19 49.5896C1133.13 49.8264 1133.18 50.0746 1133.31 50.2795C1133.44 50.4846 1133.64 50.6299 1133.88 50.6834C1134.11 50.7368 1134.36 50.6941 1134.57 50.5647ZM1133.85 53.8819C1133.99 53.811 1134.11 53.7137 1134.21 53.5958C1134.3 53.4779 1134.37 53.3418 1134.42 53.1955C1134.46 53.0492 1134.47 52.8958 1134.46 52.7442C1134.44 52.5926 1134.39 52.4459 1134.32 52.3129C1134.24 52.1799 1134.14 52.0633 1134.02 51.9698C1133.9 51.8764 1133.76 51.8081 1133.62 51.769C1133.47 51.7299 1133.31 51.7207 1133.16 51.7421C1133.01 51.7635 1132.87 51.8149 1132.74 51.8934C1132.47 52.0421 1132.28 52.2889 1132.2 52.5796C1132.12 52.8703 1132.16 53.1813 1132.3 53.4445C1132.45 53.7076 1132.7 53.9014 1132.99 53.9834C1133.28 54.0654 1133.59 54.0289 1133.85 53.8819ZM1133.9 57.2088C1134.2 57.0605 1134.42 56.7996 1134.53 56.4834C1134.64 56.1672 1134.61 55.8216 1134.47 55.5226C1134.39 55.3741 1134.29 55.2415 1134.17 55.1324C1134.04 55.0234 1133.9 54.94 1133.74 54.8872C1133.58 54.8343 1133.42 54.8131 1133.25 54.8246C1133.09 54.8361 1132.93 54.8801 1132.78 54.9542C1132.63 55.0274 1132.5 55.129 1132.39 55.2533C1132.28 55.3776 1132.2 55.5221 1132.15 55.6786C1132.09 55.8351 1132.07 56.0004 1132.08 56.1652C1132.09 56.33 1132.14 56.491 1132.21 56.639C1132.36 56.9382 1132.62 57.1663 1132.94 57.2732C1133.25 57.38 1133.6 57.3568 1133.9 57.2088ZM1143.28 66.6099C1143.3 66.7074 1143.34 66.8001 1143.4 66.8827C1143.45 66.9653 1143.52 67.0362 1143.61 67.0914C1143.69 67.1466 1143.78 67.185 1143.88 67.2043C1143.98 67.2237 1144.08 67.2237 1144.17 67.2043C1144.37 67.1643 1144.54 67.0479 1144.65 66.8808C1144.76 66.7136 1144.81 66.5093 1144.77 66.3125C1144.73 66.1163 1144.61 65.9439 1144.44 65.833C1144.28 65.7221 1144.07 65.6816 1143.88 65.7205C1143.68 65.7601 1143.51 65.876 1143.4 66.0427C1143.29 66.2095 1143.24 66.4134 1143.28 66.6099ZM1140.04 65.9028C1140.07 66.0194 1140.12 66.129 1140.2 66.2254C1140.27 66.3217 1140.36 66.4029 1140.46 66.4643C1140.57 66.5257 1140.68 66.5661 1140.8 66.5831C1140.92 66.6001 1141.04 66.5935 1141.16 66.5636C1141.27 66.5338 1141.38 66.4814 1141.48 66.4094C1141.57 66.3374 1141.65 66.2472 1141.72 66.1438C1141.78 66.0405 1141.82 65.9261 1141.83 65.8072C1141.85 65.6883 1141.84 65.5672 1141.81 65.4508C1141.79 65.3344 1141.73 65.225 1141.66 65.1289C1141.59 65.0327 1141.5 64.9517 1141.4 64.8905C1141.29 64.8292 1141.18 64.7889 1141.06 64.7718C1140.94 64.7547 1140.82 64.7613 1140.7 64.791C1140.59 64.8207 1140.48 64.873 1140.38 64.945C1140.28 65.0169 1140.2 65.1071 1140.14 65.2104C1140.08 65.3136 1140.04 65.4279 1140.02 65.5467C1140.01 65.6655 1140.01 65.7865 1140.04 65.9028ZM1137.05 64.4595C1137.1 64.6028 1137.17 64.7359 1137.26 64.8512C1137.36 64.9665 1137.48 65.0617 1137.61 65.1313C1137.74 65.2009 1137.89 65.2435 1138.04 65.2566C1138.19 65.2698 1138.34 65.2533 1138.48 65.208C1138.62 65.1639 1138.76 65.0919 1138.87 64.9962C1138.99 64.9005 1139.08 64.7829 1139.15 64.6503C1139.22 64.5177 1139.26 64.3726 1139.28 64.2233C1139.29 64.074 1139.28 63.9236 1139.23 63.7806C1139.14 63.4917 1138.94 63.2506 1138.67 63.1102C1138.4 62.9697 1138.09 62.9415 1137.8 63.0316C1137.66 63.076 1137.52 63.1482 1137.41 63.2441C1137.29 63.34 1137.2 63.4576 1137.13 63.5903C1137.06 63.723 1137.02 63.868 1137 64.0172C1136.99 64.1664 1137.01 64.3167 1137.05 64.4595ZM1134.67 62.3327C1134.72 62.4879 1134.81 62.6304 1134.92 62.7519C1135.03 62.8733 1135.17 62.9714 1135.32 63.0405C1135.47 63.1095 1135.63 63.1482 1135.8 63.1543C1135.96 63.1603 1136.13 63.1336 1136.28 63.0757C1136.59 62.9554 1136.84 62.7197 1136.97 62.4194C1137.11 62.119 1137.12 61.7779 1137 61.4691C1136.89 61.1604 1136.66 60.9087 1136.36 60.768C1136.06 60.6273 1135.72 60.6088 1135.41 60.7166C1135.1 60.8325 1134.84 61.0678 1134.7 61.3707C1134.57 61.6737 1134.55 62.0197 1134.67 62.3327ZM1152.67 63.4418C1152.55 63.5407 1152.47 63.6814 1152.46 63.8339C1152.44 63.9865 1152.49 64.139 1152.58 64.2592C1152.68 64.3793 1152.82 64.4578 1152.97 64.4778C1153.12 64.4979 1153.27 64.4581 1153.4 64.3667C1153.46 64.3196 1153.51 64.2602 1153.55 64.1921C1153.6 64.1239 1153.62 64.0484 1153.63 63.97C1153.64 63.8916 1153.64 63.8119 1153.62 63.7357C1153.59 63.6594 1153.56 63.5882 1153.51 63.5262C1153.46 63.4642 1153.4 63.4127 1153.33 63.3748C1153.26 63.3369 1153.18 63.3132 1153.11 63.3054C1153.03 63.2975 1152.95 63.3055 1152.87 63.329C1152.8 63.3524 1152.73 63.3908 1152.67 63.4418ZM1147.13 65.8273C1146.98 65.8507 1146.84 65.9344 1146.74 66.0601C1146.65 66.1857 1146.61 66.3432 1146.63 66.4981C1146.65 66.5748 1146.67 66.6485 1146.71 66.715C1146.75 66.7816 1146.8 66.8396 1146.87 66.8859C1146.93 66.9321 1147 66.9656 1147.07 66.9845C1147.15 67.0034 1147.23 67.0073 1147.3 66.996C1147.38 66.985 1147.45 66.9589 1147.52 66.9193C1147.59 66.8796 1147.65 66.8272 1147.69 66.765C1147.74 66.7029 1147.77 66.6321 1147.79 66.5569C1147.81 66.4817 1147.81 66.4034 1147.8 66.3266C1147.79 66.2497 1147.77 66.1758 1147.73 66.109C1147.69 66.0423 1147.63 65.9841 1147.57 65.9377C1147.51 65.8913 1147.44 65.8577 1147.36 65.8388C1147.29 65.8198 1147.21 65.8159 1147.13 65.8273ZM1144.26 42.1194C1144.25 42.0425 1144.22 41.9687 1144.18 41.902C1144.14 41.8354 1144.09 41.7773 1144.03 41.7311C1143.96 41.6849 1143.89 41.6514 1143.82 41.6327C1143.74 41.614 1143.66 41.6103 1143.59 41.6219C1143.43 41.6447 1143.29 41.728 1143.2 41.8536C1143.11 41.9792 1143.07 42.1367 1143.09 42.2915C1143.11 42.4463 1143.2 42.5857 1143.32 42.679C1143.45 42.7723 1143.6 42.812 1143.76 42.7892C1143.91 42.7666 1144.05 42.6833 1144.15 42.5577C1144.24 42.4321 1144.28 42.2744 1144.26 42.1194ZM1138.32 44.3462C1138.23 44.2235 1138.08 44.1445 1137.93 44.1264C1137.77 44.1082 1137.62 44.1524 1137.49 44.2493C1137.4 44.3219 1137.33 44.42 1137.3 44.5312C1137.26 44.6425 1137.26 44.7619 1137.29 44.8744C1137.32 44.9869 1137.39 45.0873 1137.48 45.1631C1137.57 45.2389 1137.67 45.2866 1137.79 45.3001C1137.91 45.3137 1138.02 45.2925 1138.13 45.2392C1138.23 45.186 1138.32 45.1031 1138.38 45.0009C1138.43 44.8988 1138.46 44.7821 1138.45 44.6656C1138.44 44.549 1138.4 44.4379 1138.32 44.3462Z" fill="url(#paint3_linear_2_1873)"/>
<path d="M1161.11 56.0614C1160.65 56.0608 1160.2 55.8755 1159.87 55.5464C1159.54 55.2172 1159.36 54.7711 1159.36 54.3061C1159.36 54.0758 1159.4 53.8477 1159.49 53.6349C1159.58 53.4221 1159.71 53.2288 1159.87 53.0661C1160.04 52.9034 1160.23 52.7744 1160.44 52.6867C1160.65 52.599 1160.88 52.5542 1161.11 52.5549C1161.34 52.5545 1161.57 52.5996 1161.78 52.6875C1162 52.7755 1162.19 52.9046 1162.35 53.0675C1162.52 53.2303 1162.65 53.4238 1162.73 53.6366C1162.82 53.8495 1162.87 54.0776 1162.87 54.3079C1162.87 54.7731 1162.68 55.2192 1162.35 55.548C1162.02 55.8768 1161.58 56.0615 1161.11 56.0614ZM1154.23 40.9388C1154.25 40.8146 1154.26 40.6863 1154.23 40.5614C1154.21 40.4364 1154.16 40.3172 1154.09 40.2107C1154.02 40.1042 1153.93 40.0124 1153.83 39.9406C1153.72 39.8688 1153.61 39.8184 1153.48 39.7924C1153.36 39.7654 1153.23 39.7632 1153.11 39.7859C1152.98 39.8086 1152.86 39.8559 1152.75 39.9249C1152.65 39.9939 1152.56 40.0833 1152.48 40.188C1152.41 40.2927 1152.36 40.4106 1152.33 40.535C1152.28 40.786 1152.33 41.048 1152.47 41.2634C1152.61 41.4788 1152.83 41.6299 1153.08 41.6834C1153.33 41.7369 1153.59 41.6886 1153.81 41.5489C1154.02 41.4093 1154.17 41.1898 1154.23 40.9388ZM1157.68 43.4125C1157.71 43.2605 1157.7 43.1053 1157.66 42.9556C1157.63 42.8059 1157.56 42.6648 1157.47 42.5402C1157.38 42.4157 1157.27 42.3103 1157.14 42.2299C1157.01 42.1495 1156.86 42.0959 1156.71 42.072C1156.41 42.0308 1156.1 42.1102 1155.85 42.2932C1155.61 42.4761 1155.44 42.7481 1155.39 43.0508C1155.34 43.3536 1155.42 43.6631 1155.59 43.9132C1155.77 44.1632 1156.04 44.334 1156.34 44.3888C1156.65 44.4367 1156.96 44.3609 1157.21 44.1779C1157.47 43.9948 1157.63 43.7196 1157.68 43.4125ZM1162.19 50.3358C1162.2 50.1245 1162.17 49.913 1162.1 49.7135C1162.03 49.514 1161.92 49.3304 1161.78 49.1731C1161.64 49.0159 1161.47 48.8882 1161.28 48.7972C1161.09 48.7063 1160.88 48.654 1160.67 48.6433C1160.46 48.6317 1160.24 48.6619 1160.05 48.7322C1159.85 48.8026 1159.66 48.9117 1159.5 49.0533C1159.35 49.1949 1159.22 49.3662 1159.13 49.5573C1159.04 49.7485 1158.98 49.9557 1158.97 50.1671C1158.96 50.3796 1158.99 50.5925 1159.06 50.7936C1159.13 50.9947 1159.24 51.18 1159.38 51.3389C1159.52 51.4977 1159.69 51.6268 1159.89 51.7189C1160.08 51.811 1160.29 51.8641 1160.5 51.8752C1160.71 51.8864 1160.92 51.8553 1161.12 51.7838C1161.32 51.7123 1161.51 51.6018 1161.67 51.4587C1161.82 51.3156 1161.95 51.1426 1162.04 50.9499C1162.13 50.7572 1162.18 50.5485 1162.19 50.3358ZM1146.15 38.641C1146.15 38.2504 1145.83 37.938 1145.45 37.938C1145.26 37.9445 1145.09 38.0215 1144.96 38.1527C1144.84 38.2839 1144.77 38.4591 1144.77 38.6415C1144.77 38.8238 1144.84 38.999 1144.96 39.1302C1145.09 39.2614 1145.26 39.3384 1145.45 39.3449C1145.83 39.3449 1146.15 39.0307 1146.15 38.641ZM1153.08 66.9327C1152.96 66.9591 1152.84 67.0098 1152.73 67.0819C1152.63 67.154 1152.54 67.2459 1152.47 67.3526C1152.33 67.5681 1152.28 67.8303 1152.33 68.0816C1152.39 68.3328 1152.54 68.5526 1152.75 68.6925C1152.97 68.8324 1153.23 68.881 1153.48 68.8276C1153.73 68.7741 1153.95 68.6231 1154.09 68.4076C1154.23 68.1922 1154.28 67.93 1154.23 67.6787C1154.18 67.4274 1154.02 67.2076 1153.81 67.0677C1153.59 66.9278 1153.33 66.8793 1153.08 66.9327ZM1156.34 64.2288C1156.19 64.2515 1156.04 64.3042 1155.91 64.3841C1155.78 64.4639 1155.66 64.5693 1155.57 64.6941C1155.48 64.8189 1155.41 64.9606 1155.37 65.1112C1155.34 65.2617 1155.33 65.4179 1155.35 65.5709C1155.38 65.724 1155.43 65.8707 1155.51 66.0026C1155.6 66.1346 1155.7 66.2492 1155.83 66.3397C1155.95 66.4303 1156.1 66.495 1156.25 66.5302C1156.4 66.5654 1156.55 66.5704 1156.71 66.5448C1157.01 66.4938 1157.28 66.3246 1157.46 66.0739C1157.64 65.8232 1157.72 65.5114 1157.67 65.2062C1157.62 64.901 1157.46 64.6272 1157.21 64.4441C1156.96 64.2611 1156.65 64.1837 1156.34 64.2288ZM1158.86 60.6883C1158.47 60.7288 1158.12 60.9207 1157.88 61.2219C1157.63 61.523 1157.52 61.9086 1157.56 62.294C1157.6 62.6793 1157.79 63.0327 1158.09 63.2765C1158.39 63.5204 1158.78 63.6346 1159.17 63.594C1159.36 63.5744 1159.54 63.5172 1159.71 63.4257C1159.88 63.3343 1160.03 63.2105 1160.15 63.0613C1160.27 62.9121 1160.36 62.7405 1160.41 62.5564C1160.47 62.3723 1160.49 62.1793 1160.47 61.9884C1160.43 61.603 1160.23 61.2496 1159.93 61.0058C1159.63 60.762 1159.25 60.6478 1158.86 60.6883ZM1160.5 56.7544C1160.07 56.7777 1159.67 56.969 1159.39 57.2864C1159.1 57.6039 1158.95 58.0215 1158.97 58.4478C1158.98 58.6593 1159.04 58.8665 1159.13 59.0577C1159.22 59.2489 1159.35 59.4202 1159.5 59.5618C1159.66 59.7034 1159.85 59.8125 1160.05 59.8828C1160.24 59.9532 1160.46 59.9833 1160.67 59.9716C1160.88 59.9609 1161.09 59.9085 1161.28 59.8176C1161.47 59.7266 1161.64 59.5989 1161.78 59.4417C1161.92 59.2844 1162.03 59.1008 1162.1 58.9013C1162.17 58.7018 1162.2 58.4904 1162.19 58.2791C1162.17 57.8522 1161.98 57.452 1161.66 57.1661C1161.34 56.8803 1160.92 56.7322 1160.5 56.7544ZM1145.45 69.2714C1145.26 69.276 1145.09 69.3522 1144.96 69.4837C1144.83 69.6152 1144.76 69.7915 1144.76 69.9751C1144.76 70.1587 1144.83 70.335 1144.96 70.4665C1145.09 70.5979 1145.26 70.6741 1145.45 70.6788C1145.63 70.6788 1145.81 70.6046 1145.94 70.4727C1146.08 70.3407 1146.15 70.1617 1146.15 69.9751C1146.15 69.7885 1146.08 69.6095 1145.94 69.4775C1145.81 69.3455 1145.63 69.2714 1145.45 69.2714ZM1129.78 56.0614C1130.24 56.0604 1130.69 55.875 1131.02 55.5459C1131.35 55.2168 1131.53 54.7709 1131.53 54.3061C1131.53 54.0761 1131.49 53.8482 1131.4 53.6356C1131.31 53.4231 1131.18 53.2299 1131.02 53.0672C1130.86 52.9045 1130.66 52.7755 1130.45 52.6876C1130.24 52.5997 1130.01 52.5546 1129.78 52.5549C1129.55 52.5546 1129.32 52.5998 1129.11 52.6878C1128.89 52.7758 1128.7 52.9049 1128.54 53.0678C1128.38 53.2306 1128.25 53.424 1128.16 53.6369C1128.07 53.8498 1128.02 54.078 1128.02 54.3084C1128.03 54.7733 1128.21 55.2189 1128.54 55.5475C1128.87 55.8761 1129.31 56.0609 1129.78 56.0614ZM1137.81 41.6827C1138.06 41.6293 1138.28 41.4784 1138.42 41.2631C1138.56 41.0477 1138.61 40.7857 1138.56 40.5345C1138.53 40.4102 1138.48 40.2923 1138.41 40.1876C1138.34 40.0829 1138.24 39.9934 1138.14 39.9244C1138.03 39.8553 1137.91 39.8079 1137.79 39.7851C1137.66 39.7622 1137.53 39.7642 1137.41 39.791C1137.28 39.8174 1137.17 39.868 1137.06 39.9399C1136.96 40.0119 1136.87 40.1037 1136.8 40.2102C1136.73 40.3167 1136.68 40.4357 1136.66 40.5606C1136.64 40.6855 1136.64 40.8137 1136.66 40.9379C1136.69 41.0621 1136.74 41.1799 1136.81 41.2845C1136.89 41.3892 1136.98 41.4786 1137.08 41.5478C1137.19 41.617 1137.31 41.6645 1137.43 41.6876C1137.56 41.7108 1137.69 41.7091 1137.81 41.6827ZM1134.55 44.3879C1134.86 44.3391 1135.13 44.1702 1135.32 43.9184C1135.5 43.6666 1135.57 43.3525 1135.53 43.0451C1135.5 42.8929 1135.45 42.747 1135.37 42.6156C1135.29 42.4843 1135.18 42.3702 1135.06 42.2797C1134.93 42.1893 1134.79 42.1243 1134.64 42.0886C1134.49 42.0529 1134.34 42.0471 1134.18 42.0715C1134.03 42.0955 1133.89 42.1492 1133.75 42.2296C1133.62 42.3099 1133.51 42.4154 1133.42 42.5399C1133.33 42.6645 1133.26 42.8056 1133.23 42.9552C1133.19 43.1049 1133.19 43.2601 1133.21 43.4121C1133.26 43.7192 1133.43 43.9945 1133.68 44.1775C1133.93 44.3605 1134.24 44.4362 1134.55 44.3879ZM1132.03 47.9276C1132.41 47.8786 1132.75 47.6835 1132.99 47.3841C1133.23 47.0847 1133.34 46.7046 1133.3 46.3251C1133.26 45.9456 1133.07 45.5967 1132.78 45.3529C1132.48 45.1091 1132.11 44.9898 1131.72 45.0205C1131.53 45.0402 1131.35 45.0975 1131.18 45.189C1131.01 45.2805 1130.86 45.4045 1130.74 45.5539C1130.62 45.7032 1130.53 45.8749 1130.48 46.0591C1130.42 46.2434 1130.4 46.4365 1130.42 46.6275C1130.44 46.8183 1130.5 47.0033 1130.59 47.1719C1130.68 47.3406 1130.81 47.4895 1130.96 47.6103C1131.11 47.731 1131.28 47.8212 1131.46 47.8756C1131.65 47.9301 1131.84 47.9477 1132.03 47.9276ZM1130.39 51.861C1130.82 51.8383 1131.22 51.6471 1131.51 51.3294C1131.79 51.0117 1131.94 50.5935 1131.92 50.1667C1131.91 49.955 1131.86 49.7476 1131.76 49.5563C1131.67 49.365 1131.54 49.1936 1131.39 49.052C1131.23 48.9103 1131.05 48.8012 1130.85 48.731C1130.65 48.6607 1130.43 48.6306 1130.22 48.6424C1130.01 48.6533 1129.8 48.7058 1129.61 48.7969C1129.42 48.8879 1129.25 49.0157 1129.11 49.1729C1128.97 49.3301 1128.86 49.5138 1128.79 49.7132C1128.72 49.9127 1128.69 50.1241 1128.7 50.3354C1128.72 50.7625 1128.91 51.1632 1129.23 51.4492C1129.55 51.7353 1129.97 51.8834 1130.39 51.861ZM1136.66 67.6775C1136.64 67.8018 1136.64 67.9301 1136.66 68.0551C1136.68 68.18 1136.73 68.2992 1136.8 68.4058C1136.87 68.5124 1136.96 68.6043 1137.06 68.6762C1137.17 68.7482 1137.29 68.7989 1137.41 68.8253C1137.53 68.8517 1137.66 68.8534 1137.79 68.8302C1137.91 68.8071 1138.03 68.7596 1138.14 68.6903C1138.24 68.6211 1138.34 68.5316 1138.41 68.4269C1138.48 68.3222 1138.53 68.2043 1138.56 68.08C1138.61 67.8289 1138.56 67.567 1138.42 67.3518C1138.28 67.1366 1138.06 66.9857 1137.81 66.9322C1137.56 66.8795 1137.3 66.9283 1137.08 67.068C1136.87 67.2077 1136.72 67.4268 1136.66 67.6775ZM1133.21 65.2029C1133.19 65.3549 1133.19 65.5102 1133.23 65.66C1133.26 65.8098 1133.33 65.951 1133.42 66.0756C1133.51 66.2003 1133.62 66.3058 1133.75 66.3861C1133.89 66.4665 1134.03 66.5201 1134.18 66.5439C1134.41 66.5803 1134.65 66.5481 1134.86 66.4512C1135.07 66.3543 1135.25 66.1971 1135.37 65.9996C1135.49 65.802 1135.55 65.573 1135.54 65.3413C1135.53 65.1097 1135.45 64.886 1135.32 64.6984C1135.18 64.5108 1134.99 64.3677 1134.77 64.2874C1134.56 64.2071 1134.32 64.193 1134.1 64.247C1133.87 64.301 1133.67 64.4207 1133.51 64.5908C1133.35 64.761 1133.25 64.974 1133.21 65.2029ZM1130.42 61.9893C1130.4 62.1801 1130.42 62.3731 1130.48 62.5572C1130.53 62.7413 1130.62 62.9128 1130.74 63.062C1130.86 63.2111 1131.01 63.3349 1131.18 63.4263C1131.35 63.5177 1131.53 63.5749 1131.72 63.5945C1131.92 63.6149 1132.11 63.5975 1132.29 63.5432C1132.48 63.4888 1132.65 63.3987 1132.8 63.278C1132.95 63.1573 1133.07 63.0083 1133.16 62.8396C1133.25 62.6709 1133.31 62.4858 1133.33 62.2949C1133.35 62.104 1133.33 61.911 1133.28 61.727C1133.22 61.543 1133.13 61.3715 1133.01 61.2224C1132.89 61.0732 1132.74 60.9493 1132.57 60.8578C1132.41 60.7662 1132.22 60.7088 1132.03 60.6887C1131.84 60.6685 1131.65 60.6862 1131.46 60.7406C1131.28 60.7951 1131.11 60.8853 1130.96 61.0061C1130.81 61.1269 1130.68 61.2759 1130.59 61.4446C1130.5 61.6133 1130.44 61.7984 1130.42 61.9893ZM1128.7 58.2787C1128.69 58.4899 1128.72 58.7014 1128.79 58.9009C1128.86 59.1004 1128.97 59.284 1129.11 59.4412C1129.25 59.5984 1129.42 59.7262 1129.61 59.8171C1129.8 59.9081 1130.01 59.9604 1130.22 59.9712C1130.43 59.9832 1130.65 59.9533 1130.85 59.8831C1131.05 59.8129 1131.23 59.7038 1131.39 59.5622C1131.55 59.4206 1131.67 59.2491 1131.76 59.0578C1131.86 58.8665 1131.91 58.659 1131.92 58.4474C1131.94 58.0207 1131.79 57.6028 1131.51 57.2853C1131.22 56.9679 1130.82 56.7767 1130.39 56.7539C1129.97 56.7321 1129.55 56.8803 1129.23 57.1661C1128.91 57.4519 1128.72 57.8519 1128.7 58.2787ZM1149.3 68.7111C1149.11 68.7633 1148.95 68.89 1148.85 69.0637C1148.75 69.2373 1148.72 69.4436 1148.77 69.6374C1148.82 69.831 1148.95 69.9958 1149.12 70.0958C1149.3 70.1959 1149.5 70.2228 1149.7 70.1708C1149.79 70.1455 1149.88 70.1014 1149.96 70.0411C1150.04 69.9809 1150.11 69.9056 1150.16 69.8196C1150.21 69.7336 1150.24 69.6386 1150.25 69.5401C1150.26 69.4416 1150.26 69.3415 1150.23 69.2455C1150.18 69.0516 1150.05 68.8864 1149.88 68.7862C1149.7 68.686 1149.5 68.659 1149.3 68.7111ZM1141.59 68.7111C1141.39 68.6642 1141.19 68.6943 1141.02 68.7949C1140.85 68.8956 1140.73 69.0588 1140.68 69.2497C1140.63 69.4405 1140.65 69.6438 1140.75 69.816C1140.84 69.9882 1141.01 70.1156 1141.19 70.1708C1141.29 70.199 1141.39 70.2076 1141.49 70.1961C1141.59 70.1846 1141.69 70.1532 1141.78 70.1039C1141.86 70.0545 1141.94 69.9881 1142 69.9086C1142.06 69.8291 1142.11 69.7381 1142.14 69.6409C1142.16 69.5436 1142.17 69.4422 1142.15 69.3425C1142.14 69.2428 1142.11 69.1468 1142.06 69.0602C1142.01 68.9736 1141.94 68.8982 1141.86 68.8382C1141.78 68.7783 1141.68 68.7351 1141.59 68.7111ZM1150.23 39.3709C1150.26 39.2748 1150.26 39.1747 1150.25 39.0762C1150.24 38.9777 1150.21 38.8827 1150.16 38.7968C1150.11 38.7108 1150.04 38.6355 1149.96 38.5753C1149.88 38.515 1149.79 38.4709 1149.7 38.4455C1149.51 38.4032 1149.31 38.436 1149.14 38.5372C1148.97 38.6383 1148.85 38.7999 1148.8 38.9882C1148.75 39.1765 1148.77 39.377 1148.87 39.5479C1148.96 39.7188 1149.12 39.8467 1149.3 39.9052C1149.4 39.9311 1149.5 39.9378 1149.6 39.925C1149.7 39.9122 1149.79 39.88 1149.88 39.8304C1149.97 39.7808 1150.04 39.7146 1150.1 39.6358C1150.16 39.5569 1150.21 39.4669 1150.23 39.3709ZM1142.12 38.9784C1142.1 38.8824 1142.05 38.7925 1141.99 38.7137C1141.93 38.6349 1141.86 38.5689 1141.77 38.5194C1141.68 38.4699 1141.59 38.4379 1141.49 38.4252C1141.39 38.4125 1141.29 38.4194 1141.19 38.4455C1141.1 38.4709 1141.01 38.515 1140.93 38.5753C1140.85 38.6355 1140.79 38.7107 1140.74 38.7965C1140.69 38.8823 1140.65 38.9771 1140.64 39.0754C1140.63 39.1737 1140.63 39.2737 1140.66 39.3695C1140.69 39.4655 1140.73 39.5556 1140.79 39.6345C1140.85 39.7134 1140.93 39.7797 1141.01 39.8294C1141.1 39.8792 1141.19 39.9115 1141.29 39.9245C1141.39 39.9376 1141.49 39.9311 1141.59 39.9054C1141.68 39.8797 1141.77 39.8354 1141.85 39.7749C1141.93 39.7144 1142 39.639 1142.05 39.5529C1142.1 39.4668 1142.13 39.3718 1142.14 39.2732C1142.15 39.1746 1142.15 39.0745 1142.12 38.9784Z" fill="url(#paint4_linear_2_1873)"/>
</g>
<defs>
<linearGradient id="paint0_linear_2_1873" x1="1149.82" y1="51.8025" x2="1140.3" y2="56.9452" gradientUnits="userSpaceOnUse">
<stop stop-color="#FF9100"/>
<stop offset="0.05" stop-color="#FF8D00"/>
<stop offset="0.25" stop-color="#FF8300"/>
<stop offset="0.5" stop-color="#FF8000"/>
<stop offset="0.75" stop-color="#FF8300"/>
<stop offset="0.95" stop-color="#FF8D00"/>
<stop offset="1" stop-color="#FF9100"/>
</linearGradient>
<linearGradient id="paint1_linear_2_1873" x1="1152.44" y1="56.3601" x2="1138.46" y2="52.2543" gradientUnits="userSpaceOnUse">
<stop stop-color="#FF9100"/>
<stop offset="0.05" stop-color="#FF8D00"/>
<stop offset="0.25" stop-color="#FF8300"/>
<stop offset="0.5" stop-color="#FF8000"/>
<stop offset="0.75" stop-color="#FF8300"/>
<stop offset="0.95" stop-color="#FF8D00"/>
<stop offset="1" stop-color="#FF9100"/>
</linearGradient>
<linearGradient id="paint2_linear_2_1873" x1="1152.3" y1="61.1598" x2="1138.6" y2="47.454" gradientUnits="userSpaceOnUse">
<stop stop-color="#FF9100"/>
<stop offset="0.05" stop-color="#FF8D00"/>
<stop offset="0.25" stop-color="#FF8300"/>
<stop offset="0.5" stop-color="#FF8000"/>
<stop offset="0.75" stop-color="#FF8300"/>
<stop offset="0.95" stop-color="#FF8D00"/>
<stop offset="1" stop-color="#FF9100"/>
</linearGradient>
<linearGradient id="paint3_linear_2_1873" x1="1150.51" y1="66.0467" x2="1140.38" y2="42.5733" gradientUnits="userSpaceOnUse">
<stop stop-color="#FF9100"/>
<stop offset="0.05" stop-color="#FF8D00"/>
<stop offset="0.25" stop-color="#FF8300"/>
<stop offset="0.5" stop-color="#FF8000"/>
<stop offset="0.75" stop-color="#FF8300"/>
<stop offset="0.95" stop-color="#FF8D00"/>
<stop offset="1" stop-color="#FF9100"/>
</linearGradient>
<linearGradient id="paint4_linear_2_1873" x1="1145.45" y1="70.6788" x2="1145.45" y2="37.938" gradientUnits="userSpaceOnUse">
<stop stop-color="#FF9100"/>
<stop offset="0.05" stop-color="#FF8D00"/>
<stop offset="0.25" stop-color="#FF8300"/>
<stop offset="0.5" stop-color="#FF8000"/>
<stop offset="0.75" stop-color="#FF8300"/>
<stop offset="0.95" stop-color="#FF8D00"/>
<stop offset="1" stop-color="#FF9100"/>
</linearGradient>
<clipPath id="clip0_2_1873">
<rect width="114" height="16.3704" fill="white" transform="translate(1366 45.938)"/>
</clipPath>
<clipPath id="clip1_2_1873">
<rect width="114" height="32.7408" fill="white" transform="translate(1128 37.938)"/>
</clipPath>
</defs>
</svg>
