<svg width="144" height="21" viewBox="0 0 144 21" fill="none" xmlns="http://www.w3.org/2000/svg">
<g clip-path="url(#clip0_2_1725)">
<path d="M33.7225 14.6074C33.5755 15.4353 33.1535 16.187 32.5269 16.7371C31.9002 17.2873 31.1068 17.6028 30.2789 17.6308C29.9158 17.6422 29.555 17.5677 29.225 17.4133C28.895 17.2589 28.6048 17.0287 28.3774 16.741C28.1499 16.4532 27.9914 16.1158 27.9142 15.7552C27.8371 15.3946 27.8435 15.0208 27.9329 14.6631C28.0741 13.8375 28.4907 13.0864 29.1128 12.5359C29.7348 11.9853 30.5244 11.6689 31.3491 11.6397C31.7171 11.6146 32.0857 11.6796 32.4239 11.8292C32.762 11.9788 33.0599 12.2087 33.2924 12.4994C33.525 12.7902 33.6854 13.1334 33.7603 13.5002C33.8351 13.867 33.8222 14.2467 33.7225 14.6074ZM34.8201 8.75556L34.5732 9.98166C34.2713 9.42173 33.8096 8.96769 33.2488 8.67923C32.6881 8.39076 32.0545 8.28137 31.4314 8.36544C29.7389 8.43444 28.1223 9.09686 26.8566 10.24C25.5909 11.3831 24.7544 12.9363 24.4893 14.6352C23.8856 17.9931 25.4771 20.9329 29.1402 20.9329C29.8403 20.9593 30.537 20.8223 31.1768 20.5324C31.8166 20.2426 32.3824 19.8076 32.8308 19.261L32.6113 20.5149H36.0274L38.1814 8.79736H34.8201V8.75556ZM40.1707 8.76949H43.3948L43.1753 9.99559C43.5262 9.45876 44.0103 9.02539 44.5788 8.73919C45.1472 8.45299 45.7799 8.32407 46.4131 8.36544L45.782 11.8905C44.1631 11.8905 43.0381 12.2527 42.6677 14.0501L41.4878 20.4871H38.0168L40.1707 8.76949Z" fill="#363333"/>
<path d="M48.7317 4.17139L45.7546 20.4868H49.2256L50.2546 14.83H50.3095L52.532 20.4868H56.4421L53.4238 13.9105L58.7058 8.76924H54.6311L50.6387 13.0188H50.5838L52.2028 4.17139H48.7317Z" fill="#363333"/>
<path d="M60.75 13.3253C60.9995 12.7268 61.4181 12.2167 61.9528 11.8596C62.4876 11.5025 63.1146 11.3144 63.7546 11.319C64.0342 11.2857 64.3176 11.3126 64.5863 11.3981C64.855 11.4835 65.103 11.6255 65.314 11.8149C65.525 12.0042 65.6944 12.2365 65.811 12.4968C65.9276 12.7571 65.9889 13.0394 65.9908 13.3253H60.75ZM64.2485 8.36523C62.5285 8.45858 60.8881 9.13106 59.5863 10.2765C58.2845 11.4219 57.3955 12.9751 57.0595 14.6908C56.8792 15.4447 56.8731 16.2308 57.0416 16.9875C57.2102 17.7443 57.5488 18.4512 58.0311 19.0529C58.5133 19.6547 59.1261 20.135 59.8215 20.4562C60.5169 20.7775 61.2761 20.931 62.0396 20.9048C63.2724 20.8953 64.4768 20.5279 65.5106 19.8459C66.6982 19.0977 67.6911 18.0702 68.4054 16.8503H64.8795C64.596 17.1941 64.2411 17.4698 63.8402 17.6577C63.4393 17.8456 63.0025 17.941 62.561 17.9371C62.2611 17.9725 61.9572 17.9405 61.6709 17.8434C61.3846 17.7462 61.1228 17.5862 60.9041 17.3748C60.6855 17.1634 60.5153 16.9057 60.4057 16.62C60.2961 16.3344 60.2497 16.0277 60.2698 15.7218H68.9268C69.0433 15.4258 69.1262 15.1173 69.1737 14.8022C69.8322 11.1518 67.7743 8.36523 64.2485 8.36523Z" fill="#363333"/>
<path d="M19.8933 4.17139L13.8018 13.4646H13.7469V4.17139H10.7973L0 20.4868H4.18445L10.2485 11.1936H10.3034V20.4868H13.2805L19.3445 11.1936H19.3994V20.4868H22.8704V4.17139H19.8933ZM77.9405 8.76924H75.7591L76.3902 5.29995H73.3582L73.1113 6.69324C73.0391 7.30144 72.743 7.85937 72.2823 8.25484C71.8216 8.65031 71.2306 8.85401 70.628 8.82497L70.1067 11.4165H71.8216L70.1616 20.4868H73.6052L75.2652 11.4165H77.4741L77.9405 8.76924Z" fill="#363333"/>
<path d="M134.63 4.18548H138.073L137.03 9.99549C137.387 9.44785 137.882 9.00761 138.464 8.72084C139.046 8.43406 139.693 8.31128 140.337 8.36535C140.891 8.33466 141.445 8.43728 141.952 8.66486C142.46 8.89244 142.908 9.23855 143.259 9.67504C144 10.8175 143.918 11.8625 143.534 13.9524L142.354 20.5009H138.91L140.062 14.1196C140.172 13.5623 140.502 11.6535 138.691 11.6535C138.081 11.6588 137.496 11.8968 137.051 12.3201C136.606 12.7434 136.334 13.3211 136.29 13.9385L135.096 20.487H131.707L134.63 4.18548ZM120.114 8.7694H117.988L118.578 5.30011H115.546L115.244 6.63767C115.172 7.24587 114.876 7.8038 114.415 8.19927C113.954 8.59475 113.363 8.79844 112.761 8.7694L112.294 11.4166H113.995L112.349 20.487H115.793L117.439 11.4166H119.648L120.114 8.7694ZM103.5 17.6307C104.34 17.6185 105.149 17.3102 105.79 16.7587C106.431 16.2071 106.863 15.4466 107.012 14.6073C107.112 14.2466 107.125 13.8669 107.05 13.5001C106.975 13.1333 106.815 12.7901 106.582 12.4993C106.35 12.2086 106.052 11.9787 105.714 11.8291C105.375 11.6795 105.007 11.6145 104.639 11.6396C103.814 11.6688 103.024 11.9852 102.402 12.5358C101.78 13.0863 101.364 13.8374 101.223 14.663C101.133 15.0207 101.127 15.3945 101.204 15.7551C101.281 16.1157 101.44 16.4531 101.667 16.7409C101.894 17.0286 102.185 17.2587 102.515 17.4132C102.845 17.5676 103.205 17.6421 103.569 17.6307H103.5ZM109.386 20.4173H105.901L106.12 19.1633C105.673 19.7304 105.102 20.1832 104.451 20.4857C103.801 20.7881 103.09 20.9317 102.375 20.9049C98.7119 20.9049 97.1067 17.9651 97.7241 14.6073C97.9944 12.9157 98.8315 11.3707 100.094 10.2334C101.356 9.09614 102.966 8.43628 104.652 8.36535C105.27 8.29553 105.894 8.41477 106.444 8.70773C106.994 9.0007 107.445 9.45401 107.739 10.0094L107.986 8.78333H111.402L109.386 20.4173ZM102.759 0.00561523L96.0366 4.18548H97.9436L91.8521 13.4648V4.18548H88.8201L82.7287 13.4648V4.18548H79.2027V20.487H82.2073L88.2988 11.1519V20.487H91.2759L102.101 4.18548H103.802L102.759 0.00561523ZM131.378 16.0424C130.799 17.4418 129.838 18.6436 128.608 19.5054C127.377 20.3672 125.93 20.8529 124.436 20.9049C123.654 20.949 122.872 20.8044 122.155 20.4829C121.438 20.1614 120.806 19.6722 120.311 19.0553C119.816 18.4384 119.472 17.7113 119.307 16.9333C119.141 16.1554 119.159 15.3488 119.36 14.5794C119.701 12.8586 120.608 11.3066 121.931 10.1777C123.255 9.04869 124.917 8.40969 126.645 8.36535C127.31 8.32161 127.977 8.41659 128.604 8.64445C129.232 8.8723 129.807 9.22821 130.294 9.69025C130.781 10.1523 131.17 10.7107 131.437 11.3311C131.703 11.9515 131.842 12.6207 131.845 13.2976H128.346C128.246 12.792 127.965 12.3422 127.557 12.0357C127.148 11.7292 126.642 11.588 126.137 11.6396C125.331 11.6526 124.556 11.9595 123.954 12.5043C123.352 13.0491 122.963 13.7955 122.858 14.6073C122.742 14.9562 122.712 15.3286 122.769 15.6923C122.826 16.056 122.97 16.4001 123.187 16.6949C123.404 16.9897 123.689 17.2264 124.017 17.3846C124.344 17.5428 124.705 17.6177 125.067 17.6028C125.616 17.5958 126.155 17.4493 126.634 17.1768C127.114 16.9042 127.518 16.5143 127.811 16.0424H131.337H131.378Z" fill="#4DB84D"/>
</g>
<defs>
<clipPath id="clip0_2_1725">
<rect width="144" height="21" fill="white"/>
</clipPath>
</defs>
</svg>
