<svg width="48" height="48" viewBox="0 0 48 48" fill="none" xmlns="http://www.w3.org/2000/svg">
<path d="M23.4716 16C16.3516 16 12.7716 24.62 17.8116 29.66C22.8516 34.7 31.4716 31.12 31.4716 24C31.4716 19.58 27.8916 16 23.4716 16ZM9.47159 30H5.47159V38C5.47159 40.2 7.27159 42 9.47159 42H17.4716V38H9.47159V30ZM9.47159 10H17.4716V6H9.47159C7.27159 6 5.47159 7.8 5.47159 10V18H9.47159V10ZM37.4716 6H29.4716V10H37.4716V18H41.4716V10C41.4716 7.8 39.6716 6 37.4716 6ZM37.4716 38H29.4716V42H37.4716C39.6716 42 41.4716 40.2 41.4716 38V30H37.4716" fill="#C59A2B"/>
</svg>
