<svg width="322" height="29" viewBox="0 0 322 29" fill="none" xmlns="http://www.w3.org/2000/svg">
<path d="M0.585896 1.81818H6.38987L14.1626 20.7898H14.4694L22.2421 1.81818H28.0461V28H23.495V10.0128H23.2521L16.0163 27.9233H12.6157L5.37993 9.97443H5.13703V28H0.585896V1.81818ZM44.622 19.7415V8.36364H49.2498V28H44.7626V24.5099H44.5581C44.1149 25.6094 43.3862 26.5085 42.372 27.2074C41.3663 27.9062 40.1262 28.2557 38.6518 28.2557C37.3649 28.2557 36.2271 27.9702 35.2385 27.3991C34.2583 26.8196 33.4913 25.9801 32.9373 24.8807C32.3833 23.7727 32.1064 22.4347 32.1064 20.8665V8.36364H36.7342V20.1506C36.7342 21.3949 37.0751 22.3835 37.7569 23.1165C38.4387 23.8494 39.3336 24.2159 40.4416 24.2159C41.1234 24.2159 41.7839 24.0497 42.4231 23.7173C43.0623 23.3849 43.5865 22.8906 43.9956 22.2344C44.4132 21.5696 44.622 20.7386 44.622 19.7415ZM57.7365 1.81818V28H53.1087V1.81818H57.7365ZM71.4008 8.36364V11.9432H60.1125V8.36364H71.4008ZM62.8994 3.65909H67.5272V22.0938C67.5272 22.7159 67.621 23.1932 67.8085 23.5256C68.0045 23.8494 68.2602 24.071 68.5755 24.1903C68.8909 24.3097 69.2403 24.3693 69.6238 24.3693C69.9136 24.3693 70.1778 24.348 70.4164 24.3054C70.6636 24.2628 70.8511 24.2244 70.9789 24.1903L71.7588 27.8082C71.5116 27.8935 71.1579 27.9872 70.6977 28.0895C70.246 28.1918 69.692 28.2514 69.0358 28.2685C67.8767 28.3026 66.8326 28.1278 65.9037 27.7443C64.9747 27.3523 64.2375 26.7472 63.692 25.929C63.1551 25.1108 62.8909 24.0881 62.8994 22.8608V3.65909ZM74.3712 28V8.36364H78.999V28H74.3712ZM76.6979 5.5767C75.9649 5.5767 75.3343 5.33381 74.8059 4.84801C74.2774 4.35369 74.0132 3.76136 74.0132 3.07102C74.0132 2.37216 74.2774 1.77983 74.8059 1.29403C75.3343 0.799715 75.9649 0.552556 76.6979 0.552556C77.4394 0.552556 78.0701 0.799715 78.5899 1.29403C79.1184 1.77983 79.3826 2.37216 79.3826 3.07102C79.3826 3.76136 79.1184 4.35369 78.5899 4.84801C78.0701 5.33381 77.4394 5.5767 76.6979 5.5767ZM94.7599 15.1903V19H82.973V15.1903H94.7599ZM104.378 28.3963C103.134 28.3963 102.013 28.1747 101.016 27.7315C100.027 27.2798 99.2431 26.6151 98.6635 25.7372C98.0925 24.8594 97.807 23.777 97.807 22.4901C97.807 21.3821 98.0115 20.4659 98.4206 19.7415C98.8297 19.017 99.388 18.4375 100.095 18.0028C100.803 17.5682 101.6 17.2401 102.486 17.0185C103.381 16.7884 104.306 16.6222 105.26 16.5199C106.411 16.4006 107.344 16.294 108.06 16.2003C108.776 16.098 109.296 15.9446 109.619 15.7401C109.952 15.527 110.118 15.1989 110.118 14.7557V14.679C110.118 13.7159 109.833 12.9702 109.262 12.4418C108.691 11.9134 107.868 11.6491 106.794 11.6491C105.661 11.6491 104.762 11.8963 104.097 12.3906C103.441 12.8849 102.997 13.4687 102.767 14.142L98.4462 13.5284C98.7871 12.3352 99.3496 11.3381 100.134 10.5369C100.918 9.72727 101.877 9.12216 103.01 8.72159C104.144 8.3125 105.396 8.10795 106.769 8.10795C107.715 8.10795 108.656 8.21875 109.594 8.44034C110.531 8.66193 111.388 9.02841 112.164 9.53977C112.939 10.0426 113.561 10.7287 114.03 11.598C114.507 12.4673 114.746 13.554 114.746 14.858V28H110.297V25.3026H110.144C109.862 25.848 109.466 26.3594 108.955 26.8366C108.452 27.3054 107.817 27.6847 107.05 27.9744C106.291 28.2557 105.401 28.3963 104.378 28.3963ZM105.58 24.9957C106.509 24.9957 107.314 24.8125 107.996 24.446C108.678 24.071 109.202 23.5767 109.568 22.9631C109.943 22.3494 110.131 21.6804 110.131 20.956V18.642C109.986 18.7614 109.739 18.8722 109.389 18.9744C109.048 19.0767 108.665 19.1662 108.239 19.2429C107.813 19.3196 107.391 19.3878 106.973 19.4474C106.556 19.5071 106.193 19.5582 105.887 19.6009C105.196 19.6946 104.578 19.848 104.033 20.0611C103.487 20.2741 103.057 20.5724 102.742 20.956C102.426 21.331 102.269 21.8168 102.269 22.4134C102.269 23.2656 102.58 23.9091 103.202 24.3438C103.824 24.7784 104.617 24.9957 105.58 24.9957ZM122.552 28L117.004 8.36364H121.721L125.173 22.1705H125.352L128.88 8.36364H133.546L137.075 22.0938H137.266L140.667 8.36364H145.397L139.836 28H135.016L131.335 14.7301H131.066L127.384 28H122.552ZM153.379 28.3963C152.134 28.3963 151.014 28.1747 150.017 27.7315C149.028 27.2798 148.244 26.6151 147.664 25.7372C147.093 24.8594 146.808 23.777 146.808 22.4901C146.808 21.3821 147.012 20.4659 147.421 19.7415C147.831 19.017 148.389 18.4375 149.096 18.0028C149.804 17.5682 150.6 17.2401 151.487 17.0185C152.382 16.7884 153.306 16.6222 154.261 16.5199C155.411 16.4006 156.345 16.294 157.061 16.2003C157.777 16.098 158.296 15.9446 158.62 15.7401C158.953 15.527 159.119 15.1989 159.119 14.7557V14.679C159.119 13.7159 158.833 12.9702 158.262 12.4418C157.691 11.9134 156.869 11.6491 155.795 11.6491C154.661 11.6491 153.762 11.8963 153.098 12.3906C152.441 12.8849 151.998 13.4687 151.768 14.142L147.447 13.5284C147.788 12.3352 148.35 11.3381 149.134 10.5369C149.919 9.72727 150.877 9.12216 152.011 8.72159C153.144 8.3125 154.397 8.10795 155.769 8.10795C156.715 8.10795 157.657 8.21875 158.595 8.44034C159.532 8.66193 160.389 9.02841 161.164 9.53977C161.94 10.0426 162.562 10.7287 163.031 11.598C163.508 12.4673 163.747 13.554 163.747 14.858V28H159.298V25.3026H159.144C158.863 25.848 158.467 26.3594 157.956 26.8366C157.453 27.3054 156.818 27.6847 156.051 27.9744C155.292 28.2557 154.402 28.3963 153.379 28.3963ZM154.581 24.9957C155.509 24.9957 156.315 24.8125 156.997 24.446C157.679 24.071 158.203 23.5767 158.569 22.9631C158.944 22.3494 159.132 21.6804 159.132 20.956V18.642C158.987 18.7614 158.74 18.8722 158.39 18.9744C158.049 19.0767 157.666 19.1662 157.24 19.2429C156.813 19.3196 156.392 19.3878 155.974 19.4474C155.556 19.5071 155.194 19.5582 154.887 19.6009C154.197 19.6946 153.579 19.848 153.034 20.0611C152.488 20.2741 152.058 20.5724 151.742 20.956C151.427 21.331 151.269 21.8168 151.269 22.4134C151.269 23.2656 151.581 23.9091 152.203 24.3438C152.825 24.7784 153.617 24.9957 154.581 24.9957ZM167.5 28V8.36364H171.987V11.6364H172.192C172.55 10.5028 173.163 9.62926 174.033 9.01562C174.911 8.39347 175.912 8.08239 177.037 8.08239C177.293 8.08239 177.578 8.09517 177.894 8.12074C178.217 8.13778 178.486 8.16761 178.699 8.21023V12.4673C178.503 12.3991 178.192 12.3395 177.766 12.2884C177.348 12.2287 176.943 12.1989 176.551 12.1989C175.707 12.1989 174.949 12.3821 174.276 12.7486C173.611 13.1065 173.087 13.6051 172.703 14.2443C172.32 14.8835 172.128 15.6207 172.128 16.456V28H167.5ZM187.352 28.3452C185.809 28.3452 184.429 27.9489 183.21 27.1562C181.991 26.3636 181.028 25.2131 180.321 23.7045C179.613 22.196 179.26 20.3636 179.26 18.2074C179.26 16.0256 179.618 14.1847 180.333 12.6847C181.058 11.1761 182.034 10.0384 183.261 9.27131C184.488 8.49574 185.856 8.10795 187.365 8.10795C188.515 8.10795 189.461 8.30398 190.203 8.69602C190.944 9.07954 191.532 9.54403 191.967 10.0895C192.402 10.6264 192.738 11.1335 192.977 11.6108H193.169V1.81818H197.809V28H193.258V24.9062H192.977C192.738 25.3835 192.393 25.8906 191.941 26.4276C191.49 26.956 190.893 27.4077 190.152 27.7827C189.41 28.1577 188.477 28.3452 187.352 28.3452ZM188.643 24.5483C189.623 24.5483 190.458 24.2841 191.149 23.7557C191.839 23.2187 192.363 22.473 192.721 21.5185C193.079 20.5639 193.258 19.4517 193.258 18.1818C193.258 16.9119 193.079 15.8082 192.721 14.8707C192.372 13.9332 191.852 13.2045 191.162 12.6847C190.48 12.1648 189.64 11.9048 188.643 11.9048C187.612 11.9048 186.751 12.1733 186.061 12.7102C185.37 13.2472 184.85 13.9886 184.501 14.9347C184.152 15.8807 183.977 16.9631 183.977 18.1818C183.977 19.4091 184.152 20.5043 184.501 21.4673C184.859 22.4219 185.383 23.1761 186.073 23.7301C186.772 24.2756 187.629 24.5483 188.643 24.5483ZM213.923 28L208.375 8.36364H213.092L216.544 22.1705H216.723L220.251 8.36364H224.917L228.446 22.0938H228.637L232.038 8.36364H236.768L231.207 28H226.387L222.706 14.7301H222.437L218.755 28H213.923ZM239.099 28V8.36364H243.727V28H239.099ZM241.426 5.5767C240.693 5.5767 240.062 5.33381 239.534 4.84801C239.006 4.35369 238.741 3.76136 238.741 3.07102C238.741 2.37216 239.006 1.77983 239.534 1.29403C240.062 0.799715 240.693 0.552556 241.426 0.552556C242.168 0.552556 242.798 0.799715 243.318 1.29403C243.846 1.77983 244.111 2.37216 244.111 3.07102C244.111 3.76136 243.846 4.35369 243.318 4.84801C242.798 5.33381 242.168 5.5767 241.426 5.5767ZM252.214 16.4943V28H247.586V8.36364H252.009V11.7003H252.239C252.691 10.6009 253.411 9.72727 254.4 9.07955C255.397 8.43182 256.629 8.10795 258.095 8.10795C259.45 8.10795 260.63 8.39773 261.636 8.97727C262.65 9.55682 263.434 10.3963 263.988 11.4957C264.551 12.5952 264.828 13.929 264.819 15.4972V28H260.191V16.2131C260.191 14.9006 259.85 13.8736 259.168 13.1321C258.495 12.3906 257.562 12.0199 256.369 12.0199C255.559 12.0199 254.839 12.1989 254.208 12.5568C253.586 12.9062 253.096 13.4134 252.738 14.0781C252.389 14.7429 252.214 15.5483 252.214 16.4943ZM273.251 16.4943V28H268.624V8.36364H273.047V11.7003H273.277C273.729 10.6009 274.449 9.72727 275.437 9.07955C276.435 8.43182 277.666 8.10795 279.132 8.10795C280.487 8.10795 281.668 8.39773 282.673 8.97727C283.687 9.55682 284.472 10.3963 285.026 11.4957C285.588 12.5952 285.865 13.929 285.856 15.4972V28H281.229V16.2131C281.229 14.9006 280.888 13.8736 280.206 13.1321C279.533 12.3906 278.599 12.0199 277.406 12.0199C276.597 12.0199 275.876 12.1989 275.246 12.5568C274.624 12.9062 274.133 13.4134 273.776 14.0781C273.426 14.7429 273.251 15.5483 273.251 16.4943ZM298.354 28.3835C296.385 28.3835 294.685 27.9744 293.253 27.1562C291.83 26.3295 290.735 25.1619 289.968 23.6534C289.201 22.1364 288.817 20.3509 288.817 18.2969C288.817 16.277 289.201 14.5043 289.968 12.9787C290.743 11.4446 291.826 10.2514 293.215 9.39915C294.604 8.53835 296.236 8.10795 298.111 8.10795C299.322 8.10795 300.464 8.30398 301.537 8.69602C302.62 9.07954 303.574 9.67614 304.401 10.4858C305.236 11.2955 305.893 12.3267 306.37 13.5795C306.847 14.8239 307.086 16.3068 307.086 18.0284V19.4474H290.991V16.3281H302.65C302.641 15.4418 302.449 14.6534 302.074 13.9631C301.699 13.2642 301.175 12.7145 300.502 12.3139C299.837 11.9134 299.062 11.7131 298.175 11.7131C297.229 11.7131 296.398 11.9432 295.682 12.4034C294.966 12.8551 294.408 13.4517 294.008 14.1932C293.616 14.9261 293.415 15.7315 293.407 16.6094V19.3324C293.407 20.4744 293.616 21.4545 294.033 22.2727C294.451 23.0824 295.035 23.7045 295.785 24.1392C296.535 24.5653 297.412 24.7784 298.418 24.7784C299.091 24.7784 299.701 24.6847 300.246 24.4972C300.792 24.3011 301.265 24.0156 301.665 23.6406C302.066 23.2656 302.368 22.8011 302.573 22.2472L306.894 22.733C306.621 23.875 306.101 24.8722 305.334 25.7244C304.576 26.5682 303.604 27.2244 302.42 27.6932C301.235 28.1534 299.88 28.3835 298.354 28.3835ZM310.101 28V8.36364H314.588V11.6364H314.793C315.151 10.5028 315.764 9.62926 316.634 9.01562C317.511 8.39347 318.513 8.08239 319.638 8.08239C319.894 8.08239 320.179 8.09517 320.494 8.12074C320.818 8.13778 321.087 8.16761 321.3 8.21023V12.4673C321.104 12.3991 320.793 12.3395 320.367 12.2884C319.949 12.2287 319.544 12.1989 319.152 12.1989C318.308 12.1989 317.55 12.3821 316.876 12.7486C316.212 13.1065 315.688 13.6051 315.304 14.2443C314.92 14.8835 314.729 15.6207 314.729 16.456V28H310.101Z" fill="url(#paint0_linear_2_1872)"/>
<defs>
<linearGradient id="paint0_linear_2_1872" x1="174.5" y1="5" x2="228" y2="25.5" gradientUnits="userSpaceOnUse">
<stop stop-color="#BA963A"/>
<stop offset="1" stop-color="#CC9C21"/>
</linearGradient>
</defs>
</svg>
