<svg width="164" height="47" viewBox="0 0 164 47" fill="none" xmlns="http://www.w3.org/2000/svg">
<g clip-path="url(#clip0_2_1697)">
<path d="M74.684 31.3281H71.9855C71.7435 31.3281 71.6532 31.1048 71.544 30.8881L68.3601 25.5399H67.8714C67.2944 25.5399 65.5078 25.4772 64.9996 25.4492V30.8881C64.9996 31.129 64.821 31.3281 64.577 31.3281H62.3671C62.2504 31.3274 62.1387 31.2808 62.0561 31.1985C61.9736 31.1161 61.9269 31.0046 61.9262 30.8881V16.4337C61.9262 15.9911 62.1879 15.837 62.6327 15.7718C63.7841 15.5949 66.2549 15.4858 67.8707 15.4858C71.2738 15.4858 74.4178 16.6994 74.4178 20.4704V20.6695C74.4178 23.0052 73.2468 24.2833 71.4347 24.9851L74.9025 30.8881C74.9483 30.9547 74.9483 31.0167 74.9483 31.0663C74.949 31.2158 74.8606 31.3281 74.684 31.3281ZM71.368 20.4704C71.368 18.8163 70.0819 18.1113 67.8714 18.1113C67.4056 18.1113 65.3947 18.155 64.9996 18.1981V22.9817C65.3495 23.0032 67.4913 23.0483 67.8714 23.0483C70.1453 23.0483 71.368 22.6096 71.368 20.6695V20.4704ZM80.8418 26.9832C80.8418 28.8332 80.9131 28.8815 82.5845 28.8815H88.1797C88.297 28.8818 88.4094 28.9284 88.4925 29.011C88.5756 29.0937 88.6225 29.2057 88.6232 29.3228V30.7314C88.6232 31.0428 88.512 31.1531 88.1797 31.1956C87.4732 31.3065 86.0333 31.503 83.4049 31.503C79.7362 31.503 77.7894 31.5285 77.7894 26.9832V20.005C77.7894 15.461 79.7362 15.4865 83.4049 15.4865C86.0333 15.4865 87.4732 15.6856 88.1797 15.7946C88.512 15.837 88.6232 15.9493 88.6232 16.2587V17.6681C88.6232 17.9089 88.4237 18.112 88.1797 18.112H82.5845C80.9131 18.112 80.8418 18.1609 80.8418 20.005V22.0286H87.9154C88.0322 22.0291 88.144 22.0754 88.2269 22.1575C88.3097 22.2395 88.3569 22.3508 88.3583 22.4673V24.0594C88.3573 24.1762 88.3102 24.2879 88.2274 24.3703C88.1445 24.4528 88.0324 24.4994 87.9154 24.5H80.8418V26.9832ZM98.5471 31.503C94.9917 31.503 91.9282 29.9605 91.9282 25.2599V16.0818C91.9282 15.837 92.1303 15.6614 92.373 15.6614H94.5573C94.8026 15.6614 95.0002 15.837 95.0002 16.0818V25.2599C95.0002 27.7757 96.1653 28.9689 98.5478 28.9689C100.937 28.9689 102.101 27.7757 102.101 25.2599V16.0818C102.101 15.837 102.299 15.6614 102.542 15.6614H104.729C104.974 15.6614 105.174 15.837 105.174 16.0818V25.2599C105.173 29.9599 102.108 31.503 98.5471 31.503ZM119.706 18.2184H115.297V30.8881C115.295 31.0053 115.247 31.1171 115.163 31.1994C115.079 31.2817 114.967 31.3279 114.849 31.3281H112.662C112.545 31.3276 112.433 31.2811 112.35 31.1988C112.267 31.1164 112.22 31.0048 112.219 30.8881V18.2184H107.806C107.566 18.2184 107.367 18.0669 107.367 17.8241V16.0818C107.367 15.837 107.566 15.6614 107.806 15.6614H119.705C119.944 15.6614 120.144 15.837 120.144 16.0818V17.8241C120.144 18.0669 119.945 18.2184 119.706 18.2184ZM149.722 31.3281H147.023C146.78 31.3281 146.693 31.1048 146.583 30.8881L143.398 25.5399H142.905C142.334 25.5399 140.545 25.4772 140.034 25.4492V30.8881C140.034 31.129 139.858 31.3281 139.617 31.3281H137.409C137.292 31.3279 137.18 31.2816 137.097 31.1992C137.014 31.1168 136.967 31.005 136.966 30.8881V16.4337C136.966 15.9911 137.227 15.837 137.671 15.7718C138.82 15.5949 141.294 15.4858 142.904 15.4858C146.311 15.4858 149.453 16.6994 149.453 20.4704V20.6695C149.453 23.0052 148.28 24.2833 146.468 24.9851L149.943 30.8881C149.976 30.9412 149.992 31.0037 149.987 31.0663C149.987 31.2158 149.897 31.3281 149.722 31.3281ZM146.406 20.4704C146.406 18.8163 145.119 18.1113 142.905 18.1113C142.444 18.1113 140.433 18.155 140.034 18.1981V22.9817C140.392 23.0032 142.535 23.0483 142.905 23.0483C145.185 23.0483 146.406 22.6096 146.406 20.6695V20.4704ZM158.157 31.5128C156.204 31.5128 154.224 31.1786 153.161 30.9351C152.943 30.8907 152.742 30.7373 152.742 30.4951V28.9063C152.742 28.6654 152.943 28.4865 153.161 28.4865H153.204C154.091 28.5975 156.16 28.8841 158.203 28.8841C160.168 28.8841 160.77 28.1817 160.77 26.9042C160.77 25.2494 156.813 24.3336 154.881 23.5398C152.958 22.746 152.277 21.2264 152.277 19.6845C152.277 17.2568 154.235 15.4924 158.345 15.4924C160.452 15.4924 162.381 15.8919 163.132 16.072C163.355 16.1164 163.528 16.2711 163.528 16.4905V18.1224C163.528 18.3404 163.378 18.5186 163.152 18.5186H163.111C161.65 18.3874 160.137 18.1191 158.216 18.1191C156.578 18.1191 155.353 18.6923 155.353 19.6845C155.353 20.4104 156.184 21.0769 157.165 21.4659C158.146 21.8517 159.433 22.3511 160.903 22.9412C162.765 23.6926 163.972 24.7873 163.972 26.9042C163.971 29.1302 162.58 31.5128 158.157 31.5128ZM125.47 26.9832C125.47 28.8332 125.539 28.8815 127.214 28.8815H132.813C132.929 28.8832 133.04 28.9303 133.122 29.0128C133.204 29.0953 133.251 29.2066 133.251 29.3228V30.7314C133.251 31.0428 133.14 31.1531 132.813 31.1956C132.101 31.3065 130.664 31.503 128.036 31.503C124.36 31.503 122.417 31.5285 122.417 26.9832V20.005C122.417 15.461 124.36 15.4865 128.036 15.4865C130.664 15.4865 132.101 15.6856 132.813 15.7946C133.14 15.837 133.251 15.9493 133.251 16.2587V17.6681C133.251 17.9089 133.05 18.112 132.813 18.112H127.214C125.539 18.112 125.47 18.1609 125.47 20.005V22.0286H132.544C132.789 22.0286 132.982 22.229 132.982 22.4673V24.0594C132.983 24.1758 132.937 24.2876 132.855 24.3702C132.772 24.4528 132.661 24.4995 132.544 24.5H125.47V26.9832Z" fill="#666666"/>
<path d="M22.4911 16.6196C22.7462 17.0942 22.5729 17.6895 22.0953 17.9467C21.865 18.0701 21.595 18.0971 21.3446 18.022C21.0943 17.9468 20.884 17.7756 20.7601 17.5459C20.4985 17.072 20.679 16.4753 21.1553 16.2194C21.2692 16.1577 21.3942 16.1191 21.5232 16.1058C21.6522 16.0925 21.7825 16.1048 21.9067 16.142C22.0308 16.1792 22.1464 16.2405 22.2467 16.3225C22.347 16.4045 22.4301 16.5054 22.4911 16.6196ZM17.6312 24.2976C17.4971 24.372 17.3976 24.496 17.3543 24.6429C17.311 24.7898 17.3273 24.9478 17.3996 25.0829C17.4353 25.1497 17.4841 25.2088 17.5431 25.2566C17.602 25.3043 17.6699 25.3398 17.7428 25.361C17.8158 25.3822 17.8922 25.3886 17.9676 25.3798C18.043 25.3711 18.1159 25.3473 18.182 25.31C18.2497 25.2753 18.3097 25.2273 18.3584 25.1689C18.4071 25.1105 18.4435 25.0429 18.4655 24.9702C18.4875 24.8975 18.4946 24.8211 18.4863 24.7455C18.4781 24.67 18.4547 24.5969 18.4175 24.5306C18.3437 24.3962 18.2196 24.2964 18.0724 24.2527C17.9252 24.2091 17.7666 24.2252 17.6312 24.2976ZM17.5331 21.9371C17.3774 22.0223 17.2618 22.1653 17.2112 22.3351C17.1606 22.5048 17.1792 22.6877 17.2629 22.8438C17.4441 23.1754 17.851 23.2949 18.1801 23.12C18.5052 22.9424 18.6295 22.5279 18.4535 22.2061C18.4112 22.1277 18.3537 22.0585 18.2844 22.0024C18.215 21.9464 18.1353 21.9046 18.0496 21.8796C17.964 21.8546 17.8742 21.8468 17.7856 21.8567C17.6969 21.8665 17.6111 21.8939 17.5331 21.9371ZM18.1467 19.6655C17.9673 19.7629 17.8336 19.9269 17.7742 20.1219C17.7148 20.3169 17.7347 20.5274 17.8294 20.7079C18.0355 21.0794 18.5032 21.223 18.8761 21.02C18.9657 20.9722 19.0449 20.9073 19.1093 20.8289C19.1737 20.7505 19.222 20.6602 19.2513 20.5632C19.2807 20.4662 19.2906 20.3643 19.2804 20.2635C19.2702 20.1626 19.2402 20.0648 19.1921 19.9755C19.0935 19.7972 18.9286 19.6648 18.733 19.6068C18.5375 19.5488 18.3268 19.5699 18.1467 19.6655ZM19.3988 17.7006C19.2974 17.7542 19.2077 17.8274 19.1349 17.9159C19.0621 18.0044 19.0077 18.1065 18.9748 18.2162C18.9418 18.3259 18.9311 18.441 18.9431 18.5549C18.9552 18.6687 18.9897 18.7791 19.0449 18.8795C19.2738 19.2966 19.7933 19.4553 20.2146 19.2274C20.3156 19.1745 20.4052 19.1021 20.478 19.0144C20.5508 18.9267 20.6054 18.8254 20.6387 18.7165C20.672 18.6076 20.6832 18.4931 20.6719 18.3798C20.6605 18.2665 20.6267 18.1565 20.5724 18.0564C20.519 17.9558 20.4463 17.8668 20.3583 17.7944C20.2704 17.722 20.1689 17.6678 20.0598 17.6347C19.9507 17.6016 19.8361 17.5904 19.7227 17.6017C19.6093 17.613 19.4992 17.6466 19.3988 17.7006ZM18.4404 26.5327C18.3842 26.5629 18.3346 26.6038 18.2943 26.6532C18.254 26.7026 18.224 26.7594 18.2058 26.8205C18.1876 26.8815 18.1817 26.9455 18.1884 27.0088C18.1951 27.0721 18.2143 27.1335 18.2448 27.1894C18.307 27.3011 18.4105 27.3842 18.5333 27.4207C18.656 27.4573 18.7882 27.4446 18.9016 27.3852C19.0135 27.3224 19.0962 27.2183 19.132 27.0953C19.1679 26.9722 19.154 26.8401 19.0933 26.7272C19.0318 26.6159 18.9288 26.5331 18.8067 26.4967C18.6846 26.4603 18.5531 26.4732 18.4404 26.5327ZM29.6229 18.4944C29.6976 18.6288 29.8219 18.7288 29.9693 18.7733C30.1167 18.8178 30.2757 18.8032 30.4125 18.7326C30.5473 18.658 30.6474 18.5337 30.6913 18.3862C30.7353 18.2388 30.7195 18.08 30.6474 17.9441C30.6115 17.8772 30.5627 17.818 30.5038 17.7701C30.4449 17.7221 30.3771 17.6862 30.3042 17.6646C30.2313 17.6429 30.1549 17.6358 30.0793 17.6438C30.0037 17.6518 29.9304 17.6746 29.8637 17.711C29.7963 17.7467 29.7366 17.7952 29.688 17.8539C29.6395 17.9125 29.6029 17.9802 29.5806 18.0529C29.5582 18.1257 29.5505 18.2021 29.5577 18.2778C29.565 18.3536 29.5871 18.4272 29.6229 18.4944ZM27.6584 17.2469C27.8357 17.5746 28.2531 17.6941 28.571 17.5159C28.9066 17.3383 29.0263 16.931 28.8471 16.6046C28.7627 16.4479 28.6197 16.3309 28.4493 16.2791C28.2788 16.2272 28.0947 16.2447 27.9371 16.3278C27.7791 16.4139 27.6614 16.5585 27.6093 16.7304C27.5571 16.9024 27.5748 17.0878 27.6584 17.2469ZM25.3884 16.6398C25.4358 16.7285 25.5003 16.807 25.5782 16.8706C25.6562 16.9342 25.746 16.9818 25.8426 17.0105C25.9391 17.0393 26.0403 17.0486 26.1405 17.0379C26.2406 17.0273 26.3377 16.9969 26.426 16.9486C26.5156 16.9011 26.5949 16.8365 26.6594 16.7583C26.7239 16.6801 26.7723 16.59 26.8018 16.4932C26.8313 16.3963 26.8413 16.2945 26.8312 16.1938C26.8212 16.093 26.7913 15.9953 26.7432 15.9061C26.6955 15.817 26.6306 15.7382 26.5521 15.6744C26.4736 15.6106 26.3832 15.563 26.286 15.5344C26.1889 15.5058 26.0871 15.4967 25.9865 15.5077C25.8858 15.5188 25.7884 15.5497 25.6998 15.5986C25.6108 15.6465 25.532 15.7114 25.4681 15.7896C25.4042 15.8679 25.3565 15.958 25.3275 16.0547C25.2986 16.1514 25.2891 16.2529 25.2995 16.3533C25.31 16.4537 25.3402 16.5511 25.3884 16.6398ZM23.0184 16.7332C23.0722 16.8338 23.1454 16.9229 23.2338 16.9953C23.3222 17.0677 23.424 17.122 23.5334 17.1551C23.6428 17.1882 23.7577 17.1994 23.8715 17.1882C23.9853 17.1769 24.0957 17.1434 24.1965 17.0896C24.3983 16.9784 24.5481 16.7925 24.6134 16.572C24.6788 16.3514 24.6545 16.1141 24.5459 15.9113C24.4328 15.7164 24.2481 15.5731 24.0309 15.5117C23.8138 15.4504 23.5812 15.4759 23.3825 15.5828C23.1839 15.6897 23.0348 15.8696 22.9668 16.0843C22.8988 16.2991 22.9173 16.5318 23.0184 16.7332ZM31.0988 20.2614C31.2231 20.4958 31.5174 20.5807 31.7451 20.4553C31.8011 20.4263 31.8507 20.3864 31.8911 20.3379C31.9314 20.2895 31.9617 20.2335 31.98 20.1732C31.9984 20.113 32.0044 20.0496 31.9979 19.987C31.9914 19.9243 31.9724 19.8636 31.942 19.8084C31.8816 19.6952 31.779 19.6102 31.6564 19.5719C31.5337 19.5335 31.4008 19.5449 31.2865 19.6034C31.0621 19.7333 30.9686 20.0323 31.0988 20.2614ZM29.4306 29.4447C29.3699 29.33 29.2868 29.2285 29.1863 29.1461C29.0858 29.0637 28.9699 29.0021 28.8453 28.9649C28.7207 28.9278 28.59 28.9157 28.4606 28.9295C28.3313 28.9433 28.2061 28.9826 28.0922 29.0452C27.9783 29.1059 27.8776 29.1886 27.7959 29.2884C27.7143 29.3883 27.6534 29.5033 27.6167 29.6268C27.58 29.7503 27.5682 29.8799 27.5822 30.008C27.5961 30.1361 27.6353 30.2602 27.6977 30.373C27.9567 30.8482 28.5547 31.0219 29.0335 30.7712C29.5091 30.5088 29.6864 29.9102 29.4306 29.4447ZM20.5626 28.493C20.4888 28.3598 20.3655 28.2608 20.2193 28.2174C20.0731 28.1739 19.9157 28.1894 19.7808 28.2606C19.714 28.2963 19.6549 28.3448 19.607 28.4033C19.559 28.4618 19.523 28.5292 19.5012 28.6017C19.4794 28.6741 19.4721 28.7501 19.4798 28.8253C19.4875 28.9005 19.51 28.9735 19.546 29.04C19.5812 29.1073 19.6297 29.1667 19.6884 29.215C19.7471 29.2632 19.8149 29.2991 19.8878 29.3207C19.9608 29.3422 20.0373 29.3489 20.1128 29.3404C20.1884 29.3319 20.2615 29.3083 20.3277 29.2711C20.3944 29.2355 20.4534 29.1871 20.5013 29.1287C20.5493 29.0702 20.5852 29.003 20.607 28.9307C20.6288 28.8584 20.6361 28.7825 20.6285 28.7074C20.6209 28.6323 20.5985 28.5594 20.5626 28.493ZM22.5297 29.7411C22.4442 29.5849 22.3002 29.4688 22.1292 29.4183C21.9582 29.3678 21.774 29.3869 21.6171 29.4715C21.5385 29.5127 21.4689 29.5691 21.4124 29.6375C21.3559 29.7059 21.3138 29.7849 21.2883 29.8698C21.2629 29.9547 21.2548 30.0438 21.2644 30.1319C21.274 30.22 21.3012 30.3053 21.3443 30.3828C21.5144 30.7111 21.9272 30.8365 22.2543 30.6602C22.4116 30.5734 22.5285 30.4286 22.58 30.2568C22.6315 30.0849 22.6134 29.8998 22.5297 29.7411ZM24.8049 30.3482C24.6067 29.9755 24.1337 29.8429 23.7543 30.0362C23.5754 30.1344 23.4424 30.299 23.3841 30.4943C23.3258 30.6897 23.347 30.9 23.4429 31.08C23.6483 31.4566 24.1161 31.5957 24.4903 31.3946C24.5804 31.3472 24.6602 31.2823 24.725 31.2038C24.7898 31.1253 24.8382 31.0347 24.8675 30.9372C24.8968 30.8398 24.9064 30.7376 24.8956 30.6364C24.8849 30.5353 24.854 30.4373 24.8049 30.3482ZM27.1717 30.2535C27.0615 30.0515 26.8757 29.9012 26.6549 29.8354C26.434 29.7696 26.196 29.7937 25.9929 29.9023C25.569 30.1262 25.4218 30.6504 25.6521 31.0767C25.7048 31.1771 25.7772 31.266 25.865 31.338C25.9527 31.41 26.054 31.4638 26.1629 31.4961C26.2718 31.5284 26.3861 31.5386 26.4991 31.5261C26.612 31.5136 26.7213 31.4787 26.8204 31.4233C27.2457 31.2014 27.3968 30.672 27.1717 30.2535ZM32.5491 22.6983C32.8336 22.5351 32.9422 22.1826 32.7937 21.9064C32.7576 21.8399 32.7087 21.7811 32.6498 21.7334C32.5909 21.6857 32.5232 21.65 32.4504 21.6284C32.3777 21.6068 32.3015 21.5998 32.226 21.6076C32.1506 21.6154 32.0774 21.638 32.0107 21.6741C31.9428 21.7094 31.8827 21.7579 31.834 21.8167C31.7852 21.8755 31.7487 21.9435 31.7266 22.0166C31.7045 22.0897 31.6973 22.1665 31.7055 22.2424C31.7136 22.3183 31.7368 22.3919 31.7739 22.4587C31.8459 22.5919 31.9675 22.6917 32.1124 22.7365C32.2574 22.7812 32.4141 22.7675 32.5491 22.6983ZM32.6577 25.0548C32.9861 24.8766 33.1038 24.4673 32.9252 24.1422C32.8836 24.0645 32.8269 23.9957 32.7585 23.9399C32.6901 23.884 32.6114 23.8422 32.5268 23.8169C32.4421 23.7915 32.3533 23.7831 32.2654 23.7921C32.1775 23.8011 32.0923 23.8274 32.0146 23.8694C31.8573 23.9558 31.7402 24.1003 31.6884 24.2718C31.6365 24.4434 31.6541 24.6284 31.7372 24.7872C31.9112 25.109 32.3338 25.2278 32.6577 25.0548ZM32.0395 27.3245C32.4228 27.1189 32.5563 26.6567 32.3607 26.2788C32.2629 26.0991 32.0979 25.9654 31.9016 25.9068C31.7054 25.8482 31.4939 25.8695 31.3133 25.9661C31.133 26.0642 30.9988 26.2293 30.9397 26.4256C30.8807 26.6219 30.9016 26.8335 30.998 27.0144C31.096 27.1923 31.2601 27.3246 31.455 27.3826C31.6499 27.4406 31.8599 27.4198 32.0395 27.3245ZM30.7959 29.2809C31.2172 29.0629 31.3729 28.5282 31.1446 28.1111C30.913 27.692 30.3896 27.5295 29.9703 27.7606C29.87 27.8146 29.7814 27.8879 29.7095 27.9761C29.6375 28.0644 29.5838 28.1659 29.5512 28.2749C29.5186 28.3839 29.5079 28.4982 29.5197 28.6114C29.5314 28.7245 29.5654 28.8342 29.6197 28.9343C29.6733 29.0348 29.7465 29.1237 29.835 29.1957C29.9235 29.2678 30.0254 29.3215 30.1349 29.3537C30.2444 29.386 30.3593 29.3962 30.4727 29.3837C30.5862 29.3712 30.6961 29.3362 30.7959 29.2809Z" fill="url(#paint0_linear_2_1697)"/>
<path d="M29.1297 14.2749C29.0827 14.4335 29.0048 14.5813 28.9005 14.7099C28.7962 14.8384 28.6675 14.9451 28.5217 15.0239C28.376 15.1027 28.2161 15.152 28.0512 15.1689C27.8863 15.1859 27.7197 15.1703 27.5609 15.1228C27.401 15.0768 27.2518 14.9995 27.122 14.8956C26.9922 14.7916 26.8843 14.6631 26.8045 14.5173C26.7248 14.3715 26.6748 14.2114 26.6574 14.0462C26.64 13.881 26.6556 13.714 26.7033 13.5549C26.799 13.2338 27.0186 12.9638 27.3137 12.8043C27.4599 12.7253 27.6202 12.6758 27.7855 12.6587C27.9509 12.6415 28.1179 12.657 28.2773 12.7043C28.4366 12.7516 28.585 12.8297 28.7141 12.9342C28.8431 13.0387 28.9503 13.1676 29.0294 13.3134C29.1086 13.4593 29.1582 13.6193 29.1754 13.7842C29.1926 13.9492 29.177 14.1159 29.1297 14.2749ZM16.9992 17.2561C16.8397 17.2118 16.669 17.2315 16.5238 17.3111C16.3786 17.3906 16.2703 17.5236 16.2221 17.6817C16.1822 17.8383 16.2047 18.0041 16.2849 18.1444C16.3651 18.2847 16.4967 18.3885 16.6521 18.4338C16.8074 18.4792 16.9744 18.4626 17.1177 18.3876C17.261 18.3125 17.3696 18.1849 17.4205 18.0316C17.5239 17.7033 17.3276 17.358 16.9992 17.2561ZM19.194 14.8474C19.0969 14.8188 18.9951 14.8097 18.8944 14.8205C18.7937 14.8314 18.6962 14.862 18.6075 14.9106C18.5187 14.9592 18.4404 15.0248 18.3772 15.1037C18.3139 15.1826 18.2669 15.2732 18.2389 15.3703C18.2099 15.4672 18.2005 15.5689 18.2111 15.6695C18.2217 15.7701 18.2521 15.8677 18.3006 15.9565C18.3491 16.0453 18.4148 16.1237 18.4938 16.1871C18.5728 16.2505 18.6636 16.2977 18.7609 16.3259C18.9574 16.3826 19.1684 16.3596 19.3479 16.2618C19.5274 16.1639 19.6609 15.9993 19.7193 15.8037C19.7757 15.6074 19.7522 15.3968 19.6538 15.2177C19.5554 15.0386 19.3902 14.9055 19.194 14.8474ZM22.0063 13.1495C21.7568 13.0776 21.4889 13.1067 21.2606 13.2305C21.0324 13.3542 20.8622 13.5627 20.7869 13.8108C20.715 14.0601 20.7449 14.3276 20.87 14.555C20.9952 14.7824 21.2054 14.9511 21.4548 15.0243C21.5782 15.0611 21.7076 15.0731 21.8357 15.0597C21.9637 15.0463 22.0878 15.0077 22.2008 14.9461C22.3138 14.8846 22.4135 14.8013 22.4941 14.7011C22.5747 14.6009 22.6346 14.4858 22.6703 14.3624C22.7408 14.1137 22.7107 13.8474 22.5865 13.6206C22.4624 13.3938 22.2541 13.2247 22.0063 13.1495ZM25.1209 12.4543C24.9819 12.4128 24.8361 12.3991 24.6918 12.4141C24.5476 12.4291 24.4077 12.4724 24.2803 12.5416C24.1529 12.6108 24.0405 12.7044 23.9495 12.8172C23.8586 12.9299 23.7909 13.0595 23.7503 13.1985C23.709 13.3369 23.6955 13.4822 23.7107 13.6259C23.7258 13.7696 23.7692 13.9089 23.8384 14.0358C23.9077 14.1627 24.0014 14.2747 24.1141 14.3654C24.2269 14.456 24.3565 14.5235 24.4955 14.5641C24.7756 14.6457 25.0767 14.6134 25.333 14.4742C25.5893 14.335 25.78 14.1003 25.8633 13.8212C25.9052 13.6828 25.9191 13.5375 25.9044 13.3937C25.8897 13.2499 25.8466 13.1105 25.7775 12.9834C25.7085 12.8563 25.6149 12.7441 25.5022 12.6533C25.3895 12.5625 25.2599 12.4948 25.1209 12.4543ZM15.6117 20.238C15.5533 20.2207 15.4921 20.2151 15.4316 20.2215C15.371 20.2279 15.3123 20.2462 15.2589 20.2753C15.2055 20.3045 15.1583 20.3438 15.1202 20.3912C15.082 20.4386 15.0537 20.493 15.0367 20.5514C15.0189 20.6101 15.0128 20.6718 15.0188 20.7329C15.0249 20.794 15.043 20.8533 15.072 20.9075C15.101 20.9616 15.1405 21.0095 15.1881 21.0484C15.2357 21.0873 15.2905 21.1165 15.3494 21.1343C15.5993 21.2061 15.857 21.0625 15.9297 20.8157C15.947 20.757 15.9525 20.6954 15.9458 20.6345C15.9392 20.5736 15.9206 20.5146 15.8911 20.4609C15.8615 20.4072 15.8216 20.3599 15.7737 20.3216C15.7257 20.2834 15.6707 20.255 15.6117 20.238ZM34.509 23.0411C34.4855 23.1197 34.4778 23.2021 34.4865 23.2837C34.4951 23.3653 34.5199 23.4443 34.5594 23.5163C34.5989 23.5882 34.6523 23.6516 34.7165 23.7028C34.7807 23.754 34.8545 23.792 34.9335 23.8146C35.0924 23.8613 35.2634 23.843 35.4089 23.7639C35.5543 23.6847 35.6623 23.5512 35.709 23.3926C35.7558 23.234 35.7375 23.0634 35.6582 22.9182C35.5789 22.7731 35.445 22.6654 35.2861 22.6187C35.1269 22.5723 34.9558 22.5907 34.8102 22.6698C34.6646 22.749 34.5563 22.8825 34.509 23.0411ZM33.7867 19.924C33.7575 20.0213 33.7478 20.1234 33.7584 20.2243C33.7689 20.3253 33.7993 20.4232 33.848 20.5124C33.8967 20.6016 33.9626 20.6802 34.0419 20.7438C34.1212 20.8074 34.2123 20.8547 34.3101 20.883C34.7222 21.0044 35.1474 20.7694 35.2678 20.3607C35.3882 19.9521 35.1559 19.5258 34.7471 19.4083C34.6501 19.3792 34.5483 19.3694 34.4475 19.3796C34.3467 19.3898 34.249 19.4196 34.1598 19.4675C34.0706 19.5154 33.9917 19.5804 33.9277 19.6587C33.8637 19.7371 33.8158 19.8272 33.7867 19.924ZM32.0859 17.1204C32.0497 17.2435 32.0382 17.3725 32.052 17.5001C32.0658 17.6277 32.1047 17.7513 32.1664 17.8639C32.2281 17.9765 32.3114 18.0759 32.4115 18.1563C32.5117 18.2368 32.6268 18.2968 32.7502 18.3329C32.8736 18.369 33.0029 18.3805 33.1308 18.3667C33.2586 18.3529 33.3825 18.3141 33.4954 18.2526C33.6082 18.191 33.7078 18.1079 33.7884 18.0079C33.869 17.908 33.9292 17.7931 33.9653 17.67C34.0019 17.5471 34.0137 17.4181 34.0001 17.2906C33.9864 17.1631 33.9476 17.0396 33.8858 16.9272C33.824 16.8147 33.7404 16.7156 33.64 16.6356C33.5396 16.5556 33.4242 16.4963 33.3007 16.461C33.052 16.3894 32.785 16.4184 32.5576 16.5418C32.3302 16.6652 32.1607 16.8731 32.0859 17.1204ZM29.6922 14.9427C29.6104 15.2226 29.6434 15.5235 29.784 15.7792C29.9245 16.0349 30.1611 16.2244 30.4416 16.306C30.7222 16.3876 31.0237 16.3547 31.2799 16.2145C31.5362 16.0743 31.7261 15.8382 31.8079 15.5583C31.8492 15.4199 31.8627 15.2748 31.8477 15.1313C31.8326 14.9878 31.7893 14.8486 31.7202 14.7218C31.6511 14.595 31.5575 14.4831 31.4449 14.3925C31.3323 14.302 31.2029 14.2345 31.0641 14.1939C30.7826 14.1119 30.4801 14.1446 30.2229 14.285C29.9656 14.4254 29.7748 14.662 29.6922 14.9427ZM34.2558 26.1874C34.2221 26.3055 34.236 26.432 34.2945 26.54C34.3531 26.648 34.4517 26.7288 34.5691 26.7652C34.628 26.7828 34.6898 26.7886 34.7509 26.7822C34.812 26.7758 34.8712 26.7573 34.9251 26.7278C34.9789 26.6984 35.0264 26.6585 35.0647 26.6106C35.103 26.5626 35.1313 26.5075 35.1481 26.4486C35.1658 26.39 35.1718 26.3285 35.1655 26.2676C35.1593 26.2067 35.141 26.1476 35.1117 26.0938C35.0825 26.0401 35.0428 25.9926 34.995 25.9542C34.9473 25.9158 34.8923 25.8873 34.8334 25.8702C34.7147 25.837 34.5876 25.8516 34.4796 25.9109C34.3715 25.9703 34.2912 26.0696 34.2558 26.1874ZM23.4854 33.449C23.5328 33.2893 23.5482 33.122 23.5307 32.9564C23.5131 32.7908 23.4629 32.6304 23.3831 32.4842C23.3032 32.338 23.1952 32.209 23.0653 32.1046C22.9353 32.0002 22.786 31.9224 22.6258 31.8758C22.4663 31.8289 22.2992 31.8139 22.1339 31.8317C21.9686 31.8494 21.8084 31.8994 21.6625 31.979C21.5166 32.0585 21.3879 32.166 21.2837 32.2952C21.1794 32.4245 21.1018 32.573 21.0551 32.7322C21.0078 32.8917 20.9925 33.059 21.0101 33.2245C21.0278 33.3899 21.0779 33.5502 21.1578 33.6963C21.2377 33.8423 21.3456 33.9712 21.4755 34.0755C21.6054 34.1798 21.7547 34.2575 21.9147 34.3041C22.5859 34.498 23.2944 34.1128 23.4854 33.449ZM15.6765 23.9589C15.7236 23.8004 15.7056 23.6297 15.6266 23.4844C15.5476 23.3391 15.414 23.231 15.2552 23.184C15.0956 23.1389 14.9246 23.1581 14.7791 23.2374C14.6335 23.3168 14.5249 23.4499 14.4767 23.6083C14.4538 23.6868 14.4466 23.7689 14.4556 23.8501C14.4646 23.9313 14.4896 24.01 14.5291 24.0815C14.5686 24.1531 14.6219 24.2162 14.6858 24.2672C14.7498 24.3181 14.8233 24.356 14.9019 24.3786C14.9804 24.4022 15.0628 24.4101 15.1443 24.4017C15.2259 24.3934 15.3049 24.369 15.3769 24.3299C15.449 24.2909 15.5125 24.238 15.5639 24.1743C15.6154 24.1106 15.6536 24.0374 15.6765 23.9589ZM16.4 27.0739C16.4288 26.9776 16.4382 26.8765 16.4275 26.7765C16.4169 26.6765 16.3865 26.5796 16.338 26.4915C16.2896 26.4033 16.2241 26.3256 16.1454 26.2629C16.0666 26.2002 15.9762 26.1537 15.8793 26.1261C15.7824 26.0958 15.6804 26.0853 15.5794 26.0951C15.4784 26.1049 15.3803 26.1348 15.2911 26.1831C15.2019 26.2313 15.1232 26.297 15.0599 26.3761C14.9965 26.4552 14.9497 26.5462 14.9222 26.6437C14.8651 26.8393 14.8881 27.0495 14.9862 27.2281C15.0844 27.4067 15.2496 27.5391 15.4456 27.5961C15.6415 27.6532 15.8522 27.6302 16.0312 27.5323C16.2102 27.4343 16.3428 27.2695 16.4 27.0739ZM18.1035 29.8815C18.1752 29.6314 18.1452 29.3631 18.0201 29.1349C17.8949 28.9066 17.6847 28.7368 17.4349 28.6621C17.1853 28.5904 16.9175 28.6203 16.6899 28.7452C16.4624 28.8701 16.2937 29.0799 16.2208 29.3286C16.1841 29.4517 16.1721 29.5807 16.1856 29.7084C16.1991 29.8361 16.2377 29.9599 16.2993 30.0726C16.3609 30.1853 16.4442 30.2847 16.5445 30.3652C16.6447 30.4457 16.7599 30.5056 16.8834 30.5415C17.007 30.5784 17.1366 30.5905 17.2648 30.5773C17.3931 30.5641 17.5175 30.5257 17.6308 30.4644C17.7442 30.403 17.8443 30.32 17.9254 30.22C18.0065 30.12 18.067 30.0049 18.1035 29.8815ZM20.4971 32.0625C20.5783 31.7819 20.5448 31.4807 20.404 31.2247C20.2631 30.9688 20.0263 30.779 19.7455 30.6968C19.6067 30.656 19.4611 30.643 19.3172 30.6586C19.1733 30.6742 19.0339 30.7181 18.9072 30.7878C18.7804 30.8575 18.6687 30.9515 18.5786 31.0646C18.4885 31.1776 18.4217 31.3073 18.3822 31.4462C18.3414 31.5844 18.3283 31.7293 18.3436 31.8725C18.359 32.0158 18.4026 32.1546 18.4718 32.281C18.541 32.4074 18.6345 32.519 18.747 32.6093C18.8595 32.6996 18.9887 32.7669 19.1273 32.8073C19.4079 32.8885 19.7093 32.8559 19.9659 32.7164C20.2225 32.5769 20.4134 32.3418 20.4971 32.0625ZM33.1842 29.7418C33.3438 29.7891 33.5156 29.7712 33.6619 29.6921C33.8082 29.613 33.9171 29.4793 33.9647 29.3201C34.0103 29.1612 33.9915 28.9908 33.9123 28.8456C33.8331 28.7004 33.6999 28.5921 33.5414 28.544C33.3823 28.4985 33.2116 28.5174 33.0662 28.5966C32.9209 28.6757 32.8127 28.8088 32.7649 28.967C32.7183 29.1252 32.7362 29.2954 32.8147 29.4405C32.8933 29.5857 33.0261 29.6939 33.1842 29.7418ZM30.9934 32.1538C31.1887 32.2113 31.3988 32.1891 31.5777 32.092C31.7565 31.995 31.8894 31.831 31.9472 31.6362C31.9768 31.5393 31.9869 31.4376 31.9769 31.3368C31.9669 31.236 31.937 31.1382 31.8889 31.049C31.8408 30.9599 31.7754 30.8811 31.6966 30.8173C31.6178 30.7535 31.5271 30.7059 31.4297 30.6773C31.2328 30.6196 31.0211 30.6421 30.8407 30.7397C30.6603 30.8372 30.5259 31.0021 30.4668 31.1982C30.4117 31.3945 30.436 31.6047 30.5345 31.7833C30.6329 31.962 30.7977 32.0951 30.9934 32.1538ZM28.1811 33.8524C28.3048 33.8892 28.4346 33.9011 28.5629 33.8876C28.6913 33.8741 28.8157 33.8354 28.929 33.7737C29.0423 33.712 29.1422 33.6285 29.223 33.5281C29.3039 33.4276 29.3639 33.3122 29.3998 33.1885C29.4359 33.0655 29.4473 32.9366 29.4334 32.8092C29.4196 32.6817 29.3806 32.5583 29.3189 32.4459C29.2572 32.3335 29.1739 32.2343 29.0737 32.1541C28.9735 32.0738 28.8585 32.0141 28.7352 31.9782C28.6119 31.9419 28.4826 31.9302 28.3547 31.9438C28.2269 31.9573 28.1029 31.9959 27.99 32.0572C27.8771 32.1186 27.7774 32.2015 27.6966 32.3013C27.6158 32.4011 27.5554 32.5158 27.5191 32.6389C27.4827 32.7619 27.4709 32.8909 27.4845 33.0185C27.4981 33.1461 27.5367 33.2697 27.5982 33.3824C27.6597 33.4951 27.7428 33.5946 27.8428 33.6752C27.9428 33.7559 28.0578 33.8161 28.1811 33.8524ZM25.0692 34.545C25.2075 34.5871 25.3529 34.6013 25.4968 34.5869C25.6407 34.5724 25.7802 34.5296 25.9074 34.4608C26.0346 34.3921 26.1468 34.2988 26.2375 34.1864C26.3282 34.0739 26.3956 33.9447 26.4357 33.806C26.4765 33.6674 26.4895 33.522 26.474 33.3784C26.4585 33.2347 26.4148 33.0955 26.3453 32.9687C26.2051 32.7126 25.9687 32.5226 25.688 32.4404C25.4074 32.3583 25.1055 32.3907 24.8489 32.5306C24.5922 32.6706 24.4018 32.9065 24.3195 33.1865C24.2391 33.4659 24.2729 33.7656 24.4134 34.0201C24.5538 34.2747 24.7896 34.4634 25.0692 34.545Z" fill="url(#paint1_linear_2_1697)"/>
<path d="M35.4274 14.9173C35.1309 15.2294 34.7225 15.4113 34.2917 15.423C33.8609 15.4348 33.4431 15.2754 33.13 14.98C32.9743 14.8341 32.8491 14.6589 32.7615 14.4645C32.674 14.2702 32.6258 14.0604 32.6199 13.8474C32.6139 13.6343 32.6503 13.4222 32.7268 13.2233C32.8033 13.0243 32.9186 12.8424 33.0659 12.6881C33.2118 12.5328 33.387 12.4078 33.5814 12.3202C33.7759 12.2325 33.9857 12.1841 34.1989 12.1775C34.4122 12.171 34.6246 12.2065 34.8241 12.282C35.0236 12.3575 35.2061 12.4716 35.3614 12.6176C35.6753 12.9141 35.8586 13.3227 35.8709 13.7538C35.8833 14.185 35.7238 14.6034 35.4274 14.9173ZM19.2267 11.2304C19.0715 11.0855 18.8653 11.0077 18.6528 11.0138C18.4404 11.0199 18.2389 11.1095 18.0924 11.2631C17.9473 11.4175 17.8694 11.6229 17.8755 11.8345C17.8816 12.046 17.9713 12.2466 18.1251 12.3924C18.2803 12.5375 18.4867 12.6153 18.6993 12.609C18.9118 12.6026 19.1132 12.5125 19.2594 12.3584C19.4044 12.2042 19.4824 11.9991 19.4762 11.7877C19.4701 11.5764 19.3804 11.376 19.2267 11.2304ZM23.2885 9.68858C23.0971 9.51007 22.8427 9.41434 22.5808 9.42229C22.3189 9.43024 22.0707 9.54122 21.8905 9.73101C21.8013 9.8256 21.7316 9.9368 21.6854 10.0583C21.6393 10.1797 21.6176 10.3091 21.6215 10.4389C21.6255 10.5688 21.655 10.6966 21.7085 10.815C21.7619 10.9335 21.8382 11.0403 21.9331 11.1293C22.1249 11.3076 22.3795 11.403 22.6415 11.3947C22.9036 11.3863 23.1516 11.275 23.3317 11.0849C23.5104 10.8935 23.6062 10.6394 23.5981 10.3779C23.59 10.1164 23.4787 9.86863 23.2885 9.68858ZM27.6453 9.37068C27.4024 9.14333 27.0792 9.02114 26.7463 9.03081C26.4134 9.04047 26.0979 9.1812 25.8686 9.42225C25.6516 9.66648 25.5384 9.98543 25.5529 10.3115C25.5675 10.6376 25.7088 10.9452 25.9467 11.1692C26.1847 11.3932 26.5007 11.5159 26.8278 11.5113C27.1549 11.5068 27.4673 11.3754 27.699 11.1449C27.927 10.9022 28.0493 10.5793 28.0393 10.2468C28.0292 9.91424 27.8876 9.59924 27.6453 9.37068ZM31.7673 10.4236C31.6324 10.2961 31.4736 10.1963 31.3 10.1302C31.1264 10.0641 30.9414 10.0328 30.7556 10.0382C30.5699 10.0436 30.387 10.0856 30.2176 10.1617C30.0481 10.2378 29.8954 10.3465 29.7681 10.4817C29.6406 10.6163 29.5409 10.7747 29.4747 10.9478C29.4085 11.1209 29.3771 11.3053 29.3824 11.4905C29.3876 11.6756 29.4293 11.858 29.5052 12.0271C29.581 12.1962 29.6895 12.3487 29.8244 12.4759C30.0978 12.7322 30.4618 12.8699 30.8367 12.859C31.2116 12.8482 31.5669 12.6895 31.8249 12.4179C32.0816 12.1455 32.2197 11.7827 32.209 11.4089C32.1982 11.0351 32.0394 10.6808 31.7673 10.4236ZM15.7831 13.9303C15.6675 13.8226 15.5139 13.7648 15.3558 13.7695C15.1976 13.7741 15.0477 13.8408 14.9386 13.9551C14.8845 14.0118 14.8421 14.0786 14.814 14.1517C14.7859 14.2248 14.7725 14.3027 14.7746 14.3809C14.7767 14.4592 14.7943 14.5363 14.8264 14.6077C14.8585 14.6791 14.9044 14.7435 14.9615 14.7972C15.0182 14.8514 15.0852 14.8938 15.1584 14.922C15.2317 14.9502 15.3099 14.9636 15.3884 14.9614C15.4669 14.9592 15.5441 14.9415 15.6157 14.9093C15.6873 14.8771 15.7518 14.831 15.8054 14.7737C15.9143 14.6589 15.9732 14.5056 15.969 14.3474C15.9648 14.1893 15.898 14.0393 15.7831 13.9303ZM36.5847 28.6427C36.4388 28.7973 36.3603 29.0034 36.3664 29.2157C36.3725 29.428 36.4628 29.6292 36.6174 29.7752C36.7739 29.9142 36.9786 29.9867 37.1879 29.9775C37.3972 29.9682 37.5947 29.8778 37.7383 29.7255C37.8818 29.5732 37.9602 29.3711 37.9567 29.162C37.9533 28.953 37.8682 28.7535 37.7197 28.6061C37.564 28.4613 37.3573 28.3839 37.1446 28.3908C36.932 28.3976 36.7306 28.4882 36.5847 28.6427ZM37.6117 24.5119C37.4336 24.7032 37.3384 24.957 37.3468 25.218C37.3553 25.479 37.4667 25.7261 37.6569 25.9056C37.7513 25.9948 37.8625 26.0646 37.9841 26.1108C38.1057 26.1571 38.2352 26.1789 38.3652 26.175C38.4953 26.1711 38.6232 26.1416 38.7418 26.0882C38.8604 26.0348 38.9672 25.9585 39.0562 25.8638C39.1456 25.7696 39.2155 25.6587 39.2617 25.5374C39.308 25.4161 39.3297 25.2869 39.3256 25.1572C39.3216 25.0275 39.2918 24.8999 39.238 24.7817C39.1842 24.6635 39.1075 24.5572 39.0123 24.4688C38.8204 24.29 38.5655 24.1943 38.3031 24.2023C38.0408 24.2104 37.7922 24.3217 37.6117 24.5119ZM37.2964 20.1618C37.1831 20.2815 37.0945 20.4225 37.0359 20.5765C36.9773 20.7305 36.9497 20.8945 36.9547 21.0592C36.9598 21.2238 36.9974 21.3859 37.0653 21.536C37.1333 21.6861 37.2303 21.8214 37.3507 21.9341C37.4708 22.0471 37.612 22.1354 37.7664 22.1938C37.9207 22.2523 38.085 22.2798 38.25 22.2747C38.415 22.2697 38.5774 22.2322 38.7279 22.1645C38.8783 22.0967 39.0139 22 39.1268 21.8799C39.3482 21.6365 39.4649 21.3161 39.4519 20.9876C39.4389 20.6592 39.2972 20.349 39.0572 20.1238C38.8173 19.8986 38.4984 19.7764 38.169 19.7835C37.8397 19.7906 37.5264 19.9264 37.2964 20.1618ZM35.7748 16.1302C35.583 16.3335 35.4559 16.589 35.4097 16.8645C35.3634 17.1399 35.4001 17.4228 35.515 17.6774C35.63 17.932 35.8181 18.1468 36.0554 18.2947C36.2928 18.4426 36.5688 18.517 36.8485 18.5083C37.1282 18.4996 37.3991 18.4083 37.6268 18.2459C37.8545 18.0836 38.0288 17.8575 38.1277 17.5963C38.2265 17.335 38.2455 17.0504 38.1822 16.7784C38.1189 16.5064 37.9761 16.2592 37.772 16.0682C37.2081 15.5342 36.3119 15.5649 35.7748 16.1302ZM34.3768 32.2258C34.2689 32.3414 34.211 32.4949 34.2159 32.6528C34.2208 32.8108 34.2881 32.9604 34.403 33.0691C34.4602 33.1226 34.5274 33.1642 34.6008 33.1916C34.6742 33.2191 34.7524 33.2317 34.8307 33.2288C34.909 33.226 34.986 33.2077 35.0572 33.175C35.1284 33.1424 35.1924 33.0959 35.2456 33.0385C35.2999 32.9823 35.3425 32.9159 35.3707 32.8431C35.3989 32.7704 35.4122 32.6927 35.4098 32.6147C35.4074 32.5367 35.3894 32.4599 35.3568 32.389C35.3242 32.318 35.2777 32.2543 35.2201 32.2016C35.1634 32.1473 35.0965 32.1048 35.0233 32.0766C34.95 32.0484 34.8719 32.035 34.7934 32.0373C34.7149 32.0395 34.6376 32.0573 34.5661 32.0897C34.4946 32.1221 34.4302 32.1683 34.3768 32.2258ZM17.1222 34.3107C17.4136 33.9967 17.5689 33.5806 17.5544 33.1529C17.5398 32.7252 17.3567 32.3206 17.0447 32.0269C16.7328 31.7333 16.3173 31.5744 15.8886 31.5849C15.4599 31.5953 15.0526 31.7743 14.7554 32.0828C14.4743 32.3985 14.3275 32.8111 14.3462 33.2331C14.3648 33.655 14.5475 34.0531 14.8553 34.3429C15.1632 34.6327 15.5721 34.7914 15.9953 34.7854C16.4185 34.7794 16.8227 34.6092 17.1222 34.3107ZM13.6028 18.3555C13.6751 18.2791 13.7315 18.1891 13.769 18.0909C13.8065 17.9926 13.8242 17.888 13.8211 17.7829C13.818 17.6778 13.7943 17.5744 13.7511 17.4785C13.708 17.3826 13.6464 17.2961 13.5697 17.2239C13.4931 17.1518 13.403 17.0954 13.3045 17.058C13.2061 17.0207 13.1012 17.003 12.9959 17.0061C12.8906 17.0091 12.7869 17.0328 12.6908 17.0759C12.5947 17.1189 12.508 17.1804 12.4357 17.2569C12.1282 17.5768 12.1466 18.0814 12.4717 18.3869C12.7903 18.6871 13.2966 18.6747 13.6028 18.3555ZM12.5718 22.4883C12.7509 22.297 12.8472 22.0428 12.8396 21.7811C12.832 21.5194 12.7212 21.2713 12.5312 21.0907C12.339 20.9188 12.0871 20.8287 11.8292 20.8394C11.5713 20.8501 11.3278 20.9609 11.1506 21.148C10.9733 21.3352 10.8763 21.5841 10.8801 21.8416C10.884 22.0991 10.9884 22.3449 11.1712 22.5268C11.3625 22.7061 11.6171 22.8027 11.8794 22.7955C12.1418 22.7883 12.3907 22.6778 12.5718 22.4883ZM12.8891 26.8364C13.1181 26.5936 13.2412 26.27 13.2313 25.9367C13.2214 25.6034 13.0792 25.2877 12.8361 25.0589C12.5928 24.831 12.2688 24.7088 11.9353 24.7191C11.6018 24.7294 11.2861 24.8713 11.0574 25.1137C10.8296 25.3565 10.7075 25.6794 10.7178 26.0119C10.7281 26.3443 10.8699 26.6591 11.1123 26.8873C11.6199 27.3658 12.4141 27.3404 12.8891 26.8364ZM14.4081 30.8693C14.6649 30.5968 14.803 30.2338 14.7921 29.8598C14.7812 29.4859 14.6222 29.1315 14.3498 28.8744C14.215 28.7473 14.0563 28.6481 13.8829 28.5824C13.7095 28.5166 13.5248 28.4858 13.3394 28.4915C13.154 28.4972 12.9716 28.5393 12.8026 28.6156C12.6336 28.6918 12.4813 28.8006 12.3546 28.9358C12.2267 29.0701 12.1265 29.2283 12.06 29.4013C11.9934 29.5743 11.9617 29.7587 11.9667 29.944C11.9717 30.1292 12.0132 30.3117 12.089 30.4809C12.1648 30.6501 12.2733 30.8027 12.4082 30.93C12.6824 31.1847 13.0462 31.3212 13.4207 31.3099C13.7951 31.2985 14.1499 31.1402 14.4081 30.8693ZM30.9587 35.7677C31.0353 35.84 31.1254 35.8964 31.2238 35.9337C31.3223 35.9711 31.4272 35.9887 31.5325 35.9855C31.6378 35.9823 31.7414 35.9583 31.8374 35.915C31.9334 35.8717 32.0198 35.8099 32.0918 35.7331C32.164 35.6569 32.2204 35.5672 32.2578 35.4692C32.2952 35.3712 32.3127 35.2668 32.3095 35.1619C32.3063 35.0571 32.2823 34.954 32.239 34.8584C32.1957 34.7628 32.1339 34.6768 32.0571 34.6051C31.9808 34.5329 31.891 34.4765 31.7928 34.439C31.6946 34.4015 31.5899 34.3838 31.4848 34.3869C31.3797 34.3899 31.2762 34.4136 31.1803 34.4567C31.0844 34.4997 30.998 34.5613 30.926 34.6378C30.7803 34.792 30.7019 34.9976 30.708 35.2095C30.7141 35.4214 30.8043 35.6222 30.9587 35.7677ZM26.897 37.3076C27.296 37.683 27.9214 37.6582 28.2962 37.2639C28.3855 37.1699 28.4553 37.0593 28.5016 36.9383C28.5479 36.8173 28.5698 36.6884 28.5661 36.559C28.5623 36.4295 28.5329 36.3021 28.4797 36.184C28.4264 36.0659 28.3503 35.9595 28.2557 35.8709C28.0638 35.6914 27.8084 35.5951 27.5455 35.6032C27.2826 35.6112 27.0336 35.723 26.8531 35.914C26.6746 36.105 26.5791 36.3587 26.5873 36.6198C26.5955 36.8809 26.7068 37.1281 26.897 37.3076ZM22.5375 37.6216C23.0478 38.1014 23.838 38.0779 24.3136 37.574C24.4273 37.4545 24.5161 37.3138 24.5752 37.16C24.6342 37.0061 24.6622 36.8422 24.6576 36.6775C24.6529 36.5129 24.6158 36.3507 24.5482 36.2004C24.4807 36.0501 24.3841 35.9146 24.2639 35.8017C24.0207 35.5735 23.697 35.4507 23.3633 35.46C23.0297 35.4693 22.7133 35.6099 22.4832 35.8513C22.3701 35.971 22.2817 36.1118 22.2232 36.2656C22.1647 36.4194 22.1372 36.5832 22.1422 36.7477C22.1473 36.9121 22.1848 37.074 22.2526 37.224C22.3205 37.3739 22.4173 37.5091 22.5375 37.6216ZM18.4241 36.5746C18.5588 36.7017 18.7173 36.8011 18.8906 36.867C19.0639 36.9329 19.2485 36.964 19.4339 36.9585C19.6193 36.9531 19.8017 36.9111 19.9708 36.8352C20.1399 36.7592 20.2923 36.6507 20.4193 36.5158C20.5464 36.3809 20.6456 36.2224 20.7113 36.0492C20.777 35.8761 20.8079 35.6917 20.8022 35.5066C20.7965 35.3216 20.7543 35.1395 20.678 34.9707C20.6018 34.8019 20.493 34.6497 20.3578 34.5229C20.2226 34.3961 20.0637 34.297 19.8902 34.2315C19.7167 34.1659 19.5319 34.1351 19.3465 34.1408C19.161 34.1465 18.9785 34.1886 18.8093 34.2647C18.6402 34.3408 18.4877 34.4494 18.3606 34.5842C18.2336 34.719 18.1344 34.8774 18.0688 35.0504C18.0032 35.2234 17.9725 35.4077 17.9784 35.5925C17.9843 35.7774 18.0267 35.9593 18.1032 36.1279C18.1796 36.2964 18.2887 36.4482 18.4241 36.5746Z" fill="url(#paint2_linear_2_1697)"/>
<path d="M42.0294 18.3513C41.5494 18.5572 41.0071 18.5645 40.5217 18.3716C40.0363 18.1787 39.6475 17.8014 39.4408 17.3226C39.3382 17.0855 39.2835 16.8306 39.2798 16.5724C39.2761 16.3142 39.3235 16.0578 39.4193 15.8179C39.515 15.578 39.6573 15.3593 39.8379 15.1744C40.0185 14.9895 40.2339 14.8419 40.4718 14.7402C40.9493 14.547 41.4838 14.5481 41.9605 14.7434C42.4372 14.9387 42.8182 15.3126 43.022 15.785C43.2257 16.2573 43.2359 16.7905 43.0503 17.2702C42.8648 17.75 42.4983 18.1381 42.0294 18.3513ZM28.2007 5.84347C28.1733 5.70364 28.1184 5.57061 28.0392 5.45204C27.9601 5.33347 27.8582 5.23169 27.7394 5.15257C27.6207 5.07345 27.4874 5.01856 27.3473 4.99104C27.2072 4.96352 27.063 4.96393 26.9231 4.99224C26.7829 5.01947 26.6495 5.07413 26.5305 5.15307C26.4116 5.23202 26.3095 5.33368 26.2301 5.45221C26.1507 5.57073 26.0957 5.70376 26.0681 5.84363C26.0405 5.9835 26.041 6.12743 26.0694 6.26712C26.134 6.54088 26.3026 6.77891 26.5397 6.93103C26.7767 7.08314 27.0637 7.13746 27.3401 7.08251C27.6165 7.02757 27.8608 6.86766 28.0213 6.63651C28.1819 6.40536 28.2462 6.12102 28.2007 5.84347ZM32.8657 6.85592C32.8232 6.68864 32.7481 6.53137 32.6446 6.39314C32.5411 6.25491 32.4112 6.13845 32.2625 6.05043C32.1138 5.96242 31.9491 5.9046 31.7779 5.88028C31.6067 5.85597 31.4323 5.86564 31.2649 5.90874C31.0971 5.95086 30.9393 6.02567 30.8006 6.12887C30.6618 6.23208 30.545 6.36164 30.4566 6.5101C30.3683 6.65856 30.3102 6.82299 30.2858 6.99392C30.2614 7.16485 30.2711 7.33892 30.3144 7.50609C30.3571 7.67325 30.4325 7.83037 30.5361 7.96847C30.6398 8.10657 30.7696 8.22295 30.9184 8.31097C31.0671 8.39898 31.2317 8.4569 31.4028 8.48143C31.574 8.50596 31.7483 8.49662 31.9158 8.45393C32.0833 8.41123 32.2408 8.33604 32.3792 8.23263C32.5176 8.12922 32.6342 7.99962 32.7224 7.85123C32.8106 7.70284 32.8686 7.53857 32.8932 7.36779C32.9178 7.19702 32.9084 7.02309 32.8657 6.85592ZM37.1669 8.92719C37.1031 8.72169 36.9993 8.53079 36.8614 8.36545C36.7235 8.20011 36.5543 8.06359 36.3633 7.96374C36.1724 7.86389 35.9635 7.80268 35.7488 7.78363C35.5341 7.76458 35.3177 7.78806 35.1121 7.85272C34.9061 7.9164 34.7147 8.02003 34.549 8.15767C34.3832 8.2953 34.2463 8.46423 34.146 8.65478C34.0458 8.84532 33.9843 9.05373 33.965 9.26805C33.9456 9.48238 33.9689 9.6984 34.0334 9.90375C34.1719 10.3077 34.4629 10.6417 34.8445 10.8347C35.226 11.0278 35.6681 11.0646 36.0764 10.9373C36.4848 10.81 36.8273 10.5288 37.0309 10.1533C37.2346 9.77789 37.2834 9.33797 37.1669 8.92719ZM40.5974 11.9783C40.5151 11.7558 40.3897 11.5516 40.2282 11.3776C40.0668 11.2035 39.8725 11.0629 39.6566 10.9639C39.4406 10.8649 39.2072 10.8093 38.9697 10.8005C38.7321 10.7916 38.4952 10.8296 38.2724 10.9123C38.0491 10.994 37.8442 11.1189 37.6694 11.2798C37.4946 11.4408 37.3534 11.6346 37.2539 11.8502C37.1545 12.0658 37.0987 12.2989 37.0898 12.5361C37.081 12.7733 37.1191 13.0099 37.2022 13.2323C37.3688 13.6815 37.7075 14.0463 38.1437 14.2464C38.5799 14.4465 39.0779 14.4655 39.5281 14.2992C39.9784 14.1329 40.3439 13.795 40.5445 13.3597C40.745 12.9245 40.764 12.4275 40.5974 11.9783ZM18.8499 7.06351C18.8088 6.9682 18.7492 6.88193 18.6746 6.80965C18.5999 6.73737 18.5118 6.68049 18.4151 6.64228C18.3184 6.60408 18.2151 6.58529 18.1111 6.587C18.0071 6.58872 17.9045 6.61089 17.8091 6.65226C17.6167 6.7351 17.4652 6.89082 17.3878 7.08516C17.3104 7.2795 17.3136 7.49654 17.3967 7.68854C17.4797 7.88054 17.6357 8.03177 17.8305 8.10895C18.0252 8.18614 18.2427 8.18296 18.4352 8.10012C18.8362 7.92779 19.0233 7.46301 18.8499 7.06351ZM38.5812 33.1048C38.3531 33.2741 38.2004 33.5258 38.1559 33.806C38.1114 34.0862 38.1786 34.3726 38.3431 34.604C38.5076 34.8354 38.7564 34.9933 39.0361 35.044C39.3158 35.0947 39.6043 35.034 39.8398 34.8751C39.9564 34.7926 40.0554 34.688 40.1314 34.5673C40.2073 34.4466 40.2586 34.3121 40.2824 34.1715C40.3061 34.0309 40.3019 33.8871 40.2698 33.7482C40.2378 33.6093 40.1786 33.478 40.0956 33.362C40.0131 33.2458 39.9085 33.147 39.7878 33.0712C39.667 32.9955 39.5325 32.9442 39.3918 32.9203C39.2512 32.8964 39.1072 32.9004 38.9681 32.932C38.829 32.9637 38.6976 33.0224 38.5812 33.1048ZM40.7426 28.8735C40.5929 28.964 40.4628 29.0833 40.3598 29.2246C40.2569 29.3658 40.1832 29.5261 40.1431 29.6961C40.1029 29.8661 40.0972 30.0424 40.1261 30.2146C40.155 30.3869 40.2181 30.5516 40.3116 30.6993C40.4051 30.8469 40.5271 30.9745 40.6706 31.0745C40.814 31.1746 40.976 31.2451 41.1471 31.2819C41.3182 31.3187 41.4949 31.3212 41.667 31.2891C41.839 31.2569 42.0029 31.1909 42.1491 31.0949C42.4372 30.9056 42.6393 30.611 42.7121 30.2745C42.7848 29.9381 42.7224 29.5866 42.5381 29.2956C42.3539 29.0046 42.0626 28.7973 41.7268 28.7184C41.391 28.6395 41.0377 28.6951 40.7426 28.8735ZM41.7651 24.1121C41.3856 24.3253 41.1064 24.6801 40.9887 25.0985C40.8711 25.517 40.9247 25.9649 41.1377 26.344C41.2433 26.5314 41.3849 26.6962 41.5543 26.8289C41.7238 26.9616 41.9179 27.0597 42.1254 27.1175C42.3329 27.1753 42.5498 27.1916 42.7637 27.1657C42.9776 27.1397 43.1842 27.0718 43.3717 26.9661C43.56 26.8614 43.7257 26.7206 43.8593 26.5517C43.9928 26.3829 44.0916 26.1894 44.15 25.9824C44.2084 25.7753 44.2251 25.5588 44.1993 25.3453C44.1736 25.1318 44.1057 24.9254 43.9998 24.7381C43.8944 24.5504 43.753 24.3853 43.5836 24.2522C43.4142 24.1191 43.2201 24.0207 43.0126 23.9625C42.805 23.9044 42.588 23.8877 42.3739 23.9133C42.1598 23.939 41.9529 24.0065 41.7651 24.1121ZM41.7029 19.3377C41.2737 19.5505 40.9465 19.9245 40.7933 20.3776C40.64 20.8308 40.673 21.3261 40.8852 21.7549C40.9903 21.968 41.1365 22.1582 41.3155 22.3147C41.4945 22.4712 41.7027 22.5908 41.9282 22.6667C42.1537 22.7426 42.392 22.7732 42.6294 22.7569C42.8668 22.7406 43.0986 22.6776 43.3116 22.5716C43.5248 22.4669 43.7152 22.3211 43.8718 22.1428C44.0284 21.9644 44.1481 21.7569 44.2241 21.5322C44.3001 21.3075 44.3309 21.0701 44.3146 20.8335C44.2983 20.5969 44.2353 20.3659 44.1293 20.1537C43.9156 19.7247 43.5402 19.3978 43.0853 19.2449C42.6304 19.0919 42.1332 19.1253 41.7029 19.3377ZM31.747 38.9008C31.6517 38.9418 31.5654 39.0012 31.4931 39.0755C31.4208 39.1498 31.3638 39.2375 31.3255 39.3338C31.2871 39.4301 31.2682 39.5329 31.2697 39.6365C31.2712 39.74 31.2931 39.8423 31.3342 39.9374C31.4172 40.1295 31.5733 40.2808 31.7682 40.358C31.8646 40.3963 31.9677 40.4152 32.0715 40.4137C32.1753 40.4122 32.2777 40.3903 32.3731 40.3493C32.7741 40.177 32.9612 39.7129 32.7885 39.3114C32.7048 39.1192 32.5482 38.968 32.3529 38.891C32.1576 38.814 31.9397 38.8175 31.747 38.9008ZM9.71236 32.2588C10.1916 32.0515 10.5688 31.6629 10.761 31.1783C10.9532 30.6937 10.9447 30.1528 10.7375 29.6744C10.6355 29.4376 10.4877 29.2232 10.3025 29.0435C10.1174 28.8638 9.89855 28.7223 9.65853 28.6271C9.4185 28.5319 9.16201 28.4849 8.90374 28.4887C8.64548 28.4926 8.39052 28.5472 8.15345 28.6496C7.9156 28.7513 7.70021 28.8988 7.51962 29.0838C7.33903 29.2687 7.1968 29.4874 7.10108 29.7273C7.00537 29.9673 6.95804 30.2237 6.96182 30.4818C6.9656 30.74 7.02042 30.9949 7.12312 31.232C7.33034 31.7105 7.7194 32.0874 8.20486 32.2799C8.69032 32.4724 9.2325 32.4648 9.71236 32.2588ZM11.6003 13.8948C11.7167 13.8127 11.8157 13.7085 11.8917 13.5881C11.9677 13.4678 12.0192 13.3337 12.0433 13.1934C12.0674 13.0532 12.0635 12.9097 12.0319 12.7709C12.0004 12.6322 11.9417 12.5011 11.8594 12.385C11.7774 12.2683 11.6731 12.1689 11.5525 12.0926C11.4319 12.0164 11.2973 11.9647 11.1566 11.9406C11.0159 11.9165 10.8717 11.9205 10.7325 11.9523C10.5933 11.9841 10.4618 12.043 10.3456 12.1258C10.2285 12.2078 10.1289 12.3121 10.0525 12.4327C9.97603 12.5533 9.92427 12.6878 9.90019 12.8285C9.8761 12.9692 9.88017 13.1132 9.91216 13.2523C9.94414 13.3914 10.0034 13.5228 10.0865 13.6389C10.2535 13.8728 10.5067 14.0311 10.7904 14.0791C11.0742 14.127 11.3654 14.0608 11.6003 13.8948ZM9.44087 18.1255C9.5873 18.0331 9.71404 17.9128 9.81384 17.7715C9.91365 17.6302 9.98457 17.4707 10.0225 17.302C10.0605 17.1334 10.0648 16.9589 10.0351 16.7886C10.0055 16.6183 9.94249 16.4555 9.84973 16.3095C9.66279 16.0152 9.36637 15.8071 9.02568 15.731C8.68499 15.6549 8.32794 15.7169 8.03308 15.9034C7.73822 16.09 7.5297 16.3858 7.45339 16.7257C7.37709 17.0657 7.43924 17.422 7.62619 17.7162C7.81244 18.0106 8.10826 18.2191 8.44858 18.2959C8.7889 18.3726 9.14584 18.3113 9.44087 18.1255ZM8.41512 22.8875C8.60944 22.7857 8.78132 22.646 8.9206 22.4768C9.05988 22.3075 9.16373 22.1121 9.22601 21.9021C9.28828 21.6921 9.30772 21.4718 9.28317 21.2542C9.25862 21.0366 9.19058 20.8261 9.08308 20.6351C8.97557 20.4442 8.83079 20.2767 8.65729 20.1426C8.48379 20.0085 8.28509 19.9105 8.07296 19.8543C7.86082 19.7982 7.63956 19.785 7.42225 19.8157C7.20495 19.8464 6.99601 19.9202 6.80781 20.0329C6.42999 20.2464 6.15237 20.6006 6.03579 21.018C5.91921 21.4353 5.97317 21.8818 6.18585 22.2595C6.39854 22.6372 6.75259 22.9154 7.17045 23.0331C7.5883 23.1508 8.03589 23.0985 8.41512 22.8875ZM8.47858 27.6632C8.90867 27.4504 9.23645 27.0759 9.3898 26.622C9.54315 26.168 9.50952 25.6719 9.2963 25.2427C9.19132 25.0295 9.04509 24.8391 8.86604 24.6826C8.68699 24.526 8.47866 24.4064 8.25305 24.3305C8.02745 24.2547 7.78903 24.2241 7.55154 24.2406C7.31405 24.2572 7.08218 24.3204 6.8693 24.4267C6.6563 24.5318 6.46613 24.6777 6.30967 24.8561C6.15321 25.0346 6.03353 25.242 5.95747 25.4666C5.8814 25.6913 5.85045 25.9286 5.86637 26.1652C5.88229 26.4017 5.94479 26.6328 6.05027 26.8453C6.26381 27.2749 6.6395 27.6023 7.09481 27.7557C7.55012 27.909 8.04782 27.8758 8.47858 27.6632ZM21.9808 41.1588C22.0087 41.2987 22.064 41.4317 22.1434 41.5503C22.2229 41.6689 22.3249 41.7707 22.4438 41.8499C22.5627 41.9292 22.6961 41.9842 22.8363 42.012C22.9765 42.0398 23.1208 42.0398 23.261 42.0119C23.5439 41.9545 23.7923 41.7875 23.952 41.5475C24.1117 41.3076 24.1695 41.0142 24.1128 40.7318C24.0553 40.4502 23.8885 40.2027 23.6487 40.0434C23.4089 39.8842 23.1157 39.8261 22.8332 39.8819C22.5507 39.9388 22.3023 40.1051 22.1425 40.3445C21.9827 40.5839 21.9245 40.8767 21.9808 41.1588ZM17.3185 40.1437C17.3608 40.311 17.4358 40.4684 17.5392 40.6067C17.6426 40.745 17.7723 40.8616 17.921 40.9497C18.0697 41.0378 18.2344 41.0958 18.4056 41.1203C18.5768 41.1447 18.7511 41.1352 18.9186 41.0922C19.086 41.0495 19.2434 40.9743 19.3817 40.8709C19.52 40.7675 19.6366 40.638 19.7247 40.4897C19.8129 40.3413 19.8709 40.1771 19.8954 40.0064C19.92 39.8357 19.9106 39.6619 19.8678 39.4948C19.825 39.3277 19.7497 39.1707 19.6461 39.0327C19.5425 38.8947 19.4127 38.7784 19.264 38.6904C19.1154 38.6025 18.9508 38.5446 18.7798 38.5201C18.6087 38.4956 18.4345 38.505 18.267 38.5476C18.0997 38.5903 17.9425 38.6654 17.8043 38.7687C17.666 38.872 17.5496 39.0014 17.4615 39.1496C17.3734 39.2978 17.3154 39.4619 17.2909 39.6325C17.2664 39.803 17.2757 39.9767 17.3185 40.1437ZM13.016 38.0718C13.0792 38.2774 13.1827 38.4685 13.3204 38.634C13.4581 38.7995 13.6273 38.9362 13.8182 39.0361C14.0092 39.136 14.218 39.1972 14.4328 39.2161C14.6475 39.235 14.8639 39.2112 15.0694 39.1462C15.2755 39.0829 15.4669 38.9796 15.6328 38.8422C15.7987 38.7048 15.9358 38.5361 16.0361 38.3457C16.1365 38.1553 16.1982 37.9469 16.2176 37.7327C16.2371 37.5184 16.2139 37.3025 16.1495 37.0972C16.0191 36.6825 15.7292 36.3363 15.3433 36.1348C14.9575 35.9332 14.5072 35.8927 14.0914 36.022C13.8857 36.0858 13.6946 36.1894 13.5291 36.327C13.3636 36.4647 13.2269 36.6335 13.127 36.824C13.0271 37.0144 12.9658 37.2227 12.9468 37.4368C12.9277 37.651 12.9512 37.8667 13.016 38.0718ZM9.58414 35.0187C9.66596 35.2416 9.79114 35.4461 9.95248 35.6204C10.1138 35.7948 10.3081 35.9356 10.5242 36.0347C10.7403 36.1339 10.9739 36.1894 11.2116 36.1981C11.4493 36.2068 11.6863 36.1685 11.9091 36.0854C12.3498 35.9126 12.705 35.5743 12.8986 35.1431C13.0922 34.7119 13.1088 34.2222 12.9446 33.779C12.7805 33.3358 12.4489 32.9745 12.0208 32.7725C11.5928 32.5706 11.1024 32.5441 10.655 32.6988C10.2051 32.8652 9.83961 33.2029 9.63885 33.6378C9.43809 34.0727 9.41841 34.5693 9.58414 35.0187ZM35.4771 36.6108C35.3087 36.7529 35.2022 36.9548 35.1802 37.1737C35.1583 37.3927 35.2226 37.6116 35.3595 37.7842C35.4964 37.9567 35.6953 38.0693 35.9139 38.0981C36.1326 38.1269 36.3539 38.0697 36.531 37.9386C36.6224 37.871 36.6992 37.7857 36.7569 37.6879C36.8146 37.59 36.852 37.4816 36.8669 37.3691C36.8818 37.2565 36.8739 37.1421 36.8436 37.0327C36.8134 36.9233 36.7614 36.821 36.6908 36.732C36.6201 36.643 36.5323 36.5691 36.4325 36.5146C36.3326 36.4602 36.2229 36.4263 36.1097 36.415C35.9965 36.4037 35.8821 36.4152 35.7735 36.4489C35.6648 36.4825 35.564 36.5376 35.4771 36.6108ZM27.5164 40.0353C27.2939 40.0689 27.0936 40.189 26.9595 40.3694C26.8254 40.5498 26.7683 40.7759 26.8008 40.9982C26.8169 41.1082 26.8546 41.2141 26.9117 41.3096C26.9688 41.4051 27.0442 41.4885 27.1337 41.5548C27.2231 41.6212 27.3248 41.6694 27.4329 41.6965C27.541 41.7236 27.6534 41.7292 27.7637 41.713C27.8742 41.6971 27.9805 41.6597 28.0765 41.6028C28.1725 41.5459 28.2563 41.4707 28.3231 41.3814C28.3898 41.2921 28.4383 41.1906 28.4657 41.0826C28.4931 40.9746 28.4989 40.8623 28.4827 40.7521C28.4665 40.6417 28.4287 40.5355 28.3713 40.4397C28.314 40.3439 28.2383 40.2603 28.1485 40.1937C28.0588 40.1271 27.9568 40.0789 27.8483 40.0517C27.7398 40.0245 27.6271 40.019 27.5164 40.0353ZM23.384 6.00209C23.3678 5.89179 23.3299 5.78578 23.2725 5.69014C23.2151 5.5945 23.1393 5.51111 23.0496 5.44475C22.9598 5.3784 22.8578 5.33039 22.7493 5.30348C22.6409 5.27658 22.5283 5.2713 22.4178 5.28795C22.1951 5.32067 21.9946 5.44033 21.8603 5.62059C21.726 5.80085 21.669 6.02696 21.7018 6.24917C21.7346 6.47138 21.8545 6.67149 22.0351 6.80547C22.2158 6.93946 22.4424 6.99635 22.6651 6.96363C22.8882 6.93118 23.0892 6.81167 23.224 6.63136C23.3588 6.45106 23.4164 6.22472 23.384 6.00209ZM14.8444 9.19874C14.7041 9.0227 14.4997 8.90924 14.2759 8.88318C14.052 8.85712 13.8269 8.92059 13.6499 9.0597C13.5179 9.16383 13.4199 9.30465 13.3682 9.46437C13.3165 9.62408 13.3134 9.79551 13.3593 9.95698C13.4052 10.1184 13.4981 10.2627 13.6262 10.3715C13.7543 10.4803 13.9118 10.5487 14.0789 10.5682C14.246 10.5876 14.4151 10.5572 14.5648 10.4807C14.7146 10.4043 14.8382 10.2852 14.9201 10.1387C15.0021 9.99207 15.0386 9.82453 15.0251 9.65723C15.0116 9.48993 14.9487 9.33037 14.8444 9.19874Z" fill="url(#paint3_linear_2_1697)"/>
<path d="M47.6272 26.0165C46.9582 26.0156 46.317 25.7497 45.8445 25.2772C45.3719 24.8047 45.1068 24.1643 45.1073 23.4967C45.1068 23.1661 45.1717 22.8387 45.2984 22.5332C45.425 22.2277 45.6109 21.9502 45.8454 21.7166C46.0798 21.483 46.3582 21.298 46.6646 21.1721C46.9709 21.0461 47.2991 20.9819 47.6304 20.9829C47.9618 20.9823 48.2899 21.047 48.5961 21.1732C48.9023 21.2995 49.1805 21.4848 49.4148 21.7186C49.649 21.9524 49.8347 22.2301 49.9611 22.5357C50.0876 22.8413 50.1523 23.1687 50.1516 23.4993C50.1513 24.1672 49.8852 24.8075 49.4117 25.2795C48.9383 25.7516 48.2964 26.0166 47.6272 26.0165ZM37.7242 4.30768C37.7627 4.12938 37.7654 3.94526 37.7323 3.7659C37.6992 3.58654 37.6309 3.41547 37.5314 3.26254C37.4318 3.10961 37.3029 2.97782 37.1521 2.87477C37.0013 2.77171 36.8316 2.69941 36.6527 2.66203C36.4741 2.62323 36.2895 2.62006 36.1096 2.6527C35.9298 2.68534 35.7581 2.75315 35.6046 2.85222C35.4511 2.95129 35.3187 3.07966 35.2151 3.22997C35.1115 3.38027 35.0387 3.54953 35.0009 3.72801C34.9239 4.08838 34.9934 4.46452 35.1943 4.77369C35.3952 5.08286 35.711 5.29974 36.0721 5.3766C36.4333 5.45347 36.8102 5.38404 37.12 5.18358C37.4299 4.98311 37.6472 4.66805 37.7242 4.30768ZM42.6947 7.85879C42.7296 7.64063 42.7211 7.41774 42.6696 7.20287C42.6181 6.988 42.5246 6.78538 42.3945 6.60662C42.2644 6.42786 42.1002 6.27647 41.9114 6.16112C41.7226 6.04577 41.5128 5.96872 41.2941 5.9344C40.8571 5.87536 40.4143 5.98933 40.0604 6.25194C39.7066 6.51455 39.4697 6.90493 39.4007 7.33955C39.3316 7.77417 39.4357 8.2185 39.6908 8.57747C39.9459 8.93644 40.3316 9.18153 40.7655 9.2603C41.2075 9.32908 41.6588 9.22017 42.0204 8.95744C42.382 8.69472 42.6245 8.29963 42.6947 7.85879ZM49.1828 17.7973C49.1991 17.494 49.1553 17.1904 49.0538 16.904C48.9523 16.6176 48.7952 16.354 48.5914 16.1282C48.3877 15.9025 48.1413 15.7192 47.8663 15.5887C47.5914 15.4582 47.2934 15.3831 46.9894 15.3677C46.6853 15.351 46.3808 15.3944 46.0936 15.4953C45.8063 15.5963 45.5419 15.753 45.3155 15.9562C45.0891 16.1595 44.9051 16.4054 44.7742 16.6797C44.6433 16.9541 44.5679 17.2516 44.5525 17.5552C44.5338 17.8601 44.5757 18.1658 44.676 18.4545C44.7763 18.7432 44.9329 19.0092 45.1367 19.2372C45.3406 19.4652 45.5877 19.6506 45.8638 19.7827C46.1399 19.9149 46.4395 19.9912 46.7452 20.0072C47.051 20.0232 47.3569 19.9786 47.6454 19.8759C47.9338 19.7733 48.1989 19.6147 48.4256 19.4092C48.6522 19.2037 48.8358 18.9555 48.9658 18.6789C49.0958 18.4022 49.1695 18.1026 49.1828 17.7973ZM26.1054 1.00919C26.1054 0.448458 25.6507 0 25.0908 0C24.8287 0.00940557 24.5804 0.119918 24.3983 0.308273C24.2162 0.496628 24.1145 0.748134 24.1145 1.00985C24.1145 1.27156 24.2162 1.52307 24.3983 1.71142C24.5804 1.89978 24.8287 2.01029 25.0908 2.01969C25.6507 2.01969 26.1054 1.56862 26.1054 1.00919ZM36.0737 41.6224C35.8948 41.6604 35.725 41.7332 35.5742 41.8366C35.4234 41.94 35.2945 42.0721 35.1949 42.2253C34.9936 42.5345 34.9237 42.9109 35.0006 43.2717C35.0774 43.6324 35.2947 43.9478 35.6047 44.1487C35.9147 44.3495 36.2919 44.4192 36.6533 44.3425C37.0148 44.2658 37.331 44.049 37.5322 43.7397C37.7335 43.4304 37.8034 43.054 37.7265 42.6933C37.6497 42.3326 37.4324 42.0171 37.1224 41.8163C36.8124 41.6155 36.4352 41.5457 36.0737 41.6224ZM40.7655 37.741C40.5451 37.7735 40.3332 37.8492 40.1423 37.9638C39.9513 38.0785 39.7851 38.2297 39.653 38.4089C39.521 38.588 39.4259 38.7915 39.3732 39.0076C39.3204 39.2236 39.3111 39.4479 39.3458 39.6676C39.3805 39.8873 39.4584 40.0979 39.5751 40.2873C39.6919 40.4767 39.845 40.6412 40.0258 40.7712C40.2066 40.9012 40.4115 40.9941 40.6285 41.0447C40.8455 41.0952 41.0704 41.1023 41.2902 41.0656C41.7285 40.9924 42.1202 40.7494 42.38 40.3896C42.6398 40.0298 42.7468 39.5822 42.6777 39.1441C42.6085 38.7059 42.3689 38.3128 42.0108 38.05C41.6527 37.7873 41.2052 37.6762 40.7655 37.741ZM44.389 32.6585C43.8347 32.7166 43.3262 32.9922 42.9755 33.4244C42.6247 33.8567 42.4604 34.4103 42.5187 34.9634C42.577 35.5166 42.8531 36.0239 43.2863 36.3739C43.7195 36.7239 44.2743 36.8879 44.8286 36.8297C45.1033 36.8015 45.3697 36.7194 45.6126 36.5881C45.8554 36.4569 46.0699 36.2791 46.2438 36.0649C46.4176 35.8508 46.5473 35.6045 46.6255 35.3402C46.7038 35.0759 46.7289 34.7988 46.6996 34.5248C46.641 33.9716 46.3648 33.4643 45.9315 33.1143C45.4982 32.7643 44.9434 32.6004 44.389 32.6585ZM46.7427 27.0113C46.1295 27.0447 45.5547 27.3193 45.1441 27.775C44.7335 28.2307 44.5208 28.8303 44.5525 29.4422C44.5678 29.7458 44.6431 30.0433 44.774 30.3178C44.9049 30.5922 45.0889 30.8381 45.3153 31.0414C45.5418 31.2446 45.8062 31.4013 46.0935 31.5022C46.3808 31.6032 46.6852 31.6465 46.9894 31.6297C47.2934 31.6142 47.5913 31.5391 47.8661 31.4085C48.141 31.278 48.3873 31.0946 48.591 30.8689C48.7947 30.6432 48.9518 30.3796 49.0532 30.0933C49.1547 29.8069 49.1985 29.5034 49.1822 29.2001C49.1489 28.5873 48.8733 28.0127 48.416 27.6023C47.9587 27.192 47.3569 26.9794 46.7427 27.0113ZM25.0908 44.9796C24.8267 44.9863 24.5758 45.0957 24.3914 45.2844C24.207 45.4731 24.1038 45.7263 24.1038 45.9898C24.1038 46.2534 24.207 46.5065 24.3914 46.6952C24.5758 46.8839 24.8267 46.9933 25.0908 47C25.3593 47 25.6167 46.8936 25.8066 46.7041C25.9964 46.5147 26.1031 46.2577 26.1031 45.9898C26.1031 45.7219 25.9964 45.465 25.8066 45.2755C25.6167 45.0861 25.3593 44.9796 25.0908 44.9796ZM2.55304 26.0165C3.22171 26.0151 3.86251 25.749 4.33472 25.2765C4.80694 24.8041 5.07197 24.164 5.07162 23.4967C5.07214 23.1665 5.00735 22.8395 4.88097 22.5343C4.75459 22.2291 4.5691 21.9518 4.33514 21.7183C4.10117 21.4847 3.82332 21.2996 3.51752 21.1734C3.21171 21.0472 2.88396 20.9825 2.55304 20.9829C2.22156 20.9825 1.89326 21.0473 1.58691 21.1736C1.28056 21.2999 1.00218 21.4853 0.7677 21.7191C0.533221 21.9529 0.347246 22.2305 0.220416 22.5361C0.0935866 22.8417 0.0283925 23.1692 0.0285648 23.5C0.0299496 24.1674 0.296448 24.8071 0.769653 25.2788C1.24286 25.7505 1.88417 26.0158 2.55304 26.0165ZM14.1078 5.37562C14.4691 5.29901 14.7851 5.08232 14.9863 4.77321C15.1875 4.4641 15.2574 4.0879 15.1806 3.72736C15.1428 3.54891 15.07 3.37967 14.9665 3.22936C14.8629 3.07905 14.7306 2.95063 14.5772 2.85146C14.4238 2.7523 14.2523 2.68434 14.0725 2.6515C13.8927 2.61865 13.7082 2.62157 13.5295 2.66007C13.3508 2.69796 13.1813 2.7706 13.0308 2.87384C12.8802 2.97708 12.7515 3.1089 12.652 3.26177C12.5525 3.41465 12.4842 3.58558 12.4509 3.76481C12.4176 3.94405 12.42 4.12807 12.4579 4.30637C12.4959 4.48468 12.5687 4.65378 12.6722 4.80401C12.7756 4.95424 12.9077 5.08267 13.0609 5.18196C13.2141 5.28125 13.3854 5.34946 13.5651 5.38268C13.7447 5.41591 13.9291 5.41351 14.1078 5.37562ZM9.41732 9.259C9.85952 9.18886 10.2557 8.94645 10.519 8.58502C10.7822 8.22359 10.8909 7.77269 10.8212 7.33135C10.7866 7.11289 10.7091 6.90339 10.5932 6.71486C10.4773 6.52632 10.3253 6.36245 10.1459 6.23263C9.96642 6.1028 9.76308 6.00958 9.54747 5.95829C9.33187 5.90701 9.10824 5.89867 8.8894 5.93375C8.67074 5.96815 8.46103 6.04525 8.27228 6.16063C8.08352 6.27601 7.91943 6.42742 7.78939 6.60617C7.65935 6.78492 7.56593 6.98751 7.51446 7.20234C7.46299 7.41718 7.4545 7.64003 7.48946 7.85814C7.55898 8.29899 7.80114 8.69424 8.16267 8.95694C8.52421 9.21965 8.97551 9.3283 9.41732 9.259ZM5.79121 14.3402C6.33565 14.2699 6.83095 13.9899 7.17131 13.5601C7.51167 13.1302 7.67012 12.5847 7.61281 12.0398C7.55551 11.495 7.28699 10.9942 6.86461 10.6442C6.44223 10.2943 5.89947 10.123 5.35226 10.167C5.07742 10.1953 4.81089 10.2776 4.56798 10.409C4.32507 10.5404 4.11056 10.7184 3.93678 10.9327C3.76299 11.1471 3.63335 11.3936 3.5553 11.658C3.47725 11.9225 3.45233 12.1998 3.48197 12.4739C3.51062 12.7478 3.5931 13.0134 3.72469 13.2555C3.85629 13.4976 4.03442 13.7114 4.24889 13.8847C4.46336 14.0581 4.70997 14.1875 4.97462 14.2657C5.23926 14.3438 5.51675 14.3692 5.79121 14.3402ZM3.43748 19.9867C4.05148 19.9542 4.62741 19.6797 5.03871 19.2236C5.45001 18.7676 5.66302 18.1672 5.63094 17.5545C5.61547 17.2507 5.53999 16.9529 5.40884 16.6783C5.27768 16.4037 5.09344 16.1577 4.86669 15.9543C4.63994 15.751 4.37517 15.5944 4.08757 15.4935C3.79998 15.3926 3.49524 15.3494 3.19086 15.3664C2.88689 15.3821 2.58901 15.4574 2.31425 15.5881C2.03948 15.7188 1.79323 15.9022 1.58957 16.1279C1.38591 16.3536 1.22884 16.6172 1.12735 16.9036C1.02585 17.1899 0.981914 17.4934 0.998056 17.7967C1.03068 18.4098 1.30597 18.985 1.76341 19.3956C2.22085 19.8063 2.823 20.0189 3.43748 19.9867ZM12.4579 42.6917C12.4199 42.8701 12.4175 43.0543 12.4508 43.2336C12.4841 43.413 12.5525 43.5841 12.6521 43.7371C12.7516 43.89 12.8804 44.022 13.0311 44.1253C13.1817 44.2286 13.3513 44.3013 13.5301 44.3393C13.709 44.3772 13.8935 44.3796 14.0733 44.3464C14.253 44.3131 14.4244 44.2449 14.5778 44.1456C14.7311 44.0462 14.8633 43.9177 14.9669 43.7674C15.0704 43.617 15.1433 43.4478 15.1813 43.2694C15.2577 42.9089 15.1876 42.533 14.9865 42.2241C14.7853 41.9152 14.4695 41.6985 14.1084 41.6218C13.7475 41.5461 13.3711 41.6161 13.0618 41.8167C12.7525 42.0172 12.5353 42.3318 12.4579 42.6917ZM7.49011 39.1392C7.45479 39.3574 7.46302 39.5804 7.51433 39.7955C7.56565 40.0105 7.65903 40.2132 7.78912 40.3921C7.91921 40.571 8.08344 40.7225 8.27237 40.8378C8.46131 40.9532 8.67122 41.0301 8.89005 41.0643C9.21936 41.1166 9.55682 41.0703 9.85974 40.9312C10.1627 40.7921 10.4175 40.5665 10.5919 40.2829C10.7663 39.9993 10.8525 39.6705 10.8396 39.338C10.8268 39.0055 10.7153 38.6843 10.5195 38.415C10.3237 38.1457 10.0522 37.9404 9.73939 37.8251C9.42661 37.7097 9.08657 37.6896 8.7623 37.7671C8.43802 37.8446 8.14407 38.0164 7.91762 38.2606C7.69117 38.5049 7.5424 38.8106 7.49011 39.1392ZM3.48197 34.5261C3.45243 34.8 3.47741 35.077 3.55549 35.3413C3.63356 35.6055 3.76319 35.8518 3.93691 36.0659C4.11064 36.28 4.32505 36.4578 4.56783 36.589C4.81061 36.7202 5.07697 36.8022 5.35161 36.8304C5.62615 36.8597 5.9038 36.8346 6.16863 36.7567C6.43345 36.6787 6.68026 36.5494 6.89491 36.3761C7.10955 36.2027 7.28781 35.9889 7.41947 35.7467C7.55113 35.5045 7.6336 35.2388 7.66216 34.9647C7.69099 34.6907 7.66545 34.4137 7.58699 34.1495C7.50853 33.8854 7.3787 33.6392 7.20491 33.4251C7.03111 33.211 6.81676 33.0332 6.57408 32.9018C6.33141 32.7703 6.06517 32.6879 5.79056 32.6591C5.51607 32.6301 5.23853 32.6554 4.97385 32.7336C4.70917 32.8117 4.46255 32.9412 4.2481 33.1147C4.03365 33.2881 3.8556 33.502 3.72413 33.7442C3.59267 33.9864 3.51037 34.2521 3.48197 34.5261ZM0.998056 29.1994C0.981741 29.5027 1.02556 29.8062 1.127 30.0926C1.22844 30.379 1.38551 30.6426 1.58921 30.8683C1.79291 31.094 2.03923 31.2773 2.31407 31.4079C2.58891 31.5384 2.88686 31.6136 3.19086 31.629C3.49524 31.6463 3.80004 31.6033 4.08771 31.5025C4.37537 31.4018 4.64022 31.2452 4.86702 31.0419C5.09381 30.8386 5.27806 30.5925 5.40917 30.3179C5.54027 30.0432 5.61565 29.7454 5.63094 29.4416C5.66249 28.8291 5.44925 28.2292 5.03803 27.7735C4.6268 27.3177 4.05118 27.0434 3.43748 27.0106C2.82343 26.9793 2.22196 27.1921 1.76476 27.6023C1.30755 28.0125 1.03186 28.5868 0.998056 29.1994ZM30.6421 44.1754C30.3635 44.2502 30.1261 44.4322 29.9817 44.6815C29.8374 44.9307 29.798 45.2269 29.8721 45.5051C29.9472 45.7829 30.1298 46.0196 30.3796 46.1632C30.6295 46.3068 30.9262 46.3455 31.2047 46.2708C31.343 46.2345 31.4726 46.1712 31.5863 46.0847C31.7 45.9981 31.7955 45.8901 31.8672 45.7666C31.9389 45.6432 31.9855 45.5069 32.0043 45.3654C32.0231 45.224 32.0137 45.0802 31.9766 44.9424C31.9015 44.6642 31.7188 44.427 31.4685 44.2832C31.2183 44.1394 30.921 44.1006 30.6421 44.1754ZM19.5381 44.1754C19.262 44.108 18.9704 44.1512 18.7258 44.2957C18.4813 44.4402 18.3031 44.6745 18.2295 44.9485C18.156 45.2225 18.1929 45.5143 18.3323 45.7615C18.4717 46.0086 18.7026 46.1915 18.9755 46.2708C19.1145 46.3113 19.2602 46.3236 19.404 46.3071C19.5478 46.2906 19.6869 46.2456 19.8131 46.1747C19.9392 46.1038 20.05 46.0085 20.1387 45.8944C20.2275 45.7803 20.2925 45.6496 20.33 45.51C20.3674 45.3705 20.3766 45.2249 20.3569 45.0817C20.3372 44.9386 20.2891 44.8009 20.2153 44.6765C20.1416 44.5522 20.0437 44.4439 19.9274 44.3578C19.8111 44.2718 19.6787 44.2098 19.5381 44.1754ZM31.9773 2.0569C32.0141 1.91906 32.0234 1.77531 32.0044 1.6339C31.9855 1.49249 31.9389 1.35619 31.8671 1.2328C31.7954 1.10941 31.6999 1.00136 31.5862 0.914822C31.4726 0.828287 31.3429 0.764971 31.2047 0.7285C30.9309 0.667801 30.6442 0.714955 30.4044 0.860123C30.1647 1.00529 29.9903 1.23725 29.9178 1.5076C29.8453 1.77795 29.8803 2.06579 30.0153 2.31106C30.1504 2.55632 30.3752 2.74006 30.6428 2.82392C30.7809 2.86114 30.925 2.87082 31.0668 2.85241C31.2087 2.83399 31.3455 2.78784 31.4694 2.7166C31.5934 2.64535 31.7021 2.55042 31.7892 2.43722C31.8763 2.32402 31.9403 2.19478 31.9773 2.0569ZM20.31 1.49356C20.2729 1.35576 20.209 1.22663 20.1218 1.11356C20.0346 1.00048 19.9259 0.905691 19.8019 0.834617C19.6779 0.763544 19.5411 0.717585 19.3993 0.699375C19.2575 0.681166 19.1135 0.691063 18.9755 0.7285C18.8376 0.765034 18.7083 0.828344 18.5949 0.914809C18.4816 1.00127 18.3864 1.1092 18.3149 1.2324C18.2434 1.3556 18.1969 1.49167 18.1781 1.63281C18.1594 1.77395 18.1687 1.9174 18.2055 2.05494C18.2425 2.19283 18.3063 2.32211 18.3933 2.43539C18.4803 2.54868 18.5888 2.64375 18.7126 2.71519C18.8365 2.78662 18.9732 2.83302 19.115 2.85173C19.2568 2.87045 19.4009 2.8611 19.5391 2.82424C19.6773 2.78738 19.8068 2.72372 19.9203 2.6369C20.0339 2.55008 20.1292 2.44179 20.2007 2.31823C20.2723 2.19466 20.3188 2.05823 20.3376 1.91674C20.3563 1.77524 20.347 1.63144 20.31 1.49356Z" fill="url(#paint4_linear_2_1697)"/>
</g>
<defs>
<linearGradient id="paint0_linear_2_1697" x1="31.3858" y1="19.9022" x2="17.703" y2="27.3092" gradientUnits="userSpaceOnUse">
<stop stop-color="#FF9100"/>
<stop offset="0.05" stop-color="#FF8D00"/>
<stop offset="0.25" stop-color="#FF8300"/>
<stop offset="0.5" stop-color="#FF8000"/>
<stop offset="0.75" stop-color="#FF8300"/>
<stop offset="0.95" stop-color="#FF8D00"/>
<stop offset="1" stop-color="#FF9100"/>
</linearGradient>
<linearGradient id="paint1_linear_2_1697" x1="35.1462" y1="26.4455" x2="15.0413" y2="20.5282" gradientUnits="userSpaceOnUse">
<stop stop-color="#FF9100"/>
<stop offset="0.05" stop-color="#FF8D00"/>
<stop offset="0.25" stop-color="#FF8300"/>
<stop offset="0.5" stop-color="#FF8000"/>
<stop offset="0.75" stop-color="#FF8300"/>
<stop offset="0.95" stop-color="#FF8D00"/>
<stop offset="1" stop-color="#FF9100"/>
</linearGradient>
<linearGradient id="paint2_linear_2_1697" x1="34.9543" y1="33.3354" x2="15.2796" y2="13.6184" gradientUnits="userSpaceOnUse">
<stop stop-color="#FF9100"/>
<stop offset="0.05" stop-color="#FF8D00"/>
<stop offset="0.25" stop-color="#FF8300"/>
<stop offset="0.5" stop-color="#FF8000"/>
<stop offset="0.75" stop-color="#FF8300"/>
<stop offset="0.95" stop-color="#FF8D00"/>
<stop offset="1" stop-color="#FF9100"/>
</linearGradient>
<linearGradient id="paint3_linear_2_1697" x1="32.3731" y1="40.3502" x2="17.8594" y2="6.63105" gradientUnits="userSpaceOnUse">
<stop stop-color="#FF9100"/>
<stop offset="0.05" stop-color="#FF8D00"/>
<stop offset="0.25" stop-color="#FF8300"/>
<stop offset="0.5" stop-color="#FF8000"/>
<stop offset="0.75" stop-color="#FF8300"/>
<stop offset="0.95" stop-color="#FF8D00"/>
<stop offset="1" stop-color="#FF9100"/>
</linearGradient>
<linearGradient id="paint4_linear_2_1697" x1="25.0901" y1="47" x2="25.0901" y2="0" gradientUnits="userSpaceOnUse">
<stop stop-color="#FF9100"/>
<stop offset="0.05" stop-color="#FF8D00"/>
<stop offset="0.25" stop-color="#FF8300"/>
<stop offset="0.5" stop-color="#FF8000"/>
<stop offset="0.75" stop-color="#FF8300"/>
<stop offset="0.95" stop-color="#FF8D00"/>
<stop offset="1" stop-color="#FF9100"/>
</linearGradient>
<clipPath id="clip0_2_1697">
<rect width="164" height="47" fill="white"/>
</clipPath>
</defs>
</svg>
