<svg width="32" height="32" viewBox="0 0 32 32" fill="none" xmlns="http://www.w3.org/2000/svg">
<path d="M5.33332 19.9998H7.99999V26.6665H24V5.33317H7.99999V11.9998H5.33332V3.99984C5.33332 3.64622 5.4738 3.30708 5.72385 3.05703C5.9739 2.80698 6.31303 2.6665 6.66666 2.6665H25.3333C25.6869 2.6665 26.0261 2.80698 26.2761 3.05703C26.5262 3.30708 26.6667 3.64622 26.6667 3.99984V27.9998C26.6667 28.3535 26.5262 28.6926 26.2761 28.9426C26.0261 29.1927 25.6869 29.3332 25.3333 29.3332H6.66666C6.31303 29.3332 5.9739 29.1927 5.72385 28.9426C5.4738 28.6926 5.33332 28.3535 5.33332 27.9998V19.9998ZM13.3333 14.6665V10.6665L20 15.9998L13.3333 21.3332V17.3332H2.66666V14.6665H13.3333Z" fill="#BA963A"/>
</svg>
