<svg width="49" height="48" viewBox="0 0 49 48" fill="none" xmlns="http://www.w3.org/2000/svg">
<path d="M22.4716 4L37.0676 8.56C37.4747 8.68709 37.8305 8.94096 38.0831 9.28458C38.3356 9.62819 38.4718 10.0435 38.4716 10.47V14H42.4716C43.002 14 43.5107 14.2107 43.8858 14.5858C44.2609 14.9609 44.4716 15.4696 44.4716 16V20H18.4716V16C18.4716 15.4696 18.6823 14.9609 19.0574 14.5858C19.4324 14.2107 19.9412 14 20.4716 14H34.4716V11.94L22.4716 8.188L10.4716 11.94V26.748C10.4713 27.9725 10.7521 29.1806 11.2923 30.2795C11.8325 31.3783 12.6178 32.3385 13.5876 33.086L13.9656 33.358L22.4716 39.16L30.0356 34H20.4716C19.9412 34 19.4324 33.7893 19.0574 33.4142C18.6823 33.0391 18.4716 32.5304 18.4716 32V24H44.4716V32C44.4716 32.5304 44.2609 33.0391 43.8858 33.4142C43.5107 33.7893 43.002 34 42.4716 34L36.0316 34.002C35.2576 35.022 34.3176 35.922 33.2316 36.662L22.4716 44L11.7116 36.664C10.0966 35.5629 8.77509 34.084 7.86187 32.3558C6.94864 30.6277 6.47139 28.7026 6.47159 26.748V10.47C6.47183 10.0439 6.60816 9.62898 6.86071 9.28577C7.11326 8.94256 7.46883 8.68898 7.87559 8.562L22.4716 4Z" fill="#C59A2B"/>
</svg>
