<svg width="333" height="36" viewBox="0 0 333 36" fill="none" xmlns="http://www.w3.org/2000/svg">
<path d="M0.275568 28V1.81818H10.6051C12.5824 1.81818 14.2699 2.17187 15.6676 2.87926C17.0739 3.57812 18.1435 4.57102 18.8764 5.85795C19.6179 7.13636 19.9886 8.64062 19.9886 10.3707C19.9886 12.1094 19.6136 13.6051 18.8636 14.858C18.1136 16.1023 17.027 17.0568 15.6037 17.7216C14.1889 18.3864 12.4759 18.7188 10.4645 18.7188H3.5483V14.2699H9.5696C10.6264 14.2699 11.5043 14.125 12.2031 13.8352C12.902 13.5455 13.4219 13.1108 13.7628 12.5312C14.1122 11.9517 14.2869 11.2315 14.2869 10.3707C14.2869 9.50142 14.1122 8.76847 13.7628 8.17188C13.4219 7.57528 12.8977 7.12358 12.1903 6.81676C11.4915 6.50142 10.6094 6.34375 9.54403 6.34375H5.81108V28H0.275568ZM14.4148 16.0852L20.9219 28H14.8111L8.4446 16.0852H14.4148ZM31.5308 28.3835C29.5109 28.3835 27.7722 27.9744 26.3148 27.1562C24.866 26.3295 23.7495 25.1619 22.9654 23.6534C22.1813 22.1364 21.7893 20.3423 21.7893 18.2713C21.7893 16.2514 22.1813 14.4787 22.9654 12.9531C23.7495 11.4276 24.8532 10.2386 26.2765 9.38636C27.7083 8.53409 29.3873 8.10795 31.3134 8.10795C32.6089 8.10795 33.8148 8.31676 34.9313 8.73438C36.0563 9.14347 37.0364 9.76136 37.8717 10.5881C38.7154 11.4148 39.3717 12.4545 39.8404 13.7074C40.3092 14.9517 40.5435 16.4091 40.5435 18.0795V19.5753H23.9626V16.2003H35.4171C35.4171 15.4162 35.2467 14.7216 34.9058 14.1165C34.5648 13.5114 34.0918 13.0384 33.4867 12.6974C32.8901 12.348 32.1955 12.1733 31.4029 12.1733C30.5762 12.1733 29.8433 12.3651 29.204 12.7486C28.5734 13.1236 28.079 13.6307 27.7211 14.2699C27.3631 14.9006 27.1799 15.6037 27.1714 16.3793V19.5881C27.1714 20.5597 27.3504 21.3991 27.7083 22.1065C28.0748 22.8139 28.5904 23.3594 29.2552 23.7429C29.92 24.1264 30.7083 24.3182 31.6202 24.3182C32.2254 24.3182 32.7793 24.233 33.2822 24.0625C33.785 23.892 34.2154 23.6364 34.5734 23.2955C34.9313 22.9545 35.204 22.5369 35.3915 22.0426L40.4285 22.375C40.1728 23.5852 39.6487 24.642 38.856 25.5455C38.0719 26.4403 37.0577 27.1392 35.8134 27.642C34.5776 28.1364 33.1501 28.3835 31.5308 28.3835ZM52.0441 35.7727C50.2799 35.7727 48.7671 35.5298 47.5058 35.044C46.2529 34.5668 45.2558 33.9148 44.5143 33.0881C43.7728 32.2614 43.2913 31.3324 43.0697 30.3011L48.1066 29.6236C48.26 30.0156 48.5029 30.3821 48.8353 30.723C49.1677 31.0639 49.6066 31.3366 50.1521 31.5412C50.706 31.7543 51.3793 31.8608 52.1719 31.8608C53.3566 31.8608 54.3325 31.571 55.0995 30.9915C55.8751 30.4205 56.2629 29.4616 56.2629 28.1151V24.5227H56.0327C55.7941 25.0682 55.4362 25.5838 54.9589 26.0696C54.4816 26.5554 53.868 26.9517 53.118 27.2585C52.368 27.5653 51.4731 27.7188 50.4333 27.7188C48.9589 27.7188 47.6165 27.3778 46.4063 26.696C45.2046 26.0057 44.2458 24.9531 43.5299 23.5384C42.8225 22.1151 42.4688 20.3168 42.4688 18.1435C42.4688 15.919 42.831 14.0611 43.5555 12.5696C44.2799 11.0781 45.243 9.96165 46.4447 9.22017C47.6549 8.47869 48.9802 8.10795 50.4205 8.10795C51.52 8.10795 52.4404 8.29545 53.1819 8.67045C53.9234 9.03693 54.52 9.49716 54.9717 10.0511C55.4319 10.5966 55.7856 11.1335 56.0327 11.6619H56.2373V8.36364H61.645V28.1918C61.645 29.8622 61.2359 31.2599 60.4177 32.3849C59.5995 33.5099 58.466 34.3537 57.0171 34.9162C55.5768 35.4872 53.9191 35.7727 52.0441 35.7727ZM52.1592 23.6278C53.037 23.6278 53.7785 23.4105 54.3836 22.9759C54.9972 22.5327 55.466 21.902 55.7898 21.0838C56.1222 20.2571 56.2884 19.2685 56.2884 18.1179C56.2884 16.9673 56.1265 15.9702 55.8026 15.1264C55.4788 14.2741 55.01 13.6136 54.3964 13.1449C53.7827 12.6761 53.037 12.4418 52.1592 12.4418C51.2643 12.4418 50.51 12.6847 49.8964 13.1705C49.2827 13.6477 48.8183 14.3125 48.5029 15.1648C48.1876 16.017 48.0299 17.0014 48.0299 18.1179C48.0299 19.2514 48.1876 20.2315 48.5029 21.0582C48.8268 21.8764 49.2913 22.5114 49.8964 22.9631C50.51 23.4062 51.2643 23.6278 52.1592 23.6278ZM77.6711 19.6392V8.36364H83.1171V28H77.8884V24.4332H77.6839C77.2407 25.5838 76.5035 26.5085 75.4722 27.2074C74.4495 27.9062 73.2009 28.2557 71.7265 28.2557C70.414 28.2557 69.2592 27.9574 68.262 27.3608C67.2648 26.7642 66.485 25.9162 65.9225 24.8168C65.3685 23.7173 65.0873 22.4006 65.0788 20.8665V8.36364H70.5248V19.8949C70.5333 21.054 70.8444 21.9702 71.458 22.6435C72.0717 23.3168 72.8941 23.6534 73.9254 23.6534C74.5816 23.6534 75.1952 23.5043 75.7663 23.206C76.3373 22.8991 76.7975 22.4474 77.1469 21.8509C77.5049 21.2543 77.6796 20.517 77.6711 19.6392ZM92.0193 1.81818V28H86.5733V1.81818H92.0193ZM101.081 28.3707C99.8285 28.3707 98.712 28.1534 97.7319 27.7188C96.7518 27.2756 95.9762 26.6236 95.4052 25.7628C94.8427 24.8935 94.5614 23.8111 94.5614 22.5156C94.5614 21.4247 94.7617 20.5085 95.1623 19.767C95.5629 19.0256 96.1083 18.429 96.7987 17.9773C97.489 17.5256 98.2731 17.1847 99.1509 16.9545C100.037 16.7244 100.966 16.5625 101.938 16.4688C103.08 16.3494 104 16.2386 104.699 16.1364C105.398 16.0256 105.905 15.8636 106.221 15.6506C106.536 15.4375 106.694 15.1222 106.694 14.7045V14.6278C106.694 13.8182 106.438 13.1918 105.926 12.7486C105.424 12.3054 104.708 12.0838 103.779 12.0838C102.799 12.0838 102.019 12.3011 101.439 12.7358C100.86 13.1619 100.476 13.6989 100.289 14.3466L95.2518 13.9375C95.5075 12.7443 96.0103 11.7131 96.7603 10.8438C97.5103 9.96591 98.4776 9.29261 99.6623 8.82386C100.855 8.34659 102.236 8.10795 103.804 8.10795C104.895 8.10795 105.939 8.2358 106.936 8.49148C107.942 8.74716 108.833 9.14347 109.608 9.6804C110.392 10.2173 111.01 10.9077 111.462 11.7514C111.914 12.5866 112.14 13.5881 112.14 14.7557V28H106.975V25.277H106.821C106.506 25.8906 106.084 26.4318 105.556 26.9006C105.027 27.3608 104.392 27.723 103.651 27.9872C102.909 28.2429 102.053 28.3707 101.081 28.3707ZM102.641 24.6122C103.442 24.6122 104.15 24.4545 104.763 24.1392C105.377 23.8153 105.858 23.3807 106.208 22.8352C106.557 22.2898 106.732 21.6719 106.732 20.9815V18.8977C106.561 19.0085 106.327 19.1108 106.029 19.2045C105.739 19.2898 105.411 19.3707 105.044 19.4474C104.678 19.5156 104.311 19.5795 103.945 19.6392C103.578 19.6903 103.246 19.7372 102.948 19.7798C102.309 19.8736 101.75 20.0227 101.273 20.2273C100.796 20.4318 100.425 20.7088 100.161 21.0582C99.8967 21.3991 99.7646 21.8253 99.7646 22.3366C99.7646 23.0781 100.033 23.6449 100.57 24.0369C101.115 24.4205 101.806 24.6122 102.641 24.6122ZM125.909 8.36364V12.4545H114.084V8.36364H125.909ZM116.769 3.65909H122.215V21.9659C122.215 22.4687 122.291 22.8608 122.445 23.142C122.598 23.4148 122.811 23.6065 123.084 23.7173C123.365 23.8281 123.689 23.8835 124.056 23.8835C124.311 23.8835 124.567 23.8622 124.823 23.8196C125.078 23.7685 125.274 23.7301 125.411 23.7045L126.267 27.7571C125.995 27.8423 125.611 27.9403 125.117 28.0511C124.622 28.1705 124.022 28.2429 123.314 28.2685C122.002 28.3196 120.851 28.1449 119.862 27.7443C118.882 27.3437 118.12 26.7216 117.574 25.8778C117.029 25.0341 116.76 23.9687 116.769 22.6818V3.65909ZM128.557 28V8.36364H134.003V28H128.557ZM131.293 5.83239C130.483 5.83239 129.788 5.56392 129.209 5.02699C128.638 4.48153 128.352 3.82954 128.352 3.07102C128.352 2.32102 128.638 1.67756 129.209 1.14062C129.788 0.59517 130.483 0.322442 131.293 0.322442C132.102 0.322442 132.793 0.59517 133.364 1.14062C133.943 1.67756 134.233 2.32102 134.233 3.07102C134.233 3.82954 133.943 4.48153 133.364 5.02699C132.793 5.56392 132.102 5.83239 131.293 5.83239ZM146.338 28.3835C144.352 28.3835 142.635 27.9616 141.186 27.1179C139.745 26.2656 138.633 25.081 137.849 23.5639C137.065 22.0384 136.673 20.2699 136.673 18.2585C136.673 16.2301 137.065 14.4574 137.849 12.9403C138.633 11.4148 139.745 10.2301 141.186 9.38636C142.635 8.53409 144.352 8.10795 146.338 8.10795C148.323 8.10795 150.037 8.53409 151.477 9.38636C152.926 10.2301 154.042 11.4148 154.826 12.9403C155.61 14.4574 156.002 16.2301 156.002 18.2585C156.002 20.2699 155.61 22.0384 154.826 23.5639C154.042 25.081 152.926 26.2656 151.477 27.1179C150.037 27.9616 148.323 28.3835 146.338 28.3835ZM146.363 24.1648C147.267 24.1648 148.021 23.9091 148.626 23.3977C149.231 22.8778 149.687 22.1705 149.994 21.2756C150.309 20.3807 150.467 19.3622 150.467 18.2202C150.467 17.0781 150.309 16.0597 149.994 15.1648C149.687 14.2699 149.231 13.5625 148.626 13.0426C148.021 12.5227 147.267 12.2628 146.363 12.2628C145.451 12.2628 144.684 12.5227 144.062 13.0426C143.448 13.5625 142.984 14.2699 142.669 15.1648C142.362 16.0597 142.208 17.0781 142.208 18.2202C142.208 19.3622 142.362 20.3807 142.669 21.2756C142.984 22.1705 143.448 22.8778 144.062 23.3977C144.684 23.9091 145.451 24.1648 146.363 24.1648ZM164.09 16.6477V28H158.644V8.36364H163.834V11.8281H164.064C164.499 10.6861 165.227 9.78267 166.25 9.1179C167.273 8.4446 168.513 8.10795 169.97 8.10795C171.334 8.10795 172.523 8.40625 173.537 9.00284C174.551 9.59943 175.34 10.4517 175.902 11.5597C176.465 12.6591 176.746 13.9716 176.746 15.4972V28H171.3V16.4688C171.308 15.267 171.002 14.3295 170.379 13.6562C169.757 12.9744 168.901 12.6335 167.81 12.6335C167.077 12.6335 166.429 12.7912 165.867 13.1065C165.313 13.4219 164.878 13.8821 164.563 14.4872C164.256 15.0838 164.098 15.804 164.09 16.6477ZM196.476 13.9631L191.49 14.2699C191.405 13.8437 191.222 13.4602 190.941 13.1193C190.659 12.7699 190.289 12.4929 189.828 12.2884C189.377 12.0753 188.836 11.9688 188.205 11.9688C187.361 11.9688 186.65 12.1477 186.07 12.5057C185.49 12.8551 185.201 13.3239 185.201 13.9119C185.201 14.3807 185.388 14.777 185.763 15.1009C186.138 15.4247 186.782 15.6847 187.694 15.8807L191.248 16.5966C193.157 16.9886 194.58 17.6193 195.517 18.4886C196.455 19.358 196.924 20.5 196.924 21.9148C196.924 23.2017 196.544 24.331 195.786 25.3026C195.036 26.2741 194.005 27.0327 192.692 27.5781C191.388 28.1151 189.884 28.3835 188.179 28.3835C185.58 28.3835 183.509 27.8423 181.966 26.7599C180.432 25.669 179.533 24.1861 179.269 22.3111L184.625 22.0298C184.787 22.8224 185.179 23.4276 185.801 23.8452C186.424 24.2543 187.221 24.4588 188.192 24.4588C189.147 24.4588 189.914 24.2756 190.493 23.9091C191.081 23.5341 191.38 23.0526 191.388 22.4645C191.38 21.9702 191.171 21.5653 190.762 21.25C190.353 20.9261 189.722 20.679 188.87 20.5085L185.469 19.831C183.551 19.4474 182.124 18.7827 181.186 17.8366C180.257 16.8906 179.793 15.6847 179.793 14.2188C179.793 12.9574 180.134 11.8707 180.816 10.9588C181.506 10.0469 182.473 9.34375 183.718 8.84943C184.971 8.35511 186.436 8.10795 188.115 8.10795C190.596 8.10795 192.547 8.6321 193.971 9.6804C195.402 10.7287 196.238 12.1562 196.476 13.9631ZM214.913 28.3835C213.107 28.3835 211.547 28.0597 210.234 27.4119C208.922 26.7642 207.912 25.8864 207.205 24.7784C206.506 23.6619 206.156 22.4176 206.156 21.0455C206.156 20.0227 206.361 19.1151 206.77 18.3224C207.179 17.5298 207.75 16.8011 208.483 16.1364C209.216 15.4631 210.068 14.794 211.04 14.1293L216.115 10.7926C216.771 10.375 217.253 9.93608 217.56 9.47585C217.867 9.0071 218.02 8.5 218.02 7.95455C218.02 7.43466 217.811 6.95312 217.394 6.50994C216.976 6.06676 216.384 5.84943 215.617 5.85795C215.105 5.85795 214.662 5.97301 214.287 6.20312C213.912 6.42472 213.618 6.71875 213.405 7.08523C213.2 7.44318 213.098 7.84375 213.098 8.28693C213.098 8.83239 213.251 9.38636 213.558 9.94886C213.865 10.5114 214.274 11.108 214.786 11.7386C215.297 12.3608 215.855 13.0341 216.46 13.7585L228.874 28H223.198L212.842 16.4688C212.161 15.6932 211.479 14.8835 210.797 14.0398C210.124 13.1875 209.561 12.2841 209.109 11.3295C208.658 10.3665 208.432 9.32244 208.432 8.19744C208.432 6.92756 208.726 5.78551 209.314 4.77131C209.911 3.7571 210.746 2.95597 211.82 2.3679C212.894 1.77131 214.146 1.47301 215.578 1.47301C216.976 1.47301 218.182 1.75852 219.196 2.32955C220.219 2.89205 221.003 3.64205 221.548 4.57955C222.102 5.50852 222.379 6.53125 222.379 7.64773C222.379 8.88352 222.073 10.0043 221.459 11.0099C220.854 12.0071 220.001 12.902 218.902 13.6946L213.558 17.5426C212.834 18.071 212.297 18.6122 211.948 19.1662C211.607 19.7116 211.436 20.2358 211.436 20.7386C211.436 21.3608 211.59 21.919 211.896 22.4134C212.203 22.9077 212.638 23.2997 213.2 23.5895C213.763 23.8707 214.423 24.0114 215.182 24.0114C216.102 24.0114 217.01 23.8026 217.905 23.3849C218.808 22.9588 219.626 22.358 220.359 21.5824C221.101 20.7983 221.693 19.8693 222.136 18.7955C222.58 17.7216 222.801 16.5327 222.801 15.2287H227.314C227.314 16.831 227.139 18.2756 226.79 19.5625C226.44 20.8409 225.955 21.9574 225.332 22.9119C224.71 23.858 223.999 24.6335 223.198 25.2386C222.942 25.4006 222.695 25.554 222.456 25.6989C222.217 25.8438 221.97 25.9972 221.715 26.1591C220.743 26.9432 219.656 27.5099 218.455 27.8594C217.261 28.2088 216.081 28.3835 214.913 28.3835ZM248.235 8.36364V12.4545H236.115V8.36364H248.235ZM238.889 28V6.9446C238.889 5.52131 239.166 4.34091 239.72 3.40341C240.283 2.46591 241.05 1.76278 242.021 1.29403C242.993 0.825282 244.097 0.590907 245.333 0.590907C246.168 0.590907 246.931 0.654828 247.621 0.78267C248.32 0.910511 248.84 1.02557 249.181 1.12784L248.209 5.21875C247.996 5.15057 247.732 5.08665 247.416 5.02699C247.11 4.96733 246.794 4.9375 246.47 4.9375C245.669 4.9375 245.111 5.125 244.796 5.5C244.48 5.86648 244.323 6.3821 244.323 7.04688V28H238.889ZM263.254 19.6392V8.36364H268.7V28H263.471V24.4332H263.267C262.824 25.5838 262.086 26.5085 261.055 27.2074C260.032 27.9062 258.784 28.2557 257.309 28.2557C255.997 28.2557 254.842 27.9574 253.845 27.3608C252.848 26.7642 252.068 25.9162 251.505 24.8168C250.951 23.7173 250.67 22.4006 250.662 20.8665V8.36364H256.108V19.8949C256.116 21.054 256.427 21.9702 257.041 22.6435C257.654 23.3168 258.477 23.6534 259.508 23.6534C260.164 23.6534 260.778 23.5043 261.349 23.206C261.92 22.8991 262.38 22.4474 262.73 21.8509C263.088 21.2543 263.262 20.517 263.254 19.6392ZM277.602 16.6477V28H272.156V8.36364H277.346V11.8281H277.577C278.011 10.6861 278.74 9.78267 279.763 9.1179C280.785 8.4446 282.025 8.10795 283.483 8.10795C284.846 8.10795 286.035 8.40625 287.05 9.00284C288.064 9.59943 288.852 10.4517 289.415 11.5597C289.977 12.6591 290.258 13.9716 290.258 15.4972V28H284.812V16.4688C284.821 15.267 284.514 14.3295 283.892 13.6562C283.27 12.9744 282.413 12.6335 281.322 12.6335C280.589 12.6335 279.942 12.7912 279.379 13.1065C278.825 13.4219 278.39 13.8821 278.075 14.4872C277.768 15.0838 277.611 15.804 277.602 16.6477ZM300.886 28.3196C299.395 28.3196 298.044 27.9361 296.834 27.169C295.632 26.3935 294.678 25.2557 293.97 23.7557C293.271 22.2472 292.922 20.3977 292.922 18.2074C292.922 15.9574 293.284 14.0866 294.009 12.5952C294.733 11.0952 295.696 9.97443 296.898 9.23295C298.108 8.48295 299.433 8.10795 300.874 8.10795C301.973 8.10795 302.889 8.29545 303.622 8.67045C304.364 9.03693 304.96 9.49716 305.412 10.0511C305.872 10.5966 306.222 11.1335 306.46 11.6619H306.627V1.81818H312.06V28H306.69V24.8551H306.46C306.205 25.4006 305.842 25.9418 305.374 26.4787C304.913 27.0071 304.313 27.446 303.571 27.7955C302.838 28.1449 301.943 28.3196 300.886 28.3196ZM302.612 23.9858C303.49 23.9858 304.232 23.7472 304.837 23.2699C305.45 22.7841 305.919 22.1065 306.243 21.2372C306.575 20.3679 306.742 19.3494 306.742 18.1818C306.742 17.0142 306.58 16 306.256 15.1392C305.932 14.2784 305.463 13.6136 304.85 13.1449C304.236 12.6761 303.49 12.4418 302.612 12.4418C301.717 12.4418 300.963 12.6847 300.35 13.1705C299.736 13.6562 299.271 14.3295 298.956 15.1903C298.641 16.0511 298.483 17.0483 298.483 18.1818C298.483 19.3239 298.641 20.3338 298.956 21.2116C299.28 22.081 299.744 22.7628 300.35 23.2571C300.963 23.7429 301.717 23.9858 302.612 23.9858ZM331.975 13.9631L326.99 14.2699C326.904 13.8437 326.721 13.4602 326.44 13.1193C326.159 12.7699 325.788 12.4929 325.328 12.2884C324.876 12.0753 324.335 11.9688 323.704 11.9688C322.86 11.9688 322.149 12.1477 321.569 12.5057C320.99 12.8551 320.7 13.3239 320.7 13.9119C320.7 14.3807 320.887 14.777 321.262 15.1009C321.637 15.4247 322.281 15.6847 323.193 15.8807L326.747 16.5966C328.656 16.9886 330.079 17.6193 331.017 18.4886C331.954 19.358 332.423 20.5 332.423 21.9148C332.423 23.2017 332.044 24.331 331.285 25.3026C330.535 26.2741 329.504 27.0327 328.191 27.5781C326.887 28.1151 325.383 28.3835 323.679 28.3835C321.079 28.3835 319.008 27.8423 317.465 26.7599C315.931 25.669 315.032 24.1861 314.768 22.3111L320.125 22.0298C320.286 22.8224 320.679 23.4276 321.301 23.8452C321.923 24.2543 322.72 24.4588 323.691 24.4588C324.646 24.4588 325.413 24.2756 325.992 23.9091C326.581 23.5341 326.879 23.0526 326.887 22.4645C326.879 21.9702 326.67 21.5653 326.261 21.25C325.852 20.9261 325.221 20.679 324.369 20.5085L320.968 19.831C319.051 19.4474 317.623 18.7827 316.686 17.8366C315.757 16.8906 315.292 15.6847 315.292 14.2188C315.292 12.9574 315.633 11.8707 316.315 10.9588C317.005 10.0469 317.973 9.34375 319.217 8.84943C320.47 8.35511 321.936 8.10795 323.615 8.10795C326.095 8.10795 328.046 8.6321 329.47 9.6804C330.902 10.7287 331.737 12.1562 331.975 13.9631Z" fill="url(#paint0_linear_2_1028)"/>
<defs>
<linearGradient id="paint0_linear_2_1028" x1="179.379" y1="10.4999" x2="221.213" y2="12.6729" gradientUnits="userSpaceOnUse">
<stop stop-color="#BA963A"/>
<stop offset="1" stop-color="#CC9C21"/>
</linearGradient>
</defs>
</svg>
