<svg width="287" height="36" viewBox="0 0 287 36" fill="none" xmlns="http://www.w3.org/2000/svg">
<path d="M0.0340909 0.0909081H9.13636L18.75 23.5455H19.1591L28.7727 0.0909081H37.875V35H30.7159V12.2784H30.4261L21.392 34.8295H16.517L7.48295 12.1932H7.19318V35H0.0340909V0.0909081ZM54.5514 35.5114C51.8582 35.5114 49.5401 34.9659 47.5969 33.875C45.6651 32.7727 44.1764 31.2159 43.131 29.2045C42.0855 27.1818 41.5628 24.7898 41.5628 22.0284C41.5628 19.3352 42.0855 16.9716 43.131 14.9375C44.1764 12.9034 45.648 11.3182 47.5457 10.1818C49.4548 9.04545 51.6935 8.47727 54.2616 8.47727C55.9889 8.47727 57.5969 8.75568 59.0855 9.3125C60.5855 9.85795 61.8923 10.6818 63.006 11.7841C64.131 12.8864 65.006 14.2727 65.631 15.9432C66.256 17.6023 66.5685 19.5455 66.5685 21.7727V23.767H44.4605V19.267H59.7332C59.7332 18.2216 59.506 17.2955 59.0514 16.4886C58.5969 15.6818 57.9662 15.0511 57.1594 14.5966C56.3639 14.1307 55.4378 13.8977 54.381 13.8977C53.2787 13.8977 52.3014 14.1534 51.4491 14.6648C50.6082 15.1648 49.9491 15.8409 49.4719 16.6932C48.9946 17.5341 48.7503 18.4716 48.7389 19.5057V23.7841C48.7389 25.0795 48.9776 26.1989 49.4548 27.142C49.9435 28.0852 50.631 28.8125 51.5173 29.3239C52.4037 29.8352 53.4548 30.0909 54.6707 30.0909C55.4776 30.0909 56.2162 29.9773 56.8866 29.75C57.5571 29.5227 58.131 29.1818 58.6082 28.7273C59.0855 28.2727 59.4491 27.7159 59.6991 27.0568L66.4151 27.5C66.0741 29.1136 65.3753 30.5227 64.3185 31.7273C63.273 32.9205 61.9207 33.8523 60.2616 34.5227C58.6139 35.1818 56.7105 35.5114 54.5514 35.5114ZM84.0332 8.81818V14.2727H68.2662V8.81818H84.0332ZM71.8457 2.54545H79.1071V26.9545C79.1071 27.625 79.2094 28.1477 79.4139 28.5227C79.6185 28.8864 79.9026 29.142 80.2662 29.2898C80.6412 29.4375 81.073 29.5114 81.5616 29.5114C81.9026 29.5114 82.2435 29.483 82.5844 29.4261C82.9253 29.358 83.1866 29.3068 83.3685 29.2727L84.5105 34.6761C84.1469 34.7898 83.6355 34.9205 82.9764 35.0682C82.3173 35.2273 81.5162 35.3239 80.573 35.358C78.823 35.4261 77.2889 35.1932 75.9707 34.6591C74.6639 34.125 73.6469 33.2955 72.9196 32.1705C72.1923 31.0455 71.8344 29.625 71.8457 27.9091V2.54545ZM95.0293 35.4943C93.3588 35.4943 91.8702 35.2045 90.5634 34.625C89.2565 34.0341 88.2224 33.1648 87.4611 32.017C86.7111 30.858 86.3361 29.4148 86.3361 27.6875C86.3361 26.233 86.6031 25.0114 87.1372 24.0227C87.6713 23.0341 88.3986 22.2386 89.319 21.6364C90.2395 21.0341 91.2849 20.5795 92.4554 20.2727C93.6372 19.9659 94.8759 19.75 96.1713 19.625C97.694 19.4659 98.9213 19.3182 99.8531 19.1818C100.785 19.0341 101.461 18.8182 101.882 18.5341C102.302 18.25 102.512 17.8295 102.512 17.2727V17.1705C102.512 16.0909 102.171 15.2557 101.489 14.6648C100.819 14.0739 99.8645 13.7784 98.6259 13.7784C97.319 13.7784 96.2793 14.0682 95.5065 14.6477C94.7338 15.2159 94.2224 15.9318 93.9724 16.7955L87.2565 16.25C87.5974 14.6591 88.2679 13.2841 89.2679 12.125C90.2679 10.9545 91.5577 10.0568 93.1372 9.43182C94.7281 8.79545 96.569 8.47727 98.6599 8.47727C100.114 8.47727 101.507 8.64773 102.836 8.98864C104.177 9.32955 105.364 9.85795 106.399 10.5739C107.444 11.2898 108.268 12.2102 108.87 13.3352C109.472 14.4489 109.774 15.7841 109.774 17.3409V35H102.887V31.3693H102.683C102.262 32.1875 101.7 32.9091 100.995 33.5341C100.291 34.1477 99.444 34.6307 98.4554 34.983C97.4668 35.3239 96.3247 35.4943 95.0293 35.4943ZM97.1088 30.483C98.177 30.483 99.1202 30.2727 99.9384 29.8523C100.757 29.4205 101.399 28.8409 101.864 28.1136C102.33 27.3864 102.563 26.5625 102.563 25.642V22.8636C102.336 23.0114 102.024 23.1477 101.626 23.2727C101.239 23.3864 100.802 23.4943 100.313 23.5966C99.8247 23.6875 99.3361 23.7727 98.8474 23.8523C98.3588 23.9205 97.9156 23.983 97.5179 24.0398C96.6656 24.1648 95.9213 24.3636 95.2849 24.6364C94.6486 24.9091 94.1543 25.2784 93.802 25.7443C93.4497 26.1989 93.2736 26.767 93.2736 27.4489C93.2736 28.4375 93.6315 29.1932 94.3474 29.7159C95.0747 30.2273 95.9952 30.483 97.1088 30.483ZM128.133 8.81818V14.2727H112.366V8.81818H128.133ZM115.946 2.54545H123.207V26.9545C123.207 27.625 123.309 28.1477 123.514 28.5227C123.718 28.8864 124.003 29.142 124.366 29.2898C124.741 29.4375 125.173 29.5114 125.662 29.5114C126.003 29.5114 126.343 29.483 126.684 29.4261C127.025 29.358 127.287 29.3068 127.468 29.2727L128.611 34.6761C128.247 34.7898 127.736 34.9205 127.076 35.0682C126.417 35.2273 125.616 35.3239 124.673 35.358C122.923 35.4261 121.389 35.1932 120.071 34.6591C118.764 34.125 117.747 33.2955 117.02 32.1705C116.292 31.0455 115.934 29.625 115.946 27.9091V2.54545ZM131.663 35V8.81818H138.703V13.3864H138.976C139.453 11.7614 140.254 10.5341 141.379 9.70455C142.504 8.86364 143.8 8.44318 145.266 8.44318C145.629 8.44318 146.021 8.46591 146.442 8.51136C146.862 8.55682 147.232 8.61932 147.55 8.69886V15.142C147.209 15.0398 146.737 14.9489 146.135 14.8693C145.533 14.7898 144.982 14.75 144.482 14.75C143.413 14.75 142.459 14.983 141.618 15.4489C140.788 15.9034 140.129 16.5398 139.641 17.358C139.163 18.1761 138.925 19.1193 138.925 20.1875V35H131.663ZM156.82 35.4943C155.149 35.4943 153.661 35.2045 152.354 34.625C151.047 34.0341 150.013 33.1648 149.252 32.017C148.502 30.858 148.127 29.4148 148.127 27.6875C148.127 26.233 148.394 25.0114 148.928 24.0227C149.462 23.0341 150.189 22.2386 151.11 21.6364C152.03 21.0341 153.076 20.5795 154.246 20.2727C155.428 19.9659 156.666 19.75 157.962 19.625C159.485 19.4659 160.712 19.3182 161.644 19.1818C162.576 19.0341 163.252 18.8182 163.672 18.5341C164.093 18.25 164.303 17.8295 164.303 17.2727V17.1705C164.303 16.0909 163.962 15.2557 163.28 14.6648C162.61 14.0739 161.655 13.7784 160.416 13.7784C159.11 13.7784 158.07 14.0682 157.297 14.6477C156.524 15.2159 156.013 15.9318 155.763 16.7955L149.047 16.25C149.388 14.6591 150.059 13.2841 151.059 12.125C152.059 10.9545 153.348 10.0568 154.928 9.43182C156.519 8.79545 158.36 8.47727 160.451 8.47727C161.905 8.47727 163.297 8.64773 164.627 8.98864C165.968 9.32955 167.155 9.85795 168.189 10.5739C169.235 11.2898 170.059 12.2102 170.661 13.3352C171.263 14.4489 171.564 15.7841 171.564 17.3409V35H164.678V31.3693H164.473C164.053 32.1875 163.49 32.9091 162.786 33.5341C162.081 34.1477 161.235 34.6307 160.246 34.983C159.257 35.3239 158.115 35.4943 156.82 35.4943ZM158.899 30.483C159.968 30.483 160.911 30.2727 161.729 29.8523C162.547 29.4205 163.189 28.8409 163.655 28.1136C164.121 27.3864 164.354 26.5625 164.354 25.642V22.8636C164.127 23.0114 163.814 23.1477 163.416 23.2727C163.03 23.3864 162.593 23.4943 162.104 23.5966C161.615 23.6875 161.127 23.7727 160.638 23.8523C160.149 23.9205 159.706 23.983 159.309 24.0398C158.456 24.1648 157.712 24.3636 157.076 24.6364C156.439 24.9091 155.945 25.2784 155.593 25.7443C155.24 26.1989 155.064 26.767 155.064 27.4489C155.064 28.4375 155.422 29.1932 156.138 29.7159C156.865 30.2273 157.786 30.483 158.899 30.483ZM185.645 35.4261C183.657 35.4261 181.856 34.9148 180.242 33.892C178.64 32.858 177.367 31.3409 176.424 29.3409C175.492 27.3295 175.026 24.8636 175.026 21.9432C175.026 18.9432 175.509 16.4489 176.475 14.4602C177.441 12.4602 178.725 10.9659 180.327 9.97727C181.941 8.97727 183.708 8.47727 185.628 8.47727C187.094 8.47727 188.316 8.72727 189.293 9.22727C190.282 9.71591 191.077 10.3295 191.68 11.0682C192.293 11.7955 192.759 12.5114 193.077 13.2159H193.299V0.0909081H200.543V35H193.384V30.8068H193.077C192.736 31.5341 192.253 32.2557 191.628 32.9716C191.015 33.6761 190.214 34.2614 189.225 34.7273C188.248 35.1932 187.055 35.4261 185.645 35.4261ZM187.947 29.6477C189.117 29.6477 190.106 29.3295 190.913 28.6932C191.731 28.0455 192.356 27.142 192.788 25.983C193.231 24.8239 193.452 23.4659 193.452 21.9091C193.452 20.3523 193.236 19 192.805 17.8523C192.373 16.7045 191.748 15.8182 190.93 15.1932C190.111 14.5682 189.117 14.2557 187.947 14.2557C186.753 14.2557 185.748 14.5795 184.93 15.2273C184.111 15.875 183.492 16.7727 183.072 17.9205C182.651 19.0682 182.441 20.3977 182.441 21.9091C182.441 23.4318 182.651 24.7784 183.072 25.9489C183.503 27.108 184.123 28.017 184.93 28.6761C185.748 29.3239 186.753 29.6477 187.947 29.6477ZM217.245 35.5114C214.552 35.5114 212.234 34.9659 210.291 33.875C208.359 32.7727 206.87 31.2159 205.825 29.2045C204.779 27.1818 204.257 24.7898 204.257 22.0284C204.257 19.3352 204.779 16.9716 205.825 14.9375C206.87 12.9034 208.342 11.3182 210.239 10.1818C212.149 9.04545 214.387 8.47727 216.955 8.47727C218.683 8.47727 220.291 8.75568 221.779 9.3125C223.279 9.85795 224.586 10.6818 225.7 11.7841C226.825 12.8864 227.7 14.2727 228.325 15.9432C228.95 17.6023 229.262 19.5455 229.262 21.7727V23.767H207.154V19.267H222.427C222.427 18.2216 222.2 17.2955 221.745 16.4886C221.291 15.6818 220.66 15.0511 219.853 14.5966C219.058 14.1307 218.132 13.8977 217.075 13.8977C215.972 13.8977 214.995 14.1534 214.143 14.6648C213.302 15.1648 212.643 15.8409 212.166 16.6932C211.688 17.5341 211.444 18.4716 211.433 19.5057V23.7841C211.433 25.0795 211.671 26.1989 212.149 27.142C212.637 28.0852 213.325 28.8125 214.211 29.3239C215.097 29.8352 216.149 30.0909 217.364 30.0909C218.171 30.0909 218.91 29.9773 219.58 29.75C220.251 29.5227 220.825 29.1818 221.302 28.7273C221.779 28.2727 222.143 27.7159 222.393 27.0568L229.109 27.5C228.768 29.1136 228.069 30.5227 227.012 31.7273C225.967 32.9205 224.614 33.8523 222.955 34.5227C221.308 35.1818 219.404 35.5114 217.245 35.5114ZM232.801 35V8.81818H239.841V13.3864H240.113C240.591 11.7614 241.392 10.5341 242.517 9.70455C243.642 8.86364 244.937 8.44318 246.403 8.44318C246.767 8.44318 247.159 8.46591 247.579 8.51136C248 8.55682 248.369 8.61932 248.687 8.69886V15.142C248.346 15.0398 247.875 14.9489 247.272 14.8693C246.67 14.7898 246.119 14.75 245.619 14.75C244.551 14.75 243.596 14.983 242.755 15.4489C241.926 15.9034 241.267 16.5398 240.778 17.358C240.301 18.1761 240.062 19.1193 240.062 20.1875V35H232.801ZM273.833 35.4773C271.424 35.4773 269.276 35.0341 267.389 34.1477C265.514 33.2614 264.026 32.0398 262.924 30.483C261.821 28.9261 261.247 27.142 261.202 25.1307H268.361C268.441 26.483 269.009 27.5795 270.066 28.4205C271.122 29.2614 272.378 29.6818 273.833 29.6818C274.992 29.6818 276.014 29.4261 276.901 28.9148C277.799 28.392 278.497 27.6705 278.997 26.75C279.509 25.8182 279.764 24.75 279.764 23.5455C279.764 22.3182 279.503 21.2386 278.98 20.3068C278.469 19.375 277.759 18.6477 276.85 18.125C275.941 17.6023 274.901 17.3352 273.73 17.3239C272.708 17.3239 271.713 17.5341 270.747 17.9545C269.793 18.375 269.049 18.9489 268.514 19.6761L261.952 18.5L263.605 0.0909081H284.946V6.125H269.691L268.787 14.8693H268.992C269.605 14.0057 270.532 13.2898 271.77 12.7216C273.009 12.1534 274.395 11.8693 275.929 11.8693C278.032 11.8693 279.907 12.3636 281.554 13.3523C283.202 14.3409 284.503 15.6989 285.458 17.4261C286.412 19.142 286.884 21.1193 286.872 23.358C286.884 25.7102 286.338 27.8011 285.236 29.6307C284.145 31.4489 282.617 32.8807 280.651 33.9261C278.696 34.9602 276.424 35.4773 273.833 35.4773Z" fill="url(#paint0_linear_2_1172)"/>
<defs>
<linearGradient id="paint0_linear_2_1172" x1="213.621" y1="13.4999" x2="263.526" y2="16.5958" gradientUnits="userSpaceOnUse">
<stop stop-color="#BA963A"/>
<stop offset="1" stop-color="#CC9C21"/>
</linearGradient>
</defs>
</svg>
