<svg width="350" height="47" viewBox="0 0 350 47" fill="none" xmlns="http://www.w3.org/2000/svg">
<path d="M33.1136 19.5455C33.1136 23.3523 32.392 26.5909 30.9489 29.2614C29.517 31.9318 27.5625 33.9716 25.0852 35.3807C22.6193 36.7784 19.8466 37.4773 16.767 37.4773C13.6648 37.4773 10.8807 36.7727 8.41477 35.3636C5.94886 33.9545 4 31.9148 2.56818 29.2443C1.13636 26.5739 0.420455 23.3409 0.420455 19.5455C0.420455 15.7386 1.13636 12.5 2.56818 9.82955C4 7.15909 5.94886 5.125 8.41477 3.72727C10.8807 2.31818 13.6648 1.61364 16.767 1.61364C19.8466 1.61364 22.6193 2.31818 25.0852 3.72727C27.5625 5.125 29.517 7.15909 30.9489 9.82955C32.392 12.5 33.1136 15.7386 33.1136 19.5455ZM25.6307 19.5455C25.6307 17.0795 25.2614 15 24.5227 13.3068C23.7955 11.6136 22.767 10.3295 21.4375 9.45455C20.108 8.57955 18.5511 8.14205 16.767 8.14205C14.983 8.14205 13.4261 8.57955 12.0966 9.45455C10.767 10.3295 9.73295 11.6136 8.99432 13.3068C8.26705 15 7.90341 17.0795 7.90341 19.5455C7.90341 22.0114 8.26705 24.0909 8.99432 25.7841C9.73295 27.4773 10.767 28.7614 12.0966 29.6364C13.4261 30.5114 14.983 30.9489 16.767 30.9489C18.5511 30.9489 20.108 30.5114 21.4375 29.6364C22.767 28.7614 23.7955 27.4773 24.5227 25.7841C25.2614 24.0909 25.6307 22.0114 25.6307 19.5455ZM54.0344 25.8523V10.8182H61.2957V37H54.3241V32.2443H54.0514C53.4605 33.7784 52.4776 35.0114 51.1026 35.9432C49.7389 36.875 48.0741 37.3409 46.1082 37.3409C44.3582 37.3409 42.8185 36.9432 41.4889 36.1477C40.1594 35.3523 39.1196 34.2216 38.3696 32.7557C37.631 31.2898 37.256 29.5341 37.2446 27.4886V10.8182H44.506V26.1932C44.5173 27.7386 44.9321 28.9602 45.7503 29.858C46.5685 30.7557 47.6651 31.2045 49.0401 31.2045C49.9151 31.2045 50.7332 31.0057 51.4946 30.608C52.256 30.1989 52.8696 29.5966 53.3355 28.8011C53.8128 28.0057 54.0457 27.0227 54.0344 25.8523ZM65.904 37V10.8182H72.9437V15.3864H73.2165C73.6937 13.7614 74.4949 12.5341 75.6199 11.7045C76.7449 10.8636 78.0403 10.4432 79.5062 10.4432C79.8699 10.4432 80.2619 10.4659 80.6824 10.5114C81.1028 10.5568 81.4722 10.6193 81.7903 10.6989V17.142C81.4494 17.0398 80.9778 16.9489 80.3756 16.8693C79.7733 16.7898 79.2222 16.75 78.7222 16.75C77.654 16.75 76.6994 16.983 75.8585 17.4489C75.029 17.9034 74.3699 18.5398 73.8812 19.358C73.404 20.1761 73.1653 21.1193 73.1653 22.1875V37H65.904ZM113.328 12.1307C113.191 10.7557 112.606 9.6875 111.572 8.92614C110.538 8.16477 109.135 7.78409 107.362 7.78409C106.157 7.78409 105.14 7.95454 104.311 8.29545C103.481 8.625 102.845 9.08523 102.402 9.67614C101.97 10.267 101.754 10.9375 101.754 11.6875C101.731 12.3125 101.862 12.858 102.146 13.3239C102.441 13.7898 102.845 14.1932 103.356 14.5341C103.868 14.8636 104.459 15.1534 105.129 15.4034C105.799 15.642 106.515 15.8466 107.277 16.017L110.413 16.767C111.936 17.108 113.334 17.5625 114.606 18.1307C115.879 18.6989 116.981 19.3977 117.913 20.2273C118.845 21.0568 119.566 22.0341 120.078 23.1591C120.601 24.2841 120.868 25.5739 120.879 27.0284C120.868 29.1648 120.322 31.017 119.243 32.5852C118.174 34.142 116.629 35.3523 114.606 36.2159C112.595 37.0682 110.169 37.4943 107.328 37.4943C104.51 37.4943 102.055 37.0625 99.9642 36.1989C97.8847 35.3352 96.2597 34.0568 95.0892 32.3636C93.9301 30.6591 93.3222 28.5511 93.2653 26.0398H100.407C100.487 27.2102 100.822 28.1875 101.413 28.9716C102.015 29.7443 102.816 30.3295 103.816 30.7273C104.828 31.1136 105.97 31.3068 107.243 31.3068C108.493 31.3068 109.578 31.125 110.498 30.7614C111.43 30.3977 112.152 29.892 112.663 29.2443C113.174 28.5966 113.43 27.8523 113.43 27.0114C113.43 26.2273 113.197 25.5682 112.731 25.0341C112.277 24.5 111.606 24.0455 110.72 23.6705C109.845 23.2955 108.771 22.9545 107.498 22.6477L103.697 21.6932C100.754 20.9773 98.4301 19.858 96.7256 18.3352C95.021 16.8125 94.1744 14.7614 94.1858 12.1818C94.1744 10.0682 94.7369 8.22159 95.8733 6.64205C97.021 5.0625 98.5949 3.82955 100.595 2.94318C102.595 2.05682 104.868 1.61364 107.413 1.61364C110.004 1.61364 112.265 2.05682 114.197 2.94318C116.14 3.82955 117.652 5.0625 118.731 6.64205C119.811 8.22159 120.368 10.0511 120.402 12.1307H113.328ZM124.507 46.8182V10.8182H131.666V15.2159H131.99C132.308 14.5114 132.768 13.7955 133.371 13.0682C133.984 12.3295 134.78 11.7159 135.757 11.2273C136.746 10.7273 137.973 10.4773 139.439 10.4773C141.348 10.4773 143.109 10.9773 144.723 11.9773C146.337 12.9659 147.626 14.4602 148.592 16.4602C149.558 18.4489 150.041 20.9432 150.041 23.9432C150.041 26.8636 149.57 29.3295 148.626 31.3409C147.695 33.3409 146.422 34.858 144.808 35.892C143.206 36.9148 141.411 37.4261 139.422 37.4261C138.013 37.4261 136.814 37.1932 135.825 36.7273C134.848 36.2614 134.047 35.6761 133.422 34.9716C132.797 34.2557 132.32 33.5341 131.99 32.8068H131.768V46.8182H124.507ZM131.615 23.9091C131.615 25.4659 131.831 26.8239 132.263 27.983C132.695 29.142 133.32 30.0455 134.138 30.6932C134.956 31.3295 135.95 31.6477 137.121 31.6477C138.303 31.6477 139.303 31.3239 140.121 30.6761C140.939 30.017 141.558 29.108 141.979 27.9489C142.411 26.7784 142.626 25.4318 142.626 23.9091C142.626 22.3977 142.416 21.0682 141.996 19.9205C141.575 18.7727 140.956 17.875 140.138 17.2273C139.32 16.5795 138.314 16.2557 137.121 16.2557C135.939 16.2557 134.939 16.5682 134.121 17.1932C133.314 17.8182 132.695 18.7045 132.263 19.8523C131.831 21 131.615 22.3523 131.615 23.9091ZM165.614 37.5114C162.921 37.5114 160.603 36.9659 158.659 35.875C156.728 34.7727 155.239 33.2159 154.193 31.2045C153.148 29.1818 152.625 26.7898 152.625 24.0284C152.625 21.3352 153.148 18.9716 154.193 16.9375C155.239 14.9034 156.711 13.3182 158.608 12.1818C160.517 11.0455 162.756 10.4773 165.324 10.4773C167.051 10.4773 168.659 10.7557 170.148 11.3125C171.648 11.858 172.955 12.6818 174.068 13.7841C175.193 14.8864 176.068 16.2727 176.693 17.9432C177.318 19.6023 177.631 21.5455 177.631 23.7727V25.767H155.523V21.267H170.796C170.796 20.2216 170.568 19.2955 170.114 18.4886C169.659 17.6818 169.029 17.0511 168.222 16.5966C167.426 16.1307 166.5 15.8977 165.443 15.8977C164.341 15.8977 163.364 16.1534 162.512 16.6648C161.671 17.1648 161.012 17.8409 160.534 18.6932C160.057 19.5341 159.813 20.4716 159.801 21.5057V25.7841C159.801 27.0795 160.04 28.1989 160.517 29.142C161.006 30.0852 161.693 30.8125 162.58 31.3239C163.466 31.8352 164.517 32.0909 165.733 32.0909C166.54 32.0909 167.279 31.9773 167.949 31.75C168.62 31.5227 169.193 31.1818 169.671 30.7273C170.148 30.2727 170.512 29.7159 170.762 29.0568L177.478 29.5C177.137 31.1136 176.438 32.5227 175.381 33.7273C174.336 34.9205 172.983 35.8523 171.324 36.5227C169.676 37.1818 167.773 37.5114 165.614 37.5114ZM192.999 37.5114C190.317 37.5114 188.011 36.9432 186.079 35.8068C184.158 34.6591 182.681 33.0682 181.647 31.0341C180.624 29 180.113 26.6591 180.113 24.0114C180.113 21.3295 180.63 18.9773 181.664 16.9545C182.709 14.9205 184.192 13.3352 186.113 12.1989C188.033 11.0511 190.317 10.4773 192.965 10.4773C195.249 10.4773 197.249 10.892 198.965 11.7216C200.681 12.5511 202.039 13.7159 203.039 15.2159C204.039 16.7159 204.59 18.4773 204.692 20.5H197.84C197.647 19.1932 197.136 18.142 196.306 17.3466C195.488 16.5398 194.414 16.1364 193.084 16.1364C191.959 16.1364 190.976 16.4432 190.136 17.0568C189.306 17.6591 188.658 18.5398 188.192 19.6989C187.726 20.858 187.493 22.2614 187.493 23.9091C187.493 25.5795 187.721 27 188.175 28.1705C188.641 29.3409 189.295 30.233 190.136 30.8466C190.976 31.4602 191.959 31.767 193.084 31.767C193.914 31.767 194.658 31.5966 195.317 31.2557C195.988 30.9148 196.539 30.4205 196.971 29.7727C197.414 29.1136 197.704 28.3239 197.84 27.4034H204.692C204.579 29.4034 204.033 31.1648 203.056 32.6875C202.09 34.1989 200.755 35.3807 199.05 36.233C197.346 37.0852 195.329 37.5114 192.999 37.5114ZM208.141 37V10.8182H215.403V37H208.141ZM211.789 7.44318C210.71 7.44318 209.784 7.08523 209.011 6.36932C208.249 5.64204 207.869 4.77273 207.869 3.76136C207.869 2.76136 208.249 1.90341 209.011 1.1875C209.784 0.460226 210.71 0.0965891 211.789 0.0965891C212.869 0.0965891 213.789 0.460226 214.551 1.1875C215.323 1.90341 215.71 2.76136 215.71 3.76136C215.71 4.77273 215.323 5.64204 214.551 6.36932C213.789 7.08523 212.869 7.44318 211.789 7.44318ZM227.486 37.4943C225.815 37.4943 224.326 37.2045 223.02 36.625C221.713 36.0341 220.679 35.1648 219.917 34.017C219.167 32.858 218.792 31.4148 218.792 29.6875C218.792 28.233 219.059 27.0114 219.593 26.0227C220.128 25.0341 220.855 24.2386 221.775 23.6364C222.696 23.0341 223.741 22.5795 224.912 22.2727C226.093 21.9659 227.332 21.75 228.628 21.625C230.15 21.4659 231.378 21.3182 232.309 21.1818C233.241 21.0341 233.917 20.8182 234.338 20.5341C234.758 20.25 234.968 19.8295 234.968 19.2727V19.1705C234.968 18.0909 234.628 17.2557 233.946 16.6648C233.275 16.0739 232.321 15.7784 231.082 15.7784C229.775 15.7784 228.736 16.0682 227.963 16.6477C227.19 17.2159 226.679 17.9318 226.429 18.7955L219.713 18.25C220.054 16.6591 220.724 15.2841 221.724 14.125C222.724 12.9545 224.014 12.0568 225.593 11.4318C227.184 10.7955 229.025 10.4773 231.116 10.4773C232.571 10.4773 233.963 10.6477 235.292 10.9886C236.633 11.3295 237.821 11.858 238.855 12.5739C239.9 13.2898 240.724 14.2102 241.326 15.3352C241.929 16.4489 242.23 17.7841 242.23 19.3409V37H235.343V33.3693H235.139C234.718 34.1875 234.156 34.9091 233.451 35.5341C232.747 36.1477 231.9 36.6307 230.912 36.983C229.923 37.3239 228.781 37.4943 227.486 37.4943ZM229.565 32.483C230.633 32.483 231.576 32.2727 232.395 31.8523C233.213 31.4205 233.855 30.8409 234.321 30.1136C234.787 29.3864 235.02 28.5625 235.02 27.642V24.8636C234.792 25.0114 234.48 25.1477 234.082 25.2727C233.696 25.3864 233.258 25.4943 232.77 25.5966C232.281 25.6875 231.792 25.7727 231.304 25.8523C230.815 25.9205 230.372 25.983 229.974 26.0398C229.122 26.1648 228.378 26.3636 227.741 26.6364C227.105 26.9091 226.611 27.2784 226.258 27.7443C225.906 28.1989 225.73 28.767 225.73 29.4489C225.73 30.4375 226.088 31.1932 226.804 31.7159C227.531 32.2273 228.451 32.483 229.565 32.483ZM253.925 2.09091V37H246.663V2.09091H253.925ZM258.541 37V10.8182H265.803V37H258.541ZM262.189 7.44318C261.11 7.44318 260.184 7.08523 259.411 6.36932C258.649 5.64204 258.269 4.77273 258.269 3.76136C258.269 2.76136 258.649 1.90341 259.411 1.1875C260.184 0.460226 261.11 0.0965891 262.189 0.0965891C263.269 0.0965891 264.189 0.460226 264.951 1.1875C265.723 1.90341 266.11 2.76136 266.11 3.76136C266.11 4.77273 265.723 5.64204 264.951 6.36932C264.189 7.08523 263.269 7.44318 262.189 7.44318ZM284.346 10.8182V16.2727H268.579V10.8182H284.346ZM272.158 4.54545H279.42V28.9545C279.42 29.625 279.522 30.1477 279.726 30.5227C279.931 30.8864 280.215 31.142 280.579 31.2898C280.954 31.4375 281.386 31.5114 281.874 31.5114C282.215 31.5114 282.556 31.483 282.897 31.4261C283.238 31.358 283.499 31.3068 283.681 31.2727L284.823 36.6761C284.459 36.7898 283.948 36.9205 283.289 37.0682C282.63 37.2273 281.829 37.3239 280.886 37.358C279.136 37.4261 277.601 37.1932 276.283 36.6591C274.976 36.125 273.959 35.2955 273.232 34.1705C272.505 33.0455 272.147 31.625 272.158 29.9091V4.54545ZM287.876 37V10.8182H295.137V37H287.876ZM291.524 7.44318C290.444 7.44318 289.518 7.08523 288.745 6.36932C287.984 5.64204 287.603 4.77273 287.603 3.76136C287.603 2.76136 287.984 1.90341 288.745 1.1875C289.518 0.460226 290.444 0.0965891 291.524 0.0965891C292.603 0.0965891 293.524 0.460226 294.285 1.1875C295.058 1.90341 295.444 2.76136 295.444 3.76136C295.444 4.77273 295.058 5.64204 294.285 6.36932C293.524 7.08523 292.603 7.44318 291.524 7.44318ZM311.686 37.5114C308.993 37.5114 306.674 36.9659 304.731 35.875C302.799 34.7727 301.311 33.2159 300.265 31.2045C299.22 29.1818 298.697 26.7898 298.697 24.0284C298.697 21.3352 299.22 18.9716 300.265 16.9375C301.311 14.9034 302.782 13.3182 304.68 12.1818C306.589 11.0455 308.828 10.4773 311.396 10.4773C313.123 10.4773 314.731 10.7557 316.22 11.3125C317.72 11.858 319.027 12.6818 320.14 13.7841C321.265 14.8864 322.14 16.2727 322.765 17.9432C323.39 19.6023 323.703 21.5455 323.703 23.7727V25.767H301.595V21.267H316.868C316.868 20.2216 316.64 19.2955 316.186 18.4886C315.731 17.6818 315.101 17.0511 314.294 16.5966C313.498 16.1307 312.572 15.8977 311.515 15.8977C310.413 15.8977 309.436 16.1534 308.584 16.6648C307.743 17.1648 307.084 17.8409 306.606 18.6932C306.129 19.5341 305.885 20.4716 305.873 21.5057V25.7841C305.873 27.0795 306.112 28.1989 306.589 29.142C307.078 30.0852 307.765 30.8125 308.652 31.3239C309.538 31.8352 310.589 32.0909 311.805 32.0909C312.612 32.0909 313.351 31.9773 314.021 31.75C314.691 31.5227 315.265 31.1818 315.743 30.7273C316.22 30.2727 316.584 29.7159 316.834 29.0568L323.549 29.5C323.209 31.1136 322.51 32.5227 321.453 33.7273C320.407 34.9205 319.055 35.8523 317.396 36.5227C315.748 37.1818 313.845 37.5114 311.686 37.5114ZM349.026 18.2841L342.378 18.6932C342.264 18.125 342.02 17.6136 341.645 17.1591C341.27 16.6932 340.776 16.3239 340.162 16.0511C339.56 15.767 338.838 15.625 337.997 15.625C336.872 15.625 335.923 15.8636 335.151 16.3409C334.378 16.8068 333.991 17.4318 333.991 18.2159C333.991 18.8409 334.241 19.3693 334.741 19.8011C335.241 20.233 336.099 20.5795 337.315 20.8409L342.054 21.7955C344.599 22.3182 346.497 23.1591 347.747 24.3182C348.997 25.4773 349.622 27 349.622 28.8864C349.622 30.6023 349.116 32.108 348.105 33.4034C347.105 34.6989 345.73 35.7102 343.98 36.4375C342.241 37.1534 340.236 37.5114 337.963 37.5114C334.497 37.5114 331.736 36.7898 329.679 35.3466C327.634 33.892 326.435 31.9148 326.082 29.4148L333.224 29.0398C333.44 30.0966 333.963 30.9034 334.793 31.4602C335.622 32.0057 336.685 32.2784 337.98 32.2784C339.253 32.2784 340.276 32.0341 341.048 31.5455C341.832 31.0455 342.23 30.4034 342.241 29.6193C342.23 28.9602 341.952 28.4205 341.406 28C340.861 27.5682 340.02 27.2386 338.884 27.0114L334.349 26.108C331.793 25.5966 329.889 24.7102 328.639 23.4489C327.401 22.1875 326.781 20.5795 326.781 18.625C326.781 16.9432 327.236 15.4943 328.145 14.2784C329.065 13.0625 330.355 12.125 332.014 11.4659C333.685 10.8068 335.639 10.4773 337.878 10.4773C341.185 10.4773 343.787 11.1761 345.685 12.5739C347.594 13.9716 348.707 15.875 349.026 18.2841Z" fill="url(#paint0_linear_2_1802)"/>
<defs>
<linearGradient id="paint0_linear_2_1802" x1="175" y1="-9.99999" x2="239.5" y2="54.5" gradientUnits="userSpaceOnUse">
<stop stop-color="#BA963A"/>
<stop offset="1" stop-color="#E2AC22"/>
</linearGradient>
</defs>
</svg>
