<svg width="566" height="45" viewBox="0 0 566 45" fill="none" xmlns="http://www.w3.org/2000/svg">
<path d="M10.3342 35L0.345609 0.0909081H8.40811L14.1865 24.3466H14.4763L20.8513 0.0909081H27.7547L34.1127 24.3977H34.4195L40.1979 0.0909081H48.2604L38.2717 35H31.0786L24.4308 12.1761H24.1581L17.5274 35H10.3342ZM58.1357 19.8636V35H50.8743V0.0909081H57.9311V13.4375H58.2379C58.8288 11.892 59.7834 10.6818 61.1016 9.80682C62.4197 8.92045 64.0732 8.47727 66.0618 8.47727C67.88 8.47727 69.4652 8.875 70.8175 9.67045C72.1811 10.4545 73.2379 11.5852 73.9879 13.0625C74.7493 14.5284 75.1243 16.2841 75.1129 18.3295V35H67.8516V19.625C67.8629 18.0114 67.4538 16.7557 66.6243 15.858C65.8061 14.9602 64.6584 14.5114 63.1811 14.5114C62.1925 14.5114 61.3175 14.7216 60.5561 15.142C59.8061 15.5625 59.2152 16.1761 58.7834 16.983C58.3629 17.7784 58.147 18.7386 58.1357 19.8636ZM83.1729 44.8182C82.2524 44.8182 81.3888 44.7443 80.582 44.5966C79.7865 44.4602 79.1274 44.2841 78.6047 44.0682L80.2411 38.6477C81.0933 38.9091 81.8604 39.0511 82.5422 39.0739C83.2354 39.0966 83.832 38.9375 84.332 38.5966C84.8433 38.2557 85.2581 37.6761 85.5763 36.858L86.0024 35.75L76.6104 8.81818H84.2468L89.6672 28.0455H89.9399L95.4115 8.81818H103.099L92.9229 37.8295C92.4343 39.2386 91.7695 40.4659 90.9286 41.5114C90.099 42.5682 89.0479 43.3807 87.7752 43.9489C86.5024 44.5284 84.9683 44.8182 83.1729 44.8182ZM123.041 0.0909081V35H115.661V0.0909081H123.041ZM135.039 19.8636V35H127.777V8.81818H134.698V13.4375H135.005C135.584 11.9148 136.556 10.7102 137.919 9.82386C139.283 8.92614 140.937 8.47727 142.88 8.47727C144.698 8.47727 146.283 8.875 147.635 9.67045C148.988 10.4659 150.039 11.6023 150.789 13.0795C151.539 14.5455 151.914 16.2955 151.914 18.3295V35H144.652V19.625C144.664 18.0227 144.255 16.7727 143.425 15.875C142.596 14.9659 141.454 14.5114 139.999 14.5114C139.022 14.5114 138.158 14.7216 137.408 15.142C136.669 15.5625 136.09 16.1761 135.669 16.983C135.26 17.7784 135.05 18.7386 135.039 19.8636ZM179.908 8.81818L170.755 35H162.573L153.42 8.81818H161.09L166.528 27.5511H166.8L172.221 8.81818H179.908ZM193.512 35.5114C190.819 35.5114 188.501 34.9659 186.558 33.875C184.626 32.7727 183.137 31.2159 182.092 29.2045C181.046 27.1818 180.524 24.7898 180.524 22.0284C180.524 19.3352 181.046 16.9716 182.092 14.9375C183.137 12.9034 184.609 11.3182 186.507 10.1818C188.416 9.04545 190.654 8.47727 193.223 8.47727C194.95 8.47727 196.558 8.75568 198.046 9.3125C199.546 9.85795 200.853 10.6818 201.967 11.7841C203.092 12.8864 203.967 14.2727 204.592 15.9432C205.217 17.6023 205.529 19.5455 205.529 21.7727V23.767H183.421V19.267H198.694C198.694 18.2216 198.467 17.2955 198.012 16.4886C197.558 15.6818 196.927 15.0511 196.12 14.5966C195.325 14.1307 194.399 13.8977 193.342 13.8977C192.24 13.8977 191.262 14.1534 190.41 14.6648C189.569 15.1648 188.91 15.8409 188.433 16.6932C187.956 17.5341 187.711 18.4716 187.7 19.5057V23.7841C187.7 25.0795 187.939 26.1989 188.416 27.142C188.904 28.0852 189.592 28.8125 190.478 29.3239C191.365 29.8352 192.416 30.0909 193.632 30.0909C194.439 30.0909 195.177 29.9773 195.848 29.75C196.518 29.5227 197.092 29.1818 197.569 28.7273C198.046 28.2727 198.41 27.7159 198.66 27.0568L205.376 27.5C205.035 29.1136 204.336 30.5227 203.279 31.7273C202.234 32.9205 200.882 33.8523 199.223 34.5227C197.575 35.1818 195.671 35.5114 193.512 35.5114ZM230.852 16.2841L224.204 16.6932C224.091 16.125 223.846 15.6136 223.471 15.1591C223.096 14.6932 222.602 14.3239 221.988 14.0511C221.386 13.767 220.665 13.625 219.824 13.625C218.699 13.625 217.75 13.8636 216.977 14.3409C216.204 14.8068 215.818 15.4318 215.818 16.2159C215.818 16.8409 216.068 17.3693 216.568 17.8011C217.068 18.233 217.926 18.5795 219.142 18.8409L223.881 19.7955C226.426 20.3182 228.324 21.1591 229.574 22.3182C230.824 23.4773 231.449 25 231.449 26.8864C231.449 28.6023 230.943 30.108 229.932 31.4034C228.932 32.6989 227.557 33.7102 225.807 34.4375C224.068 35.1534 222.062 35.5114 219.79 35.5114C216.324 35.5114 213.562 34.7898 211.506 33.3466C209.46 31.892 208.261 29.9148 207.909 27.4148L215.051 27.0398C215.267 28.0966 215.79 28.9034 216.619 29.4602C217.449 30.0057 218.511 30.2784 219.807 30.2784C221.079 30.2784 222.102 30.0341 222.875 29.5455C223.659 29.0455 224.057 28.4034 224.068 27.6193C224.057 26.9602 223.778 26.4205 223.233 26C222.687 25.5682 221.846 25.2386 220.71 25.0114L216.176 24.108C213.619 23.5966 211.716 22.7102 210.466 21.4489C209.227 20.1875 208.608 18.5795 208.608 16.625C208.608 14.9432 209.062 13.4943 209.971 12.2784C210.892 11.0625 212.182 10.125 213.841 9.46591C215.511 8.80682 217.466 8.47727 219.704 8.47727C223.011 8.47727 225.613 9.17614 227.511 10.5739C229.42 11.9716 230.534 13.875 230.852 16.2841ZM248.747 8.81818V14.2727H232.98V8.81818H248.747ZM236.56 2.54545H243.821V26.9545C243.821 27.625 243.923 28.1477 244.128 28.5227C244.333 28.8864 244.617 29.142 244.98 29.2898C245.355 29.4375 245.787 29.5114 246.276 29.5114C246.617 29.5114 246.958 29.483 247.298 29.4261C247.639 29.358 247.901 29.3068 248.083 29.2727L249.225 34.6761C248.861 34.7898 248.35 34.9205 247.691 35.0682C247.031 35.2273 246.23 35.3239 245.287 35.358C243.537 35.4261 242.003 35.1932 240.685 34.6591C239.378 34.125 238.361 33.2955 237.634 32.1705C236.906 31.0455 236.548 29.625 236.56 27.9091V2.54545ZM263.826 35.5114C261.178 35.5114 258.888 34.9489 256.956 33.8239C255.036 32.6875 253.553 31.108 252.508 29.0852C251.462 27.0511 250.939 24.6932 250.939 22.0114C250.939 19.3068 251.462 16.9432 252.508 14.9205C253.553 12.8864 255.036 11.3068 256.956 10.1818C258.888 9.04545 261.178 8.47727 263.826 8.47727C266.473 8.47727 268.758 9.04545 270.678 10.1818C272.61 11.3068 274.098 12.8864 275.144 14.9205C276.189 16.9432 276.712 19.3068 276.712 22.0114C276.712 24.6932 276.189 27.0511 275.144 29.0852C274.098 31.108 272.61 32.6875 270.678 33.8239C268.758 34.9489 266.473 35.5114 263.826 35.5114ZM263.86 29.8864C265.064 29.8864 266.07 29.5455 266.877 28.8636C267.684 28.1705 268.292 27.2273 268.701 26.0341C269.121 24.8409 269.331 23.483 269.331 21.9602C269.331 20.4375 269.121 19.0795 268.701 17.8864C268.292 16.6932 267.684 15.75 266.877 15.0568C266.07 14.3636 265.064 14.017 263.86 14.017C262.644 14.017 261.621 14.3636 260.792 15.0568C259.973 15.75 259.354 16.6932 258.934 17.8864C258.525 19.0795 258.32 20.4375 258.32 21.9602C258.32 23.483 258.525 24.8409 258.934 26.0341C259.354 27.2273 259.973 28.1705 260.792 28.8636C261.621 29.5455 262.644 29.8864 263.86 29.8864ZM280.234 35V8.81818H287.273V13.3864H287.546C288.023 11.7614 288.825 10.5341 289.95 9.70455C291.075 8.86364 292.37 8.44318 293.836 8.44318C294.2 8.44318 294.592 8.46591 295.012 8.51136C295.433 8.55682 295.802 8.61932 296.12 8.69886V15.142C295.779 15.0398 295.308 14.9489 294.705 14.8693C294.103 14.7898 293.552 14.75 293.052 14.75C291.984 14.75 291.029 14.983 290.188 15.4489C289.359 15.9034 288.7 16.5398 288.211 17.358C287.734 18.1761 287.495 19.1193 287.495 20.1875V35H280.234ZM320.458 16.2841L313.811 16.6932C313.697 16.125 313.453 15.6136 313.078 15.1591C312.703 14.6932 312.208 14.3239 311.595 14.0511C310.993 13.767 310.271 13.625 309.43 13.625C308.305 13.625 307.356 13.8636 306.583 14.3409C305.811 14.8068 305.424 15.4318 305.424 16.2159C305.424 16.8409 305.674 17.3693 306.174 17.8011C306.674 18.233 307.532 18.5795 308.748 18.8409L313.487 19.7955C316.032 20.3182 317.93 21.1591 319.18 22.3182C320.43 23.4773 321.055 25 321.055 26.8864C321.055 28.6023 320.549 30.108 319.538 31.4034C318.538 32.6989 317.163 33.7102 315.413 34.4375C313.674 35.1534 311.669 35.5114 309.396 35.5114C305.93 35.5114 303.169 34.7898 301.112 33.3466C299.066 31.892 297.868 29.9148 297.515 27.4148L304.657 27.0398C304.873 28.0966 305.396 28.9034 306.225 29.4602C307.055 30.0057 308.118 30.2784 309.413 30.2784C310.686 30.2784 311.708 30.0341 312.481 29.5455C313.265 29.0455 313.663 28.4034 313.674 27.6193C313.663 26.9602 313.385 26.4205 312.839 26C312.294 25.5682 311.453 25.2386 310.316 25.0114L305.782 24.108C303.225 23.5966 301.322 22.7102 300.072 21.4489C298.833 20.1875 298.214 18.5795 298.214 16.625C298.214 14.9432 298.669 13.4943 299.578 12.2784C300.498 11.0625 301.788 10.125 303.447 9.46591C305.118 8.80682 307.072 8.47727 309.311 8.47727C312.618 8.47727 315.22 9.17614 317.118 10.5739C319.027 11.9716 320.14 13.875 320.458 16.2841ZM346.166 35.5114C343.485 35.5114 341.178 34.9432 339.246 33.8068C337.325 32.6591 335.848 31.0682 334.814 29.0341C333.791 27 333.28 24.6591 333.28 22.0114C333.28 19.3295 333.797 16.9773 334.831 14.9545C335.877 12.9205 337.36 11.3352 339.28 10.1989C341.2 9.05114 343.485 8.47727 346.132 8.47727C348.416 8.47727 350.416 8.89205 352.132 9.72159C353.848 10.5511 355.206 11.7159 356.206 13.2159C357.206 14.7159 357.757 16.4773 357.86 18.5H351.007C350.814 17.1932 350.303 16.142 349.473 15.3466C348.655 14.5398 347.581 14.1364 346.252 14.1364C345.127 14.1364 344.144 14.4432 343.303 15.0568C342.473 15.6591 341.825 16.5398 341.36 17.6989C340.894 18.858 340.661 20.2614 340.661 21.9091C340.661 23.5795 340.888 25 341.342 26.1705C341.808 27.3409 342.462 28.233 343.303 28.8466C344.144 29.4602 345.127 29.767 346.252 29.767C347.081 29.767 347.825 29.5966 348.485 29.2557C349.155 28.9148 349.706 28.4205 350.138 27.7727C350.581 27.1136 350.871 26.3239 351.007 25.4034H357.86C357.746 27.4034 357.2 29.1648 356.223 30.6875C355.257 32.1989 353.922 33.3807 352.217 34.233C350.513 35.0852 348.496 35.5114 346.166 35.5114ZM368.57 19.8636V35H361.309V0.0909081H368.365V13.4375H368.672C369.263 11.892 370.218 10.6818 371.536 9.80682C372.854 8.92045 374.508 8.47727 376.496 8.47727C378.314 8.47727 379.9 8.875 381.252 9.67045C382.615 10.4545 383.672 11.5852 384.422 13.0625C385.184 14.5284 385.559 16.2841 385.547 18.3295V35H378.286V19.625C378.297 18.0114 377.888 16.7557 377.059 15.858C376.24 14.9602 375.093 14.5114 373.615 14.5114C372.627 14.5114 371.752 14.7216 370.99 15.142C370.24 15.5625 369.65 16.1761 369.218 16.983C368.797 17.7784 368.581 18.7386 368.57 19.8636ZM401.891 35.5114C399.244 35.5114 396.954 34.9489 395.022 33.8239C393.102 32.6875 391.619 31.108 390.573 29.0852C389.528 27.0511 389.005 24.6932 389.005 22.0114C389.005 19.3068 389.528 16.9432 390.573 14.9205C391.619 12.8864 393.102 11.3068 395.022 10.1818C396.954 9.04545 399.244 8.47727 401.891 8.47727C404.539 8.47727 406.823 9.04545 408.744 10.1818C410.675 11.3068 412.164 12.8864 413.21 14.9205C414.255 16.9432 414.778 19.3068 414.778 22.0114C414.778 24.6932 414.255 27.0511 413.21 29.0852C412.164 31.108 410.675 32.6875 408.744 33.8239C406.823 34.9489 404.539 35.5114 401.891 35.5114ZM401.925 29.8864C403.13 29.8864 404.136 29.5455 404.942 28.8636C405.749 28.1705 406.357 27.2273 406.766 26.0341C407.187 24.8409 407.397 23.483 407.397 21.9602C407.397 20.4375 407.187 19.0795 406.766 17.8864C406.357 16.6932 405.749 15.75 404.942 15.0568C404.136 14.3636 403.13 14.017 401.925 14.017C400.71 14.017 399.687 14.3636 398.857 15.0568C398.039 15.75 397.42 16.6932 396.999 17.8864C396.59 19.0795 396.386 20.4375 396.386 21.9602C396.386 23.483 396.59 24.8409 396.999 26.0341C397.42 27.2273 398.039 28.1705 398.857 28.8636C399.687 29.5455 400.71 29.8864 401.925 29.8864ZM430.129 35.5114C427.481 35.5114 425.191 34.9489 423.26 33.8239C421.339 32.6875 419.856 31.108 418.811 29.0852C417.765 27.0511 417.243 24.6932 417.243 22.0114C417.243 19.3068 417.765 16.9432 418.811 14.9205C419.856 12.8864 421.339 11.3068 423.26 10.1818C425.191 9.04545 427.481 8.47727 430.129 8.47727C432.777 8.47727 435.061 9.04545 436.981 10.1818C438.913 11.3068 440.402 12.8864 441.447 14.9205C442.493 16.9432 443.015 19.3068 443.015 22.0114C443.015 24.6932 442.493 27.0511 441.447 29.0852C440.402 31.108 438.913 32.6875 436.981 33.8239C435.061 34.9489 432.777 35.5114 430.129 35.5114ZM430.163 29.8864C431.368 29.8864 432.373 29.5455 433.18 28.8636C433.987 28.1705 434.595 27.2273 435.004 26.0341C435.424 24.8409 435.635 23.483 435.635 21.9602C435.635 20.4375 435.424 19.0795 435.004 17.8864C434.595 16.6932 433.987 15.75 433.18 15.0568C432.373 14.3636 431.368 14.017 430.163 14.017C428.947 14.017 427.924 14.3636 427.095 15.0568C426.277 15.75 425.657 16.6932 425.237 17.8864C424.828 19.0795 424.623 20.4375 424.623 21.9602C424.623 23.483 424.828 24.8409 425.237 26.0341C425.657 27.2273 426.277 28.1705 427.095 28.8636C427.924 29.5455 428.947 29.8864 430.163 29.8864ZM468.321 16.2841L461.673 16.6932C461.559 16.125 461.315 15.6136 460.94 15.1591C460.565 14.6932 460.071 14.3239 459.457 14.0511C458.855 13.767 458.133 13.625 457.292 13.625C456.167 13.625 455.219 13.8636 454.446 14.3409C453.673 14.8068 453.287 15.4318 453.287 16.2159C453.287 16.8409 453.537 17.3693 454.037 17.8011C454.537 18.233 455.395 18.5795 456.611 18.8409L461.349 19.7955C463.895 20.3182 465.792 21.1591 467.042 22.3182C468.292 23.4773 468.917 25 468.917 26.8864C468.917 28.6023 468.412 30.108 467.4 31.4034C466.4 32.6989 465.025 33.7102 463.275 34.4375C461.537 35.1534 459.531 35.5114 457.258 35.5114C453.792 35.5114 451.031 34.7898 448.974 33.3466C446.929 31.892 445.73 29.9148 445.378 27.4148L452.52 27.0398C452.736 28.0966 453.258 28.9034 454.088 29.4602C454.917 30.0057 455.98 30.2784 457.275 30.2784C458.548 30.2784 459.571 30.0341 460.344 29.5455C461.128 29.0455 461.525 28.4034 461.537 27.6193C461.525 26.9602 461.247 26.4205 460.702 26C460.156 25.5682 459.315 25.2386 458.179 25.0114L453.645 24.108C451.088 23.5966 449.184 22.7102 447.934 21.4489C446.696 20.1875 446.077 18.5795 446.077 16.625C446.077 14.9432 446.531 13.4943 447.44 12.2784C448.361 11.0625 449.65 10.125 451.309 9.46591C452.98 8.80682 454.934 8.47727 457.173 8.47727C460.48 8.47727 463.082 9.17614 464.98 10.5739C466.889 11.9716 468.003 13.875 468.321 16.2841ZM484.222 35.5114C481.529 35.5114 479.21 34.9659 477.267 33.875C475.335 32.7727 473.847 31.2159 472.801 29.2045C471.756 27.1818 471.233 24.7898 471.233 22.0284C471.233 19.3352 471.756 16.9716 472.801 14.9375C473.847 12.9034 475.318 11.3182 477.216 10.1818C479.125 9.04545 481.364 8.47727 483.932 8.47727C485.659 8.47727 487.267 8.75568 488.756 9.3125C490.256 9.85795 491.563 10.6818 492.676 11.7841C493.801 12.8864 494.676 14.2727 495.301 15.9432C495.926 17.6023 496.239 19.5455 496.239 21.7727V23.767H474.131V19.267H489.404C489.404 18.2216 489.176 17.2955 488.722 16.4886C488.267 15.6818 487.637 15.0511 486.83 14.5966C486.034 14.1307 485.108 13.8977 484.051 13.8977C482.949 13.8977 481.972 14.1534 481.119 14.6648C480.279 15.1648 479.619 15.8409 479.142 16.6932C478.665 17.5341 478.421 18.4716 478.409 19.5057V23.7841C478.409 25.0795 478.648 26.1989 479.125 27.142C479.614 28.0852 480.301 28.8125 481.188 29.3239C482.074 29.8352 483.125 30.0909 484.341 30.0909C485.148 30.0909 485.887 29.9773 486.557 29.75C487.227 29.5227 487.801 29.1818 488.279 28.7273C488.756 28.2727 489.119 27.7159 489.369 27.0568L496.085 27.5C495.744 29.1136 495.046 30.5227 493.989 31.7273C492.943 32.9205 491.591 33.8523 489.932 34.5227C488.284 35.1818 486.381 35.5114 484.222 35.5114ZM531.386 0.0909081H538.766V22.7614C538.766 25.3068 538.158 27.5341 536.942 29.4432C535.738 31.3523 534.05 32.8409 531.88 33.9091C529.71 34.9659 527.181 35.4943 524.295 35.4943C521.397 35.4943 518.863 34.9659 516.692 33.9091C514.522 32.8409 512.835 31.3523 511.63 29.4432C510.425 27.5341 509.823 25.3068 509.823 22.7614V0.0909081H517.204V22.1307C517.204 23.4602 517.494 24.642 518.073 25.6761C518.664 26.7102 519.494 27.5227 520.562 28.1136C521.63 28.7045 522.874 29 524.295 29C525.727 29 526.971 28.7045 528.028 28.1136C529.096 27.5227 529.92 26.7102 530.499 25.6761C531.09 24.642 531.386 23.4602 531.386 22.1307V0.0909081ZM565.286 16.2841L558.639 16.6932C558.525 16.125 558.281 15.6136 557.906 15.1591C557.531 14.6932 557.036 14.3239 556.423 14.0511C555.821 13.767 555.099 13.625 554.258 13.625C553.133 13.625 552.184 13.8636 551.411 14.3409C550.639 14.8068 550.252 15.4318 550.252 16.2159C550.252 16.8409 550.502 17.3693 551.002 17.8011C551.502 18.233 552.36 18.5795 553.576 18.8409L558.315 19.7955C560.86 20.3182 562.758 21.1591 564.008 22.3182C565.258 23.4773 565.883 25 565.883 26.8864C565.883 28.6023 565.377 30.108 564.366 31.4034C563.366 32.6989 561.991 33.7102 560.241 34.4375C558.502 35.1534 556.497 35.5114 554.224 35.5114C550.758 35.5114 547.997 34.7898 545.94 33.3466C543.894 31.892 542.696 29.9148 542.343 27.4148L549.485 27.0398C549.701 28.0966 550.224 28.9034 551.054 29.4602C551.883 30.0057 552.946 30.2784 554.241 30.2784C555.514 30.2784 556.536 30.0341 557.309 29.5455C558.093 29.0455 558.491 28.4034 558.502 27.6193C558.491 26.9602 558.213 26.4205 557.667 26C557.122 25.5682 556.281 25.2386 555.144 25.0114L550.61 24.108C548.054 23.5966 546.15 22.7102 544.9 21.4489C543.661 20.1875 543.042 18.5795 543.042 16.625C543.042 14.9432 543.497 13.4943 544.406 12.2784C545.326 11.0625 546.616 10.125 548.275 9.46591C549.946 8.80682 551.9 8.47727 554.139 8.47727C557.446 8.47727 560.048 9.17614 561.946 10.5739C563.855 11.9716 564.968 13.875 565.286 16.2841Z" fill="url(#paint0_linear_2_1658)"/>
<defs>
<linearGradient id="paint0_linear_2_1658" x1="246.5" y1="13.4999" x2="376.5" y2="34.9999" gradientUnits="userSpaceOnUse">
<stop stop-color="#BA963A"/>
<stop offset="1" stop-color="#CC9C21"/>
</linearGradient>
</defs>
</svg>
