<svg width="803" height="48" viewBox="0 0 803 48" fill="none" xmlns="http://www.w3.org/2000/svg">
<path d="M31.8352 14.3125H24.3693C24.233 13.3466 23.9545 12.4886 23.5341 11.7386C23.1136 10.9773 22.5739 10.3295 21.9148 9.79545C21.2557 9.26136 20.4943 8.85227 19.6307 8.56818C18.7784 8.28409 17.8523 8.14205 16.8523 8.14205C15.0455 8.14205 13.4716 8.59091 12.1307 9.48864C10.7898 10.375 9.75 11.6705 9.01136 13.375C8.27273 15.0682 7.90341 17.125 7.90341 19.5455C7.90341 22.0341 8.27273 24.125 9.01136 25.8182C9.76136 27.5114 10.8068 28.7898 12.1477 29.6534C13.4886 30.517 15.0398 30.9489 16.8011 30.9489C17.7898 30.9489 18.7045 30.8182 19.5455 30.5568C20.3977 30.2955 21.1534 29.9148 21.8125 29.4148C22.4716 28.9034 23.017 28.2841 23.4489 27.5568C23.892 26.8295 24.1989 26 24.3693 25.0682L31.8352 25.1023C31.642 26.7045 31.1591 28.25 30.3864 29.7386C29.625 31.2159 28.5966 32.5398 27.3011 33.7102C26.017 34.8693 24.483 35.7898 22.6989 36.4716C20.9261 37.142 18.9205 37.4773 16.6818 37.4773C13.5682 37.4773 10.7841 36.7727 8.32955 35.3636C5.88636 33.9545 3.95455 31.9148 2.53409 29.2443C1.125 26.5739 0.420455 23.3409 0.420455 19.5455C0.420455 15.7386 1.13636 12.5 2.56818 9.82955C4 7.15909 5.94318 5.125 8.39773 3.72727C10.8523 2.31818 13.6136 1.61364 16.6818 1.61364C18.7045 1.61364 20.5795 1.89773 22.3068 2.46591C24.0455 3.03409 25.5852 3.86364 26.9261 4.95454C28.267 6.03409 29.358 7.35795 30.1989 8.92614C31.0511 10.4943 31.5966 12.2898 31.8352 14.3125ZM47.621 37.5114C44.9733 37.5114 42.6835 36.9489 40.7517 35.8239C38.8312 34.6875 37.3483 33.108 36.3028 31.0852C35.2574 29.0511 34.7347 26.6932 34.7347 24.0114C34.7347 21.3068 35.2574 18.9432 36.3028 16.9205C37.3483 14.8864 38.8312 13.3068 40.7517 12.1818C42.6835 11.0455 44.9733 10.4773 47.621 10.4773C50.2687 10.4773 52.5528 11.0455 54.4733 12.1818C56.4051 13.3068 57.8937 14.8864 58.9392 16.9205C59.9847 18.9432 60.5074 21.3068 60.5074 24.0114C60.5074 26.6932 59.9847 29.0511 58.9392 31.0852C57.8937 33.108 56.4051 34.6875 54.4733 35.8239C52.5528 36.9489 50.2687 37.5114 47.621 37.5114ZM47.6551 31.8864C48.8597 31.8864 49.8653 31.5455 50.6722 30.8636C51.479 30.1705 52.0869 29.2273 52.496 28.0341C52.9165 26.8409 53.1267 25.483 53.1267 23.9602C53.1267 22.4375 52.9165 21.0795 52.496 19.8864C52.0869 18.6932 51.479 17.75 50.6722 17.0568C49.8653 16.3636 48.8597 16.017 47.6551 16.017C46.4392 16.017 45.4165 16.3636 44.5869 17.0568C43.7687 17.75 43.1494 18.6932 42.729 19.8864C42.3199 21.0795 42.1153 22.4375 42.1153 23.9602C42.1153 25.483 42.3199 26.8409 42.729 28.0341C43.1494 29.2273 43.7687 30.1705 44.5869 30.8636C45.4165 31.5455 46.4392 31.8864 47.6551 31.8864ZM64.029 37V10.8182H70.9494V15.4375H71.2562C71.8017 13.9034 72.7108 12.6932 73.9835 11.8068C75.2562 10.9205 76.779 10.4773 78.5517 10.4773C80.3472 10.4773 81.8756 10.9261 83.1369 11.8239C84.3983 12.7102 85.2392 13.9148 85.6597 15.4375H85.9324C86.4665 13.9375 87.4324 12.7386 88.8301 11.8409C90.2392 10.9318 91.904 10.4773 93.8244 10.4773C96.2676 10.4773 98.2506 11.2557 99.7733 12.8125C101.307 14.358 102.074 16.5511 102.074 19.392V37H94.8301V20.8239C94.8301 19.3693 94.4437 18.2784 93.671 17.5511C92.8983 16.8239 91.9324 16.4602 90.7733 16.4602C89.4551 16.4602 88.4267 16.8807 87.6881 17.7216C86.9494 18.5511 86.5801 19.6477 86.5801 21.0114V37H79.5403V20.6705C79.5403 19.3864 79.171 18.3636 78.4324 17.6023C77.7051 16.8409 76.7449 16.4602 75.5517 16.4602C74.7449 16.4602 74.0176 16.6648 73.3699 17.0739C72.7335 17.4716 72.2278 18.0341 71.8528 18.7614C71.4778 19.4773 71.2903 20.3182 71.2903 21.2841V37H64.029ZM106.61 46.8182V10.8182H113.769V15.2159H114.093C114.411 14.5114 114.872 13.7955 115.474 13.0682C116.088 12.3295 116.883 11.7159 117.86 11.2273C118.849 10.7273 120.076 10.4773 121.542 10.4773C123.451 10.4773 125.213 10.9773 126.826 11.9773C128.44 12.9659 129.73 14.4602 130.695 16.4602C131.661 18.4489 132.144 20.9432 132.144 23.9432C132.144 26.8636 131.673 29.3295 130.73 31.3409C129.798 33.3409 128.525 34.858 126.911 35.892C125.309 36.9148 123.514 37.4261 121.525 37.4261C120.116 37.4261 118.917 37.1932 117.928 36.7273C116.951 36.2614 116.15 35.6761 115.525 34.9716C114.9 34.2557 114.423 33.5341 114.093 32.8068H113.872V46.8182H106.61ZM113.718 23.9091C113.718 25.4659 113.934 26.8239 114.366 27.983C114.798 29.142 115.423 30.0455 116.241 30.6932C117.059 31.3295 118.053 31.6477 119.224 31.6477C120.406 31.6477 121.406 31.3239 122.224 30.6761C123.042 30.017 123.661 29.108 124.082 27.9489C124.514 26.7784 124.73 25.4318 124.73 23.9091C124.73 22.3977 124.519 21.0682 124.099 19.9205C123.678 18.7727 123.059 17.875 122.241 17.2273C121.423 16.5795 120.417 16.2557 119.224 16.2557C118.042 16.2557 117.042 16.5682 116.224 17.1932C115.417 17.8182 114.798 18.7045 114.366 19.8523C113.934 21 113.718 22.3523 113.718 23.9091ZM143.047 2.09091V37H135.785V2.09091H143.047ZM159.595 37.5114C156.902 37.5114 154.584 36.9659 152.641 35.875C150.709 34.7727 149.22 33.2159 148.175 31.2045C147.129 29.1818 146.607 26.7898 146.607 24.0284C146.607 21.3352 147.129 18.9716 148.175 16.9375C149.22 14.9034 150.692 13.3182 152.589 12.1818C154.499 11.0455 156.737 10.4773 159.305 10.4773C161.033 10.4773 162.641 10.7557 164.129 11.3125C165.629 11.858 166.936 12.6818 168.05 13.7841C169.175 14.8864 170.05 16.2727 170.675 17.9432C171.3 19.6023 171.612 21.5455 171.612 23.7727V25.767H149.504V21.267H164.777C164.777 20.2216 164.55 19.2955 164.095 18.4886C163.641 17.6818 163.01 17.0511 162.203 16.5966C161.408 16.1307 160.482 15.8977 159.425 15.8977C158.322 15.8977 157.345 16.1534 156.493 16.6648C155.652 17.1648 154.993 17.8409 154.516 18.6932C154.038 19.5341 153.794 20.4716 153.783 21.5057V25.7841C153.783 27.0795 154.021 28.1989 154.499 29.142C154.987 30.0852 155.675 30.8125 156.561 31.3239C157.447 31.8352 158.499 32.0909 159.714 32.0909C160.521 32.0909 161.26 31.9773 161.93 31.75C162.601 31.5227 163.175 31.1818 163.652 30.7273C164.129 30.2727 164.493 29.7159 164.743 29.0568L171.459 29.5C171.118 31.1136 170.419 32.5227 169.362 33.7273C168.317 34.9205 166.964 35.8523 165.305 36.5227C163.658 37.1818 161.754 37.5114 159.595 37.5114ZM189.077 10.8182V16.2727H173.31V10.8182H189.077ZM176.889 4.54545H184.151V28.9545C184.151 29.625 184.253 30.1477 184.458 30.5227C184.662 30.8864 184.946 31.142 185.31 31.2898C185.685 31.4375 186.117 31.5114 186.605 31.5114C186.946 31.5114 187.287 31.483 187.628 31.4261C187.969 31.358 188.23 31.3068 188.412 31.2727L189.554 36.6761C189.191 36.7898 188.679 36.9205 188.02 37.0682C187.361 37.2273 186.56 37.3239 185.617 37.358C183.867 37.4261 182.333 37.1932 181.014 36.6591C179.708 36.125 178.691 35.2955 177.963 34.1705C177.236 33.0455 176.878 31.625 176.889 29.9091V4.54545ZM204.258 37.5114C201.564 37.5114 199.246 36.9659 197.303 35.875C195.371 34.7727 193.883 33.2159 192.837 31.2045C191.792 29.1818 191.269 26.7898 191.269 24.0284C191.269 21.3352 191.792 18.9716 192.837 16.9375C193.883 14.9034 195.354 13.3182 197.252 12.1818C199.161 11.0455 201.4 10.4773 203.968 10.4773C205.695 10.4773 207.303 10.7557 208.792 11.3125C210.292 11.858 211.599 12.6818 212.712 13.7841C213.837 14.8864 214.712 16.2727 215.337 17.9432C215.962 19.6023 216.275 21.5455 216.275 23.7727V25.767H194.167V21.267H209.439C209.439 20.2216 209.212 19.2955 208.758 18.4886C208.303 17.6818 207.672 17.0511 206.866 16.5966C206.07 16.1307 205.144 15.8977 204.087 15.8977C202.985 15.8977 202.008 16.1534 201.155 16.6648C200.314 17.1648 199.655 17.8409 199.178 18.6932C198.701 19.5341 198.457 20.4716 198.445 21.5057V25.7841C198.445 27.0795 198.684 28.1989 199.161 29.142C199.65 30.0852 200.337 30.8125 201.224 31.3239C202.11 31.8352 203.161 32.0909 204.377 32.0909C205.184 32.0909 205.922 31.9773 206.593 31.75C207.263 31.5227 207.837 31.1818 208.314 30.7273C208.792 30.2727 209.155 29.7159 209.405 29.0568L216.121 29.5C215.78 31.1136 215.082 32.5227 214.025 33.7273C212.979 34.9205 211.627 35.8523 209.968 36.5227C208.32 37.1818 206.417 37.5114 204.258 37.5114ZM229.723 46.8182V10.8182H236.882V15.2159H237.206C237.524 14.5114 237.984 13.7955 238.586 13.0682C239.2 12.3295 239.995 11.7159 240.973 11.2273C241.961 10.7273 243.189 10.4773 244.655 10.4773C246.564 10.4773 248.325 10.9773 249.939 11.9773C251.552 12.9659 252.842 14.4602 253.808 16.4602C254.774 18.4489 255.257 20.9432 255.257 23.9432C255.257 26.8636 254.785 29.3295 253.842 31.3409C252.91 33.3409 251.637 34.858 250.024 35.892C248.422 36.9148 246.626 37.4261 244.637 37.4261C243.228 37.4261 242.03 37.1932 241.041 36.7273C240.064 36.2614 239.262 35.6761 238.637 34.9716C238.012 34.2557 237.535 33.5341 237.206 32.8068H236.984V46.8182H229.723ZM236.831 23.9091C236.831 25.4659 237.047 26.8239 237.478 27.983C237.91 29.142 238.535 30.0455 239.353 30.6932C240.172 31.3295 241.166 31.6477 242.336 31.6477C243.518 31.6477 244.518 31.3239 245.336 30.6761C246.155 30.017 246.774 29.108 247.194 27.9489C247.626 26.7784 247.842 25.4318 247.842 23.9091C247.842 22.3977 247.632 21.0682 247.211 19.9205C246.791 18.7727 246.172 17.875 245.353 17.2273C244.535 16.5795 243.53 16.2557 242.336 16.2557C241.155 16.2557 240.155 16.5682 239.336 17.1932C238.53 17.8182 237.91 18.7045 237.478 19.8523C237.047 21 236.831 22.3523 236.831 23.9091ZM266.364 37.4943C264.693 37.4943 263.205 37.2045 261.898 36.625C260.591 36.0341 259.557 35.1648 258.795 34.017C258.045 32.858 257.67 31.4148 257.67 29.6875C257.67 28.233 257.938 27.0114 258.472 26.0227C259.006 25.0341 259.733 24.2386 260.653 23.6364C261.574 23.0341 262.619 22.5795 263.79 22.2727C264.972 21.9659 266.21 21.75 267.506 21.625C269.028 21.4659 270.256 21.3182 271.188 21.1818C272.119 21.0341 272.795 20.8182 273.216 20.5341C273.636 20.25 273.847 19.8295 273.847 19.2727V19.1705C273.847 18.0909 273.506 17.2557 272.824 16.6648C272.153 16.0739 271.199 15.7784 269.96 15.7784C268.653 15.7784 267.614 16.0682 266.841 16.6477C266.068 17.2159 265.557 17.9318 265.307 18.7955L258.591 18.25C258.932 16.6591 259.602 15.2841 260.602 14.125C261.602 12.9545 262.892 12.0568 264.472 11.4318C266.063 10.7955 267.903 10.4773 269.994 10.4773C271.449 10.4773 272.841 10.6477 274.17 10.9886C275.511 11.3295 276.699 11.858 277.733 12.5739C278.778 13.2898 279.602 14.2102 280.205 15.3352C280.807 16.4489 281.108 17.7841 281.108 19.3409V37H274.222V33.3693H274.017C273.597 34.1875 273.034 34.9091 272.33 35.5341C271.625 36.1477 270.778 36.6307 269.79 36.983C268.801 37.3239 267.659 37.4943 266.364 37.4943ZM268.443 32.483C269.511 32.483 270.455 32.2727 271.273 31.8523C272.091 31.4205 272.733 30.8409 273.199 30.1136C273.665 29.3864 273.898 28.5625 273.898 27.642V24.8636C273.67 25.0114 273.358 25.1477 272.96 25.2727C272.574 25.3864 272.136 25.4943 271.648 25.5966C271.159 25.6875 270.67 25.7727 270.182 25.8523C269.693 25.9205 269.25 25.983 268.852 26.0398C268 26.1648 267.256 26.3636 266.619 26.6364C265.983 26.9091 265.489 27.2784 265.136 27.7443C264.784 28.1989 264.608 28.767 264.608 29.4489C264.608 30.4375 264.966 31.1932 265.682 31.7159C266.409 32.2273 267.33 32.483 268.443 32.483ZM297.371 37.5114C294.689 37.5114 292.382 36.9432 290.451 35.8068C288.53 34.6591 287.053 33.0682 286.019 31.0341C284.996 29 284.485 26.6591 284.485 24.0114C284.485 21.3295 285.002 18.9773 286.036 16.9545C287.081 14.9205 288.564 13.3352 290.485 12.1989C292.405 11.0511 294.689 10.4773 297.337 10.4773C299.621 10.4773 301.621 10.892 303.337 11.7216C305.053 12.5511 306.411 13.7159 307.411 15.2159C308.411 16.7159 308.962 18.4773 309.064 20.5H302.212C302.019 19.1932 301.507 18.142 300.678 17.3466C299.86 16.5398 298.786 16.1364 297.456 16.1364C296.331 16.1364 295.348 16.4432 294.507 17.0568C293.678 17.6591 293.03 18.5398 292.564 19.6989C292.098 20.858 291.865 22.2614 291.865 23.9091C291.865 25.5795 292.093 27 292.547 28.1705C293.013 29.3409 293.666 30.233 294.507 30.8466C295.348 31.4602 296.331 31.767 297.456 31.767C298.286 31.767 299.03 31.5966 299.689 31.2557C300.36 30.9148 300.911 30.4205 301.343 29.7727C301.786 29.1136 302.076 28.3239 302.212 27.4034H309.064C308.951 29.4034 308.405 31.1648 307.428 32.6875C306.462 34.1989 305.127 35.3807 303.422 36.233C301.718 37.0852 299.701 37.5114 297.371 37.5114ZM319.093 29.4659L319.11 20.7557H320.167L328.553 10.8182H336.888L325.621 23.9773H323.9L319.093 29.4659ZM312.513 37V2.09091H319.775V37H312.513ZM328.877 37L321.172 25.5966L326.013 20.4659L337.383 37H328.877ZM346.717 37.4943C345.046 37.4943 343.558 37.2045 342.251 36.625C340.944 36.0341 339.91 35.1648 339.149 34.017C338.399 32.858 338.024 31.4148 338.024 29.6875C338.024 28.233 338.291 27.0114 338.825 26.0227C339.359 25.0341 340.086 24.2386 341.007 23.6364C341.927 23.0341 342.972 22.5795 344.143 22.2727C345.325 21.9659 346.563 21.75 347.859 21.625C349.382 21.4659 350.609 21.3182 351.541 21.1818C352.472 21.0341 353.149 20.8182 353.569 20.5341C353.989 20.25 354.2 19.8295 354.2 19.2727V19.1705C354.2 18.0909 353.859 17.2557 353.177 16.6648C352.507 16.0739 351.552 15.7784 350.313 15.7784C349.007 15.7784 347.967 16.0682 347.194 16.6477C346.421 17.2159 345.91 17.9318 345.66 18.7955L338.944 18.25C339.285 16.6591 339.955 15.2841 340.955 14.125C341.955 12.9545 343.245 12.0568 344.825 11.4318C346.416 10.7955 348.257 10.4773 350.347 10.4773C351.802 10.4773 353.194 10.6477 354.524 10.9886C355.864 11.3295 357.052 11.858 358.086 12.5739C359.132 13.2898 359.955 14.2102 360.558 15.3352C361.16 16.4489 361.461 17.7841 361.461 19.3409V37H354.575V33.3693H354.37C353.95 34.1875 353.387 34.9091 352.683 35.5341C351.978 36.1477 351.132 36.6307 350.143 36.983C349.154 37.3239 348.012 37.4943 346.717 37.4943ZM348.796 32.483C349.864 32.483 350.808 32.2727 351.626 31.8523C352.444 31.4205 353.086 30.8409 353.552 30.1136C354.018 29.3864 354.251 28.5625 354.251 27.642V24.8636C354.024 25.0114 353.711 25.1477 353.313 25.2727C352.927 25.3864 352.489 25.4943 352.001 25.5966C351.512 25.6875 351.024 25.7727 350.535 25.8523C350.046 25.9205 349.603 25.983 349.205 26.0398C348.353 26.1648 347.609 26.3636 346.972 26.6364C346.336 26.9091 345.842 27.2784 345.489 27.7443C345.137 28.1989 344.961 28.767 344.961 29.4489C344.961 30.4375 345.319 31.1932 346.035 31.7159C346.762 32.2273 347.683 32.483 348.796 32.483ZM377.69 47.3636C375.338 47.3636 373.321 47.0398 371.639 46.392C369.968 45.7557 368.639 44.8864 367.65 43.7841C366.662 42.6818 366.02 41.4432 365.724 40.0682L372.44 39.1648C372.645 39.6875 372.968 40.1761 373.412 40.6307C373.855 41.0852 374.44 41.4489 375.167 41.7216C375.906 42.0057 376.804 42.1477 377.861 42.1477C379.44 42.1477 380.741 41.7614 381.764 40.9886C382.798 40.2273 383.315 38.9489 383.315 37.1534V32.3636H383.008C382.69 33.0909 382.213 33.7784 381.576 34.4261C380.94 35.0739 380.122 35.6023 379.122 36.0114C378.122 36.4205 376.929 36.625 375.542 36.625C373.576 36.625 371.787 36.1705 370.173 35.2614C368.571 34.3409 367.292 32.9375 366.338 31.0511C365.395 29.1534 364.923 26.7557 364.923 23.858C364.923 20.892 365.406 18.4148 366.372 16.4261C367.338 14.4375 368.622 12.9489 370.224 11.9602C371.838 10.9716 373.605 10.4773 375.525 10.4773C376.991 10.4773 378.218 10.7273 379.207 11.2273C380.196 11.7159 380.991 12.3295 381.593 13.0682C382.207 13.7955 382.679 14.5114 383.008 15.2159H383.281V10.8182H390.491V37.2557C390.491 39.483 389.946 41.3466 388.855 42.8466C387.764 44.3466 386.253 45.4716 384.321 46.2216C382.4 46.983 380.19 47.3636 377.69 47.3636ZM377.843 31.1705C379.014 31.1705 380.003 30.8807 380.809 30.3011C381.628 29.7102 382.253 28.8693 382.684 27.7784C383.128 26.6761 383.349 25.358 383.349 23.8239C383.349 22.2898 383.133 20.9602 382.701 19.8352C382.27 18.6989 381.645 17.8182 380.826 17.1932C380.008 16.5682 379.014 16.2557 377.843 16.2557C376.65 16.2557 375.645 16.5795 374.826 17.2273C374.008 17.8636 373.389 18.75 372.968 19.8864C372.548 21.0227 372.338 22.3352 372.338 23.8239C372.338 25.3352 372.548 26.642 372.968 27.7443C373.4 28.8352 374.02 29.6818 374.826 30.2841C375.645 30.875 376.65 31.1705 377.843 31.1705ZM407.001 37.5114C404.308 37.5114 401.99 36.9659 400.047 35.875C398.115 34.7727 396.626 33.2159 395.581 31.2045C394.536 29.1818 394.013 26.7898 394.013 24.0284C394.013 21.3352 394.536 18.9716 395.581 16.9375C396.626 14.9034 398.098 13.3182 399.996 12.1818C401.905 11.0455 404.143 10.4773 406.712 10.4773C408.439 10.4773 410.047 10.7557 411.536 11.3125C413.036 11.858 414.342 12.6818 415.456 13.7841C416.581 14.8864 417.456 16.2727 418.081 17.9432C418.706 19.6023 419.018 21.5455 419.018 23.7727V25.767H396.911V21.267H412.183C412.183 20.2216 411.956 19.2955 411.501 18.4886C411.047 17.6818 410.416 17.0511 409.609 16.5966C408.814 16.1307 407.888 15.8977 406.831 15.8977C405.729 15.8977 404.751 16.1534 403.899 16.6648C403.058 17.1648 402.399 17.8409 401.922 18.6932C401.445 19.5341 401.2 20.4716 401.189 21.5057V25.7841C401.189 27.0795 401.428 28.1989 401.905 29.142C402.393 30.0852 403.081 30.8125 403.967 31.3239C404.854 31.8352 405.905 32.0909 407.121 32.0909C407.928 32.0909 408.666 31.9773 409.337 31.75C410.007 31.5227 410.581 31.1818 411.058 30.7273C411.536 30.2727 411.899 29.7159 412.149 29.0568L418.865 29.5C418.524 31.1136 417.825 32.5227 416.768 33.7273C415.723 34.9205 414.371 35.8523 412.712 36.5227C411.064 37.1818 409.161 37.5114 407.001 37.5114ZM444.341 18.2841L437.693 18.6932C437.58 18.125 437.335 17.6136 436.96 17.1591C436.585 16.6932 436.091 16.3239 435.478 16.0511C434.875 15.767 434.154 15.625 433.313 15.625C432.188 15.625 431.239 15.8636 430.466 16.3409C429.693 16.8068 429.307 17.4318 429.307 18.2159C429.307 18.8409 429.557 19.3693 430.057 19.8011C430.557 20.233 431.415 20.5795 432.631 20.8409L437.37 21.7955C439.915 22.3182 441.813 23.1591 443.063 24.3182C444.313 25.4773 444.938 27 444.938 28.8864C444.938 30.6023 444.432 32.108 443.421 33.4034C442.421 34.6989 441.046 35.7102 439.296 36.4375C437.557 37.1534 435.551 37.5114 433.279 37.5114C429.813 37.5114 427.051 36.7898 424.995 35.3466C422.949 33.892 421.75 31.9148 421.398 29.4148L428.54 29.0398C428.756 30.0966 429.279 30.9034 430.108 31.4602C430.938 32.0057 432 32.2784 433.296 32.2784C434.568 32.2784 435.591 32.0341 436.364 31.5455C437.148 31.0455 437.546 30.4034 437.557 29.6193C437.546 28.9602 437.267 28.4205 436.722 28C436.176 27.5682 435.335 27.2386 434.199 27.0114L429.665 26.108C427.108 25.5966 425.205 24.7102 423.955 23.4489C422.716 22.1875 422.097 20.5795 422.097 18.625C422.097 16.9432 422.551 15.4943 423.46 14.2784C424.381 13.0625 425.671 12.125 427.33 11.4659C429 10.8068 430.955 10.4773 433.193 10.4773C436.5 10.4773 439.103 11.1761 441 12.5739C442.909 13.9716 444.023 15.875 444.341 18.2841ZM472.299 10.8182V16.2727H456.14V10.8182H472.299ZM459.839 37V8.92614C459.839 7.02841 460.208 5.45454 460.947 4.20454C461.697 2.95454 462.72 2.01704 464.015 1.39204C465.311 0.767043 466.782 0.454543 468.43 0.454543C469.543 0.454543 470.561 0.539771 471.481 0.710227C472.413 0.880681 473.106 1.03409 473.561 1.17045L472.265 6.625C471.981 6.53409 471.629 6.44886 471.208 6.36932C470.799 6.28977 470.379 6.25 469.947 6.25C468.879 6.25 468.134 6.5 467.714 7C467.293 7.48864 467.083 8.17614 467.083 9.0625V37H459.839ZM486.427 37.5114C483.78 37.5114 481.49 36.9489 479.558 35.8239C477.638 34.6875 476.155 33.108 475.109 31.0852C474.064 29.0511 473.541 26.6932 473.541 24.0114C473.541 21.3068 474.064 18.9432 475.109 16.9205C476.155 14.8864 477.638 13.3068 479.558 12.1818C481.49 11.0455 483.78 10.4773 486.427 10.4773C489.075 10.4773 491.359 11.0455 493.28 12.1818C495.211 13.3068 496.7 14.8864 497.745 16.9205C498.791 18.9432 499.314 21.3068 499.314 24.0114C499.314 26.6932 498.791 29.0511 497.745 31.0852C496.7 33.108 495.211 34.6875 493.28 35.8239C491.359 36.9489 489.075 37.5114 486.427 37.5114ZM486.461 31.8864C487.666 31.8864 488.672 31.5455 489.478 30.8636C490.285 30.1705 490.893 29.2273 491.302 28.0341C491.723 26.8409 491.933 25.483 491.933 23.9602C491.933 22.4375 491.723 21.0795 491.302 19.8864C490.893 18.6932 490.285 17.75 489.478 17.0568C488.672 16.3636 487.666 16.017 486.461 16.017C485.245 16.017 484.223 16.3636 483.393 17.0568C482.575 17.75 481.956 18.6932 481.535 19.8864C481.126 21.0795 480.922 22.4375 480.922 23.9602C480.922 25.483 481.126 26.8409 481.535 28.0341C481.956 29.2273 482.575 30.1705 483.393 30.8636C484.223 31.5455 485.245 31.8864 486.461 31.8864ZM502.835 37V10.8182H509.875V15.3864H510.148C510.625 13.7614 511.426 12.5341 512.551 11.7045C513.676 10.8636 514.972 10.4432 516.438 10.4432C516.801 10.4432 517.193 10.4659 517.614 10.5114C518.034 10.5568 518.403 10.6193 518.722 10.6989V17.142C518.381 17.0398 517.909 16.9489 517.307 16.8693C516.705 16.7898 516.153 16.75 515.653 16.75C514.585 16.75 513.631 16.983 512.79 17.4489C511.96 17.9034 511.301 18.5398 510.812 19.358C510.335 20.1761 510.097 21.1193 510.097 22.1875V37H502.835ZM543.117 37.5114C540.424 37.5114 538.106 36.9659 536.162 35.875C534.231 34.7727 532.742 33.2159 531.697 31.2045C530.651 29.1818 530.128 26.7898 530.128 24.0284C530.128 21.3352 530.651 18.9716 531.697 16.9375C532.742 14.9034 534.214 13.3182 536.111 12.1818C538.02 11.0455 540.259 10.4773 542.827 10.4773C544.555 10.4773 546.162 10.7557 547.651 11.3125C549.151 11.858 550.458 12.6818 551.572 13.7841C552.697 14.8864 553.572 16.2727 554.197 17.9432C554.822 19.6023 555.134 21.5455 555.134 23.7727V25.767H533.026V21.267H548.299C548.299 20.2216 548.072 19.2955 547.617 18.4886C547.162 17.6818 546.532 17.0511 545.725 16.5966C544.93 16.1307 544.003 15.8977 542.947 15.8977C541.844 15.8977 540.867 16.1534 540.015 16.6648C539.174 17.1648 538.515 17.8409 538.037 18.6932C537.56 19.5341 537.316 20.4716 537.305 21.5057V25.7841C537.305 27.0795 537.543 28.1989 538.02 29.142C538.509 30.0852 539.197 30.8125 540.083 31.3239C540.969 31.8352 542.02 32.0909 543.236 32.0909C544.043 32.0909 544.782 31.9773 545.452 31.75C546.123 31.5227 546.697 31.1818 547.174 30.7273C547.651 30.2727 548.015 29.7159 548.265 29.0568L554.981 29.5C554.64 31.1136 553.941 32.5227 552.884 33.7273C551.839 34.9205 550.486 35.8523 548.827 36.5227C547.18 37.1818 545.276 37.5114 543.117 37.5114ZM582.379 10.8182L573.225 37H565.043L555.89 10.8182H563.561L568.998 29.5511H569.271L574.691 10.8182H582.379ZM595.983 37.5114C593.29 37.5114 590.971 36.9659 589.028 35.875C587.096 34.7727 585.608 33.2159 584.562 31.2045C583.517 29.1818 582.994 26.7898 582.994 24.0284C582.994 21.3352 583.517 18.9716 584.562 16.9375C585.608 14.9034 587.079 13.3182 588.977 12.1818C590.886 11.0455 593.125 10.4773 595.693 10.4773C597.42 10.4773 599.028 10.7557 600.517 11.3125C602.017 11.858 603.324 12.6818 604.437 13.7841C605.562 14.8864 606.437 16.2727 607.062 17.9432C607.687 19.6023 608 21.5455 608 23.7727V25.767H585.892V21.267H601.165C601.165 20.2216 600.937 19.2955 600.483 18.4886C600.028 17.6818 599.397 17.0511 598.591 16.5966C597.795 16.1307 596.869 15.8977 595.812 15.8977C594.71 15.8977 593.733 16.1534 592.88 16.6648C592.04 17.1648 591.38 17.8409 590.903 18.6932C590.426 19.5341 590.182 20.4716 590.17 21.5057V25.7841C590.17 27.0795 590.409 28.1989 590.886 29.142C591.375 30.0852 592.062 30.8125 592.949 31.3239C593.835 31.8352 594.886 32.0909 596.102 32.0909C596.909 32.0909 597.647 31.9773 598.318 31.75C598.988 31.5227 599.562 31.1818 600.04 30.7273C600.517 30.2727 600.88 29.7159 601.13 29.0568L607.846 29.5C607.505 31.1136 606.807 32.5227 605.75 33.7273C604.704 34.9205 603.352 35.8523 601.693 36.5227C600.045 37.1818 598.142 37.5114 595.983 37.5114ZM611.538 37V10.8182H618.578V15.3864H618.851C619.328 13.7614 620.129 12.5341 621.254 11.7045C622.379 10.8636 623.675 10.4432 625.141 10.4432C625.504 10.4432 625.896 10.4659 626.317 10.5114C626.737 10.5568 627.107 10.6193 627.425 10.6989V17.142C627.084 17.0398 626.612 16.9489 626.01 16.8693C625.408 16.7898 624.857 16.75 624.357 16.75C623.288 16.75 622.334 16.983 621.493 17.4489C620.663 17.9034 620.004 18.5398 619.516 19.358C619.038 20.1761 618.8 21.1193 618.8 22.1875V37H611.538ZM635.259 46.8182C634.338 46.8182 633.475 46.7443 632.668 46.5966C631.872 46.4602 631.213 46.2841 630.691 46.0682L632.327 40.6477C633.179 40.9091 633.946 41.0511 634.628 41.0739C635.321 41.0966 635.918 40.9375 636.418 40.5966C636.929 40.2557 637.344 39.6761 637.662 38.858L638.088 37.75L628.696 10.8182H636.333L641.753 30.0455H642.026L647.497 10.8182H655.185L645.009 39.8295C644.52 41.2386 643.855 42.4659 643.014 43.5114C642.185 44.5682 641.134 45.3807 639.861 45.9489C638.588 46.5284 637.054 46.8182 635.259 46.8182ZM681.536 10.8182V16.2727H665.769V10.8182H681.536ZM669.349 4.54545H676.61V28.9545C676.61 29.625 676.713 30.1477 676.917 30.5227C677.122 30.8864 677.406 31.142 677.769 31.2898C678.144 31.4375 678.576 31.5114 679.065 31.5114C679.406 31.5114 679.747 31.483 680.088 31.4261C680.428 31.358 680.69 31.3068 680.872 31.2727L682.014 36.6761C681.65 36.7898 681.139 36.9205 680.48 37.0682C679.82 37.2273 679.019 37.3239 678.076 37.358C676.326 37.4261 674.792 37.1932 673.474 36.6591C672.167 36.125 671.15 35.2955 670.423 34.1705C669.695 33.0455 669.338 31.625 669.349 29.9091V4.54545ZM685.066 37V10.8182H692.106V15.3864H692.379C692.856 13.7614 693.657 12.5341 694.782 11.7045C695.907 10.8636 697.203 10.4432 698.669 10.4432C699.032 10.4432 699.424 10.4659 699.845 10.5114C700.265 10.5568 700.635 10.6193 700.953 10.6989V17.142C700.612 17.0398 700.14 16.9489 699.538 16.8693C698.936 16.7898 698.385 16.75 697.885 16.75C696.816 16.75 695.862 16.983 695.021 17.4489C694.191 17.9034 693.532 18.5398 693.044 19.358C692.566 20.1761 692.328 21.1193 692.328 22.1875V37H685.066ZM710.223 37.4943C708.553 37.4943 707.064 37.2045 705.757 36.625C704.45 36.0341 703.416 35.1648 702.655 34.017C701.905 32.858 701.53 31.4148 701.53 29.6875C701.53 28.233 701.797 27.0114 702.331 26.0227C702.865 25.0341 703.592 24.2386 704.513 23.6364C705.433 23.0341 706.479 22.5795 707.649 22.2727C708.831 21.9659 710.07 21.75 711.365 21.625C712.888 21.4659 714.115 21.3182 715.047 21.1818C715.979 21.0341 716.655 20.8182 717.075 20.5341C717.496 20.25 717.706 19.8295 717.706 19.2727V19.1705C717.706 18.0909 717.365 17.2557 716.683 16.6648C716.013 16.0739 715.058 15.7784 713.82 15.7784C712.513 15.7784 711.473 16.0682 710.7 16.6477C709.928 17.2159 709.416 17.9318 709.166 18.7955L702.45 18.25C702.791 16.6591 703.462 15.2841 704.462 14.125C705.462 12.9545 706.751 12.0568 708.331 11.4318C709.922 10.7955 711.763 10.4773 713.854 10.4773C715.308 10.4773 716.7 10.6477 718.03 10.9886C719.371 11.3295 720.558 11.858 721.592 12.5739C722.638 13.2898 723.462 14.2102 724.064 15.3352C724.666 16.4489 724.967 17.7841 724.967 19.3409V37H718.081V33.3693H717.876C717.456 34.1875 716.893 34.9091 716.189 35.5341C715.484 36.1477 714.638 36.6307 713.649 36.983C712.661 37.3239 711.518 37.4943 710.223 37.4943ZM712.303 32.483C713.371 32.483 714.314 32.2727 715.132 31.8523C715.95 31.4205 716.592 30.8409 717.058 30.1136C717.524 29.3864 717.757 28.5625 717.757 27.642V24.8636C717.53 25.0114 717.217 25.1477 716.82 25.2727C716.433 25.3864 715.996 25.4943 715.507 25.5966C715.018 25.6875 714.53 25.7727 714.041 25.8523C713.553 25.9205 713.109 25.983 712.712 26.0398C711.859 26.1648 711.115 26.3636 710.479 26.6364C709.842 26.9091 709.348 27.2784 708.996 27.7443C708.643 28.1989 708.467 28.767 708.467 29.4489C708.467 30.4375 708.825 31.1932 709.541 31.7159C710.268 32.2273 711.189 32.483 712.303 32.483ZM739.049 37.4261C737.06 37.4261 735.259 36.9148 733.645 35.892C732.043 34.858 730.77 33.3409 729.827 31.3409C728.895 29.3295 728.429 26.8636 728.429 23.9432C728.429 20.9432 728.912 18.4489 729.878 16.4602C730.844 14.4602 732.128 12.9659 733.73 11.9773C735.344 10.9773 737.111 10.4773 739.032 10.4773C740.497 10.4773 741.719 10.7273 742.696 11.2273C743.685 11.7159 744.48 12.3295 745.083 13.0682C745.696 13.7955 746.162 14.5114 746.48 15.2159H746.702V2.09091H753.946V37H746.787V32.8068H746.48C746.139 33.5341 745.657 34.2557 745.032 34.9716C744.418 35.6761 743.617 36.2614 742.628 36.7273C741.651 37.1932 740.458 37.4261 739.049 37.4261ZM741.35 31.6477C742.52 31.6477 743.509 31.3295 744.316 30.6932C745.134 30.0455 745.759 29.142 746.191 27.983C746.634 26.8239 746.855 25.4659 746.855 23.9091C746.855 22.3523 746.639 21 746.208 19.8523C745.776 18.7045 745.151 17.8182 744.333 17.1932C743.514 16.5682 742.52 16.2557 741.35 16.2557C740.157 16.2557 739.151 16.5795 738.333 17.2273C737.514 17.875 736.895 18.7727 736.475 19.9205C736.054 21.0682 735.844 22.3977 735.844 23.9091C735.844 25.4318 736.054 26.7784 736.475 27.9489C736.907 29.108 737.526 30.017 738.333 30.6761C739.151 31.3239 740.157 31.6477 741.35 31.6477ZM770.648 37.5114C767.955 37.5114 765.637 36.9659 763.694 35.875C761.762 34.7727 760.273 33.2159 759.228 31.2045C758.182 29.1818 757.66 26.7898 757.66 24.0284C757.66 21.3352 758.182 18.9716 759.228 16.9375C760.273 14.9034 761.745 13.3182 763.643 12.1818C765.552 11.0455 767.79 10.4773 770.358 10.4773C772.086 10.4773 773.694 10.7557 775.182 11.3125C776.682 11.858 777.989 12.6818 779.103 13.7841C780.228 14.8864 781.103 16.2727 781.728 17.9432C782.353 19.6023 782.665 21.5455 782.665 23.7727V25.767H760.557V21.267H775.83C775.83 20.2216 775.603 19.2955 775.148 18.4886C774.694 17.6818 774.063 17.0511 773.256 16.5966C772.461 16.1307 771.535 15.8977 770.478 15.8977C769.376 15.8977 768.398 16.1534 767.546 16.6648C766.705 17.1648 766.046 17.8409 765.569 18.6932C765.091 19.5341 764.847 20.4716 764.836 21.5057V25.7841C764.836 27.0795 765.074 28.1989 765.552 29.142C766.04 30.0852 766.728 30.8125 767.614 31.3239C768.501 31.8352 769.552 32.0909 770.768 32.0909C771.574 32.0909 772.313 31.9773 772.983 31.75C773.654 31.5227 774.228 31.1818 774.705 30.7273C775.182 30.2727 775.546 29.7159 775.796 29.0568L782.512 29.5C782.171 31.1136 781.472 32.5227 780.415 33.7273C779.37 34.9205 778.018 35.8523 776.358 36.5227C774.711 37.1818 772.807 37.5114 770.648 37.5114ZM786.204 37V10.8182H793.244V15.3864H793.517C793.994 13.7614 794.795 12.5341 795.92 11.7045C797.045 10.8636 798.34 10.4432 799.806 10.4432C800.17 10.4432 800.562 10.4659 800.982 10.5114C801.403 10.5568 801.772 10.6193 802.09 10.6989V17.142C801.749 17.0398 801.278 16.9489 800.676 16.8693C800.073 16.7898 799.522 16.75 799.022 16.75C797.954 16.75 796.999 16.983 796.159 17.4489C795.329 17.9034 794.67 18.5398 794.181 19.358C793.704 20.1761 793.465 21.1193 793.465 22.1875V37H786.204Z" fill="url(#paint0_linear_2_2122)"/>
<defs>
<linearGradient id="paint0_linear_2_2122" x1="378.614" y1="15.4999" x2="465.604" y2="24.9818" gradientUnits="userSpaceOnUse">
<stop stop-color="#BA963A"/>
<stop offset="1" stop-color="#CC9C21"/>
</linearGradient>
</defs>
</svg>
