<svg width="476" height="47" viewBox="0 0 476 47" fill="none" xmlns="http://www.w3.org/2000/svg">
<path d="M10.892 37L0.903409 2.09091H8.96591L14.7443 26.3466H15.0341L21.4091 2.09091H28.3125L34.6705 26.3977H34.9773L40.7557 2.09091H48.8182L38.8295 37H31.6364L24.9886 14.1761H24.7159L18.0852 37H10.892ZM58.6935 21.8636V37H51.4321V2.09091H58.4889V15.4375H58.7957C59.3866 13.892 60.3412 12.6818 61.6594 11.8068C62.9776 10.9205 64.631 10.4773 66.6196 10.4773C68.4378 10.4773 70.023 10.875 71.3753 11.6705C72.7389 12.4545 73.7957 13.5852 74.5457 15.0625C75.3071 16.5284 75.6821 18.2841 75.6707 20.3295V37H68.4094V21.625C68.4207 20.0114 68.0116 18.7557 67.1821 17.858C66.3639 16.9602 65.2162 16.5114 63.7389 16.5114C62.7503 16.5114 61.8753 16.7216 61.1139 17.142C60.3639 17.5625 59.773 18.1761 59.3412 18.983C58.9207 19.7784 58.7048 20.7386 58.6935 21.8636ZM87.6511 37.4943C85.9807 37.4943 84.492 37.2045 83.1852 36.625C81.8784 36.0341 80.8443 35.1648 80.083 34.017C79.333 32.858 78.958 31.4148 78.958 29.6875C78.958 28.233 79.225 27.0114 79.7591 26.0227C80.2932 25.0341 81.0205 24.2386 81.9409 23.6364C82.8614 23.0341 83.9068 22.5795 85.0773 22.2727C86.2591 21.9659 87.4977 21.75 88.7932 21.625C90.3159 21.4659 91.5432 21.3182 92.475 21.1818C93.4068 21.0341 94.083 20.8182 94.5034 20.5341C94.9239 20.25 95.1341 19.8295 95.1341 19.2727V19.1705C95.1341 18.0909 94.7932 17.2557 94.1114 16.6648C93.4409 16.0739 92.4864 15.7784 91.2477 15.7784C89.9409 15.7784 88.9011 16.0682 88.1284 16.6477C87.3557 17.2159 86.8443 17.9318 86.5943 18.7955L79.8784 18.25C80.2193 16.6591 80.8898 15.2841 81.8898 14.125C82.8898 12.9545 84.1795 12.0568 85.7591 11.4318C87.35 10.7955 89.1909 10.4773 91.2818 10.4773C92.7364 10.4773 94.1284 10.6477 95.458 10.9886C96.7989 11.3295 97.9864 11.858 99.0205 12.5739C100.066 13.2898 100.89 14.2102 101.492 15.3352C102.094 16.4489 102.395 17.7841 102.395 19.3409V37H95.5091V33.3693H95.3045C94.8841 34.1875 94.3216 34.9091 93.617 35.5341C92.9125 36.1477 92.0659 36.6307 91.0773 36.983C90.0886 37.3239 88.9466 37.4943 87.6511 37.4943ZM89.7307 32.483C90.7989 32.483 91.742 32.2727 92.5602 31.8523C93.3784 31.4205 94.0205 30.8409 94.4864 30.1136C94.9523 29.3864 95.1852 28.5625 95.1852 27.642V24.8636C94.958 25.0114 94.6455 25.1477 94.2477 25.2727C93.8614 25.3864 93.4239 25.4943 92.9352 25.5966C92.4466 25.6875 91.958 25.7727 91.4693 25.8523C90.9807 25.9205 90.5375 25.983 90.1398 26.0398C89.2875 26.1648 88.5432 26.3636 87.9068 26.6364C87.2705 26.9091 86.7761 27.2784 86.4239 27.7443C86.0716 28.1989 85.8955 28.767 85.8955 29.4489C85.8955 30.4375 86.2534 31.1932 86.9693 31.7159C87.6966 32.2273 88.617 32.483 89.7307 32.483ZM120.755 10.8182V16.2727H104.988V10.8182H120.755ZM108.568 4.54545H115.829V28.9545C115.829 29.625 115.931 30.1477 116.136 30.5227C116.34 30.8864 116.624 31.142 116.988 31.2898C117.363 31.4375 117.795 31.5114 118.284 31.5114C118.624 31.5114 118.965 31.483 119.306 31.4261C119.647 31.358 119.909 31.3068 120.09 31.2727L121.232 36.6761C120.869 36.7898 120.357 36.9205 119.698 37.0682C119.039 37.2273 118.238 37.3239 117.295 37.358C115.545 37.4261 114.011 37.1932 112.693 36.6591C111.386 36.125 110.369 35.2955 109.641 34.1705C108.914 33.0455 108.556 31.625 108.568 29.9091V4.54545ZM166.411 19.5455C166.411 23.3523 165.689 26.5909 164.246 29.2614C162.814 31.9318 160.859 33.9716 158.382 35.3807C155.916 36.7784 153.143 37.4773 150.064 37.4773C146.962 37.4773 144.178 36.7727 141.712 35.3636C139.246 33.9545 137.297 31.9148 135.865 29.2443C134.433 26.5739 133.717 23.3409 133.717 19.5455C133.717 15.7386 134.433 12.5 135.865 9.82955C137.297 7.15909 139.246 5.125 141.712 3.72727C144.178 2.31818 146.962 1.61364 150.064 1.61364C153.143 1.61364 155.916 2.31818 158.382 3.72727C160.859 5.125 162.814 7.15909 164.246 9.82955C165.689 12.5 166.411 15.7386 166.411 19.5455ZM158.928 19.5455C158.928 17.0795 158.558 15 157.82 13.3068C157.092 11.6136 156.064 10.3295 154.734 9.45455C153.405 8.57955 151.848 8.14205 150.064 8.14205C148.28 8.14205 146.723 8.57955 145.393 9.45455C144.064 10.3295 143.03 11.6136 142.291 13.3068C141.564 15 141.2 17.0795 141.2 19.5455C141.2 22.0114 141.564 24.0909 142.291 25.7841C143.03 27.4773 144.064 28.7614 145.393 29.6364C146.723 30.5114 148.28 30.9489 150.064 30.9489C151.848 30.9489 153.405 30.5114 154.734 29.6364C156.064 28.7614 157.092 27.4773 157.82 25.7841C158.558 24.0909 158.928 22.0114 158.928 19.5455ZM187.331 25.8523V10.8182H194.593V37H187.621V32.2443H187.348C186.757 33.7784 185.774 35.0114 184.399 35.9432C183.036 36.875 181.371 37.3409 179.405 37.3409C177.655 37.3409 176.115 36.9432 174.786 36.1477C173.456 35.3523 172.416 34.2216 171.666 32.7557C170.928 31.2898 170.553 29.5341 170.541 27.4886V10.8182H177.803V26.1932C177.814 27.7386 178.229 28.9602 179.047 29.858C179.865 30.7557 180.962 31.2045 182.337 31.2045C183.212 31.2045 184.03 31.0057 184.791 30.608C185.553 30.1989 186.166 29.5966 186.632 28.8011C187.11 28.0057 187.343 27.0227 187.331 25.8523ZM199.201 37V10.8182H206.241V15.3864H206.513C206.991 13.7614 207.792 12.5341 208.917 11.7045C210.042 10.8636 211.337 10.4432 212.803 10.4432C213.167 10.4432 213.559 10.4659 213.979 10.5114C214.4 10.5568 214.769 10.6193 215.087 10.6989V17.142C214.746 17.0398 214.275 16.9489 213.672 16.8693C213.07 16.7898 212.519 16.75 212.019 16.75C210.951 16.75 209.996 16.983 209.155 17.4489C208.326 17.9034 207.667 18.5398 207.178 19.358C206.701 20.1761 206.462 21.1193 206.462 22.1875V37H199.201ZM258.488 14.3125H251.022C250.886 13.3466 250.608 12.4886 250.187 11.7386C249.767 10.9773 249.227 10.3295 248.568 9.79545C247.909 9.26136 247.147 8.85227 246.284 8.56818C245.432 8.28409 244.505 8.14205 243.505 8.14205C241.699 8.14205 240.125 8.59091 238.784 9.48864C237.443 10.375 236.403 11.6705 235.664 13.375C234.926 15.0682 234.557 17.125 234.557 19.5455C234.557 22.0341 234.926 24.125 235.664 25.8182C236.414 27.5114 237.46 28.7898 238.801 29.6534C240.142 30.517 241.693 30.9489 243.454 30.9489C244.443 30.9489 245.358 30.8182 246.199 30.5568C247.051 30.2955 247.807 29.9148 248.466 29.4148C249.125 28.9034 249.67 28.2841 250.102 27.5568C250.545 26.8295 250.852 26 251.022 25.0682L258.488 25.1023C258.295 26.7045 257.812 28.25 257.039 29.7386C256.278 31.2159 255.25 32.5398 253.954 33.7102C252.67 34.8693 251.136 35.7898 249.352 36.4716C247.579 37.142 245.574 37.4773 243.335 37.4773C240.221 37.4773 237.437 36.7727 234.983 35.3636C232.539 33.9545 230.608 31.9148 229.187 29.2443C227.778 26.5739 227.074 23.3409 227.074 19.5455C227.074 15.7386 227.789 12.5 229.221 9.82955C230.653 7.15909 232.596 5.125 235.051 3.72727C237.505 2.31818 240.267 1.61364 243.335 1.61364C245.358 1.61364 247.233 1.89773 248.96 2.46591C250.699 3.03409 252.238 3.86364 253.579 4.95454C254.92 6.03409 256.011 7.35795 256.852 8.92614C257.704 10.4943 258.25 12.2898 258.488 14.3125ZM269.706 2.09091V37H262.445V2.09091H269.706ZM274.323 37V10.8182H281.584V37H274.323ZM277.97 7.44318C276.891 7.44318 275.965 7.08523 275.192 6.36932C274.431 5.64204 274.05 4.77273 274.05 3.76136C274.05 2.76136 274.431 1.90341 275.192 1.1875C275.965 0.460226 276.891 0.0965891 277.97 0.0965891C279.05 0.0965891 279.97 0.460226 280.732 1.1875C281.505 1.90341 281.891 2.76136 281.891 3.76136C281.891 4.77273 281.505 5.64204 280.732 6.36932C279.97 7.08523 279.05 7.44318 277.97 7.44318ZM298.133 37.5114C295.439 37.5114 293.121 36.9659 291.178 35.875C289.246 34.7727 287.758 33.2159 286.712 31.2045C285.667 29.1818 285.144 26.7898 285.144 24.0284C285.144 21.3352 285.667 18.9716 286.712 16.9375C287.758 14.9034 289.229 13.3182 291.127 12.1818C293.036 11.0455 295.275 10.4773 297.843 10.4773C299.57 10.4773 301.178 10.7557 302.667 11.3125C304.167 11.858 305.474 12.6818 306.587 13.7841C307.712 14.8864 308.587 16.2727 309.212 17.9432C309.837 19.6023 310.15 21.5455 310.15 23.7727V25.767H288.042V21.267H303.314C303.314 20.2216 303.087 19.2955 302.633 18.4886C302.178 17.6818 301.547 17.0511 300.741 16.5966C299.945 16.1307 299.019 15.8977 297.962 15.8977C296.86 15.8977 295.883 16.1534 295.03 16.6648C294.189 17.1648 293.53 17.8409 293.053 18.6932C292.576 19.5341 292.332 20.4716 292.32 21.5057V25.7841C292.32 27.0795 292.559 28.1989 293.036 29.142C293.525 30.0852 294.212 30.8125 295.099 31.3239C295.985 31.8352 297.036 32.0909 298.252 32.0909C299.059 32.0909 299.797 31.9773 300.468 31.75C301.138 31.5227 301.712 31.1818 302.189 30.7273C302.667 30.2727 303.03 29.7159 303.28 29.0568L309.996 29.5C309.655 31.1136 308.957 32.5227 307.9 33.7273C306.854 34.9205 305.502 35.8523 303.843 36.5227C302.195 37.1818 300.292 37.5114 298.133 37.5114ZM320.95 21.8636V37H313.688V10.8182H320.609V15.4375H320.916C321.495 13.9148 322.467 12.7102 323.83 11.8239C325.194 10.9261 326.847 10.4773 328.791 10.4773C330.609 10.4773 332.194 10.875 333.546 11.6705C334.899 12.4659 335.95 13.6023 336.7 15.0795C337.45 16.5455 337.825 18.2955 337.825 20.3295V37H330.563V21.625C330.575 20.0227 330.166 18.7727 329.336 17.875C328.507 16.9659 327.364 16.5114 325.91 16.5114C324.933 16.5114 324.069 16.7216 323.319 17.142C322.58 17.5625 322.001 18.1761 321.58 18.983C321.171 19.7784 320.961 20.7386 320.95 21.8636ZM356.274 10.8182V16.2727H340.507V10.8182H356.274ZM344.086 4.54545H351.348V28.9545C351.348 29.625 351.45 30.1477 351.655 30.5227C351.859 30.8864 352.143 31.142 352.507 31.2898C352.882 31.4375 353.314 31.5114 353.802 31.5114C354.143 31.5114 354.484 31.483 354.825 31.4261C355.166 31.358 355.427 31.3068 355.609 31.2727L356.751 36.6761C356.388 36.7898 355.876 36.9205 355.217 37.0682C354.558 37.2273 353.757 37.3239 352.814 37.358C351.064 37.4261 349.53 37.1932 348.211 36.6591C346.905 36.125 345.888 35.2955 345.16 34.1705C344.433 33.0455 344.075 31.625 344.086 29.9091V4.54545ZM381.26 18.2841L374.612 18.6932C374.499 18.125 374.254 17.6136 373.879 17.1591C373.504 16.6932 373.01 16.3239 372.396 16.0511C371.794 15.767 371.072 15.625 370.232 15.625C369.107 15.625 368.158 15.8636 367.385 16.3409C366.612 16.8068 366.226 17.4318 366.226 18.2159C366.226 18.8409 366.476 19.3693 366.976 19.8011C367.476 20.233 368.334 20.5795 369.55 20.8409L374.288 21.7955C376.834 22.3182 378.732 23.1591 379.982 24.3182C381.232 25.4773 381.857 27 381.857 28.8864C381.857 30.6023 381.351 32.108 380.339 33.4034C379.339 34.6989 377.964 35.7102 376.214 36.4375C374.476 37.1534 372.47 37.5114 370.197 37.5114C366.732 37.5114 363.97 36.7898 361.913 35.3466C359.868 33.892 358.669 31.9148 358.317 29.4148L365.459 29.0398C365.675 30.0966 366.197 30.9034 367.027 31.4602C367.857 32.0057 368.919 32.2784 370.214 32.2784C371.487 32.2784 372.51 32.0341 373.283 31.5455C374.067 31.0455 374.464 30.4034 374.476 29.6193C374.464 28.9602 374.186 28.4205 373.641 28C373.095 27.5682 372.254 27.2386 371.118 27.0114L366.584 26.108C364.027 25.5966 362.124 24.7102 360.874 23.4489C359.635 22.1875 359.016 20.5795 359.016 18.625C359.016 16.9432 359.47 15.4943 360.379 14.2784C361.3 13.0625 362.589 12.125 364.249 11.4659C365.919 10.8068 367.874 10.4773 370.112 10.4773C373.419 10.4773 376.021 11.1761 377.919 12.5739C379.828 13.9716 380.942 15.875 381.26 18.2841ZM414.212 12.1307C414.076 10.7557 413.491 9.6875 412.457 8.92614C411.422 8.16477 410.019 7.78409 408.246 7.78409C407.042 7.78409 406.025 7.95454 405.195 8.29545C404.366 8.625 403.729 9.08523 403.286 9.67614C402.854 10.267 402.638 10.9375 402.638 11.6875C402.616 12.3125 402.746 12.858 403.03 13.3239C403.326 13.7898 403.729 14.1932 404.241 14.5341C404.752 14.8636 405.343 15.1534 406.013 15.4034C406.684 15.642 407.4 15.8466 408.161 16.017L411.297 16.767C412.82 17.108 414.218 17.5625 415.491 18.1307C416.763 18.6989 417.866 19.3977 418.797 20.2273C419.729 21.0568 420.451 22.0341 420.962 23.1591C421.485 24.2841 421.752 25.5739 421.763 27.0284C421.752 29.1648 421.207 31.017 420.127 32.5852C419.059 34.142 417.513 35.3523 415.491 36.2159C413.479 37.0682 411.053 37.4943 408.212 37.4943C405.394 37.4943 402.939 37.0625 400.849 36.1989C398.769 35.3352 397.144 34.0568 395.974 32.3636C394.814 30.6591 394.207 28.5511 394.15 26.0398H401.292C401.371 27.2102 401.707 28.1875 402.297 28.9716C402.9 29.7443 403.701 30.3295 404.701 30.7273C405.712 31.1136 406.854 31.3068 408.127 31.3068C409.377 31.3068 410.462 31.125 411.383 30.7614C412.314 30.3977 413.036 29.892 413.547 29.2443C414.059 28.5966 414.314 27.8523 414.314 27.0114C414.314 26.2273 414.082 25.5682 413.616 25.0341C413.161 24.5 412.491 24.0455 411.604 23.6705C410.729 23.2955 409.655 22.9545 408.383 22.6477L404.582 21.6932C401.638 20.9773 399.314 19.858 397.61 18.3352C395.905 16.8125 395.059 14.7614 395.07 12.1818C395.059 10.0682 395.621 8.22159 396.758 6.64205C397.905 5.0625 399.479 3.82955 401.479 2.94318C403.479 2.05682 405.752 1.61364 408.297 1.61364C410.888 1.61364 413.15 2.05682 415.082 2.94318C417.025 3.82955 418.536 5.0625 419.616 6.64205C420.695 8.22159 421.252 10.0511 421.286 12.1307H414.212ZM432.857 37.4943C431.187 37.4943 429.698 37.2045 428.391 36.625C427.085 36.0341 426.051 35.1648 425.289 34.017C424.539 32.858 424.164 31.4148 424.164 29.6875C424.164 28.233 424.431 27.0114 424.965 26.0227C425.499 25.0341 426.227 24.2386 427.147 23.6364C428.068 23.0341 429.113 22.5795 430.284 22.2727C431.465 21.9659 432.704 21.75 433.999 21.625C435.522 21.4659 436.749 21.3182 437.681 21.1818C438.613 21.0341 439.289 20.8182 439.71 20.5341C440.13 20.25 440.34 19.8295 440.34 19.2727V19.1705C440.34 18.0909 439.999 17.2557 439.318 16.6648C438.647 16.0739 437.693 15.7784 436.454 15.7784C435.147 15.7784 434.107 16.0682 433.335 16.6477C432.562 17.2159 432.051 17.9318 431.801 18.7955L425.085 18.25C425.426 16.6591 426.096 15.2841 427.096 14.125C428.096 12.9545 429.386 12.0568 430.965 11.4318C432.556 10.7955 434.397 10.4773 436.488 10.4773C437.943 10.4773 439.335 10.6477 440.664 10.9886C442.005 11.3295 443.193 11.858 444.227 12.5739C445.272 13.2898 446.096 14.2102 446.698 15.3352C447.301 16.4489 447.602 17.7841 447.602 19.3409V37H440.715V33.3693H440.511C440.09 34.1875 439.528 34.9091 438.823 35.5341C438.119 36.1477 437.272 36.6307 436.284 36.983C435.295 37.3239 434.153 37.4943 432.857 37.4943ZM434.937 32.483C436.005 32.483 436.948 32.2727 437.766 31.8523C438.585 31.4205 439.227 30.8409 439.693 30.1136C440.159 29.3864 440.391 28.5625 440.391 27.642V24.8636C440.164 25.0114 439.852 25.1477 439.454 25.2727C439.068 25.3864 438.63 25.4943 438.141 25.5966C437.653 25.6875 437.164 25.7727 436.676 25.8523C436.187 25.9205 435.744 25.983 435.346 26.0398C434.494 26.1648 433.749 26.3636 433.113 26.6364C432.477 26.9091 431.982 27.2784 431.63 27.7443C431.278 28.1989 431.102 28.767 431.102 29.4489C431.102 30.4375 431.46 31.1932 432.176 31.7159C432.903 32.2273 433.823 32.483 434.937 32.483ZM455.581 46.8182C454.66 46.8182 453.797 46.7443 452.99 46.5966C452.194 46.4602 451.535 46.2841 451.013 46.0682L452.649 40.6477C453.501 40.9091 454.268 41.0511 454.95 41.0739C455.643 41.0966 456.24 40.9375 456.74 40.5966C457.251 40.2557 457.666 39.6761 457.984 38.858L458.41 37.75L449.018 10.8182H456.655L462.075 30.0455H462.348L467.819 10.8182H475.507L465.331 39.8295C464.842 41.2386 464.177 42.4659 463.336 43.5114C462.507 44.5682 461.456 45.3807 460.183 45.9489C458.91 46.5284 457.376 46.8182 455.581 46.8182Z" fill="url(#paint0_linear_101_105)"/>
<defs>
<linearGradient id="paint0_linear_101_105" x1="213" y1="3.49999" x2="253" y2="37" gradientUnits="userSpaceOnUse">
<stop stop-color="#BA963A"/>
<stop offset="1" stop-color="#CC9C21"/>
</linearGradient>
</defs>
</svg>
