<svg width="913" height="46" viewBox="0 0 913 46" fill="none" xmlns="http://www.w3.org/2000/svg">
<path d="M16.0114 2.09091H23.3068V26.4318C23.3068 28.6818 22.8011 30.6364 21.7898 32.2955C20.7898 33.9545 19.3977 35.233 17.6136 36.1307C15.8295 37.0284 13.7557 37.4773 11.392 37.4773C9.28977 37.4773 7.38068 37.108 5.66477 36.3693C3.96023 35.6193 2.60795 34.483 1.60795 32.9602C0.607955 31.4261 0.113636 29.5 0.125 27.1818H7.47159C7.49432 28.1023 7.68182 28.892 8.03409 29.5511C8.39773 30.1989 8.89205 30.6989 9.51705 31.0511C10.1534 31.392 10.9034 31.5625 11.767 31.5625C12.6761 31.5625 13.4432 31.3693 14.0682 30.983C14.7045 30.5852 15.1875 30.0057 15.517 29.2443C15.8466 28.483 16.0114 27.5455 16.0114 26.4318V2.09091ZM39.9023 37.5114C37.2545 37.5114 34.9648 36.9489 33.033 35.8239C31.1125 34.6875 29.6295 33.108 28.5841 31.0852C27.5386 29.0511 27.0159 26.6932 27.0159 24.0114C27.0159 21.3068 27.5386 18.9432 28.5841 16.9205C29.6295 14.8864 31.1125 13.3068 33.033 12.1818C34.9648 11.0455 37.2545 10.4773 39.9023 10.4773C42.55 10.4773 44.8341 11.0455 46.7545 12.1818C48.6864 13.3068 50.175 14.8864 51.2205 16.9205C52.2659 18.9432 52.7886 21.3068 52.7886 24.0114C52.7886 26.6932 52.2659 29.0511 51.2205 31.0852C50.175 33.108 48.6864 34.6875 46.7545 35.8239C44.8341 36.9489 42.55 37.5114 39.9023 37.5114ZM39.9364 31.8864C41.1409 31.8864 42.1466 31.5455 42.9534 30.8636C43.7602 30.1705 44.3682 29.2273 44.7773 28.0341C45.1977 26.8409 45.408 25.483 45.408 23.9602C45.408 22.4375 45.1977 21.0795 44.7773 19.8864C44.3682 18.6932 43.7602 17.75 42.9534 17.0568C42.1466 16.3636 41.1409 16.017 39.9364 16.017C38.7205 16.017 37.6977 16.3636 36.8682 17.0568C36.05 17.75 35.4307 18.6932 35.0102 19.8864C34.6011 21.0795 34.3966 22.4375 34.3966 23.9602C34.3966 25.483 34.6011 26.8409 35.0102 28.0341C35.4307 29.2273 36.05 30.1705 36.8682 30.8636C37.6977 31.5455 38.7205 31.8864 39.9364 31.8864ZM56.3102 37V10.8182H63.5716V37H56.3102ZM59.958 7.44318C58.8784 7.44318 57.9523 7.08523 57.1795 6.36932C56.4182 5.64204 56.0375 4.77273 56.0375 3.76136C56.0375 2.76136 56.4182 1.90341 57.1795 1.1875C57.9523 0.460226 58.8784 0.0965891 59.958 0.0965891C61.0375 0.0965891 61.958 0.460226 62.7193 1.1875C63.492 1.90341 63.8784 2.76136 63.8784 3.76136C63.8784 4.77273 63.492 5.64204 62.7193 6.36932C61.958 7.08523 61.0375 7.44318 59.958 7.44318ZM75.4497 21.8636V37H68.1884V10.8182H75.1088V15.4375H75.4156C75.9952 13.9148 76.9668 12.7102 78.3304 11.8239C79.694 10.9261 81.3474 10.4773 83.2906 10.4773C85.1088 10.4773 86.694 10.875 88.0463 11.6705C89.3986 12.4659 90.4497 13.6023 91.1997 15.0795C91.9497 16.5455 92.3247 18.2955 92.3247 20.3295V37H85.0634V21.625C85.0747 20.0227 84.6656 18.7727 83.8361 17.875C83.0065 16.9659 81.8645 16.5114 80.4099 16.5114C79.4327 16.5114 78.569 16.7216 77.819 17.142C77.0804 17.5625 76.5009 18.1761 76.0804 18.983C75.6713 19.7784 75.4611 20.7386 75.4497 21.8636ZM114.223 37.4943C112.553 37.4943 111.064 37.2045 109.757 36.625C108.45 36.0341 107.416 35.1648 106.655 34.017C105.905 32.858 105.53 31.4148 105.53 29.6875C105.53 28.233 105.797 27.0114 106.331 26.0227C106.865 25.0341 107.592 24.2386 108.513 23.6364C109.433 23.0341 110.479 22.5795 111.649 22.2727C112.831 21.9659 114.07 21.75 115.365 21.625C116.888 21.4659 118.115 21.3182 119.047 21.1818C119.979 21.0341 120.655 20.8182 121.075 20.5341C121.496 20.25 121.706 19.8295 121.706 19.2727V19.1705C121.706 18.0909 121.365 17.2557 120.683 16.6648C120.013 16.0739 119.058 15.7784 117.82 15.7784C116.513 15.7784 115.473 16.0682 114.7 16.6477C113.928 17.2159 113.416 17.9318 113.166 18.7955L106.45 18.25C106.791 16.6591 107.462 15.2841 108.462 14.125C109.462 12.9545 110.751 12.0568 112.331 11.4318C113.922 10.7955 115.763 10.4773 117.854 10.4773C119.308 10.4773 120.7 10.6477 122.03 10.9886C123.371 11.3295 124.558 11.858 125.592 12.5739C126.638 13.2898 127.462 14.2102 128.064 15.3352C128.666 16.4489 128.967 17.7841 128.967 19.3409V37H122.081V33.3693H121.876C121.456 34.1875 120.893 34.9091 120.189 35.5341C119.484 36.1477 118.638 36.6307 117.649 36.983C116.661 37.3239 115.518 37.4943 114.223 37.4943ZM116.303 32.483C117.371 32.483 118.314 32.2727 119.132 31.8523C119.95 31.4205 120.592 30.8409 121.058 30.1136C121.524 29.3864 121.757 28.5625 121.757 27.642V24.8636C121.53 25.0114 121.217 25.1477 120.82 25.2727C120.433 25.3864 119.996 25.4943 119.507 25.5966C119.018 25.6875 118.53 25.7727 118.041 25.8523C117.553 25.9205 117.109 25.983 116.712 26.0398C115.859 26.1648 115.115 26.3636 114.479 26.6364C113.842 26.9091 113.348 27.2784 112.996 27.7443C112.643 28.1989 112.467 28.767 112.467 29.4489C112.467 30.4375 112.825 31.1932 113.541 31.7159C114.268 32.2273 115.189 32.483 116.303 32.483ZM155.14 37.5114C152.458 37.5114 150.151 36.9432 148.219 35.8068C146.299 34.6591 144.822 33.0682 143.788 31.0341C142.765 29 142.253 26.6591 142.253 24.0114C142.253 21.3295 142.77 18.9773 143.805 16.9545C144.85 14.9205 146.333 13.3352 148.253 12.1989C150.174 11.0511 152.458 10.4773 155.106 10.4773C157.39 10.4773 159.39 10.892 161.106 11.7216C162.822 12.5511 164.18 13.7159 165.18 15.2159C166.18 16.7159 166.731 18.4773 166.833 20.5H159.981C159.788 19.1932 159.276 18.142 158.447 17.3466C157.628 16.5398 156.555 16.1364 155.225 16.1364C154.1 16.1364 153.117 16.4432 152.276 17.0568C151.447 17.6591 150.799 18.5398 150.333 19.6989C149.867 20.858 149.634 22.2614 149.634 23.9091C149.634 25.5795 149.861 27 150.316 28.1705C150.782 29.3409 151.435 30.233 152.276 30.8466C153.117 31.4602 154.1 31.767 155.225 31.767C156.055 31.767 156.799 31.5966 157.458 31.2557C158.128 30.9148 158.68 30.4205 159.111 29.7727C159.555 29.1136 159.844 28.3239 159.981 27.4034H166.833C166.719 29.4034 166.174 31.1648 165.197 32.6875C164.231 34.1989 162.895 35.3807 161.191 36.233C159.486 37.0852 157.469 37.5114 155.14 37.5114ZM177.543 2.09091V37H170.282V2.09091H177.543ZM198.95 25.8523V10.8182H206.211V37H199.24V32.2443H198.967C198.376 33.7784 197.393 35.0114 196.018 35.9432C194.655 36.875 192.99 37.3409 191.024 37.3409C189.274 37.3409 187.734 36.9432 186.405 36.1477C185.075 35.3523 184.035 34.2216 183.285 32.7557C182.547 31.2898 182.172 29.5341 182.16 27.4886V10.8182H189.422V26.1932C189.433 27.7386 189.848 28.9602 190.666 29.858C191.484 30.7557 192.581 31.2045 193.956 31.2045C194.831 31.2045 195.649 31.0057 196.41 30.608C197.172 30.1989 197.785 29.5966 198.251 28.8011C198.728 28.0057 198.961 27.0227 198.95 25.8523ZM210.956 37V2.09091H218.217V15.2159H218.439C218.757 14.5114 219.217 13.7955 219.82 13.0682C220.433 12.3295 221.229 11.7159 222.206 11.2273C223.195 10.7273 224.422 10.4773 225.888 10.4773C227.797 10.4773 229.558 10.9773 231.172 11.9773C232.786 12.9659 234.075 14.4602 235.041 16.4602C236.007 18.4489 236.49 20.9432 236.49 23.9432C236.49 26.8636 236.018 29.3295 235.075 31.3409C234.143 33.3409 232.871 34.858 231.257 35.892C229.655 36.9148 227.859 37.4261 225.871 37.4261C224.462 37.4261 223.263 37.1932 222.274 36.7273C221.297 36.2614 220.496 35.6761 219.871 34.9716C219.246 34.2557 218.768 33.5341 218.439 32.8068H218.115V37H210.956ZM218.064 23.9091C218.064 25.4659 218.28 26.8239 218.712 27.983C219.143 29.142 219.768 30.0455 220.587 30.6932C221.405 31.3295 222.399 31.6477 223.57 31.6477C224.751 31.6477 225.751 31.3239 226.57 30.6761C227.388 30.017 228.007 29.108 228.428 27.9489C228.859 26.7784 229.075 25.4318 229.075 23.9091C229.075 22.3977 228.865 21.0682 228.445 19.9205C228.024 18.7727 227.405 17.875 226.587 17.2273C225.768 16.5795 224.763 16.2557 223.57 16.2557C222.388 16.2557 221.388 16.5682 220.57 17.1932C219.763 17.8182 219.143 18.7045 218.712 19.8523C218.28 21 218.064 22.3523 218.064 23.9091ZM261.874 37.5114C259.226 37.5114 256.937 36.9489 255.005 35.8239C253.084 34.6875 251.601 33.108 250.556 31.0852C249.511 29.0511 248.988 26.6932 248.988 24.0114C248.988 21.3068 249.511 18.9432 250.556 16.9205C251.601 14.8864 253.084 13.3068 255.005 12.1818C256.937 11.0455 259.226 10.4773 261.874 10.4773C264.522 10.4773 266.806 11.0455 268.726 12.1818C270.658 13.3068 272.147 14.8864 273.192 16.9205C274.238 18.9432 274.761 21.3068 274.761 24.0114C274.761 26.6932 274.238 29.0511 273.192 31.0852C272.147 33.108 270.658 34.6875 268.726 35.8239C266.806 36.9489 264.522 37.5114 261.874 37.5114ZM261.908 31.8864C263.113 31.8864 264.118 31.5455 264.925 30.8636C265.732 30.1705 266.34 29.2273 266.749 28.0341C267.17 26.8409 267.38 25.483 267.38 23.9602C267.38 22.4375 267.17 21.0795 266.749 19.8864C266.34 18.6932 265.732 17.75 264.925 17.0568C264.118 16.3636 263.113 16.017 261.908 16.017C260.692 16.017 259.67 16.3636 258.84 17.0568C258.022 17.75 257.403 18.6932 256.982 19.8864C256.573 21.0795 256.368 22.4375 256.368 23.9602C256.368 25.483 256.573 26.8409 256.982 28.0341C257.403 29.2273 258.022 30.1705 258.84 30.8636C259.67 31.5455 260.692 31.8864 261.908 31.8864ZM292.362 10.8182V16.2727H276.203V10.8182H292.362ZM279.901 37V8.92614C279.901 7.02841 280.271 5.45454 281.009 4.20454C281.759 2.95454 282.782 2.01704 284.078 1.39204C285.373 0.767043 286.845 0.454543 288.492 0.454543C289.606 0.454543 290.623 0.539771 291.543 0.710227C292.475 0.880681 293.168 1.03409 293.623 1.17045L292.328 6.625C292.043 6.53409 291.691 6.44886 291.271 6.36932C290.862 6.28977 290.441 6.25 290.009 6.25C288.941 6.25 288.197 6.5 287.776 7C287.356 7.48864 287.146 8.17614 287.146 9.0625V37H279.901ZM305.507 37V10.8182H312.428V15.4375H312.734C313.28 13.9034 314.189 12.6932 315.462 11.8068C316.734 10.9205 318.257 10.4773 320.03 10.4773C321.825 10.4773 323.354 10.9261 324.615 11.8239C325.876 12.7102 326.717 13.9148 327.138 15.4375H327.411C327.945 13.9375 328.911 12.7386 330.308 11.8409C331.717 10.9318 333.382 10.4773 335.303 10.4773C337.746 10.4773 339.729 11.2557 341.251 12.8125C342.786 14.358 343.553 16.5511 343.553 19.392V37H336.308V20.8239C336.308 19.3693 335.922 18.2784 335.149 17.5511C334.376 16.8239 333.411 16.4602 332.251 16.4602C330.933 16.4602 329.905 16.8807 329.166 17.7216C328.428 18.5511 328.058 19.6477 328.058 21.0114V37H321.018V20.6705C321.018 19.3864 320.649 18.3636 319.911 17.6023C319.183 16.8409 318.223 16.4602 317.03 16.4602C316.223 16.4602 315.496 16.6648 314.848 17.0739C314.212 17.4716 313.706 18.0341 313.331 18.7614C312.956 19.4773 312.768 20.3182 312.768 21.2841V37H305.507ZM359.918 37.5114C357.27 37.5114 354.98 36.9489 353.049 35.8239C351.128 34.6875 349.645 33.108 348.6 31.0852C347.554 29.0511 347.032 26.6932 347.032 24.0114C347.032 21.3068 347.554 18.9432 348.6 16.9205C349.645 14.8864 351.128 13.3068 353.049 12.1818C354.98 11.0455 357.27 10.4773 359.918 10.4773C362.566 10.4773 364.85 11.0455 366.77 12.1818C368.702 13.3068 370.191 14.8864 371.236 16.9205C372.282 18.9432 372.804 21.3068 372.804 24.0114C372.804 26.6932 372.282 29.0511 371.236 31.0852C370.191 33.108 368.702 34.6875 366.77 35.8239C364.85 36.9489 362.566 37.5114 359.918 37.5114ZM359.952 31.8864C361.157 31.8864 362.162 31.5455 362.969 30.8636C363.776 30.1705 364.384 29.2273 364.793 28.0341C365.213 26.8409 365.424 25.483 365.424 23.9602C365.424 22.4375 365.213 21.0795 364.793 19.8864C364.384 18.6932 363.776 17.75 362.969 17.0568C362.162 16.3636 361.157 16.017 359.952 16.017C358.736 16.017 357.713 16.3636 356.884 17.0568C356.066 17.75 355.446 18.6932 355.026 19.8864C354.617 21.0795 354.412 22.4375 354.412 23.9602C354.412 25.483 354.617 26.8409 355.026 28.0341C355.446 29.2273 356.066 30.1705 356.884 30.8636C357.713 31.5455 358.736 31.8864 359.952 31.8864ZM376.326 37V10.8182H383.366V15.3864H383.638C384.116 13.7614 384.917 12.5341 386.042 11.7045C387.167 10.8636 388.462 10.4432 389.928 10.4432C390.292 10.4432 390.684 10.4659 391.104 10.5114C391.525 10.5568 391.894 10.6193 392.212 10.6989V17.142C391.871 17.0398 391.4 16.9489 390.797 16.8693C390.195 16.7898 389.644 16.75 389.144 16.75C388.076 16.75 387.121 16.983 386.28 17.4489C385.451 17.9034 384.792 18.5398 384.303 19.358C383.826 20.1761 383.587 21.1193 383.587 22.1875V37H376.326ZM405.48 37.5114C402.786 37.5114 400.468 36.9659 398.525 35.875C396.593 34.7727 395.105 33.2159 394.059 31.2045C393.014 29.1818 392.491 26.7898 392.491 24.0284C392.491 21.3352 393.014 18.9716 394.059 16.9375C395.105 14.9034 396.576 13.3182 398.474 12.1818C400.383 11.0455 402.622 10.4773 405.19 10.4773C406.917 10.4773 408.525 10.7557 410.014 11.3125C411.514 11.858 412.82 12.6818 413.934 13.7841C415.059 14.8864 415.934 16.2727 416.559 17.9432C417.184 19.6023 417.497 21.5455 417.497 23.7727V25.767H395.389V21.267H410.661C410.661 20.2216 410.434 19.2955 409.98 18.4886C409.525 17.6818 408.894 17.0511 408.087 16.5966C407.292 16.1307 406.366 15.8977 405.309 15.8977C404.207 15.8977 403.23 16.1534 402.377 16.6648C401.536 17.1648 400.877 17.8409 400.4 18.6932C399.923 19.5341 399.678 20.4716 399.667 21.5057V25.7841C399.667 27.0795 399.906 28.1989 400.383 29.142C400.872 30.0852 401.559 30.8125 402.445 31.3239C403.332 31.8352 404.383 32.0909 405.599 32.0909C406.406 32.0909 407.144 31.9773 407.815 31.75C408.485 31.5227 409.059 31.1818 409.536 30.7273C410.014 30.2727 410.377 29.7159 410.627 29.0568L417.343 29.5C417.002 31.1136 416.303 32.5227 415.247 33.7273C414.201 34.9205 412.849 35.8523 411.19 36.5227C409.542 37.1818 407.639 37.5114 405.48 37.5114ZM444.871 10.8182V16.2727H429.104V10.8182H444.871ZM432.683 4.54545H439.945V28.9545C439.945 29.625 440.047 30.1477 440.251 30.5227C440.456 30.8864 440.74 31.142 441.104 31.2898C441.479 31.4375 441.911 31.5114 442.399 31.5114C442.74 31.5114 443.081 31.483 443.422 31.4261C443.763 31.358 444.024 31.3068 444.206 31.2727L445.348 36.6761C444.984 36.7898 444.473 36.9205 443.814 37.0682C443.155 37.2273 442.354 37.3239 441.411 37.358C439.661 37.4261 438.126 37.1932 436.808 36.6591C435.501 36.125 434.484 35.2955 433.757 34.1705C433.03 33.0455 432.672 31.625 432.683 29.9091V4.54545ZM456.225 21.8636V37H448.963V2.09091H456.02V15.4375H456.327C456.918 13.892 457.872 12.6818 459.191 11.8068C460.509 10.9205 462.162 10.4773 464.151 10.4773C465.969 10.4773 467.554 10.875 468.907 11.6705C470.27 12.4545 471.327 13.5852 472.077 15.0625C472.838 16.5284 473.213 18.2841 473.202 20.3295V37H465.941V21.625C465.952 20.0114 465.543 18.7557 464.713 17.858C463.895 16.9602 462.747 16.5114 461.27 16.5114C460.282 16.5114 459.407 16.7216 458.645 17.142C457.895 17.5625 457.304 18.1761 456.872 18.983C456.452 19.7784 456.236 20.7386 456.225 21.8636ZM485.182 37.4943C483.512 37.4943 482.023 37.2045 480.716 36.625C479.41 36.0341 478.376 35.1648 477.614 34.017C476.864 32.858 476.489 31.4148 476.489 29.6875C476.489 28.233 476.756 27.0114 477.29 26.0227C477.824 25.0341 478.552 24.2386 479.472 23.6364C480.393 23.0341 481.438 22.5795 482.609 22.2727C483.79 21.9659 485.029 21.75 486.324 21.625C487.847 21.4659 489.074 21.3182 490.006 21.1818C490.938 21.0341 491.614 20.8182 492.035 20.5341C492.455 20.25 492.665 19.8295 492.665 19.2727V19.1705C492.665 18.0909 492.324 17.2557 491.643 16.6648C490.972 16.0739 490.018 15.7784 488.779 15.7784C487.472 15.7784 486.432 16.0682 485.66 16.6477C484.887 17.2159 484.376 17.9318 484.126 18.7955L477.41 18.25C477.751 16.6591 478.421 15.2841 479.421 14.125C480.421 12.9545 481.711 12.0568 483.29 11.4318C484.881 10.7955 486.722 10.4773 488.813 10.4773C490.268 10.4773 491.66 10.6477 492.989 10.9886C494.33 11.3295 495.518 11.858 496.552 12.5739C497.597 13.2898 498.421 14.2102 499.023 15.3352C499.626 16.4489 499.927 17.7841 499.927 19.3409V37H493.04V33.3693H492.836C492.415 34.1875 491.853 34.9091 491.148 35.5341C490.444 36.1477 489.597 36.6307 488.609 36.983C487.62 37.3239 486.478 37.4943 485.182 37.4943ZM487.262 32.483C488.33 32.483 489.273 32.2727 490.091 31.8523C490.91 31.4205 491.552 30.8409 492.018 30.1136C492.484 29.3864 492.716 28.5625 492.716 27.642V24.8636C492.489 25.0114 492.177 25.1477 491.779 25.2727C491.393 25.3864 490.955 25.4943 490.466 25.5966C489.978 25.6875 489.489 25.7727 489.001 25.8523C488.512 25.9205 488.069 25.983 487.671 26.0398C486.819 26.1648 486.074 26.3636 485.438 26.6364C484.802 26.9091 484.307 27.2784 483.955 27.7443C483.603 28.1989 483.427 28.767 483.427 29.4489C483.427 30.4375 483.785 31.1932 484.501 31.7159C485.228 32.2273 486.148 32.483 487.262 32.483ZM511.622 21.8636V37H504.36V10.8182H511.281V15.4375H511.587C512.167 13.9148 513.139 12.7102 514.502 11.8239C515.866 10.9261 517.519 10.4773 519.462 10.4773C521.281 10.4773 522.866 10.875 524.218 11.6705C525.57 12.4659 526.622 13.6023 527.372 15.0795C528.122 16.5455 528.497 18.2955 528.497 20.3295V37H521.235V21.625C521.247 20.0227 520.837 18.7727 520.008 17.875C519.178 16.9659 518.036 16.5114 516.582 16.5114C515.605 16.5114 514.741 16.7216 513.991 17.142C513.252 17.5625 512.673 18.1761 512.252 18.983C511.843 19.7784 511.633 20.7386 511.622 21.8636ZM542.332 30.8636V25.0511L556.906 2.09091H561.918V10.1364H558.952L549.764 24.6761V24.9489H570.474V30.8636H542.332ZM559.088 37V29.0909L559.224 26.517V2.09091H566.145V37H559.088ZM587.215 37.4773C584.59 37.4773 582.255 37.0511 580.209 36.1989C578.175 35.3352 576.578 34.1591 575.419 32.6705C574.26 31.1818 573.681 29.4943 573.681 27.608C573.681 26.1534 574.01 24.8182 574.669 23.6023C575.34 22.375 576.249 21.358 577.397 20.5511C578.544 19.733 579.828 19.2102 581.249 18.983V18.7443C579.385 18.3693 577.874 17.4659 576.715 16.0341C575.556 14.5909 574.976 12.9148 574.976 11.0057C574.976 9.19886 575.505 7.59091 576.561 6.18182C577.618 4.76136 579.067 3.64773 580.908 2.84091C582.76 2.02273 584.862 1.61364 587.215 1.61364C589.567 1.61364 591.664 2.02273 593.505 2.84091C595.357 3.65909 596.811 4.77841 597.868 6.19886C598.925 7.60795 599.459 9.21023 599.47 11.0057C599.459 12.9261 598.868 14.6023 597.698 16.0341C596.527 17.4659 595.027 18.3693 593.198 18.7443V18.983C594.595 19.2102 595.862 19.733 596.999 20.5511C598.147 21.358 599.056 22.375 599.726 23.6023C600.408 24.8182 600.755 26.1534 600.766 27.608C600.755 29.4943 600.169 31.1818 599.01 32.6705C597.851 34.1591 596.249 35.3352 594.203 36.1989C592.169 37.0511 589.84 37.4773 587.215 37.4773ZM587.215 32.0568C588.385 32.0568 589.408 31.8466 590.283 31.4261C591.158 30.9943 591.84 30.4034 592.328 29.6534C592.828 28.892 593.078 28.017 593.078 27.0284C593.078 26.017 592.823 25.125 592.311 24.3523C591.8 23.5682 591.107 22.9545 590.232 22.5114C589.357 22.0568 588.351 21.8295 587.215 21.8295C586.09 21.8295 585.084 22.0568 584.198 22.5114C583.311 22.9545 582.612 23.5682 582.101 24.3523C581.601 25.125 581.351 26.017 581.351 27.0284C581.351 28.017 581.595 28.892 582.084 29.6534C582.573 30.4034 583.26 30.9943 584.147 31.4261C585.033 31.8466 586.056 32.0568 587.215 32.0568ZM587.215 16.4602C588.192 16.4602 589.061 16.2614 589.823 15.8636C590.584 15.4659 591.181 14.9148 591.612 14.2102C592.044 13.5057 592.26 12.6932 592.26 11.7727C592.26 10.8636 592.044 10.0682 591.612 9.38636C591.181 8.69318 590.59 8.15341 589.84 7.76705C589.09 7.36932 588.215 7.17045 587.215 7.17045C586.226 7.17045 585.351 7.36932 584.59 7.76705C583.828 8.15341 583.232 8.69318 582.8 9.38636C582.38 10.0682 582.169 10.8636 582.169 11.7727C582.169 12.6932 582.385 13.5057 582.817 14.2102C583.249 14.9148 583.845 15.4659 584.607 15.8636C585.368 16.2614 586.237 16.4602 587.215 16.4602ZM618.414 37.767C615.482 37.7557 612.959 37.0341 610.846 35.6023C608.743 34.1705 607.124 32.0966 605.988 29.3807C604.863 26.6648 604.306 23.3977 604.317 19.5795C604.317 15.7727 604.88 12.5284 606.005 9.84659C607.141 7.16477 608.76 5.125 610.863 3.72727C612.976 2.31818 615.493 1.61364 618.414 1.61364C621.334 1.61364 623.846 2.31818 625.948 3.72727C628.062 5.13636 629.687 7.18182 630.823 9.86364C631.959 12.5341 632.522 15.7727 632.51 19.5795C632.51 23.4091 631.942 26.6818 630.806 29.3977C629.681 32.1136 628.067 34.1875 625.965 35.6193C623.863 37.0511 621.346 37.767 618.414 37.767ZM618.414 31.6477C620.414 31.6477 622.01 30.642 623.204 28.6307C624.397 26.6193 624.988 23.6023 624.976 19.5795C624.976 16.9318 624.704 14.7273 624.158 12.9659C623.624 11.2045 622.863 9.88068 621.874 8.99432C620.897 8.10795 619.743 7.66477 618.414 7.66477C616.425 7.66477 614.834 8.65909 613.641 10.6477C612.448 12.6364 611.846 15.6136 611.834 19.5795C611.834 22.2614 612.101 24.5 612.635 26.2955C613.181 28.0795 613.948 29.4205 614.937 30.3182C615.925 31.2045 617.084 31.6477 618.414 31.6477ZM643.127 32.2273L642.94 34.1023C642.792 35.6023 642.508 37.0966 642.088 38.5852C641.678 40.0852 641.247 41.4432 640.792 42.6591C640.349 43.875 639.991 44.8295 639.718 45.5227H635.014C635.184 44.8523 635.417 43.9148 635.713 42.7102C636.008 41.517 636.286 40.1761 636.548 38.6875C636.809 37.1989 636.974 35.6818 637.042 34.1364L637.127 32.2273H643.127ZM660.78 37.767C657.848 37.7557 655.325 37.0341 653.211 35.6023C651.109 34.1705 649.49 32.0966 648.353 29.3807C647.228 26.6648 646.672 23.3977 646.683 19.5795C646.683 15.7727 647.245 12.5284 648.37 9.84659C649.507 7.16477 651.126 5.125 653.228 3.72727C655.342 2.31818 657.859 1.61364 660.78 1.61364C663.7 1.61364 666.211 2.31818 668.314 3.72727C670.427 5.13636 672.052 7.18182 673.189 9.86364C674.325 12.5341 674.888 15.7727 674.876 19.5795C674.876 23.4091 674.308 26.6818 673.172 29.3977C672.047 32.1136 670.433 34.1875 668.331 35.6193C666.228 37.0511 663.711 37.767 660.78 37.767ZM660.78 31.6477C662.78 31.6477 664.376 30.642 665.569 28.6307C666.763 26.6193 667.353 23.6023 667.342 19.5795C667.342 16.9318 667.069 14.7273 666.524 12.9659C665.99 11.2045 665.228 9.88068 664.24 8.99432C663.263 8.10795 662.109 7.66477 660.78 7.66477C658.791 7.66477 657.2 8.65909 656.007 10.6477C654.814 12.6364 654.211 15.6136 654.2 19.5795C654.2 22.2614 654.467 24.5 655.001 26.2955C655.547 28.0795 656.314 29.4205 657.302 30.3182C658.291 31.2045 659.45 31.6477 660.78 31.6477ZM692.626 37.767C689.695 37.7557 687.172 37.0341 685.058 35.6023C682.956 34.1705 681.337 32.0966 680.2 29.3807C679.075 26.6648 678.518 23.3977 678.53 19.5795C678.53 15.7727 679.092 12.5284 680.217 9.84659C681.354 7.16477 682.973 5.125 685.075 3.72727C687.189 2.31818 689.706 1.61364 692.626 1.61364C695.547 1.61364 698.058 2.31818 700.161 3.72727C702.274 5.13636 703.899 7.18182 705.036 9.86364C706.172 12.5341 706.734 15.7727 706.723 19.5795C706.723 23.4091 706.155 26.6818 705.018 29.3977C703.893 32.1136 702.28 34.1875 700.178 35.6193C698.075 37.0511 695.558 37.767 692.626 37.767ZM692.626 31.6477C694.626 31.6477 696.223 30.642 697.416 28.6307C698.609 26.6193 699.2 23.6023 699.189 19.5795C699.189 16.9318 698.916 14.7273 698.371 12.9659C697.837 11.2045 697.075 9.88068 696.087 8.99432C695.109 8.10795 693.956 7.66477 692.626 7.66477C690.638 7.66477 689.047 8.65909 687.854 10.6477C686.661 12.6364 686.058 15.6136 686.047 19.5795C686.047 22.2614 686.314 24.5 686.848 26.2955C687.393 28.0795 688.161 29.4205 689.149 30.3182C690.138 31.2045 691.297 31.6477 692.626 31.6477ZM724.473 37.767C721.541 37.7557 719.019 37.0341 716.905 35.6023C714.803 34.1705 713.184 32.0966 712.047 29.3807C710.922 26.6648 710.365 23.3977 710.377 19.5795C710.377 15.7727 710.939 12.5284 712.064 9.84659C713.201 7.16477 714.82 5.125 716.922 3.72727C719.036 2.31818 721.553 1.61364 724.473 1.61364C727.394 1.61364 729.905 2.31818 732.007 3.72727C734.121 5.13636 735.746 7.18182 736.882 9.86364C738.019 12.5341 738.581 15.7727 738.57 19.5795C738.57 23.4091 738.002 26.6818 736.865 29.3977C735.74 32.1136 734.127 34.1875 732.024 35.6193C729.922 37.0511 727.405 37.767 724.473 37.767ZM724.473 31.6477C726.473 31.6477 728.07 30.642 729.263 28.6307C730.456 26.6193 731.047 23.6023 731.036 19.5795C731.036 16.9318 730.763 14.7273 730.218 12.9659C729.684 11.2045 728.922 9.88068 727.934 8.99432C726.956 8.10795 725.803 7.66477 724.473 7.66477C722.485 7.66477 720.894 8.65909 719.701 10.6477C718.507 12.6364 717.905 15.6136 717.894 19.5795C717.894 22.2614 718.161 24.5 718.695 26.2955C719.24 28.0795 720.007 29.4205 720.996 30.3182C721.985 31.2045 723.144 31.6477 724.473 31.6477ZM766.536 10.8182V16.2727H750.769V10.8182H766.536ZM754.349 4.54545H761.61V28.9545C761.61 29.625 761.713 30.1477 761.917 30.5227C762.122 30.8864 762.406 31.142 762.769 31.2898C763.144 31.4375 763.576 31.5114 764.065 31.5114C764.406 31.5114 764.747 31.483 765.088 31.4261C765.428 31.358 765.69 31.3068 765.872 31.2727L767.014 36.6761C766.65 36.7898 766.139 36.9205 765.48 37.0682C764.82 37.2273 764.019 37.3239 763.076 37.358C761.326 37.4261 759.792 37.1932 758.474 36.6591C757.167 36.125 756.15 35.2955 755.423 34.1705C754.695 33.0455 754.338 31.625 754.349 29.9091V4.54545ZM770.066 37V10.8182H777.106V15.3864H777.379C777.856 13.7614 778.657 12.5341 779.782 11.7045C780.907 10.8636 782.203 10.4432 783.669 10.4432C784.032 10.4432 784.424 10.4659 784.845 10.5114C785.265 10.5568 785.635 10.6193 785.953 10.6989V17.142C785.612 17.0398 785.14 16.9489 784.538 16.8693C783.936 16.7898 783.385 16.75 782.885 16.75C781.816 16.75 780.862 16.983 780.021 17.4489C779.191 17.9034 778.532 18.5398 778.044 19.358C777.566 20.1761 777.328 21.1193 777.328 22.1875V37H770.066ZM795.223 37.4943C793.553 37.4943 792.064 37.2045 790.757 36.625C789.45 36.0341 788.416 35.1648 787.655 34.017C786.905 32.858 786.53 31.4148 786.53 29.6875C786.53 28.233 786.797 27.0114 787.331 26.0227C787.865 25.0341 788.592 24.2386 789.513 23.6364C790.433 23.0341 791.479 22.5795 792.649 22.2727C793.831 21.9659 795.07 21.75 796.365 21.625C797.888 21.4659 799.115 21.3182 800.047 21.1818C800.979 21.0341 801.655 20.8182 802.075 20.5341C802.496 20.25 802.706 19.8295 802.706 19.2727V19.1705C802.706 18.0909 802.365 17.2557 801.683 16.6648C801.013 16.0739 800.058 15.7784 798.82 15.7784C797.513 15.7784 796.473 16.0682 795.7 16.6477C794.928 17.2159 794.416 17.9318 794.166 18.7955L787.45 18.25C787.791 16.6591 788.462 15.2841 789.462 14.125C790.462 12.9545 791.751 12.0568 793.331 11.4318C794.922 10.7955 796.763 10.4773 798.854 10.4773C800.308 10.4773 801.7 10.6477 803.03 10.9886C804.371 11.3295 805.558 11.858 806.592 12.5739C807.638 13.2898 808.462 14.2102 809.064 15.3352C809.666 16.4489 809.967 17.7841 809.967 19.3409V37H803.081V33.3693H802.876C802.456 34.1875 801.893 34.9091 801.189 35.5341C800.484 36.1477 799.638 36.6307 798.649 36.983C797.661 37.3239 796.518 37.4943 795.223 37.4943ZM797.303 32.483C798.371 32.483 799.314 32.2727 800.132 31.8523C800.95 31.4205 801.592 30.8409 802.058 30.1136C802.524 29.3864 802.757 28.5625 802.757 27.642V24.8636C802.53 25.0114 802.217 25.1477 801.82 25.2727C801.433 25.3864 800.996 25.4943 800.507 25.5966C800.018 25.6875 799.53 25.7727 799.041 25.8523C798.553 25.9205 798.109 25.983 797.712 26.0398C796.859 26.1648 796.115 26.3636 795.479 26.6364C794.842 26.9091 794.348 27.2784 793.996 27.7443C793.643 28.1989 793.467 28.767 793.467 29.4489C793.467 30.4375 793.825 31.1932 794.541 31.7159C795.268 32.2273 796.189 32.483 797.303 32.483ZM824.049 37.4261C822.06 37.4261 820.259 36.9148 818.645 35.892C817.043 34.858 815.77 33.3409 814.827 31.3409C813.895 29.3295 813.429 26.8636 813.429 23.9432C813.429 20.9432 813.912 18.4489 814.878 16.4602C815.844 14.4602 817.128 12.9659 818.73 11.9773C820.344 10.9773 822.111 10.4773 824.032 10.4773C825.497 10.4773 826.719 10.7273 827.696 11.2273C828.685 11.7159 829.48 12.3295 830.083 13.0682C830.696 13.7955 831.162 14.5114 831.48 15.2159H831.702V2.09091H838.946V37H831.787V32.8068H831.48C831.139 33.5341 830.657 34.2557 830.032 34.9716C829.418 35.6761 828.617 36.2614 827.628 36.7273C826.651 37.1932 825.458 37.4261 824.049 37.4261ZM826.35 31.6477C827.52 31.6477 828.509 31.3295 829.316 30.6932C830.134 30.0455 830.759 29.142 831.191 27.983C831.634 26.8239 831.855 25.4659 831.855 23.9091C831.855 22.3523 831.639 21 831.208 19.8523C830.776 18.7045 830.151 17.8182 829.333 17.1932C828.514 16.5682 827.52 16.2557 826.35 16.2557C825.157 16.2557 824.151 16.5795 823.333 17.2273C822.514 17.875 821.895 18.7727 821.475 19.9205C821.054 21.0682 820.844 22.3977 820.844 23.9091C820.844 25.4318 821.054 26.7784 821.475 27.9489C821.907 29.108 822.526 30.017 823.333 30.6761C824.151 31.3239 825.157 31.6477 826.35 31.6477ZM855.648 37.5114C852.955 37.5114 850.637 36.9659 848.694 35.875C846.762 34.7727 845.273 33.2159 844.228 31.2045C843.182 29.1818 842.66 26.7898 842.66 24.0284C842.66 21.3352 843.182 18.9716 844.228 16.9375C845.273 14.9034 846.745 13.3182 848.643 12.1818C850.552 11.0455 852.79 10.4773 855.358 10.4773C857.086 10.4773 858.694 10.7557 860.182 11.3125C861.682 11.858 862.989 12.6818 864.103 13.7841C865.228 14.8864 866.103 16.2727 866.728 17.9432C867.353 19.6023 867.665 21.5455 867.665 23.7727V25.767H845.557V21.267H860.83C860.83 20.2216 860.603 19.2955 860.148 18.4886C859.694 17.6818 859.063 17.0511 858.256 16.5966C857.461 16.1307 856.535 15.8977 855.478 15.8977C854.376 15.8977 853.398 16.1534 852.546 16.6648C851.705 17.1648 851.046 17.8409 850.569 18.6932C850.091 19.5341 849.847 20.4716 849.836 21.5057V25.7841C849.836 27.0795 850.074 28.1989 850.552 29.142C851.04 30.0852 851.728 30.8125 852.614 31.3239C853.501 31.8352 854.552 32.0909 855.768 32.0909C856.574 32.0909 857.313 31.9773 857.983 31.75C858.654 31.5227 859.228 31.1818 859.705 30.7273C860.182 30.2727 860.546 29.7159 860.796 29.0568L867.512 29.5C867.171 31.1136 866.472 32.5227 865.415 33.7273C864.37 34.9205 863.018 35.8523 861.358 36.5227C859.711 37.1818 857.807 37.5114 855.648 37.5114ZM871.204 37V10.8182H878.244V15.3864H878.517C878.994 13.7614 879.795 12.5341 880.92 11.7045C882.045 10.8636 883.34 10.4432 884.806 10.4432C885.17 10.4432 885.562 10.4659 885.982 10.5114C886.403 10.5568 886.772 10.6193 887.09 10.6989V17.142C886.749 17.0398 886.278 16.9489 885.676 16.8693C885.073 16.7898 884.522 16.75 884.022 16.75C882.954 16.75 881.999 16.983 881.159 17.4489C880.329 17.9034 879.67 18.5398 879.181 19.358C878.704 20.1761 878.465 21.1193 878.465 22.1875V37H871.204ZM911.429 18.2841L904.781 18.6932C904.667 18.125 904.423 17.6136 904.048 17.1591C903.673 16.6932 903.179 16.3239 902.565 16.0511C901.963 15.767 901.241 15.625 900.4 15.625C899.275 15.625 898.326 15.8636 897.554 16.3409C896.781 16.8068 896.395 17.4318 896.395 18.2159C896.395 18.8409 896.645 19.3693 897.145 19.8011C897.645 20.233 898.503 20.5795 899.718 20.8409L904.457 21.7955C907.003 22.3182 908.9 23.1591 910.15 24.3182C911.4 25.4773 912.025 27 912.025 28.8864C912.025 30.6023 911.52 32.108 910.508 33.4034C909.508 34.6989 908.133 35.7102 906.383 36.4375C904.645 37.1534 902.639 37.5114 900.366 37.5114C896.9 37.5114 894.139 36.7898 892.082 35.3466C890.037 33.892 888.838 31.9148 888.486 29.4148L895.628 29.0398C895.843 30.0966 896.366 30.9034 897.196 31.4602C898.025 32.0057 899.088 32.2784 900.383 32.2784C901.656 32.2784 902.679 32.0341 903.451 31.5455C904.236 31.0455 904.633 30.4034 904.645 29.6193C904.633 28.9602 904.355 28.4205 903.809 28C903.264 27.5682 902.423 27.2386 901.287 27.0114L896.753 26.108C894.196 25.5966 892.292 24.7102 891.042 23.4489C889.804 22.1875 889.184 20.5795 889.184 18.625C889.184 16.9432 889.639 15.4943 890.548 14.2784C891.468 13.0625 892.758 12.125 894.417 11.4659C896.088 10.8068 898.042 10.4773 900.281 10.4773C903.588 10.4773 906.19 11.1761 908.088 12.5739C909.997 13.9716 911.111 15.875 911.429 18.2841Z" fill="url(#paint0_linear_2_965)"/>
<defs>
<linearGradient id="paint0_linear_2_965" x1="438.351" y1="15.4999" x2="538.374" y2="28.085" gradientUnits="userSpaceOnUse">
<stop stop-color="#BA963A"/>
<stop offset="1" stop-color="#CC9C21"/>
</linearGradient>
</defs>
</svg>
