<svg width="521" height="48" viewBox="0 0 521 48" fill="none" xmlns="http://www.w3.org/2000/svg">
<path d="M7.41477 2.09091V37H0.0340909V2.09091H7.41477ZM19.4122 21.8636V37H12.1509V10.8182H19.0713V15.4375H19.3781C19.9577 13.9148 20.9293 12.7102 22.2929 11.8239C23.6565 10.9261 25.3099 10.4773 27.2531 10.4773C29.0713 10.4773 30.6565 10.875 32.0088 11.6705C33.3611 12.4659 34.4122 13.6023 35.1622 15.0795C35.9122 16.5455 36.2872 18.2955 36.2872 20.3295V37H29.0259V21.625C29.0372 20.0227 28.6281 18.7727 27.7986 17.875C26.969 16.9659 25.827 16.5114 24.3724 16.5114C23.3952 16.5114 22.5315 16.7216 21.7815 17.142C21.0429 17.5625 20.4634 18.1761 20.0429 18.983C19.6338 19.7784 19.4236 20.7386 19.4122 21.8636ZM50.458 37.4261C48.4693 37.4261 46.6682 36.9148 45.0545 35.892C43.4523 34.858 42.1795 33.3409 41.2364 31.3409C40.3045 29.3295 39.8386 26.8636 39.8386 23.9432C39.8386 20.9432 40.3216 18.4489 41.2875 16.4602C42.2534 14.4602 43.5375 12.9659 45.1398 11.9773C46.7534 10.9773 48.5205 10.4773 50.4409 10.4773C51.9068 10.4773 53.1284 10.7273 54.1057 11.2273C55.0943 11.7159 55.8898 12.3295 56.492 13.0682C57.1057 13.7955 57.5716 14.5114 57.8898 15.2159H58.1114V2.09091H65.3557V37H58.1966V32.8068H57.8898C57.5489 33.5341 57.0659 34.2557 56.4409 34.9716C55.8273 35.6761 55.0261 36.2614 54.0375 36.7273C53.0602 37.1932 51.867 37.4261 50.458 37.4261ZM52.7591 31.6477C53.9295 31.6477 54.9182 31.3295 55.725 30.6932C56.5432 30.0455 57.1682 29.142 57.6 27.983C58.0432 26.8239 58.2648 25.4659 58.2648 23.9091C58.2648 22.3523 58.0489 21 57.617 19.8523C57.1852 18.7045 56.5602 17.8182 55.742 17.1932C54.9239 16.5682 53.9295 16.2557 52.7591 16.2557C51.5659 16.2557 50.5602 16.5795 49.742 17.2273C48.9239 17.875 48.3045 18.7727 47.8841 19.9205C47.4636 21.0682 47.2534 22.3977 47.2534 23.9091C47.2534 25.4318 47.4636 26.7784 47.8841 27.9489C48.3159 29.108 48.9352 30.017 49.742 30.6761C50.5602 31.3239 51.5659 31.6477 52.7591 31.6477ZM86.9156 25.8523V10.8182H94.177V37H87.2054V32.2443H86.9327C86.3418 33.7784 85.3588 35.0114 83.9838 35.9432C82.6202 36.875 80.9554 37.3409 78.9895 37.3409C77.2395 37.3409 75.6997 36.9432 74.3702 36.1477C73.0406 35.3523 72.0009 34.2216 71.2509 32.7557C70.5122 31.2898 70.1372 29.5341 70.1259 27.4886V10.8182H77.3872V26.1932C77.3986 27.7386 77.8134 28.9602 78.6315 29.858C79.4497 30.7557 80.5463 31.2045 81.9213 31.2045C82.7963 31.2045 83.6145 31.0057 84.3759 30.608C85.1372 30.1989 85.7509 29.5966 86.2168 28.8011C86.694 28.0057 86.927 27.0227 86.9156 25.8523ZM120.569 18.2841L113.922 18.6932C113.808 18.125 113.564 17.6136 113.189 17.1591C112.814 16.6932 112.319 16.3239 111.706 16.0511C111.103 15.767 110.382 15.625 109.541 15.625C108.416 15.625 107.467 15.8636 106.694 16.3409C105.922 16.8068 105.535 17.4318 105.535 18.2159C105.535 18.8409 105.785 19.3693 106.285 19.8011C106.785 20.233 107.643 20.5795 108.859 20.8409L113.598 21.7955C116.143 22.3182 118.041 23.1591 119.291 24.3182C120.541 25.4773 121.166 27 121.166 28.8864C121.166 30.6023 120.66 32.108 119.649 33.4034C118.649 34.6989 117.274 35.7102 115.524 36.4375C113.785 37.1534 111.78 37.5114 109.507 37.5114C106.041 37.5114 103.28 36.7898 101.223 35.3466C99.1773 33.892 97.9784 31.9148 97.6261 29.4148L104.768 29.0398C104.984 30.0966 105.507 30.9034 106.336 31.4602C107.166 32.0057 108.228 32.2784 109.524 32.2784C110.797 32.2784 111.819 32.0341 112.592 31.5455C113.376 31.0455 113.774 30.4034 113.785 29.6193C113.774 28.9602 113.495 28.4205 112.95 28C112.405 27.5682 111.564 27.2386 110.427 27.0114L105.893 26.108C103.336 25.5966 101.433 24.7102 100.183 23.4489C98.9443 22.1875 98.325 20.5795 98.325 18.625C98.325 16.9432 98.7795 15.4943 99.6886 14.2784C100.609 13.0625 101.899 12.125 103.558 11.4659C105.228 10.8068 107.183 10.4773 109.422 10.4773C112.728 10.4773 115.331 11.1761 117.228 12.5739C119.137 13.9716 120.251 15.875 120.569 18.2841ZM138.464 10.8182V16.2727H122.697V10.8182H138.464ZM126.277 4.54545H133.538V28.9545C133.538 29.625 133.641 30.1477 133.845 30.5227C134.05 30.8864 134.334 31.142 134.697 31.2898C135.072 31.4375 135.504 31.5114 135.993 31.5114C136.334 31.5114 136.675 31.483 137.016 31.4261C137.357 31.358 137.618 31.3068 137.8 31.2727L138.942 36.6761C138.578 36.7898 138.067 36.9205 137.408 37.0682C136.749 37.2273 135.947 37.3239 135.004 37.358C133.254 37.4261 131.72 37.1932 130.402 36.6591C129.095 36.125 128.078 35.2955 127.351 34.1705C126.624 33.0455 126.266 31.625 126.277 29.9091V4.54545ZM141.995 37V10.8182H149.034V15.3864H149.307C149.784 13.7614 150.586 12.5341 151.711 11.7045C152.836 10.8636 154.131 10.4432 155.597 10.4432C155.961 10.4432 156.353 10.4659 156.773 10.5114C157.193 10.5568 157.563 10.6193 157.881 10.6989V17.142C157.54 17.0398 157.068 16.9489 156.466 16.8693C155.864 16.7898 155.313 16.75 154.813 16.75C153.745 16.75 152.79 16.983 151.949 17.4489C151.12 17.9034 150.461 18.5398 149.972 19.358C149.495 20.1761 149.256 21.1193 149.256 22.1875V37H141.995ZM165.715 46.8182C164.795 46.8182 163.931 46.7443 163.124 46.5966C162.329 46.4602 161.67 46.2841 161.147 46.0682L162.783 40.6477C163.636 40.9091 164.403 41.0511 165.084 41.0739C165.778 41.0966 166.374 40.9375 166.874 40.5966C167.386 40.2557 167.8 39.6761 168.118 38.858L168.545 37.75L159.153 10.8182H166.789L172.209 30.0455H172.482L177.954 10.8182H185.641L175.465 39.8295C174.976 41.2386 174.312 42.4659 173.471 43.5114C172.641 44.5682 171.59 45.3807 170.317 45.9489C169.045 46.5284 167.511 46.8182 165.715 46.8182ZM204.47 19.7841V25.5455H188.549V19.7841H204.47ZM216.718 2.09091V37H209.457V2.09091H216.718ZM233.267 37.5114C230.574 37.5114 228.256 36.9659 226.312 35.875C224.381 34.7727 222.892 33.2159 221.847 31.2045C220.801 29.1818 220.278 26.7898 220.278 24.0284C220.278 21.3352 220.801 18.9716 221.847 16.9375C222.892 14.9034 224.364 13.3182 226.261 12.1818C228.17 11.0455 230.409 10.4773 232.977 10.4773C234.705 10.4773 236.313 10.7557 237.801 11.3125C239.301 11.858 240.608 12.6818 241.722 13.7841C242.847 14.8864 243.722 16.2727 244.347 17.9432C244.972 19.6023 245.284 21.5455 245.284 23.7727V25.767H223.176V21.267H238.449C238.449 20.2216 238.222 19.2955 237.767 18.4886C237.313 17.6818 236.682 17.0511 235.875 16.5966C235.08 16.1307 234.153 15.8977 233.097 15.8977C231.994 15.8977 231.017 16.1534 230.165 16.6648C229.324 17.1648 228.665 17.8409 228.188 18.6932C227.71 19.5341 227.466 20.4716 227.455 21.5057V25.7841C227.455 27.0795 227.693 28.1989 228.17 29.142C228.659 30.0852 229.347 30.8125 230.233 31.3239C231.119 31.8352 232.17 32.0909 233.386 32.0909C234.193 32.0909 234.932 31.9773 235.602 31.75C236.273 31.5227 236.847 31.1818 237.324 30.7273C237.801 30.2727 238.165 29.7159 238.415 29.0568L245.131 29.5C244.79 31.1136 244.091 32.5227 243.034 33.7273C241.989 34.9205 240.636 35.8523 238.977 36.5227C237.33 37.1818 235.426 37.5114 233.267 37.5114ZM256.289 37.4943C254.618 37.4943 253.13 37.2045 251.823 36.625C250.516 36.0341 249.482 35.1648 248.72 34.017C247.97 32.858 247.595 31.4148 247.595 29.6875C247.595 28.233 247.863 27.0114 248.397 26.0227C248.931 25.0341 249.658 24.2386 250.578 23.6364C251.499 23.0341 252.544 22.5795 253.715 22.2727C254.897 21.9659 256.135 21.75 257.431 21.625C258.953 21.4659 260.181 21.3182 261.113 21.1818C262.044 21.0341 262.72 20.8182 263.141 20.5341C263.561 20.25 263.772 19.8295 263.772 19.2727V19.1705C263.772 18.0909 263.431 17.2557 262.749 16.6648C262.078 16.0739 261.124 15.7784 259.885 15.7784C258.578 15.7784 257.539 16.0682 256.766 16.6477C255.993 17.2159 255.482 17.9318 255.232 18.7955L248.516 18.25C248.857 16.6591 249.527 15.2841 250.527 14.125C251.527 12.9545 252.817 12.0568 254.397 11.4318C255.988 10.7955 257.828 10.4773 259.919 10.4773C261.374 10.4773 262.766 10.6477 264.095 10.9886C265.436 11.3295 266.624 11.858 267.658 12.5739C268.703 13.2898 269.527 14.2102 270.13 15.3352C270.732 16.4489 271.033 17.7841 271.033 19.3409V37H264.147V33.3693H263.942C263.522 34.1875 262.959 34.9091 262.255 35.5341C261.55 36.1477 260.703 36.6307 259.715 36.983C258.726 37.3239 257.584 37.4943 256.289 37.4943ZM258.368 32.483C259.436 32.483 260.38 32.2727 261.198 31.8523C262.016 31.4205 262.658 30.8409 263.124 30.1136C263.59 29.3864 263.823 28.5625 263.823 27.642V24.8636C263.595 25.0114 263.283 25.1477 262.885 25.2727C262.499 25.3864 262.061 25.4943 261.573 25.5966C261.084 25.6875 260.595 25.7727 260.107 25.8523C259.618 25.9205 259.175 25.983 258.777 26.0398C257.925 26.1648 257.181 26.3636 256.544 26.6364C255.908 26.9091 255.414 27.2784 255.061 27.7443C254.709 28.1989 254.533 28.767 254.533 29.4489C254.533 30.4375 254.891 31.1932 255.607 31.7159C256.334 32.2273 257.255 32.483 258.368 32.483ZM285.114 37.4261C283.126 37.4261 281.324 36.9148 279.711 35.892C278.109 34.858 276.836 33.3409 275.893 31.3409C274.961 29.3295 274.495 26.8636 274.495 23.9432C274.495 20.9432 274.978 18.4489 275.944 16.4602C276.91 14.4602 278.194 12.9659 279.796 11.9773C281.41 10.9773 283.177 10.4773 285.097 10.4773C286.563 10.4773 287.785 10.7273 288.762 11.2273C289.751 11.7159 290.546 12.3295 291.148 13.0682C291.762 13.7955 292.228 14.5114 292.546 15.2159H292.768V2.09091H300.012V37H292.853V32.8068H292.546C292.205 33.5341 291.722 34.2557 291.097 34.9716C290.484 35.6761 289.682 36.2614 288.694 36.7273C287.716 37.1932 286.523 37.4261 285.114 37.4261ZM287.415 31.6477C288.586 31.6477 289.574 31.3295 290.381 30.6932C291.199 30.0455 291.824 29.142 292.256 27.983C292.699 26.8239 292.921 25.4659 292.921 23.9091C292.921 22.3523 292.705 21 292.273 19.8523C291.841 18.7045 291.216 17.8182 290.398 17.1932C289.58 16.5682 288.586 16.2557 287.415 16.2557C286.222 16.2557 285.216 16.5795 284.398 17.2273C283.58 17.875 282.961 18.7727 282.54 19.9205C282.12 21.0682 281.91 22.3977 281.91 23.9091C281.91 25.4318 282.12 26.7784 282.54 27.9489C282.972 29.108 283.591 30.017 284.398 30.6761C285.216 31.3239 286.222 31.6477 287.415 31.6477ZM304.782 37V10.8182H312.043V37H304.782ZM308.43 7.44318C307.35 7.44318 306.424 7.08523 305.651 6.36932C304.89 5.64204 304.509 4.77273 304.509 3.76136C304.509 2.76136 304.89 1.90341 305.651 1.1875C306.424 0.460226 307.35 0.0965891 308.43 0.0965891C309.509 0.0965891 310.43 0.460226 311.191 1.1875C311.964 1.90341 312.35 2.76136 312.35 3.76136C312.35 4.77273 311.964 5.64204 311.191 6.36932C310.43 7.08523 309.509 7.44318 308.43 7.44318ZM323.922 21.8636V37H316.66V10.8182H323.581V15.4375H323.888C324.467 13.9148 325.439 12.7102 326.802 11.8239C328.166 10.9261 329.819 10.4773 331.763 10.4773C333.581 10.4773 335.166 10.875 336.518 11.6705C337.87 12.4659 338.922 13.6023 339.672 15.0795C340.422 16.5455 340.797 18.2955 340.797 20.3295V37H333.535V21.625C333.547 20.0227 333.138 18.7727 332.308 17.875C331.478 16.9659 330.336 16.5114 328.882 16.5114C327.905 16.5114 327.041 16.7216 326.291 17.142C325.552 17.5625 324.973 18.1761 324.552 18.983C324.143 19.7784 323.933 20.7386 323.922 21.8636ZM357.115 47.3636C354.763 47.3636 352.746 47.0398 351.064 46.392C349.393 45.7557 348.064 44.8864 347.075 43.7841C346.087 42.6818 345.445 41.4432 345.149 40.0682L351.865 39.1648C352.07 39.6875 352.393 40.1761 352.837 40.6307C353.28 41.0852 353.865 41.4489 354.592 41.7216C355.331 42.0057 356.229 42.1477 357.286 42.1477C358.865 42.1477 360.166 41.7614 361.189 40.9886C362.223 40.2273 362.74 38.9489 362.74 37.1534V32.3636H362.433C362.115 33.0909 361.638 33.7784 361.001 34.4261C360.365 35.0739 359.547 35.6023 358.547 36.0114C357.547 36.4205 356.354 36.625 354.967 36.625C353.001 36.625 351.212 36.1705 349.598 35.2614C347.996 34.3409 346.717 32.9375 345.763 31.0511C344.82 29.1534 344.348 26.7557 344.348 23.858C344.348 20.892 344.831 18.4148 345.797 16.4261C346.763 14.4375 348.047 12.9489 349.649 11.9602C351.263 10.9716 353.03 10.4773 354.95 10.4773C356.416 10.4773 357.643 10.7273 358.632 11.2273C359.621 11.7159 360.416 12.3295 361.018 13.0682C361.632 13.7955 362.104 14.5114 362.433 15.2159H362.706V10.8182H369.916V37.2557C369.916 39.483 369.371 41.3466 368.28 42.8466C367.189 44.3466 365.678 45.4716 363.746 46.2216C361.825 46.983 359.615 47.3636 357.115 47.3636ZM357.268 31.1705C358.439 31.1705 359.428 30.8807 360.234 30.3011C361.053 29.7102 361.678 28.8693 362.109 27.7784C362.553 26.6761 362.774 25.358 362.774 23.8239C362.774 22.2898 362.558 20.9602 362.126 19.8352C361.695 18.6989 361.07 17.8182 360.251 17.1932C359.433 16.5682 358.439 16.2557 357.268 16.2557C356.075 16.2557 355.07 16.5795 354.251 17.2273C353.433 17.8636 352.814 18.75 352.393 19.8864C351.973 21.0227 351.763 22.3352 351.763 23.8239C351.763 25.3352 351.973 26.642 352.393 27.7443C352.825 28.8352 353.445 29.6818 354.251 30.2841C355.07 30.875 356.075 31.1705 357.268 31.1705ZM384.404 46.8182V10.8182H391.563V15.2159H391.887C392.205 14.5114 392.665 13.7955 393.268 13.0682C393.881 12.3295 394.677 11.7159 395.654 11.2273C396.643 10.7273 397.87 10.4773 399.336 10.4773C401.245 10.4773 403.006 10.9773 404.62 11.9773C406.234 12.9659 407.523 14.4602 408.489 16.4602C409.455 18.4489 409.938 20.9432 409.938 23.9432C409.938 26.8636 409.466 29.3295 408.523 31.3409C407.591 33.3409 406.319 34.858 404.705 35.892C403.103 36.9148 401.307 37.4261 399.319 37.4261C397.91 37.4261 396.711 37.1932 395.722 36.7273C394.745 36.2614 393.944 35.6761 393.319 34.9716C392.694 34.2557 392.216 33.5341 391.887 32.8068H391.665V46.8182H384.404ZM391.512 23.9091C391.512 25.4659 391.728 26.8239 392.16 27.983C392.591 29.142 393.216 30.0455 394.035 30.6932C394.853 31.3295 395.847 31.6477 397.018 31.6477C398.199 31.6477 399.199 31.3239 400.018 30.6761C400.836 30.017 401.455 29.108 401.876 27.9489C402.307 26.7784 402.523 25.4318 402.523 23.9091C402.523 22.3977 402.313 21.0682 401.893 19.9205C401.472 18.7727 400.853 17.875 400.035 17.2273C399.216 16.5795 398.211 16.2557 397.018 16.2557C395.836 16.2557 394.836 16.5682 394.018 17.1932C393.211 17.8182 392.591 18.7045 392.16 19.8523C391.728 21 391.512 22.3523 391.512 23.9091ZM413.579 37V10.8182H420.619V15.3864H420.891C421.369 13.7614 422.17 12.5341 423.295 11.7045C424.42 10.8636 425.715 10.4432 427.181 10.4432C427.545 10.4432 427.937 10.4659 428.357 10.5114C428.778 10.5568 429.147 10.6193 429.465 10.6989V17.142C429.124 17.0398 428.653 16.9489 428.051 16.8693C427.448 16.7898 426.897 16.75 426.397 16.75C425.329 16.75 424.374 16.983 423.534 17.4489C422.704 17.9034 422.045 18.5398 421.556 19.358C421.079 20.1761 420.84 21.1193 420.84 22.1875V37H413.579ZM432.02 37V10.8182H439.281V37H432.02ZM435.667 7.44318C434.588 7.44318 433.662 7.08523 432.889 6.36932C432.128 5.64204 431.747 4.77273 431.747 3.76136C431.747 2.76136 432.128 1.90341 432.889 1.1875C433.662 0.460226 434.588 0.0965891 435.667 0.0965891C436.747 0.0965891 437.667 0.460226 438.429 1.1875C439.201 1.90341 439.588 2.76136 439.588 3.76136C439.588 4.77273 439.201 5.64204 438.429 6.36932C437.667 7.08523 436.747 7.44318 435.667 7.44318ZM455.727 37.5114C453.045 37.5114 450.739 36.9432 448.807 35.8068C446.886 34.6591 445.409 33.0682 444.375 31.0341C443.352 29 442.841 26.6591 442.841 24.0114C442.841 21.3295 443.358 18.9773 444.392 16.9545C445.438 14.9205 446.92 13.3352 448.841 12.1989C450.761 11.0511 453.045 10.4773 455.693 10.4773C457.977 10.4773 459.977 10.892 461.693 11.7216C463.409 12.5511 464.767 13.7159 465.767 15.2159C466.767 16.7159 467.318 18.4773 467.42 20.5H460.568C460.375 19.1932 459.864 18.142 459.034 17.3466C458.216 16.5398 457.142 16.1364 455.812 16.1364C454.688 16.1364 453.705 16.4432 452.864 17.0568C452.034 17.6591 451.386 18.5398 450.92 19.6989C450.455 20.858 450.222 22.2614 450.222 23.9091C450.222 25.5795 450.449 27 450.903 28.1705C451.369 29.3409 452.023 30.233 452.864 30.8466C453.705 31.4602 454.688 31.767 455.812 31.767C456.642 31.767 457.386 31.5966 458.045 31.2557C458.716 30.9148 459.267 30.4205 459.699 29.7727C460.142 29.1136 460.432 28.3239 460.568 27.4034H467.42C467.307 29.4034 466.761 31.1648 465.784 32.6875C464.818 34.1989 463.483 35.3807 461.778 36.233C460.074 37.0852 458.057 37.5114 455.727 37.5114ZM482.801 37.5114C480.108 37.5114 477.79 36.9659 475.847 35.875C473.915 34.7727 472.426 33.2159 471.381 31.2045C470.335 29.1818 469.813 26.7898 469.813 24.0284C469.813 21.3352 470.335 18.9716 471.381 16.9375C472.426 14.9034 473.898 13.3182 475.796 12.1818C477.705 11.0455 479.943 10.4773 482.512 10.4773C484.239 10.4773 485.847 10.7557 487.335 11.3125C488.835 11.858 490.142 12.6818 491.256 13.7841C492.381 14.8864 493.256 16.2727 493.881 17.9432C494.506 19.6023 494.818 21.5455 494.818 23.7727V25.767H472.71V21.267H487.983C487.983 20.2216 487.756 19.2955 487.301 18.4886C486.847 17.6818 486.216 17.0511 485.409 16.5966C484.614 16.1307 483.688 15.8977 482.631 15.8977C481.529 15.8977 480.551 16.1534 479.699 16.6648C478.858 17.1648 478.199 17.8409 477.722 18.6932C477.245 19.5341 477 20.4716 476.989 21.5057V25.7841C476.989 27.0795 477.228 28.1989 477.705 29.142C478.193 30.0852 478.881 30.8125 479.767 31.3239C480.654 31.8352 481.705 32.0909 482.921 32.0909C483.728 32.0909 484.466 31.9773 485.137 31.75C485.807 31.5227 486.381 31.1818 486.858 30.7273C487.335 30.2727 487.699 29.7159 487.949 29.0568L494.665 29.5C494.324 31.1136 493.625 32.5227 492.568 33.7273C491.523 34.9205 490.171 35.8523 488.512 36.5227C486.864 37.1818 484.96 37.5114 482.801 37.5114ZM520.141 18.2841L513.493 18.6932C513.38 18.125 513.136 17.6136 512.761 17.1591C512.386 16.6932 511.891 16.3239 511.278 16.0511C510.675 15.767 509.954 15.625 509.113 15.625C507.988 15.625 507.039 15.8636 506.266 16.3409C505.493 16.8068 505.107 17.4318 505.107 18.2159C505.107 18.8409 505.357 19.3693 505.857 19.8011C506.357 20.233 507.215 20.5795 508.431 20.8409L513.17 21.7955C515.715 22.3182 517.613 23.1591 518.863 24.3182C520.113 25.4773 520.738 27 520.738 28.8864C520.738 30.6023 520.232 32.108 519.221 33.4034C518.221 34.6989 516.846 35.7102 515.096 36.4375C513.357 37.1534 511.351 37.5114 509.079 37.5114C505.613 37.5114 502.851 36.7898 500.795 35.3466C498.749 33.892 497.55 31.9148 497.198 29.4148L504.34 29.0398C504.556 30.0966 505.079 30.9034 505.908 31.4602C506.738 32.0057 507.8 32.2784 509.096 32.2784C510.368 32.2784 511.391 32.0341 512.164 31.5455C512.948 31.0455 513.346 30.4034 513.357 29.6193C513.346 28.9602 513.067 28.4205 512.522 28C511.976 27.5682 511.136 27.2386 509.999 27.0114L505.465 26.108C502.908 25.5966 501.005 24.7102 499.755 23.4489C498.516 22.1875 497.897 20.5795 497.897 18.625C497.897 16.9432 498.351 15.4943 499.261 14.2784C500.181 13.0625 501.471 12.125 503.13 11.4659C504.8 10.8068 506.755 10.4773 508.993 10.4773C512.3 10.4773 514.903 11.1761 516.8 12.5739C518.709 13.9716 519.823 15.875 520.141 18.2841Z" fill="url(#paint0_linear_2_1759)"/>
<defs>
<linearGradient id="paint0_linear_2_1759" x1="260" y1="-9.99999" x2="319.753" y2="78.7859" gradientUnits="userSpaceOnUse">
<stop stop-color="#BA963A"/>
<stop offset="1" stop-color="#E2AC22"/>
</linearGradient>
</defs>
</svg>
