<svg width="374" height="29" viewBox="0 0 374 29" fill="none" xmlns="http://www.w3.org/2000/svg">
<path d="M0.278409 6.3821V1.81818H21.7812V6.3821H13.7656V28H8.29403V6.3821H0.278409ZM22.2811 28V8.36364H27.5609V11.7898H27.7655C28.1234 10.571 28.7243 9.65057 29.568 9.02841C30.4118 8.39773 31.3834 8.08239 32.4828 8.08239C32.7555 8.08239 33.0496 8.09943 33.3649 8.13352C33.6803 8.16761 33.9572 8.21449 34.1959 8.27415V13.1065C33.9402 13.0298 33.5865 12.9616 33.1348 12.902C32.6831 12.8423 32.2697 12.8125 31.8947 12.8125C31.0936 12.8125 30.3777 12.9872 29.747 13.3366C29.1249 13.6776 28.6305 14.1548 28.2641 14.7685C27.9061 15.3821 27.7271 16.0895 27.7271 16.8906V28H22.2811ZM41.1485 28.3707C39.8957 28.3707 38.7792 28.1534 37.7991 27.7188C36.819 27.2756 36.0434 26.6236 35.4724 25.7628C34.9099 24.8935 34.6286 23.8111 34.6286 22.5156C34.6286 21.4247 34.8289 20.5085 35.2295 19.767C35.63 19.0256 36.1755 18.429 36.8658 17.9773C37.5562 17.5256 38.3403 17.1847 39.2181 16.9545C40.1045 16.7244 41.0335 16.5625 42.005 16.4688C43.1471 16.3494 44.0675 16.2386 44.7664 16.1364C45.4653 16.0256 45.9724 15.8636 46.2877 15.6506C46.6031 15.4375 46.7607 15.1222 46.7607 14.7045V14.6278C46.7607 13.8182 46.505 13.1918 45.9937 12.7486C45.4908 12.3054 44.7749 12.0838 43.846 12.0838C42.8658 12.0838 42.086 12.3011 41.5065 12.7358C40.9269 13.1619 40.5434 13.6989 40.3559 14.3466L35.319 13.9375C35.5746 12.7443 36.0775 11.7131 36.8275 10.8438C37.5775 9.96591 38.5448 9.29261 39.7295 8.82386C40.9227 8.34659 42.3033 8.10795 43.8715 8.10795C44.9624 8.10795 46.0065 8.2358 47.0036 8.49148C48.0093 8.74716 48.8999 9.14347 49.6755 9.6804C50.4596 10.2173 51.0775 10.9077 51.5292 11.7514C51.9809 12.5866 52.2067 13.5881 52.2067 14.7557V28H47.042V25.277H46.8886C46.5732 25.8906 46.1514 26.4318 45.6229 26.9006C45.0945 27.3608 44.4596 27.723 43.7181 27.9872C42.9766 28.2429 42.1201 28.3707 41.1485 28.3707ZM42.7082 24.6122C43.5093 24.6122 44.2167 24.4545 44.8303 24.1392C45.444 23.8153 45.9255 23.3807 46.2749 22.8352C46.6244 22.2898 46.7991 21.6719 46.7991 20.9815V18.8977C46.6286 19.0085 46.3942 19.1108 46.096 19.2045C45.8062 19.2898 45.4781 19.3707 45.1116 19.4474C44.7451 19.5156 44.3786 19.5795 44.0121 19.6392C43.6457 19.6903 43.3133 19.7372 43.015 19.7798C42.3758 19.8736 41.8175 20.0227 41.3403 20.2273C40.863 20.4318 40.4923 20.7088 40.2281 21.0582C39.9639 21.3991 39.8317 21.8253 39.8317 22.3366C39.8317 23.0781 40.1002 23.6449 40.6371 24.0369C41.1826 24.4205 41.8729 24.6122 42.7082 24.6122ZM62.7677 28.3196C61.2762 28.3196 59.9254 27.9361 58.7151 27.169C57.5134 26.3935 56.5589 25.2557 55.8515 23.7557C55.1526 22.2472 54.8032 20.3977 54.8032 18.2074C54.8032 15.9574 55.1654 14.0866 55.8898 12.5952C56.6143 11.0952 57.5773 9.97443 58.779 9.23295C59.9893 8.48295 61.3146 8.10795 62.7549 8.10795C63.8543 8.10795 64.7705 8.29545 65.5035 8.67045C66.245 9.03693 66.8415 9.49716 67.2933 10.0511C67.7535 10.5966 68.1029 11.1335 68.3415 11.6619H68.5077V1.81818H73.941V28H68.5717V24.8551H68.3415C68.0859 25.4006 67.7237 25.9418 67.2549 26.4787C66.7947 27.0071 66.1938 27.446 65.4523 27.7955C64.7194 28.1449 63.8245 28.3196 62.7677 28.3196ZM64.4935 23.9858C65.3714 23.9858 66.1129 23.7472 66.718 23.2699C67.3316 22.7841 67.8004 22.1065 68.1242 21.2372C68.4566 20.3679 68.6228 19.3494 68.6228 18.1818C68.6228 17.0142 68.4609 16 68.137 15.1392C67.8131 14.2784 67.3444 13.6136 66.7308 13.1449C66.1171 12.6761 65.3714 12.4418 64.4935 12.4418C63.5987 12.4418 62.8444 12.6847 62.2308 13.1705C61.6171 13.6562 61.1526 14.3295 60.8373 15.1903C60.5219 16.0511 60.3643 17.0483 60.3643 18.1818C60.3643 19.3239 60.5219 20.3338 60.8373 21.2116C61.1611 22.081 61.6256 22.7628 62.2308 23.2571C62.8444 23.7429 63.5987 23.9858 64.4935 23.9858ZM86.4675 28.3835C84.4476 28.3835 82.709 27.9744 81.2516 27.1562C79.8027 26.3295 78.6862 25.1619 77.9021 23.6534C77.118 22.1364 76.726 20.3423 76.726 18.2713C76.726 16.2514 77.118 14.4787 77.9021 12.9531C78.6862 11.4276 79.7899 10.2386 81.2132 9.38636C82.645 8.53409 84.324 8.10795 86.2501 8.10795C87.5456 8.10795 88.7516 8.31676 89.868 8.73438C90.993 9.14347 91.9732 9.76136 92.8084 10.5881C93.6521 11.4148 94.3084 12.4545 94.7771 13.7074C95.2459 14.9517 95.4803 16.4091 95.4803 18.0795V19.5753H78.8993V16.2003H90.3538C90.3538 15.4162 90.1834 14.7216 89.8425 14.1165C89.5016 13.5114 89.0286 13.0384 88.4234 12.6974C87.8268 12.348 87.1322 12.1733 86.3396 12.1733C85.5129 12.1733 84.78 12.3651 84.1408 12.7486C83.5101 13.1236 83.0158 13.6307 82.6578 14.2699C82.2999 14.9006 82.1166 15.6037 82.1081 16.3793V19.5881C82.1081 20.5597 82.2871 21.3991 82.645 22.1065C83.0115 22.8139 83.5271 23.3594 84.1919 23.7429C84.8567 24.1264 85.645 24.3182 86.557 24.3182C87.1621 24.3182 87.7161 24.233 88.2189 24.0625C88.7217 23.892 89.1521 23.6364 89.5101 23.2955C89.868 22.9545 90.1408 22.5369 90.3283 22.0426L95.3652 22.375C95.1095 23.5852 94.5854 24.642 93.7928 25.5455C93.0087 26.4403 91.9945 27.1392 90.7501 27.642C89.5143 28.1364 88.0868 28.3835 86.4675 28.3835ZM109.44 28L104.096 8.36364H109.606L112.649 21.5568H112.828L115.998 8.36364H121.406L124.627 21.4801H124.794L127.785 8.36364H133.282L127.951 28H122.186L118.811 15.6506H118.568L115.193 28H109.44ZM135.287 28V8.36364H140.733V28H135.287ZM138.023 5.83239C137.213 5.83239 136.519 5.56392 135.939 5.02699C135.368 4.48153 135.083 3.82954 135.083 3.07102C135.083 2.32102 135.368 1.67756 135.939 1.14062C136.519 0.59517 137.213 0.322442 138.023 0.322442C138.833 0.322442 139.523 0.59517 140.094 1.14062C140.674 1.67756 140.963 2.32102 140.963 3.07102C140.963 3.82954 140.674 4.48153 140.094 5.02699C139.523 5.56392 138.833 5.83239 138.023 5.83239ZM154.641 8.36364V12.4545H142.815V8.36364H154.641ZM145.5 3.65909H150.946V21.9659C150.946 22.4687 151.023 22.8608 151.176 23.142C151.329 23.4148 151.543 23.6065 151.815 23.7173C152.097 23.8281 152.42 23.8835 152.787 23.8835C153.043 23.8835 153.298 23.8622 153.554 23.8196C153.81 23.7685 154.006 23.7301 154.142 23.7045L154.999 27.7571C154.726 27.8423 154.342 27.9403 153.848 28.0511C153.354 28.1705 152.753 28.2429 152.045 28.2685C150.733 28.3196 149.582 28.1449 148.594 27.7443C147.614 27.3437 146.851 26.7216 146.305 25.8778C145.76 25.0341 145.491 23.9687 145.5 22.6818V3.65909ZM163.156 16.6477V28H157.71V1.81818H163.003V11.8281H163.233C163.676 10.669 164.392 9.76136 165.38 9.10511C166.369 8.44034 167.609 8.10795 169.101 8.10795C170.464 8.10795 171.653 8.40625 172.667 9.00284C173.69 9.59091 174.483 10.4389 175.045 11.5469C175.616 12.6463 175.898 13.9631 175.889 15.4972V28H170.443V16.4688C170.451 15.2585 170.145 14.3168 169.523 13.6435C168.909 12.9702 168.048 12.6335 166.94 12.6335C166.199 12.6335 165.542 12.7912 164.971 13.1065C164.409 13.4219 163.966 13.8821 163.642 14.4872C163.326 15.0838 163.165 15.804 163.156 16.6477ZM195.579 28.3835C193.568 28.3835 191.838 27.9574 190.389 27.1051C188.948 26.2443 187.84 25.0511 187.065 23.5256C186.298 22 185.914 20.2443 185.914 18.2585C185.914 16.2472 186.302 14.483 187.078 12.9659C187.862 11.4403 188.974 10.2514 190.414 9.39915C191.855 8.53835 193.568 8.10795 195.553 8.10795C197.267 8.10795 198.767 8.41903 200.053 9.04119C201.34 9.66335 202.359 10.5369 203.109 11.6619C203.859 12.7869 204.272 14.108 204.349 15.625H199.21C199.065 14.6449 198.681 13.8565 198.059 13.2599C197.446 12.6548 196.64 12.3523 195.643 12.3523C194.799 12.3523 194.062 12.5824 193.431 13.0426C192.809 13.4943 192.323 14.1548 191.974 15.0241C191.625 15.8935 191.45 16.946 191.45 18.1818C191.45 19.4347 191.62 20.5 191.961 21.3778C192.311 22.2557 192.801 22.9247 193.431 23.3849C194.062 23.8452 194.799 24.0753 195.643 24.0753C196.265 24.0753 196.823 23.9474 197.318 23.6918C197.821 23.4361 198.234 23.0653 198.558 22.5795C198.89 22.0852 199.107 21.4929 199.21 20.8026H204.349C204.264 22.3026 203.855 23.6236 203.122 24.7656C202.397 25.8991 201.396 26.7855 200.117 27.4247C198.839 28.0639 197.326 28.3835 195.579 28.3835ZM215.808 28.3835C213.822 28.3835 212.105 27.9616 210.656 27.1179C209.216 26.2656 208.103 25.081 207.319 23.5639C206.535 22.0384 206.143 20.2699 206.143 18.2585C206.143 16.2301 206.535 14.4574 207.319 12.9403C208.103 11.4148 209.216 10.2301 210.656 9.38636C212.105 8.53409 213.822 8.10795 215.808 8.10795C217.794 8.10795 219.507 8.53409 220.947 9.38636C222.396 10.2301 223.512 11.4148 224.297 12.9403C225.081 14.4574 225.473 16.2301 225.473 18.2585C225.473 20.2699 225.081 22.0384 224.297 23.5639C223.512 25.081 222.396 26.2656 220.947 27.1179C219.507 27.9616 217.794 28.3835 215.808 28.3835ZM215.834 24.1648C216.737 24.1648 217.491 23.9091 218.096 23.3977C218.701 22.8778 219.157 22.1705 219.464 21.2756C219.78 20.3807 219.937 19.3622 219.937 18.2202C219.937 17.0781 219.78 16.0597 219.464 15.1648C219.157 14.2699 218.701 13.5625 218.096 13.0426C217.491 12.5227 216.737 12.2628 215.834 12.2628C214.922 12.2628 214.155 12.5227 213.532 13.0426C212.919 13.5625 212.454 14.2699 212.139 15.1648C211.832 16.0597 211.679 17.0781 211.679 18.2202C211.679 19.3622 211.832 20.3807 212.139 21.2756C212.454 22.1705 212.919 22.8778 213.532 23.3977C214.155 23.9091 214.922 24.1648 215.834 24.1648ZM233.56 16.6477V28H228.114V8.36364H233.304V11.8281H233.534C233.969 10.6861 234.698 9.78267 235.72 9.1179C236.743 8.4446 237.983 8.10795 239.441 8.10795C240.804 8.10795 241.993 8.40625 243.007 9.00284C244.022 9.59943 244.81 10.4517 245.372 11.5597C245.935 12.6591 246.216 13.9716 246.216 15.4972V28H240.77V16.4688C240.779 15.267 240.472 14.3295 239.85 13.6562C239.228 12.9744 238.371 12.6335 237.28 12.6335C236.547 12.6335 235.899 12.7912 235.337 13.1065C234.783 13.4219 234.348 13.8821 234.033 14.4872C233.726 15.0838 233.568 15.804 233.56 16.6477ZM260.168 8.36364V12.4545H248.049V8.36364H260.168ZM250.823 28V6.9446C250.823 5.52131 251.1 4.34091 251.654 3.40341C252.216 2.46591 252.983 1.76278 253.955 1.29403C254.927 0.825282 256.03 0.590907 257.266 0.590907C258.101 0.590907 258.864 0.654828 259.554 0.78267C260.253 0.910511 260.773 1.02557 261.114 1.12784L260.143 5.21875C259.929 5.15057 259.665 5.08665 259.35 5.02699C259.043 4.96733 258.728 4.9375 258.404 4.9375C257.603 4.9375 257.045 5.125 256.729 5.5C256.414 5.86648 256.256 6.3821 256.256 7.04688V28H250.823ZM262.595 28V8.36364H268.041V28H262.595ZM265.331 5.83239C264.521 5.83239 263.827 5.56392 263.247 5.02699C262.676 4.48153 262.391 3.82954 262.391 3.07102C262.391 2.32102 262.676 1.67756 263.247 1.14062C263.827 0.59517 264.521 0.322442 265.331 0.322442C266.141 0.322442 266.831 0.59517 267.402 1.14062C267.982 1.67756 268.271 2.32102 268.271 3.07102C268.271 3.82954 267.982 4.48153 267.402 5.02699C266.831 5.56392 266.141 5.83239 265.331 5.83239ZM278.74 28.3196C277.248 28.3196 275.897 27.9361 274.687 27.169C273.485 26.3935 272.531 25.2557 271.823 23.7557C271.125 22.2472 270.775 20.3977 270.775 18.2074C270.775 15.9574 271.137 14.0866 271.862 12.5952C272.586 11.0952 273.549 9.97443 274.751 9.23295C275.961 8.48295 277.286 8.10795 278.727 8.10795C279.826 8.10795 280.742 8.29545 281.475 8.67045C282.217 9.03693 282.813 9.49716 283.265 10.0511C283.725 10.5966 284.075 11.1335 284.313 11.6619H284.48V1.81818H289.913V28H284.544V24.8551H284.313C284.058 25.4006 283.696 25.9418 283.227 26.4787C282.767 27.0071 282.166 27.446 281.424 27.7955C280.691 28.1449 279.796 28.3196 278.74 28.3196ZM280.465 23.9858C281.343 23.9858 282.085 23.7472 282.69 23.2699C283.303 22.7841 283.772 22.1065 284.096 21.2372C284.428 20.3679 284.595 19.3494 284.595 18.1818C284.595 17.0142 284.433 16 284.109 15.1392C283.785 14.2784 283.316 13.6136 282.703 13.1449C282.089 12.6761 281.343 12.4418 280.465 12.4418C279.571 12.4418 278.816 12.6847 278.203 13.1705C277.589 13.6562 277.125 14.3295 276.809 15.1903C276.494 16.0511 276.336 17.0483 276.336 18.1818C276.336 19.3239 276.494 20.3338 276.809 21.2116C277.133 22.081 277.598 22.7628 278.203 23.2571C278.816 23.7429 279.571 23.9858 280.465 23.9858ZM302.439 28.3835C300.419 28.3835 298.681 27.9744 297.223 27.1562C295.775 26.3295 294.658 25.1619 293.874 23.6534C293.09 22.1364 292.698 20.3423 292.698 18.2713C292.698 16.2514 293.09 14.4787 293.874 12.9531C294.658 11.4276 295.762 10.2386 297.185 9.38636C298.617 8.53409 300.296 8.10795 302.222 8.10795C303.517 8.10795 304.723 8.31676 305.84 8.73438C306.965 9.14347 307.945 9.76136 308.78 10.5881C309.624 11.4148 310.28 12.4545 310.749 13.7074C311.218 14.9517 311.452 16.4091 311.452 18.0795V19.5753H294.871V16.2003H306.326C306.326 15.4162 306.155 14.7216 305.814 14.1165C305.473 13.5114 305 13.0384 304.395 12.6974C303.799 12.348 303.104 12.1733 302.312 12.1733C301.485 12.1733 300.752 12.3651 300.113 12.7486C299.482 13.1236 298.988 13.6307 298.63 14.2699C298.272 14.9006 298.089 15.6037 298.08 16.3793V19.5881C298.08 20.5597 298.259 21.3991 298.617 22.1065C298.983 22.8139 299.499 23.3594 300.164 23.7429C300.829 24.1264 301.617 24.3182 302.529 24.3182C303.134 24.3182 303.688 24.233 304.191 24.0625C304.694 23.892 305.124 23.6364 305.482 23.2955C305.84 22.9545 306.113 22.5369 306.3 22.0426L311.337 22.375C311.081 23.5852 310.557 24.642 309.765 25.5455C308.981 26.4403 307.966 27.1392 306.722 27.642C305.486 28.1364 304.059 28.3835 302.439 28.3835ZM319.552 16.6477V28H314.106V8.36364H319.296V11.8281H319.527C319.961 10.6861 320.69 9.78267 321.713 9.1179C322.735 8.4446 323.975 8.10795 325.433 8.10795C326.796 8.10795 327.985 8.40625 329 9.00284C330.014 9.59943 330.802 10.4517 331.365 11.5597C331.927 12.6591 332.208 13.9716 332.208 15.4972V28H326.762V16.4688C326.771 15.267 326.464 14.3295 325.842 13.6562C325.22 12.9744 324.363 12.6335 323.272 12.6335C322.539 12.6335 321.892 12.7912 321.329 13.1065C320.775 13.4219 320.34 13.8821 320.025 14.4872C319.718 15.0838 319.561 15.804 319.552 16.6477ZM344.473 28.3835C342.461 28.3835 340.731 27.9574 339.282 27.1051C337.842 26.2443 336.734 25.0511 335.959 23.5256C335.192 22 334.808 20.2443 334.808 18.2585C334.808 16.2472 335.196 14.483 335.971 12.9659C336.755 11.4403 337.868 10.2514 339.308 9.39915C340.748 8.53835 342.461 8.10795 344.447 8.10795C346.16 8.10795 347.66 8.41903 348.947 9.04119C350.234 9.66335 351.253 10.5369 352.003 11.6619C352.753 12.7869 353.166 14.108 353.243 15.625H348.103C347.959 14.6449 347.575 13.8565 346.953 13.2599C346.339 12.6548 345.534 12.3523 344.537 12.3523C343.693 12.3523 342.956 12.5824 342.325 13.0426C341.703 13.4943 341.217 14.1548 340.868 15.0241C340.518 15.8935 340.344 16.946 340.344 18.1818C340.344 19.4347 340.514 20.5 340.855 21.3778C341.204 22.2557 341.694 22.9247 342.325 23.3849C342.956 23.8452 343.693 24.0753 344.537 24.0753C345.159 24.0753 345.717 23.9474 346.211 23.6918C346.714 23.4361 347.128 23.0653 347.451 22.5795C347.784 22.0852 348.001 21.4929 348.103 20.8026H353.243C353.157 22.3026 352.748 23.6236 352.015 24.7656C351.291 25.8991 350.29 26.7855 349.011 27.4247C347.733 28.0639 346.22 28.3835 344.473 28.3835ZM364.778 28.3835C362.759 28.3835 361.02 27.9744 359.562 27.1562C358.114 26.3295 356.997 25.1619 356.213 23.6534C355.429 22.1364 355.037 20.3423 355.037 18.2713C355.037 16.2514 355.429 14.4787 356.213 12.9531C356.997 11.4276 358.101 10.2386 359.524 9.38636C360.956 8.53409 362.635 8.10795 364.561 8.10795C365.857 8.10795 367.063 8.31676 368.179 8.73438C369.304 9.14347 370.284 9.76136 371.119 10.5881C371.963 11.4148 372.619 12.4545 373.088 13.7074C373.557 14.9517 373.791 16.4091 373.791 18.0795V19.5753H357.21V16.2003H368.665C368.665 15.4162 368.494 14.7216 368.153 14.1165C367.813 13.5114 367.339 13.0384 366.734 12.6974C366.138 12.348 365.443 12.1733 364.651 12.1733C363.824 12.1733 363.091 12.3651 362.452 12.7486C361.821 13.1236 361.327 13.6307 360.969 14.2699C360.611 14.9006 360.428 15.6037 360.419 16.3793V19.5881C360.419 20.5597 360.598 21.3991 360.956 22.1065C361.322 22.8139 361.838 23.3594 362.503 23.7429C363.168 24.1264 363.956 24.3182 364.868 24.3182C365.473 24.3182 366.027 24.233 366.53 24.0625C367.033 23.892 367.463 23.6364 367.821 23.2955C368.179 22.9545 368.452 22.5369 368.639 22.0426L373.676 22.375C373.42 23.5852 372.896 24.642 372.104 25.5455C371.32 26.4403 370.305 27.1392 369.061 27.642C367.825 28.1364 366.398 28.3835 364.778 28.3835Z" fill="url(#paint0_linear_2_1010)"/>
<defs>
<linearGradient id="paint0_linear_2_1010" x1="180.379" y1="10.4999" x2="222.213" y2="12.6729" gradientUnits="userSpaceOnUse">
<stop stop-color="#BA963A"/>
<stop offset="1" stop-color="#CC9C21"/>
</linearGradient>
</defs>
</svg>
