<svg width="324" height="36" viewBox="0 0 324 36" fill="none" xmlns="http://www.w3.org/2000/svg">
<path d="M9.55682 28H0.275568V1.81818H9.63352C12.267 1.81818 14.5341 2.34233 16.4347 3.39062C18.3352 4.4304 19.7969 5.92614 20.8196 7.87784C21.8509 9.82955 22.3665 12.1648 22.3665 14.8835C22.3665 17.6108 21.8509 19.9545 20.8196 21.9148C19.7969 23.875 18.3267 25.3793 16.4091 26.4276C14.5 27.4759 12.2159 28 9.55682 28ZM5.81108 23.2571H9.3267C10.9631 23.2571 12.3395 22.9673 13.456 22.3878C14.581 21.7997 15.4247 20.892 15.9872 19.6648C16.5582 18.429 16.8438 16.8352 16.8438 14.8835C16.8438 12.9489 16.5582 11.3679 15.9872 10.1406C15.4247 8.91335 14.5852 8.00994 13.4688 7.4304C12.3523 6.85085 10.9759 6.56108 9.33949 6.56108H5.81108V23.2571ZM34.4136 28.3835C32.3937 28.3835 30.655 27.9744 29.1977 27.1562C27.7488 26.3295 26.6323 25.1619 25.8482 23.6534C25.0641 22.1364 24.6721 20.3423 24.6721 18.2713C24.6721 16.2514 25.0641 14.4787 25.8482 12.9531C26.6323 11.4276 27.736 10.2386 29.1593 9.38636C30.5911 8.53409 32.2701 8.10795 34.1962 8.10795C35.4917 8.10795 36.6977 8.31676 37.8141 8.73438C38.9391 9.14347 39.9192 9.76136 40.7545 10.5881C41.5982 11.4148 42.2545 12.4545 42.7232 13.7074C43.192 14.9517 43.4264 16.4091 43.4264 18.0795V19.5753H26.8454V16.2003H38.2999C38.2999 15.4162 38.1295 14.7216 37.7886 14.1165C37.4477 13.5114 36.9746 13.0384 36.3695 12.6974C35.7729 12.348 35.0783 12.1733 34.2857 12.1733C33.459 12.1733 32.7261 12.3651 32.0869 12.7486C31.4562 13.1236 30.9619 13.6307 30.6039 14.2699C30.246 14.9006 30.0627 15.6037 30.0542 16.3793V19.5881C30.0542 20.5597 30.2332 21.3991 30.5911 22.1065C30.9576 22.8139 31.4732 23.3594 32.138 23.7429C32.8028 24.1264 33.5911 24.3182 34.5031 24.3182C35.1082 24.3182 35.6621 24.233 36.165 24.0625C36.6678 23.892 37.0982 23.6364 37.4562 23.2955C37.8141 22.9545 38.0869 22.5369 38.2744 22.0426L43.3113 22.375C43.0556 23.5852 42.5315 24.642 41.7389 25.5455C40.9548 26.4403 39.9406 27.1392 38.6962 27.642C37.4604 28.1364 36.0329 28.3835 34.4136 28.3835ZM46.0803 35.3636V8.36364H51.4496V11.6619H51.6925C51.9312 11.1335 52.2764 10.5966 52.7281 10.0511C53.1883 9.49716 53.7849 9.03693 54.5178 8.67045C55.2593 8.29545 56.1798 8.10795 57.2792 8.10795C58.711 8.10795 60.032 8.48295 61.2423 9.23295C62.4525 9.97443 63.4198 11.0952 64.1442 12.5952C64.8687 14.0866 65.2309 15.9574 65.2309 18.2074C65.2309 20.3977 64.8772 22.2472 64.1698 23.7557C63.471 25.2557 62.5164 26.3935 61.3062 27.169C60.1045 27.9361 58.7579 28.3196 57.2664 28.3196C56.2096 28.3196 55.3104 28.1449 54.569 27.7955C53.836 27.446 53.2352 27.0071 52.7664 26.4787C52.2977 25.9418 51.9397 25.4006 51.6925 24.8551H51.5264V35.3636H46.0803ZM51.4113 18.1818C51.4113 19.3494 51.5732 20.3679 51.8971 21.2372C52.221 22.1065 52.6897 22.7841 53.3033 23.2699C53.917 23.7472 54.6627 23.9858 55.5406 23.9858C56.4269 23.9858 57.1769 23.7429 57.7906 23.2571C58.4042 22.7628 58.8687 22.081 59.184 21.2116C59.5079 20.3338 59.6698 19.3239 59.6698 18.1818C59.6698 17.0483 59.5121 16.0511 59.1968 15.1903C58.8815 14.3295 58.417 13.6562 57.8033 13.1705C57.1897 12.6847 56.4354 12.4418 55.5406 12.4418C54.6542 12.4418 53.9042 12.6761 53.2906 13.1449C52.6854 13.6136 52.221 14.2784 51.8971 15.1392C51.5732 16 51.4113 17.0142 51.4113 18.1818ZM78.4062 8.36364V12.4545H66.5809V8.36364H78.4062ZM69.2656 3.65909H74.7116V21.9659C74.7116 22.4687 74.7883 22.8608 74.9417 23.142C75.0951 23.4148 75.3082 23.6065 75.5809 23.7173C75.8621 23.8281 76.186 23.8835 76.5525 23.8835C76.8082 23.8835 77.0639 23.8622 77.3195 23.8196C77.5752 23.7685 77.7712 23.7301 77.9076 23.7045L78.7641 27.7571C78.4914 27.8423 78.1079 27.9403 77.6136 28.0511C77.1193 28.1705 76.5184 28.2429 75.811 28.2685C74.4985 28.3196 73.3479 28.1449 72.3593 27.7443C71.3792 27.3437 70.6164 26.7216 70.071 25.8778C69.5255 25.0341 69.257 23.9687 69.2656 22.6818V3.65909ZM86.9217 16.6477V28H81.4756V1.81818H86.7683V11.8281H86.9984C87.4416 10.669 88.1575 9.76136 89.1461 9.10511C90.1347 8.44034 91.3748 8.10795 92.8663 8.10795C94.2299 8.10795 95.4188 8.40625 96.433 9.00284C97.4558 9.59091 98.2484 10.4389 98.8109 11.5469C99.3819 12.6463 99.6631 13.9631 99.6546 15.4972V28H94.2086V16.4688C94.2171 15.2585 93.9103 14.3168 93.2881 13.6435C92.6745 12.9702 91.8137 12.6335 90.7058 12.6335C89.9643 12.6335 89.308 12.7912 88.737 13.1065C88.1745 13.4219 87.7313 13.8821 87.4075 14.4872C87.0921 15.0838 86.9302 15.804 86.9217 16.6477ZM119.345 28.3835C117.359 28.3835 115.642 27.9616 114.193 27.1179C112.752 26.2656 111.64 25.081 110.856 23.5639C110.072 22.0384 109.68 20.2699 109.68 18.2585C109.68 16.2301 110.072 14.4574 110.856 12.9403C111.64 11.4148 112.752 10.2301 114.193 9.38636C115.642 8.53409 117.359 8.10795 119.345 8.10795C121.33 8.10795 123.044 8.53409 124.484 9.38636C125.933 10.2301 127.049 11.4148 127.833 12.9403C128.617 14.4574 129.009 16.2301 129.009 18.2585C129.009 20.2699 128.617 22.0384 127.833 23.5639C127.049 25.081 125.933 26.2656 124.484 27.1179C123.044 27.9616 121.33 28.3835 119.345 28.3835ZM119.37 24.1648C120.274 24.1648 121.028 23.9091 121.633 23.3977C122.238 22.8778 122.694 22.1705 123.001 21.2756C123.316 20.3807 123.474 19.3622 123.474 18.2202C123.474 17.0781 123.316 16.0597 123.001 15.1648C122.694 14.2699 122.238 13.5625 121.633 13.0426C121.028 12.5227 120.274 12.2628 119.37 12.2628C118.458 12.2628 117.691 12.5227 117.069 13.0426C116.455 13.5625 115.991 14.2699 115.676 15.1648C115.369 16.0597 115.215 17.0781 115.215 18.2202C115.215 19.3622 115.369 20.3807 115.676 21.2756C115.991 22.1705 116.455 22.8778 117.069 23.3977C117.691 23.9091 118.458 24.1648 119.37 24.1648ZM142.21 8.36364V12.4545H130.091V8.36364H142.21ZM132.865 28V6.9446C132.865 5.52131 133.142 4.34091 133.696 3.40341C134.259 2.46591 135.026 1.76278 135.997 1.29403C136.969 0.825282 138.073 0.590907 139.308 0.590907C140.144 0.590907 140.906 0.654828 141.597 0.78267C142.296 0.910511 142.815 1.02557 143.156 1.12784L142.185 5.21875C141.972 5.15057 141.707 5.08665 141.392 5.02699C141.085 4.96733 140.77 4.9375 140.446 4.9375C139.645 4.9375 139.087 5.125 138.771 5.5C138.456 5.86648 138.298 6.3821 138.298 7.04688V28H132.865ZM152.069 35.3636V8.36364H157.439V11.6619H157.682C157.92 11.1335 158.265 10.5966 158.717 10.0511C159.177 9.49716 159.774 9.03693 160.507 8.67045C161.248 8.29545 162.169 8.10795 163.268 8.10795C164.7 8.10795 166.021 8.48295 167.231 9.23295C168.442 9.97443 169.409 11.0952 170.133 12.5952C170.858 14.0866 171.22 15.9574 171.22 18.2074C171.22 20.3977 170.866 22.2472 170.159 23.7557C169.46 25.2557 168.505 26.3935 167.295 27.169C166.094 27.9361 164.747 28.3196 163.255 28.3196C162.199 28.3196 161.299 28.1449 160.558 27.7955C159.825 27.446 159.224 27.0071 158.755 26.4787C158.287 25.9418 157.929 25.4006 157.682 24.8551H157.515V35.3636H152.069ZM157.4 18.1818C157.4 19.3494 157.562 20.3679 157.886 21.2372C158.21 22.1065 158.679 22.7841 159.292 23.2699C159.906 23.7472 160.652 23.9858 161.53 23.9858C162.416 23.9858 163.166 23.7429 163.78 23.2571C164.393 22.7628 164.858 22.081 165.173 21.2116C165.497 20.3338 165.659 19.3239 165.659 18.1818C165.659 17.0483 165.501 16.0511 165.186 15.1903C164.871 14.3295 164.406 13.6562 163.792 13.1705C163.179 12.6847 162.424 12.4418 161.53 12.4418C160.643 12.4418 159.893 12.6761 159.28 13.1449C158.674 13.6136 158.21 14.2784 157.886 15.1392C157.562 16 157.4 17.0142 157.4 18.1818ZM173.951 28V8.36364H179.23V11.7898H179.435C179.793 10.571 180.394 9.65057 181.238 9.02841C182.081 8.39773 183.053 8.08239 184.152 8.08239C184.425 8.08239 184.719 8.09943 185.034 8.13352C185.35 8.16761 185.627 8.21449 185.865 8.27415V13.1065C185.61 13.0298 185.256 12.9616 184.804 12.902C184.353 12.8423 183.939 12.8125 183.564 12.8125C182.763 12.8125 182.047 12.9872 181.417 13.3366C180.794 13.6776 180.3 14.1548 179.934 14.7685C179.576 15.3821 179.397 16.0895 179.397 16.8906V28H173.951ZM195.739 28.3835C193.753 28.3835 192.036 27.9616 190.587 27.1179C189.147 26.2656 188.035 25.081 187.251 23.5639C186.466 22.0384 186.074 20.2699 186.074 18.2585C186.074 16.2301 186.466 14.4574 187.251 12.9403C188.035 11.4148 189.147 10.2301 190.587 9.38636C192.036 8.53409 193.753 8.10795 195.739 8.10795C197.725 8.10795 199.438 8.53409 200.878 9.38636C202.327 10.2301 203.444 11.4148 204.228 12.9403C205.012 14.4574 205.404 16.2301 205.404 18.2585C205.404 20.2699 205.012 22.0384 204.228 23.5639C203.444 25.081 202.327 26.2656 200.878 27.1179C199.438 27.9616 197.725 28.3835 195.739 28.3835ZM195.765 24.1648C196.668 24.1648 197.422 23.9091 198.028 23.3977C198.633 22.8778 199.089 22.1705 199.395 21.2756C199.711 20.3807 199.868 19.3622 199.868 18.2202C199.868 17.0781 199.711 16.0597 199.395 15.1648C199.089 14.2699 198.633 13.5625 198.028 13.0426C197.422 12.5227 196.668 12.2628 195.765 12.2628C194.853 12.2628 194.086 12.5227 193.464 13.0426C192.85 13.5625 192.386 14.2699 192.07 15.1648C191.763 16.0597 191.61 17.0781 191.61 18.2202C191.61 19.3622 191.763 20.3807 192.07 21.2756C192.386 22.1705 192.85 22.8778 193.464 23.3977C194.086 23.9091 194.853 24.1648 195.765 24.1648ZM218.49 8.36364V12.4545H206.664V8.36364H218.49ZM209.349 3.65909H214.795V21.9659C214.795 22.4687 214.872 22.8608 215.025 23.142C215.179 23.4148 215.392 23.6065 215.664 23.7173C215.946 23.8281 216.27 23.8835 216.636 23.8835C216.892 23.8835 217.147 23.8622 217.403 23.8196C217.659 23.7685 217.855 23.7301 217.991 23.7045L218.848 27.7571C218.575 27.8423 218.191 27.9403 217.697 28.0511C217.203 28.1705 216.602 28.2429 215.895 28.2685C214.582 28.3196 213.432 28.1449 212.443 27.7443C211.463 27.3437 210.7 26.7216 210.155 25.8778C209.609 25.0341 209.341 23.9687 209.349 22.6818V3.65909ZM229.875 28.3835C227.855 28.3835 226.117 27.9744 224.659 27.1562C223.211 26.3295 222.094 25.1619 221.31 23.6534C220.526 22.1364 220.134 20.3423 220.134 18.2713C220.134 16.2514 220.526 14.4787 221.31 12.9531C222.094 11.4276 223.198 10.2386 224.621 9.38636C226.053 8.53409 227.732 8.10795 229.658 8.10795C230.953 8.10795 232.159 8.31676 233.276 8.73438C234.401 9.14347 235.381 9.76136 236.216 10.5881C237.06 11.4148 237.716 12.4545 238.185 13.7074C238.654 14.9517 238.888 16.4091 238.888 18.0795V19.5753H222.307V16.2003H233.762C233.762 15.4162 233.591 14.7216 233.25 14.1165C232.909 13.5114 232.436 13.0384 231.831 12.6974C231.235 12.348 230.54 12.1733 229.747 12.1733C228.921 12.1733 228.188 12.3651 227.549 12.7486C226.918 13.1236 226.424 13.6307 226.066 14.2699C225.708 14.9006 225.524 15.6037 225.516 16.3793V19.5881C225.516 20.5597 225.695 21.3991 226.053 22.1065C226.419 22.8139 226.935 23.3594 227.6 23.7429C228.264 24.1264 229.053 24.3182 229.965 24.3182C230.57 24.3182 231.124 24.233 231.627 24.0625C232.13 23.892 232.56 23.6364 232.918 23.2955C233.276 22.9545 233.549 22.5369 233.736 22.0426L238.773 22.375C238.517 23.5852 237.993 24.642 237.201 25.5455C236.416 26.4403 235.402 27.1392 234.158 27.642C232.922 28.1364 231.495 28.3835 229.875 28.3835ZM250.414 28.3835C248.403 28.3835 246.673 27.9574 245.224 27.1051C243.784 26.2443 242.676 25.0511 241.9 23.5256C241.133 22 240.749 20.2443 240.749 18.2585C240.749 16.2472 241.137 14.483 241.913 12.9659C242.697 11.4403 243.809 10.2514 245.249 9.39915C246.69 8.53835 248.403 8.10795 250.389 8.10795C252.102 8.10795 253.602 8.41903 254.889 9.04119C256.176 9.66335 257.194 10.5369 257.944 11.6619C258.694 12.7869 259.107 14.108 259.184 15.625H254.045C253.9 14.6449 253.516 13.8565 252.894 13.2599C252.281 12.6548 251.475 12.3523 250.478 12.3523C249.634 12.3523 248.897 12.5824 248.266 13.0426C247.644 13.4943 247.159 14.1548 246.809 15.0241C246.46 15.8935 246.285 16.946 246.285 18.1818C246.285 19.4347 246.455 20.5 246.796 21.3778C247.146 22.2557 247.636 22.9247 248.266 23.3849C248.897 23.8452 249.634 24.0753 250.478 24.0753C251.1 24.0753 251.659 23.9474 252.153 23.6918C252.656 23.4361 253.069 23.0653 253.393 22.5795C253.725 22.0852 253.943 21.4929 254.045 20.8026H259.184C259.099 22.3026 258.69 23.6236 257.957 24.7656C257.232 25.8991 256.231 26.7855 254.953 27.4247C253.674 28.0639 252.161 28.3835 250.414 28.3835ZM272.216 8.36364V12.4545H260.39V8.36364H272.216ZM263.075 3.65909H268.521V21.9659C268.521 22.4687 268.598 22.8608 268.751 23.142C268.904 23.4148 269.118 23.6065 269.39 23.7173C269.672 23.8281 269.995 23.8835 270.362 23.8835C270.618 23.8835 270.873 23.8622 271.129 23.8196C271.385 23.7685 271.581 23.7301 271.717 23.7045L272.574 27.7571C272.301 27.8423 271.917 27.9403 271.423 28.0511C270.929 28.1705 270.328 28.2429 269.62 28.2685C268.308 28.3196 267.157 28.1449 266.169 27.7443C265.189 27.3437 264.426 26.7216 263.88 25.8778C263.335 25.0341 263.066 23.9687 263.075 22.6818V3.65909ZM274.863 28V8.36364H280.309V28H274.863ZM277.599 5.83239C276.789 5.83239 276.095 5.56392 275.515 5.02699C274.944 4.48153 274.659 3.82954 274.659 3.07102C274.659 2.32102 274.944 1.67756 275.515 1.14062C276.095 0.59517 276.789 0.322442 277.599 0.322442C278.409 0.322442 279.099 0.59517 279.67 1.14062C280.25 1.67756 280.539 2.32102 280.539 3.07102C280.539 3.82954 280.25 4.48153 279.67 5.02699C279.099 5.56392 278.409 5.83239 277.599 5.83239ZM292.644 28.3835C290.658 28.3835 288.941 27.9616 287.492 27.1179C286.052 26.2656 284.939 25.081 284.155 23.5639C283.371 22.0384 282.979 20.2699 282.979 18.2585C282.979 16.2301 283.371 14.4574 284.155 12.9403C284.939 11.4148 286.052 10.2301 287.492 9.38636C288.941 8.53409 290.658 8.10795 292.644 8.10795C294.63 8.10795 296.343 8.53409 297.783 9.38636C299.232 10.2301 300.348 11.4148 301.133 12.9403C301.917 14.4574 302.309 16.2301 302.309 18.2585C302.309 20.2699 301.917 22.0384 301.133 23.5639C300.348 25.081 299.232 26.2656 297.783 27.1179C296.343 27.9616 294.63 28.3835 292.644 28.3835ZM292.669 24.1648C293.573 24.1648 294.327 23.9091 294.932 23.3977C295.537 22.8778 295.993 22.1705 296.3 21.2756C296.615 20.3807 296.773 19.3622 296.773 18.2202C296.773 17.0781 296.615 16.0597 296.3 15.1648C295.993 14.2699 295.537 13.5625 294.932 13.0426C294.327 12.5227 293.573 12.2628 292.669 12.2628C291.758 12.2628 290.99 12.5227 290.368 13.0426C289.755 13.5625 289.29 14.2699 288.975 15.1648C288.668 16.0597 288.515 17.0781 288.515 18.2202C288.515 19.3622 288.668 20.3807 288.975 21.2756C289.29 22.1705 289.755 22.8778 290.368 23.3977C290.99 23.9091 291.758 24.1648 292.669 24.1648ZM310.396 16.6477V28H304.95V8.36364H310.14V11.8281H310.37C310.805 10.6861 311.534 9.78267 312.556 9.1179C313.579 8.4446 314.819 8.10795 316.277 8.10795C317.64 8.10795 318.829 8.40625 319.843 9.00284C320.858 9.59943 321.646 10.4517 322.208 11.5597C322.771 12.6591 323.052 13.9716 323.052 15.4972V28H317.606V16.4688C317.615 15.267 317.308 14.3295 316.686 13.6562C316.063 12.9744 315.207 12.6335 314.116 12.6335C313.383 12.6335 312.735 12.7912 312.173 13.1065C311.619 13.4219 311.184 13.8821 310.869 14.4872C310.562 15.0838 310.404 15.804 310.396 16.6477Z" fill="url(#paint0_linear_2_1015)"/>
<defs>
<linearGradient id="paint0_linear_2_1015" x1="179.379" y1="10.4999" x2="221.213" y2="12.6729" gradientUnits="userSpaceOnUse">
<stop stop-color="#BA963A"/>
<stop offset="1" stop-color="#CC9C21"/>
</linearGradient>
</defs>
</svg>
