<svg width="655" height="47" viewBox="0 0 655 47" fill="none" xmlns="http://www.w3.org/2000/svg">
<path d="M0.137346 8.17614V2.09091H28.8078V8.17614H18.1203V37H10.8248V8.17614H0.137346ZM29.4743 37V10.8182H36.514V15.3864H36.7868C37.264 13.7614 38.0652 12.5341 39.1902 11.7045C40.3152 10.8636 41.6106 10.4432 43.0765 10.4432C43.4402 10.4432 43.8322 10.4659 44.2527 10.5114C44.6731 10.5568 45.0424 10.6193 45.3606 10.6989V17.142C45.0197 17.0398 44.5481 16.9489 43.9459 16.8693C43.3436 16.7898 42.7924 16.75 42.2924 16.75C41.2243 16.75 40.2697 16.983 39.4288 17.4489C38.5993 17.9034 37.9402 18.5398 37.4515 19.358C36.9743 20.1761 36.7356 21.1193 36.7356 22.1875V37H29.4743ZM64.7047 25.8523V10.8182H71.966V37H64.9945V32.2443H64.7217C64.1308 33.7784 63.1479 35.0114 61.7729 35.9432C60.4092 36.875 58.7445 37.3409 56.7785 37.3409C55.0285 37.3409 53.4888 36.9432 52.1592 36.1477C50.8297 35.3523 49.7899 34.2216 49.0399 32.7557C48.3013 31.2898 47.9263 29.5341 47.9149 27.4886V10.8182H55.1763V26.1932C55.1876 27.7386 55.6024 28.9602 56.4206 29.858C57.2388 30.7557 58.3354 31.2045 59.7104 31.2045C60.5854 31.2045 61.4035 31.0057 62.1649 30.608C62.9263 30.1989 63.5399 29.5966 64.0058 28.8011C64.4831 28.0057 64.716 27.0227 64.7047 25.8523ZM98.3584 18.2841L91.7106 18.6932C91.597 18.125 91.3527 17.6136 90.9777 17.1591C90.6027 16.6932 90.1084 16.3239 89.4947 16.0511C88.8925 15.767 88.1709 15.625 87.33 15.625C86.205 15.625 85.2561 15.8636 84.4834 16.3409C83.7106 16.8068 83.3243 17.4318 83.3243 18.2159C83.3243 18.8409 83.5743 19.3693 84.0743 19.8011C84.5743 20.233 85.4322 20.5795 86.6481 20.8409L91.3868 21.7955C93.9322 22.3182 95.83 23.1591 97.08 24.3182C98.33 25.4773 98.955 27 98.955 28.8864C98.955 30.6023 98.4493 32.108 97.4379 33.4034C96.4379 34.6989 95.0629 35.7102 93.3129 36.4375C91.5743 37.1534 89.5686 37.5114 87.2959 37.5114C83.83 37.5114 81.0686 36.7898 79.0118 35.3466C76.9663 33.892 75.7675 31.9148 75.4152 29.4148L82.5572 29.0398C82.7731 30.0966 83.2959 30.9034 84.1254 31.4602C84.955 32.0057 86.0175 32.2784 87.3129 32.2784C88.5856 32.2784 89.6084 32.0341 90.3811 31.5455C91.1652 31.0455 91.5629 30.4034 91.5743 29.6193C91.5629 28.9602 91.2845 28.4205 90.739 28C90.1936 27.5682 89.3527 27.2386 88.2163 27.0114L83.6822 26.108C81.1254 25.5966 79.222 24.7102 77.972 23.4489C76.7334 22.1875 76.114 20.5795 76.114 18.625C76.114 16.9432 76.5686 15.4943 77.4777 14.2784C78.3981 13.0625 79.6879 12.125 81.347 11.4659C83.0175 10.8068 84.972 10.4773 87.2106 10.4773C90.5175 10.4773 93.1197 11.1761 95.0175 12.5739C96.9265 13.9716 98.0402 15.875 98.3584 18.2841ZM116.254 10.8182V16.2727H100.487V10.8182H116.254ZM104.066 4.54545H111.327V28.9545C111.327 29.625 111.43 30.1477 111.634 30.5227C111.839 30.8864 112.123 31.142 112.487 31.2898C112.862 31.4375 113.293 31.5114 113.782 31.5114C114.123 31.5114 114.464 31.483 114.805 31.4261C115.146 31.358 115.407 31.3068 115.589 31.2727L116.731 36.6761C116.367 36.7898 115.856 36.9205 115.197 37.0682C114.538 37.2273 113.737 37.3239 112.793 37.358C111.043 37.4261 109.509 37.1932 108.191 36.6591C106.884 36.125 105.867 35.2955 105.14 34.1705C104.413 33.0455 104.055 31.625 104.066 29.9091V4.54545ZM131.434 37.5114C128.741 37.5114 126.423 36.9659 124.48 35.875C122.548 34.7727 121.059 33.2159 120.014 31.2045C118.968 29.1818 118.446 26.7898 118.446 24.0284C118.446 21.3352 118.968 18.9716 120.014 16.9375C121.059 14.9034 122.531 13.3182 124.429 12.1818C126.338 11.0455 128.576 10.4773 131.144 10.4773C132.872 10.4773 134.48 10.7557 135.968 11.3125C137.468 11.858 138.775 12.6818 139.889 13.7841C141.014 14.8864 141.889 16.2727 142.514 17.9432C143.139 19.6023 143.451 21.5455 143.451 23.7727V25.767H121.343V21.267H136.616C136.616 20.2216 136.389 19.2955 135.934 18.4886C135.48 17.6818 134.849 17.0511 134.042 16.5966C133.247 16.1307 132.321 15.8977 131.264 15.8977C130.161 15.8977 129.184 16.1534 128.332 16.6648C127.491 17.1648 126.832 17.8409 126.355 18.6932C125.877 19.5341 125.633 20.4716 125.622 21.5057V25.7841C125.622 27.0795 125.86 28.1989 126.338 29.142C126.826 30.0852 127.514 30.8125 128.4 31.3239C129.286 31.8352 130.338 32.0909 131.554 32.0909C132.36 32.0909 133.099 31.9773 133.769 31.75C134.44 31.5227 135.014 31.1818 135.491 30.7273C135.968 30.2727 136.332 29.7159 136.582 29.0568L143.298 29.5C142.957 31.1136 142.258 32.5227 141.201 33.7273C140.156 34.9205 138.804 35.8523 137.144 36.5227C135.497 37.1818 133.593 37.5114 131.434 37.5114ZM156.638 37.4261C154.649 37.4261 152.848 36.9148 151.234 35.892C149.632 34.858 148.359 33.3409 147.416 31.3409C146.484 29.3295 146.018 26.8636 146.018 23.9432C146.018 20.9432 146.501 18.4489 147.467 16.4602C148.433 14.4602 149.717 12.9659 151.319 11.9773C152.933 10.9773 154.7 10.4773 156.621 10.4773C158.086 10.4773 159.308 10.7273 160.285 11.2273C161.274 11.7159 162.069 12.3295 162.672 13.0682C163.285 13.7955 163.751 14.5114 164.069 15.2159H164.291V2.09091H171.535V37H164.376V32.8068H164.069C163.729 33.5341 163.246 34.2557 162.621 34.9716C162.007 35.6761 161.206 36.2614 160.217 36.7273C159.24 37.1932 158.047 37.4261 156.638 37.4261ZM158.939 31.6477C160.109 31.6477 161.098 31.3295 161.905 30.6932C162.723 30.0455 163.348 29.142 163.78 27.983C164.223 26.8239 164.444 25.4659 164.444 23.9091C164.444 22.3523 164.229 21 163.797 19.8523C163.365 18.7045 162.74 17.8182 161.922 17.1932C161.104 16.5682 160.109 16.2557 158.939 16.2557C157.746 16.2557 156.74 16.5795 155.922 17.2273C155.104 17.875 154.484 18.7727 154.064 19.9205C153.643 21.0682 153.433 22.3977 153.433 23.9091C153.433 25.4318 153.643 26.7784 154.064 27.9489C154.496 29.108 155.115 30.017 155.922 30.6761C156.74 31.3239 157.746 31.6477 158.939 31.6477ZM200.294 10.8182V16.2727H184.135V10.8182H200.294ZM187.834 37V8.92614C187.834 7.02841 188.204 5.45454 188.942 4.20454C189.692 2.95454 190.715 2.01704 192.01 1.39204C193.306 0.767043 194.777 0.454543 196.425 0.454543C197.539 0.454543 198.556 0.539771 199.476 0.710227C200.408 0.880681 201.101 1.03409 201.556 1.17045L200.26 6.625C199.976 6.53409 199.624 6.44886 199.204 6.36932C198.794 6.28977 198.374 6.25 197.942 6.25C196.874 6.25 196.13 6.5 195.709 7C195.289 7.48864 195.079 8.17614 195.079 9.0625V37H187.834ZM214.423 37.5114C211.775 37.5114 209.485 36.9489 207.553 35.8239C205.633 34.6875 204.15 33.108 203.104 31.0852C202.059 29.0511 201.536 26.6932 201.536 24.0114C201.536 21.3068 202.059 18.9432 203.104 16.9205C204.15 14.8864 205.633 13.3068 207.553 12.1818C209.485 11.0455 211.775 10.4773 214.423 10.4773C217.07 10.4773 219.354 11.0455 221.275 12.1818C223.207 13.3068 224.695 14.8864 225.741 16.9205C226.786 18.9432 227.309 21.3068 227.309 24.0114C227.309 26.6932 226.786 29.0511 225.741 31.0852C224.695 33.108 223.207 34.6875 221.275 35.8239C219.354 36.9489 217.07 37.5114 214.423 37.5114ZM214.457 31.8864C215.661 31.8864 216.667 31.5455 217.474 30.8636C218.281 30.1705 218.888 29.2273 219.298 28.0341C219.718 26.8409 219.928 25.483 219.928 23.9602C219.928 22.4375 219.718 21.0795 219.298 19.8864C218.888 18.6932 218.281 17.75 217.474 17.0568C216.667 16.3636 215.661 16.017 214.457 16.017C213.241 16.017 212.218 16.3636 211.388 17.0568C210.57 17.75 209.951 18.6932 209.531 19.8864C209.121 21.0795 208.917 22.4375 208.917 23.9602C208.917 25.483 209.121 26.8409 209.531 28.0341C209.951 29.2273 210.57 30.1705 211.388 30.8636C212.218 31.5455 213.241 31.8864 214.457 31.8864ZM230.831 37V10.8182H237.87V15.3864H238.143C238.62 13.7614 239.421 12.5341 240.546 11.7045C241.671 10.8636 242.967 10.4432 244.433 10.4432C244.796 10.4432 245.188 10.4659 245.609 10.5114C246.029 10.5568 246.399 10.6193 246.717 10.6989V17.142C246.376 17.0398 245.904 16.9489 245.302 16.8693C244.7 16.7898 244.149 16.75 243.649 16.75C242.581 16.75 241.626 16.983 240.785 17.4489C239.956 17.9034 239.296 18.5398 238.808 19.358C238.331 20.1761 238.092 21.1193 238.092 22.1875V37H230.831ZM259.181 37V10.8182H266.101V15.4375H266.408C266.953 13.9034 267.862 12.6932 269.135 11.8068C270.408 10.9205 271.931 10.4773 273.703 10.4773C275.499 10.4773 277.027 10.9261 278.289 11.8239C279.55 12.7102 280.391 13.9148 280.811 15.4375H281.084C281.618 13.9375 282.584 12.7386 283.982 11.8409C285.391 10.9318 287.056 10.4773 288.976 10.4773C291.419 10.4773 293.402 11.2557 294.925 12.8125C296.459 14.358 297.226 16.5511 297.226 19.392V37H289.982V20.8239C289.982 19.3693 289.595 18.2784 288.823 17.5511C288.05 16.8239 287.084 16.4602 285.925 16.4602C284.607 16.4602 283.578 16.8807 282.84 17.7216C282.101 18.5511 281.732 19.6477 281.732 21.0114V37H274.692V20.6705C274.692 19.3864 274.323 18.3636 273.584 17.6023C272.857 16.8409 271.896 16.4602 270.703 16.4602C269.896 16.4602 269.169 16.6648 268.521 17.0739C267.885 17.4716 267.379 18.0341 267.004 18.7614C266.629 19.4773 266.442 20.3182 266.442 21.2841V37H259.181ZM313.591 37.5114C310.944 37.5114 308.654 36.9489 306.722 35.8239C304.802 34.6875 303.319 33.108 302.273 31.0852C301.228 29.0511 300.705 26.6932 300.705 24.0114C300.705 21.3068 301.228 18.9432 302.273 16.9205C303.319 14.8864 304.802 13.3068 306.722 12.1818C308.654 11.0455 310.944 10.4773 313.591 10.4773C316.239 10.4773 318.523 11.0455 320.444 12.1818C322.375 13.3068 323.864 14.8864 324.909 16.9205C325.955 18.9432 326.478 21.3068 326.478 24.0114C326.478 26.6932 325.955 29.0511 324.909 31.0852C323.864 33.108 322.375 34.6875 320.444 35.8239C318.523 36.9489 316.239 37.5114 313.591 37.5114ZM313.625 31.8864C314.83 31.8864 315.836 31.5455 316.642 30.8636C317.449 30.1705 318.057 29.2273 318.466 28.0341C318.887 26.8409 319.097 25.483 319.097 23.9602C319.097 22.4375 318.887 21.0795 318.466 19.8864C318.057 18.6932 317.449 17.75 316.642 17.0568C315.836 16.3636 314.83 16.017 313.625 16.017C312.409 16.017 311.387 16.3636 310.557 17.0568C309.739 17.75 309.12 18.6932 308.699 19.8864C308.29 21.0795 308.086 22.4375 308.086 23.9602C308.086 25.483 308.29 26.8409 308.699 28.0341C309.12 29.2273 309.739 30.1705 310.557 30.8636C311.387 31.5455 312.409 31.8864 313.625 31.8864ZM329.999 37V10.8182H337.039V15.3864H337.312C337.789 13.7614 338.59 12.5341 339.715 11.7045C340.84 10.8636 342.136 10.4432 343.602 10.4432C343.965 10.4432 344.357 10.4659 344.778 10.5114C345.198 10.5568 345.567 10.6193 345.886 10.6989V17.142C345.545 17.0398 345.073 16.9489 344.471 16.8693C343.869 16.7898 343.317 16.75 342.817 16.75C341.749 16.75 340.795 16.983 339.954 17.4489C339.124 17.9034 338.465 18.5398 337.977 19.358C337.499 20.1761 337.261 21.1193 337.261 22.1875V37H329.999ZM359.153 37.5114C356.46 37.5114 354.142 36.9659 352.198 35.875C350.267 34.7727 348.778 33.2159 347.733 31.2045C346.687 29.1818 346.164 26.7898 346.164 24.0284C346.164 21.3352 346.687 18.9716 347.733 16.9375C348.778 14.9034 350.25 13.3182 352.147 12.1818C354.056 11.0455 356.295 10.4773 358.863 10.4773C360.59 10.4773 362.198 10.7557 363.687 11.3125C365.187 11.858 366.494 12.6818 367.608 13.7841C368.733 14.8864 369.608 16.2727 370.233 17.9432C370.858 19.6023 371.17 21.5455 371.17 23.7727V25.767H349.062V21.267H364.335C364.335 20.2216 364.108 19.2955 363.653 18.4886C363.198 17.6818 362.568 17.0511 361.761 16.5966C360.965 16.1307 360.039 15.8977 358.983 15.8977C357.88 15.8977 356.903 16.1534 356.051 16.6648C355.21 17.1648 354.551 17.8409 354.073 18.6932C353.596 19.5341 353.352 20.4716 353.34 21.5057V25.7841C353.34 27.0795 353.579 28.1989 354.056 29.142C354.545 30.0852 355.233 30.8125 356.119 31.3239C357.005 31.8352 358.056 32.0909 359.272 32.0909C360.079 32.0909 360.818 31.9773 361.488 31.75C362.159 31.5227 362.733 31.1818 363.21 30.7273C363.687 30.2727 364.051 29.7159 364.301 29.0568L371.017 29.5C370.676 31.1136 369.977 32.5227 368.92 33.7273C367.875 34.9205 366.522 35.8523 364.863 36.5227C363.215 37.1818 361.312 37.5114 359.153 37.5114ZM398.544 10.8182V16.2727H382.777V10.8182H398.544ZM386.357 4.54545H393.618V28.9545C393.618 29.625 393.72 30.1477 393.925 30.5227C394.129 30.8864 394.414 31.142 394.777 31.2898C395.152 31.4375 395.584 31.5114 396.073 31.5114C396.414 31.5114 396.754 31.483 397.095 31.4261C397.436 31.358 397.698 31.3068 397.879 31.2727L399.021 36.6761C398.658 36.7898 398.146 36.9205 397.487 37.0682C396.828 37.2273 396.027 37.3239 395.084 37.358C393.334 37.4261 391.8 37.1932 390.482 36.6591C389.175 36.125 388.158 35.2955 387.431 34.1705C386.703 33.0455 386.345 31.625 386.357 29.9091V4.54545ZM409.898 21.8636V37H402.637V2.09091H409.694V15.4375H410C410.591 13.892 411.546 12.6818 412.864 11.8068C414.182 10.9205 415.836 10.4773 417.824 10.4773C419.642 10.4773 421.228 10.875 422.58 11.6705C423.944 12.4545 425 13.5852 425.75 15.0625C426.512 16.5284 426.887 18.2841 426.875 20.3295V37H419.614V21.625C419.625 20.0114 419.216 18.7557 418.387 17.858C417.569 16.9602 416.421 16.5114 414.944 16.5114C413.955 16.5114 413.08 16.7216 412.319 17.142C411.569 17.5625 410.978 18.1761 410.546 18.983C410.125 19.7784 409.909 20.7386 409.898 21.8636ZM438.856 37.4943C437.185 37.4943 435.697 37.2045 434.39 36.625C433.083 36.0341 432.049 35.1648 431.288 34.017C430.538 32.858 430.163 31.4148 430.163 29.6875C430.163 28.233 430.43 27.0114 430.964 26.0227C431.498 25.0341 432.225 24.2386 433.146 23.6364C434.066 23.0341 435.112 22.5795 436.282 22.2727C437.464 21.9659 438.702 21.75 439.998 21.625C441.521 21.4659 442.748 21.3182 443.68 21.1818C444.612 21.0341 445.288 20.8182 445.708 20.5341C446.129 20.25 446.339 19.8295 446.339 19.2727V19.1705C446.339 18.0909 445.998 17.2557 445.316 16.6648C444.646 16.0739 443.691 15.7784 442.452 15.7784C441.146 15.7784 440.106 16.0682 439.333 16.6477C438.56 17.2159 438.049 17.9318 437.799 18.7955L431.083 18.25C431.424 16.6591 432.094 15.2841 433.094 14.125C434.094 12.9545 435.384 12.0568 436.964 11.4318C438.555 10.7955 440.396 10.4773 442.487 10.4773C443.941 10.4773 445.333 10.6477 446.663 10.9886C448.004 11.3295 449.191 11.858 450.225 12.5739C451.271 13.2898 452.094 14.2102 452.697 15.3352C453.299 16.4489 453.6 17.7841 453.6 19.3409V37H446.714V33.3693H446.509C446.089 34.1875 445.526 34.9091 444.822 35.5341C444.117 36.1477 443.271 36.6307 442.282 36.983C441.293 37.3239 440.151 37.4943 438.856 37.4943ZM440.935 32.483C442.004 32.483 442.947 32.2727 443.765 31.8523C444.583 31.4205 445.225 30.8409 445.691 30.1136C446.157 29.3864 446.39 28.5625 446.39 27.642V24.8636C446.163 25.0114 445.85 25.1477 445.452 25.2727C445.066 25.3864 444.629 25.4943 444.14 25.5966C443.651 25.6875 443.163 25.7727 442.674 25.8523C442.185 25.9205 441.742 25.983 441.344 26.0398C440.492 26.1648 439.748 26.3636 439.112 26.6364C438.475 26.9091 437.981 27.2784 437.629 27.7443C437.276 28.1989 437.1 28.767 437.1 29.4489C437.1 30.4375 437.458 31.1932 438.174 31.7159C438.901 32.2273 439.822 32.483 440.935 32.483ZM465.295 21.8636V37H458.034V10.8182H464.954V15.4375H465.261C465.84 13.9148 466.812 12.7102 468.176 11.8239C469.539 10.9261 471.193 10.4773 473.136 10.4773C474.954 10.4773 476.539 10.875 477.892 11.6705C479.244 12.4659 480.295 13.6023 481.045 15.0795C481.795 16.5455 482.17 18.2955 482.17 20.3295V37H474.909V21.625C474.92 20.0227 474.511 18.7727 473.681 17.875C472.852 16.9659 471.71 16.5114 470.255 16.5114C469.278 16.5114 468.414 16.7216 467.664 17.142C466.926 17.5625 466.346 18.1761 465.926 18.983C465.517 19.7784 465.306 20.7386 465.295 21.8636ZM497.915 37L512.387 8.36364V8.125H495.529V2.09091H520.023V8.21023L505.534 37H497.915ZM538.342 46.8182C537.421 46.8182 536.558 46.7443 535.751 46.5966C534.955 46.4602 534.296 46.2841 533.773 46.0682L535.41 40.6477C536.262 40.9091 537.029 41.0511 537.711 41.0739C538.404 41.0966 539.001 40.9375 539.501 40.5966C540.012 40.2557 540.427 39.6761 540.745 38.858L541.171 37.75L531.779 10.8182H539.415L544.836 30.0455H545.109L550.58 10.8182H558.268L548.092 39.8295C547.603 41.2386 546.938 42.4659 546.097 43.5114C545.268 44.5682 544.217 45.3807 542.944 45.9489C541.671 46.5284 540.137 46.8182 538.342 46.8182ZM571.872 37.5114C569.179 37.5114 566.86 36.9659 564.917 35.875C562.985 34.7727 561.497 33.2159 560.451 31.2045C559.406 29.1818 558.883 26.7898 558.883 24.0284C558.883 21.3352 559.406 18.9716 560.451 16.9375C561.497 14.9034 562.968 13.3182 564.866 12.1818C566.775 11.0455 569.014 10.4773 571.582 10.4773C573.309 10.4773 574.917 10.7557 576.406 11.3125C577.906 11.858 579.213 12.6818 580.326 13.7841C581.451 14.8864 582.326 16.2727 582.951 17.9432C583.576 19.6023 583.889 21.5455 583.889 23.7727V25.767H561.781V21.267H577.054C577.054 20.2216 576.826 19.2955 576.372 18.4886C575.917 17.6818 575.286 17.0511 574.48 16.5966C573.684 16.1307 572.758 15.8977 571.701 15.8977C570.599 15.8977 569.622 16.1534 568.769 16.6648C567.929 17.1648 567.269 17.8409 566.792 18.6932C566.315 19.5341 566.071 20.4716 566.059 21.5057V25.7841C566.059 27.0795 566.298 28.1989 566.775 29.142C567.264 30.0852 567.951 30.8125 568.838 31.3239C569.724 31.8352 570.775 32.0909 571.991 32.0909C572.798 32.0909 573.536 31.9773 574.207 31.75C574.877 31.5227 575.451 31.1818 575.929 30.7273C576.406 30.2727 576.769 29.7159 577.019 29.0568L583.735 29.5C583.394 31.1136 582.696 32.5227 581.639 33.7273C580.593 34.9205 579.241 35.8523 577.582 36.5227C575.934 37.1818 574.031 37.5114 571.872 37.5114ZM594.893 37.4943C593.223 37.4943 591.734 37.2045 590.427 36.625C589.121 36.0341 588.086 35.1648 587.325 34.017C586.575 32.858 586.2 31.4148 586.2 29.6875C586.2 28.233 586.467 27.0114 587.001 26.0227C587.535 25.0341 588.263 24.2386 589.183 23.6364C590.104 23.0341 591.149 22.5795 592.319 22.2727C593.501 21.9659 594.74 21.75 596.035 21.625C597.558 21.4659 598.785 21.3182 599.717 21.1818C600.649 21.0341 601.325 20.8182 601.746 20.5341C602.166 20.25 602.376 19.8295 602.376 19.2727V19.1705C602.376 18.0909 602.035 17.2557 601.354 16.6648C600.683 16.0739 599.729 15.7784 598.49 15.7784C597.183 15.7784 596.143 16.0682 595.371 16.6477C594.598 17.2159 594.086 17.9318 593.836 18.7955L587.121 18.25C587.461 16.6591 588.132 15.2841 589.132 14.125C590.132 12.9545 591.422 12.0568 593.001 11.4318C594.592 10.7955 596.433 10.4773 598.524 10.4773C599.979 10.4773 601.371 10.6477 602.7 10.9886C604.041 11.3295 605.229 11.858 606.263 12.5739C607.308 13.2898 608.132 14.2102 608.734 15.3352C609.336 16.4489 609.638 17.7841 609.638 19.3409V37H602.751V33.3693H602.547C602.126 34.1875 601.564 34.9091 600.859 35.5341C600.155 36.1477 599.308 36.6307 598.319 36.983C597.331 37.3239 596.189 37.4943 594.893 37.4943ZM596.973 32.483C598.041 32.483 598.984 32.2727 599.802 31.8523C600.621 31.4205 601.263 30.8409 601.729 30.1136C602.194 29.3864 602.427 28.5625 602.427 27.642V24.8636C602.2 25.0114 601.888 25.1477 601.49 25.2727C601.104 25.3864 600.666 25.4943 600.177 25.5966C599.689 25.6875 599.2 25.7727 598.711 25.8523C598.223 25.9205 597.78 25.983 597.382 26.0398C596.53 26.1648 595.785 26.3636 595.149 26.6364C594.513 26.9091 594.018 27.2784 593.666 27.7443C593.314 28.1989 593.138 28.767 593.138 29.4489C593.138 30.4375 593.496 31.1932 594.211 31.7159C594.939 32.2273 595.859 32.483 596.973 32.483ZM614.071 37V10.8182H621.111V15.3864H621.384C621.861 13.7614 622.662 12.5341 623.787 11.7045C624.912 10.8636 626.207 10.4432 627.673 10.4432C628.037 10.4432 628.429 10.4659 628.85 10.5114C629.27 10.5568 629.639 10.6193 629.957 10.6989V17.142C629.617 17.0398 629.145 16.9489 628.543 16.8693C627.94 16.7898 627.389 16.75 626.889 16.75C625.821 16.75 624.867 16.983 624.026 17.4489C623.196 17.9034 622.537 18.5398 622.048 19.358C621.571 20.1761 621.332 21.1193 621.332 22.1875V37H614.071ZM654.296 18.2841L647.648 18.6932C647.535 18.125 647.29 17.6136 646.915 17.1591C646.54 16.6932 646.046 16.3239 645.432 16.0511C644.83 15.767 644.108 15.625 643.267 15.625C642.142 15.625 641.194 15.8636 640.421 16.3409C639.648 16.8068 639.262 17.4318 639.262 18.2159C639.262 18.8409 639.512 19.3693 640.012 19.8011C640.512 20.233 641.37 20.5795 642.586 20.8409L647.324 21.7955C649.87 22.3182 651.767 23.1591 653.017 24.3182C654.267 25.4773 654.892 27 654.892 28.8864C654.892 30.6023 654.387 32.108 653.375 33.4034C652.375 34.6989 651 35.7102 649.25 36.4375C647.512 37.1534 645.506 37.5114 643.233 37.5114C639.767 37.5114 637.006 36.7898 634.949 35.3466C632.904 33.892 631.705 31.9148 631.353 29.4148L638.495 29.0398C638.711 30.0966 639.233 30.9034 640.063 31.4602C640.892 32.0057 641.955 32.2784 643.25 32.2784C644.523 32.2784 645.546 32.0341 646.319 31.5455C647.103 31.0455 647.5 30.4034 647.512 29.6193C647.5 28.9602 647.222 28.4205 646.677 28C646.131 27.5682 645.29 27.2386 644.154 27.0114L639.62 26.108C637.063 25.5966 635.16 24.7102 633.91 23.4489C632.671 22.1875 632.052 20.5795 632.052 18.625C632.052 16.9432 632.506 15.4943 633.415 14.2784C634.336 13.0625 635.625 12.125 637.285 11.4659C638.955 10.8068 640.91 10.4773 643.148 10.4773C646.455 10.4773 649.057 11.1761 650.955 12.5739C652.864 13.9716 653.978 15.875 654.296 18.2841Z" fill="url(#paint0_linear_101_40)"/>
<defs>
<linearGradient id="paint0_linear_101_40" x1="290.5" y1="15.4999" x2="420.5" y2="36.9999" gradientUnits="userSpaceOnUse">
<stop stop-color="#BA963A"/>
<stop offset="1" stop-color="#CC9C21"/>
</linearGradient>
</defs>
</svg>
