<svg width="19" height="20" viewBox="0 0 19 20" fill="none" xmlns="http://www.w3.org/2000/svg">
<path d="M9.5 17.9168L7.125 15.5418H3.95833C3.08388 15.5418 2.375 14.8329 2.375 13.9585V3.66683C2.375 2.79238 3.08388 2.0835 3.95833 2.0835H15.0417C15.9161 2.0835 16.625 2.79238 16.625 3.66683V13.9585C16.625 14.8329 15.9161 15.5418 15.0417 15.5418H11.875L9.5 17.9168ZM3.95833 3.66683V13.9585H7.91667L9.5 15.5418L11.0833 13.9585H15.0417V3.66683H3.95833ZM12.6667 12.3641H6.33333V12.0585C6.42703 10.4 7.84086 9.12758 9.5 9.2085C11.1591 9.12758 12.573 10.4 12.6667 12.0585V12.3633V12.3641ZM9.5 8.41683C9.07573 8.43157 8.66438 8.2695 8.36419 7.96931C8.064 7.66912 7.90192 7.25777 7.91667 6.8335C7.90216 6.40929 8.06431 5.99808 8.36445 5.69794C8.66458 5.39781 9.07579 5.23566 9.5 5.25016C9.92421 5.23566 10.3354 5.39781 10.6356 5.69794C10.9357 5.99808 11.0978 6.40929 11.0833 6.8335C11.0981 7.25777 10.936 7.66912 10.6358 7.96931C10.3356 8.2695 9.92427 8.43157 9.5 8.41683Z" fill="white"/>
</svg>
