<svg width="99" height="99" viewBox="0 0 99 99" fill="none" xmlns="http://www.w3.org/2000/svg">
<path d="M6.125 0.0054689L0 6.13047L13.475 25.0016C14.0423 25.7963 14.7913 26.4438 15.6597 26.8903C16.528 27.3367 17.4905 27.569 18.4669 27.568H18.8956C19.7009 27.5673 20.4985 27.7255 21.2426 28.0335C21.9867 28.3414 22.6628 28.7931 23.2321 29.3626L39.6165 45.747L23.5874 62.0027C20.8458 61.1957 17.9539 61.0386 15.141 61.544C12.3281 62.0493 9.6717 63.2032 7.38246 64.914C5.09321 66.6248 3.23413 68.8456 1.95267 71.4001C0.671216 73.9546 0.00264723 76.7726 0 79.6305C0.00367171 82.2638 0.573323 84.8657 1.67036 87.2597C2.76739 89.6536 4.36618 91.7839 6.3584 93.506C8.35062 95.2281 10.6897 96.5019 13.2172 97.2411C15.7447 97.9803 18.4016 98.1676 21.0078 97.7902C23.614 97.4129 26.1087 96.4798 28.3228 95.0542C30.5369 93.6285 32.4187 91.7436 33.8407 89.5272C35.2627 87.3108 36.1917 84.8146 36.5647 82.2078C36.9377 79.6009 36.7461 76.9444 36.0028 74.4181L52.2585 58.389L58.1875 64.318L56.3194 69.9162C55.9604 70.9953 55.9089 72.153 56.1707 73.2596C56.4325 74.3663 56.9972 75.3782 57.8016 76.1821L78.3571 96.7376C79.5057 97.8859 81.0634 98.5309 82.6875 98.5309C84.3116 98.5309 85.8693 97.8859 87.0179 96.7376L96.7321 87.0233C97.8804 85.8747 98.5254 84.3171 98.5254 82.693C98.5254 81.0688 97.8804 79.5112 96.7321 78.3626L76.1766 57.8071C75.3728 57.0027 74.3608 56.438 73.2542 56.1762C72.1475 55.9144 70.9898 55.9659 69.9107 56.3248L64.3125 58.193L58.4325 52.313L74.8475 36.1246C77.5706 36.8515 80.4243 36.9433 83.1885 36.3929C85.9526 35.8426 88.5535 34.6648 90.7905 32.9503C93.0276 31.2359 94.841 29.0306 96.0909 26.5044C97.3409 23.9783 97.994 21.1989 98 18.3805C98 16.7328 97.7856 15.1342 97.3753 13.6213L84.2678 26.735L73.5 24.5055L71.2705 13.7438L84.3841 0.630219C81.2646 -0.208531 77.9791 -0.210097 74.8588 0.62568C71.7385 1.46146 68.8937 3.10504 66.6111 5.39075C64.3285 7.67646 62.6888 10.5235 61.8573 13.645C61.0257 16.7664 61.0318 20.0519 61.8748 23.1702L45.7048 39.573L29.3571 23.2376C28.2084 22.0892 27.5628 20.5315 27.5625 18.9072V18.4723C27.5626 17.497 27.3298 16.5357 26.8834 15.6685C26.437 14.8013 25.79 14.0533 24.9961 13.4866L6.125 0.0054689ZM65.2067 65.2122C65.4912 64.927 65.8292 64.7007 66.2012 64.5464C66.5733 64.392 66.9722 64.3125 67.375 64.3125C67.7778 64.3125 68.1767 64.392 68.5488 64.5464C68.9208 64.7007 69.2588 64.927 69.5433 65.2122L87.9183 83.5872C88.203 83.872 88.4289 84.21 88.583 84.582C88.7371 84.954 88.8164 85.3528 88.8164 85.7555C88.8164 86.1581 88.7371 86.5569 88.583 86.9289C88.4289 87.3009 88.203 87.639 87.9183 87.9237C87.6335 88.2085 87.2955 88.4343 86.9234 88.5884C86.5514 88.7425 86.1527 88.8218 85.75 88.8218C85.3473 88.8218 84.9486 88.7425 84.5766 88.5884C84.2045 88.4343 83.8665 88.2085 83.5817 87.9237L65.2067 69.5487C64.9215 69.2642 64.6953 68.9263 64.5409 68.5542C64.3865 68.1822 64.307 67.7833 64.307 67.3805C64.307 66.9776 64.3865 66.5788 64.5409 66.2067C64.6953 65.8346 64.9215 65.4967 65.2067 65.2122ZM18.375 67.3805L21.2599 68.8627L24.5 69.022L26.2579 71.7476L28.9835 73.5055L29.1427 76.7456L30.625 79.6305L29.1427 82.5153L28.9835 85.7555L26.2579 87.5133L24.5 90.239L21.2599 90.3982L18.375 91.8805L15.4901 90.3982L12.25 90.239L10.4921 87.5133L7.7665 85.7555L7.60725 82.5153L6.125 79.6305L7.60725 76.7456L7.7665 73.5055L10.4921 71.7476L12.25 69.022L15.4901 68.8627L18.375 67.3805Z" fill="white"/>
</svg>
