<svg width="122" height="86" viewBox="0 0 122 86" fill="none" xmlns="http://www.w3.org/2000/svg">
<path d="M36.6 43C48.3997 43 57.95 33.3826 57.95 21.5C57.95 9.61741 48.3997 0 36.6 0C24.8003 0 15.25 9.61741 15.25 21.5C15.25 33.3826 24.8003 43 36.6 43ZM51.24 49.1429H49.6578C45.6928 51.0625 41.2894 52.2143 36.6 52.2143C31.9106 52.2143 27.5262 51.0625 23.5422 49.1429H21.96C9.83625 49.1429 0 59.0482 0 71.2571V76.7857C0 81.8728 4.09844 86 9.15 86H64.05C69.1016 86 73.2 81.8728 73.2 76.7857V71.2571C73.2 59.0482 63.3637 49.1429 51.24 49.1429ZM91.5 43C101.603 43 109.8 34.7455 109.8 24.5714C109.8 14.3973 101.603 6.14286 91.5 6.14286C81.3969 6.14286 73.2 14.3973 73.2 24.5714C73.2 34.7455 81.3969 43 91.5 43ZM100.65 49.1429H99.9256C97.2759 50.0643 94.4737 50.6786 91.5 50.6786C88.5262 50.6786 85.7241 50.0643 83.0744 49.1429H82.35C78.4613 49.1429 74.8775 50.2754 71.7322 52.0991C76.3834 57.1478 79.3 63.8473 79.3 71.2571V78.6286C79.3 79.0509 79.2047 79.454 79.1856 79.8571H112.85C117.902 79.8571 122 75.7299 122 70.6429C122 58.7603 112.45 49.1429 100.65 49.1429Z" fill="white"/>
</svg>
