<svg width="87" height="109" viewBox="0 0 87 109" fill="none" xmlns="http://www.w3.org/2000/svg">
<path d="M8.568 20.475L11.97 34.965L8.568 49.392L21.231 57.204L28.98 69.867L43.47 66.465L57.96 69.867L65.709 57.204L78.372 49.392L74.97 34.965L78.372 20.475L65.772 12.663L57.96 0L43.47 3.465L29.043 0.0629999L21.168 12.663L8.568 20.475ZM43.533 60.417C36.8495 60.417 30.4398 57.762 25.7139 53.0361C20.988 48.3102 18.333 41.9005 18.333 35.217C18.333 28.5335 20.988 22.1238 25.7139 17.3979C30.4398 12.672 36.8495 10.017 43.533 10.017C57.393 10.017 68.67 21.294 68.67 35.154C68.67 49.14 57.393 60.417 43.533 60.417ZM43.407 54.117C32.949 54.117 24.57 45.675 24.57 35.217C24.57 24.822 32.949 16.317 43.407 16.317C53.865 16.317 62.37 24.822 62.37 35.217C62.37 45.675 53.865 54.117 43.407 54.117ZM67.599 61.047L59.535 75.159L46.431 72.198L62.37 108.927L71.19 95.067H86.94L67.599 61.047ZM19.089 61.488L26.964 75.663L40.383 72.45L24.57 108.927L15.75 95.067H0L19.089 61.488Z" fill="white"/>
</svg>
