<svg width="80" height="104" viewBox="0 0 80 104" fill="none" xmlns="http://www.w3.org/2000/svg">
<path d="M0 0V104H34.2857V83.7778H45.7143V104H80V0H0ZM11.4286 11.5556H22.8571V23.1111H11.4286V11.5556ZM34.2857 11.5556H45.7143V23.1111H34.2857V11.5556ZM57.1429 11.5556H68.5714V23.1111H57.1429V11.5556ZM11.4286 34.6667H22.8571V46.2222H11.4286V34.6667ZM34.2857 34.6667H45.7143V46.2222H34.2857V34.6667ZM57.1429 34.6667H68.5714V46.2222H57.1429V34.6667ZM11.4286 57.7778H22.8571V69.3333H11.4286V57.7778ZM34.2857 57.7778H45.7143V69.3333H34.2857V57.7778ZM57.1429 57.7778H68.5714V69.3333H57.1429V57.7778ZM11.4286 80.8889H22.8571V92.4444H11.4286V80.8889ZM57.1429 80.8889H68.5714V92.4444H57.1429V80.8889Z" fill="white"/>
</svg>
